<svg width="90" height="61" viewBox="0 0 90 61" fill="none" xmlns="http://www.w3.org/2000/svg">
  <path
    d="M45.3919 32.3325C47.6488 32.3325 48.8581 31.3344 49.5935 30.1952L49.5527 30.3684C49.3396 31.4365 50.2288 32.0912 51.0654 32.0912H51.7911L53.8088 20.6158H51.3106L50.9779 22.3659C50.5265 21.4622 49.254 20.3775 47.1965 20.3775C43.564 20.3775 41.4111 23.3699 41.0502 26.5578C40.6377 30.202 42.991 32.3325 45.3919 32.3325ZM47.5564 22.2482C51.7425 22.4807 50.3796 30.4803 46.1244 30.2439C42.276 30.0298 43.4725 22.0206 47.5564 22.2482ZM13.1185 19.8405C13.1185 17.245 11.4511 16.0368 8.52387 16.0368C6.72415 16.0368 3.89032 16.0319 2.85718 16.0319L0 32.0912C0.353135 32.0912 3.44282 32.0903 5.18806 32.0893C6.37296 32.0893 7.50241 32.0504 8.13863 31.9171C11.0493 31.3023 12.2303 29.1854 12.4648 27.6328C12.7897 25.4829 11.4326 24.0616 9.89069 23.7172C11.0483 23.4672 13.1185 22.2735 13.1185 19.8405ZM7.03156 30.1193C6.70567 30.1981 6.18618 30.2419 5.09954 30.2419H3.21129L4.16563 24.8573H6.96541C10.6602 24.8573 10.3236 29.3022 7.03156 30.1193ZM8.12988 22.7979C7.77382 22.9156 7.30006 22.9487 6.43814 22.9487H4.50514L5.41181 17.8102H7.94115C10.9754 17.8102 10.738 21.9398 8.12988 22.7979ZM24.1455 20.6265H23.3993C23.3993 20.6265 22.299 26.9324 22.1755 27.6503C21.9089 29.1952 21.1647 30.2526 19.0722 30.2526C17.8844 30.2526 16.7238 29.5337 16.9952 27.9237C17.1022 27.3011 17.8902 22.7191 17.9573 22.3494C18.1772 21.11 17.1217 20.6265 16.251 20.6265H15.5914C15.4299 21.5848 14.7052 25.6161 14.4299 27.196C14.317 27.8313 14.2762 28.4762 14.3248 28.8946C14.5719 31.0348 16.4524 32.3413 18.7784 32.3413C22.7932 32.3413 24.3031 30.2439 24.7836 27.7505C24.9412 26.9295 25.702 22.7687 25.7613 22.3494C25.9354 21.11 24.914 20.6265 24.1455 20.6265ZM28.277 36.6197L29.4415 30.2896C29.8939 31.1933 31.1848 32.3413 33.2433 32.3413C36.9478 32.3413 39.2407 29.45 39.4703 26.0636C39.7155 22.4642 37.6006 20.3921 35.1481 20.3921C33.0215 20.3921 31.571 21.4272 30.8326 22.5041L30.8638 22.3494C31.0982 21.2423 30.1536 20.6265 29.352 20.6265H28.5582C28.5582 20.6265 26.3985 32.9785 26.1028 34.4649C25.7526 36.2131 27.1719 36.6197 27.6204 36.6197H28.277ZM34.3163 22.4496C38.1638 22.6646 36.9673 30.6962 32.8824 30.4696C28.6983 30.238 30.0573 22.2152 34.3163 22.4496ZM88.1368 36.9213C87.0647 36.9213 85.6055 36.86 84.7348 36.5633C83.7075 36.2112 82.8008 35.5127 81.8406 34.7743C81.3591 34.4056 80.862 34.0204 80.324 33.6643C79.6693 33.2294 79.1245 33.0261 78.605 33.0261C77.9046 33.0261 77.2236 33.4065 76.3948 34.2606C75.2751 35.4134 73.4899 38.0303 72.7769 39.1014C72.7302 39.1676 72.6699 39.2415 72.5794 39.2415C72.4043 39.2415 72.4004 39.0129 72.4004 38.938C72.3654 35.9427 71.8955 19.5973 71.5676 14.7166C71.4227 12.5579 70.7524 11.2174 69.8175 11.2174C69.0665 11.2174 67.941 12.2165 67.2366 15.0328C65.4437 22.2006 61.6196 38.1373 59.9755 46.2322C59.9268 46.455 59.6759 46.453 59.6301 46.2322C59.4463 45.4043 59.2848 44.4656 59.1301 43.6746C58.6388 41.1784 58.2137 39.0216 57.3761 37.8358C56.4188 36.4874 55.0063 36.4028 53.2932 37.5381C52.9147 37.7891 52.5509 38.1023 52.1666 38.435C51.0664 39.3806 49.8241 40.4556 47.7588 40.4556H27.5737L27.0785 43.1308H48.3182C50.4895 43.1308 52.5032 41.8808 53.7066 41.0179C54.3166 40.5801 54.7388 40.3262 55.0773 40.3262C55.5433 40.3262 55.7525 40.8 55.9256 41.5121C56.0112 41.8613 56.1153 42.3438 56.233 42.9013C56.6358 44.7496 57.2399 47.6632 58.0065 49.6001C58.3655 50.5019 58.8947 51 59.5008 51C60.4288 51 61.3764 49.9027 61.9104 48.2041C62.6264 45.9404 66.9214 27.3332 68.7328 19.5399C68.8077 19.2208 68.8476 19.0399 68.8515 19.0262C68.8836 18.8891 68.9751 18.7976 69.0831 18.7976C69.1774 18.7976 69.2835 18.8784 69.2873 19.0545L69.2893 19.0846C69.4274 26.9703 69.8195 40.8184 70.4061 42.2407C70.73 43.0267 71.2271 43.4431 71.8449 43.4431C72.5599 43.4431 73.4189 42.8672 74.0299 41.9761C74.3373 41.5286 74.7293 40.943 75.1447 40.3262C76.1701 38.8018 77.3326 37.077 77.675 36.7083C78.1867 36.1654 78.7743 36.1645 79.61 36.7345C79.7316 36.8162 79.8765 36.9213 80.0458 37.0439C80.9369 37.6898 82.4273 38.579 84.1015 39.0401C85.2115 39.3446 86.6405 39.4088 87.6416 39.4088C88.2885 39.4088 88.9763 39.3826 89.1767 39.3699L89.6368 36.8902C89.3946 36.9019 88.7419 36.9213 88.1368 36.9213Z"
    fill="#5C5C5C" />
</svg>
