<svg width="196" height="61" viewBox="0 0 196 61" fill="none" xmlns="http://www.w3.org/2000/svg">
  <path fill-rule="evenodd" clip-rule="evenodd"
    d="M17.7383 28.3383C17.9958 28.3383 23.1421 28.3383 23.1421 28.3383V23.9561C23.1421 23.9561 17.9919 23.9561 17.7383 23.9561C17.7383 23.734 17.7383 22.4012 17.7383 22.179C17.9958 22.179 23.1421 22.179 23.1421 22.179V17.7969H12.4375V33.4595H17.7343C17.7383 33.4595 17.7383 28.5967 17.7383 28.3383Z"
    fill="#5C5C5C" />
  <path fill-rule="evenodd" clip-rule="evenodd"
    d="M36.7864 28.9682C36.7864 28.9682 30.5863 28.9682 30.3248 28.9682C30.3248 28.6976 30.3248 17.8008 30.3248 17.8008H24.9844V33.4634H36.7864V28.9682Z"
    fill="#5C5C5C" />
  <path d="M43.9714 17.7969H38.4844V33.4595H43.9714V17.7969Z" fill="#5C5C5C" />
  <path fill-rule="evenodd" clip-rule="evenodd"
    d="M54.2993 33.6624C56.7833 33.6624 59.2673 32.895 61.1056 31.5622L61.165 31.5218V24.7002H54.6321V28.113C54.6321 28.113 56.0425 28.113 56.2683 28.113C56.2683 28.2947 56.2683 28.743 56.2683 28.8723C56.2049 28.8965 56.1375 28.9248 56.1375 28.9248C55.3967 29.2277 55.0599 29.3691 54.2359 29.3691C51.3636 29.3691 50.191 28.323 50.191 25.7624C50.191 22.9029 51.3874 21.8891 54.7668 21.8891C56.4782 21.8891 58.368 22.3415 60.0874 23.1614L60.5232 23.3633V18.9044L60.44 18.8681C59.509 18.4642 59.1485 18.3228 58.3839 18.1168C57.1953 17.7776 55.7968 17.5918 54.4538 17.5918C48.9192 17.5918 45.2031 20.8188 45.2031 25.6251C45.2031 30.3586 48.947 33.6624 54.2993 33.6624Z"
    fill="#5C5C5C" />
  <path fill-rule="evenodd" clip-rule="evenodd"
    d="M67.5173 28.0475C67.7669 28.0475 72.3467 28.0475 72.5963 28.0475C72.5963 28.31 72.5963 33.4595 72.5963 33.4595H77.7188V17.7969H72.5963C72.5963 17.7969 72.5963 22.902 72.5963 23.1645C72.3467 23.1645 67.7669 23.1645 67.5173 23.1645C67.5173 22.902 67.5173 17.7969 67.5173 17.7969H62.375V33.4595H67.5173C67.5173 33.4595 67.5173 28.31 67.5173 28.0475Z"
    fill="#5C5C5C" />
  <path fill-rule="evenodd" clip-rule="evenodd"
    d="M83.6473 33.4595H89.3483C89.3483 33.4595 89.3483 22.5869 89.3483 22.3204C89.6018 22.3204 93.9954 22.3204 93.9954 22.3204V17.7969H78.9844V22.3204C78.9844 22.3204 83.3978 22.3204 83.6513 22.3204C83.6473 22.5869 83.6473 33.4595 83.6473 33.4595Z"
    fill="#5C5C5C" />
  <path fill-rule="evenodd" clip-rule="evenodd"
    d="M148.198 33.4595H153.899C153.899 33.4595 153.899 22.5869 153.899 22.3204C154.153 22.3204 158.546 22.3204 158.546 22.3204V17.7969H143.531V22.3204C143.531 22.3204 147.945 22.3204 148.198 22.3204C148.198 22.5869 148.198 33.4595 148.198 33.4595Z"
    fill="#5C5C5C" />
  <path fill-rule="evenodd" clip-rule="evenodd"
    d="M106.773 33.6008C108.968 33.6008 110.75 33.1404 112.739 32.062L112.811 32.0217V28.415L112.795 27.0579L112.565 27.2922C112.549 27.3083 110.798 29.0895 108.12 29.2227C106.08 29.3197 104.788 28.3786 104.198 27.8051C103.493 27.1225 103.073 26.2825 103.073 25.5555C103.073 24.0894 104.594 21.9205 107.858 21.9205C110.006 21.9205 111.404 22.4173 112.395 23.532L112.628 23.7945V19.0247L112.565 18.9843C112.078 18.6773 111.868 18.5885 111.262 18.3663C109.788 17.813 108.698 17.6191 107.098 17.6191C105.204 17.6191 103.544 17.9867 102.169 18.7137C99.4912 20.1111 97.8906 22.7081 97.8906 25.6564C97.8946 30.3334 101.547 33.6008 106.773 33.6008Z"
    fill="#5C5C5C" />
  <path fill-rule="evenodd" clip-rule="evenodd"
    d="M125.511 29.5066C125.511 29.5066 119.533 29.5066 119.275 29.5066C119.275 29.2845 119.275 27.9517 119.275 27.7336C119.533 27.7336 125.024 27.7336 125.024 27.7336V23.7715C125.024 23.7715 119.529 23.7715 119.275 23.7715C119.275 23.5453 119.275 21.9904 119.275 21.7642C119.533 21.7642 125.356 21.7642 125.356 21.7642V17.8223H114.141V33.4082H125.511V29.5066Z"
    fill="#5C5C5C" />
  <path fill-rule="evenodd" clip-rule="evenodd"
    d="M186.843 29.5066C186.843 29.5066 180.861 29.5066 180.603 29.5066C180.603 29.2845 180.603 27.9517 180.603 27.7336C180.861 27.7336 186.356 27.7336 186.356 27.7336V23.7715C186.356 23.7715 180.861 23.7715 180.603 23.7715C180.603 23.5453 180.603 21.9904 180.603 21.7642C180.861 21.7642 186.688 21.7642 186.688 21.7642V17.8223H175.469V33.4082H186.843V29.5066Z"
    fill="#5C5C5C" />
  <path fill-rule="evenodd" clip-rule="evenodd"
    d="M131.821 25.8395C132.261 26.3524 138.326 33.4002 138.326 33.4002H142.712V17.8184H137.68C137.68 17.8184 137.68 24.8177 137.68 25.5083C137.237 24.9631 131.444 17.8184 131.444 17.8184H126.766V33.4043H131.825C131.821 33.4043 131.821 26.5059 131.821 25.8395Z"
    fill="#5C5C5C" />
  <path fill-rule="evenodd" clip-rule="evenodd"
    d="M164.361 27.4347C164.512 27.4347 164.777 27.4347 164.777 27.4347C165.443 27.4347 165.51 27.4347 165.823 27.5195C166.405 27.6851 166.599 28.1415 167.071 29.232L167.21 29.5511L167.78 30.8556L168.224 31.8451C168.224 31.8411 168.509 32.5358 168.509 32.5358C168.513 32.5398 168.909 33.4364 168.909 33.4364H174.67L174.483 32.972C174.479 32.9639 174.083 32.1117 174.083 32.1117L173.62 31.0818C173.62 31.0778 173.223 30.2256 173.223 30.2256L172.629 28.925C171.964 27.4226 171.33 26.7845 170.613 26.3725C170.949 26.1706 171.199 25.9444 171.397 25.7344L171.738 25.4032C172.586 24.6358 173.065 23.5251 173.065 22.3579C173.065 20.8918 172.269 19.4176 171.041 18.6058C170.042 17.9798 169.214 17.8223 167.019 17.8223H159.5V33.4082H164.369C164.361 33.4041 164.361 27.6972 164.361 27.4347ZM164.361 21.4209C164.595 21.4209 166.12 21.4209 166.12 21.4209C167.554 21.4209 167.994 21.7278 167.994 22.7335C167.994 23.6019 167.519 24.038 166.54 24.0582C166.536 24.0582 166.076 24.0825 166.076 24.0825C166.073 24.0825 165.783 24.1027 165.783 24.1027C165.783 24.1027 164.587 24.1027 164.365 24.1027C164.361 23.8644 164.361 21.6592 164.361 21.4209Z"
    fill="#5C5C5C" />
  <path
    d="M104.764 35.4992C104.649 34.6066 103.013 34.4128 101.524 34.5501L99.4119 34.8126L93.6278 29.8327C92.99 29.2269 92.7721 29.2107 91.7182 29.3561L91.635 29.3682L95.6443 35.584C94.4518 35.8304 92.5462 36.2181 91.1715 36.4039L91.0883 36.416L89.1273 34.8853L87.7684 35.1963L89.6066 37.2803C-1.63231 42.236 5.02739 34.1623 11.5484 28.3585C11.802 28.1324 11.5484 28.0273 11.5484 28.0273C5.87916 30.7253 -8.81891 40.8749 29.0316 41.2869C62.7817 41.6544 84.7258 38.908 89.6621 38.2173L88.5132 40.6568L89.8523 40.5397L91.3736 38.5162L93.5723 38.2416C94.5667 38.1083 95.7592 38.0316 95.886 38.0154L95.9692 38.0033L93.5882 45.5115C94.646 45.3701 94.9154 45.3096 95.3947 44.5301L99.7725 37.66L102.007 37.3167C103.584 37.0218 104.871 36.3514 104.764 35.4992Z"
    fill="#5C5C5C" />
</svg>
