<svg width="92" height="61" viewBox="0 0 92 61" fill="none" xmlns="http://www.w3.org/2000/svg">
  <path
    d="M8.54203 32.0054H2.08306C3.10214 45.5962 21.8589 56.4557 45.0054 56.7042V54.6089C35.5581 54.4535 26.6732 52.1304 19.9091 48.0229C12.9584 43.8117 8.956 38.1569 8.54203 32.0054ZM72.0777 48.0329C65.2258 52.1928 56.2225 54.5259 46.6396 54.6195V56.7042C69.8072 56.4557 88.5746 45.6018 89.5931 32.0054H83.4548C83.0308 38.1569 79.0284 43.8117 72.0777 48.0329ZM83.4753 30.3863H89.6242C89.2108 16.464 70.1901 5.21631 46.6296 4.9679V7.27036C56.2014 7.37396 65.2203 9.69646 72.0677 13.8564C79.2245 18.1867 83.2586 24.0375 83.4753 30.3863ZM19.9297 13.8514C26.6987 9.74325 35.5781 7.42018 45.0266 7.26535V4.96289C21.4861 5.22132 2.47647 16.464 2.0625 30.3863H8.53203C8.75985 24.0381 12.7828 18.1867 19.9297 13.8514Z"
    fill="#5C5C5C" />
  <path
    d="M71.705 43.675C71.705 42.9698 71.2904 42.4842 70.4225 42.2057C69.9046 42.0308 69.2323 41.8944 68.6966 41.7908C68.495 41.7554 68.2945 41.7138 68.0954 41.666C67.8259 41.6042 67.5475 41.5123 67.5475 41.2099C67.5475 41.0027 67.7431 40.7866 68.3027 40.7866C68.7377 40.7866 68.9861 40.952 69.025 41.2722H71.4771C71.4271 40.1639 70.3697 39.6069 68.3438 39.6069C66.2445 39.6069 65.0337 40.2797 65.0337 41.4499C65.0337 42.2469 65.4894 42.7031 66.5023 42.9403L68.5722 43.4382C68.7055 43.4678 69.1317 43.5719 69.1317 43.9239C69.1317 44.2559 68.8 44.4931 68.3471 44.4931C68.0687 44.4931 67.8498 44.4218 67.7164 44.2765C67.6125 44.1729 67.562 44.0275 67.5414 43.8532H64.9148C64.977 45.343 66.7568 45.6633 68.2465 45.6633C69.5312 45.6427 71.705 45.382 71.705 43.675ZM61.1541 45.4851V41.1714H62.9756V39.7523H56.5822V41.1714H58.4036V45.4884H61.1541V45.4856V45.4851ZM50.4821 40.9225H50.8344C51.3734 40.9225 51.8679 40.9938 51.8679 41.5329C51.8679 41.8442 51.6812 42.2174 50.8139 42.2174H50.4821V40.9225ZM54.7313 45.4856C54.5568 44.9788 54.4829 44.4931 54.4323 44.0988C54.3906 43.8086 54.3612 43.5597 54.299 43.3636C54.1656 42.9403 53.7927 42.712 53.1293 42.6708L53.0465 42.6618V42.4959L53.1176 42.487C54.0678 42.3004 54.5034 41.8854 54.5034 41.1625C54.5034 40.1906 53.76 39.7551 52.0724 39.7551H47.7905V45.4884H50.4794V43.3876H50.9028C51.3262 43.3876 51.6162 43.4711 51.699 43.8649C51.7285 43.9985 51.749 44.155 51.7824 44.3093C51.8529 44.712 51.9268 45.1687 52.0396 45.4884L54.7313 45.4856ZM42.4662 42.6201C42.4662 43.998 42.1139 44.2765 41.5988 44.2765C41.0709 44.2765 40.7309 43.998 40.7309 42.6201C40.7309 41.2427 41.0832 40.9637 41.5983 40.9637C42.1139 40.9637 42.4662 41.2422 42.4662 42.6201ZM45.3206 42.6201C45.3206 40.6941 43.9648 39.598 41.5988 39.598C39.2328 39.598 37.8759 40.6941 37.8759 42.6201C37.8759 44.546 39.2328 45.6427 41.5988 45.6427C43.9559 45.6427 45.3206 44.5343 45.3206 42.6201ZM31.7909 40.9225H32.1854C32.6288 40.9225 33.1473 40.9938 33.1473 41.607C33.1473 42.2586 32.5049 42.3299 32.0193 42.3299H31.7914V40.9225H31.7909ZM31.7909 45.4856V43.4973H32.8361C34.7287 43.4973 35.7739 42.8245 35.7739 41.6036C35.7739 40.4452 34.832 39.7523 33.2389 39.7523H29.0282V45.4851H31.7909V45.4856ZM26.6088 43.6755C26.6088 42.9698 26.1943 42.4836 25.3269 42.2051C24.8085 42.0308 24.1361 41.8944 23.6005 41.7819C23.3989 41.7465 23.1984 41.7049 22.9993 41.6571C22.7298 41.5953 22.4514 41.5034 22.4514 41.201C22.4514 40.9938 22.647 40.7777 23.2071 40.7777C23.6416 40.7777 23.8905 40.9431 23.9294 41.2633H26.381C26.331 40.155 25.2736 39.598 23.2482 39.598C21.1484 39.598 19.9376 40.2708 19.9376 41.441C19.9376 42.238 20.3932 42.6942 21.4062 42.9314L23.4849 43.4293C23.6183 43.4589 24.0445 43.563 24.0445 43.915C24.0445 44.2469 23.7127 44.4842 23.2599 44.4842C22.982 44.4842 22.7626 44.4129 22.6292 44.2676C22.5253 44.164 22.4753 44.0186 22.4542 43.8443H19.8281C19.8898 45.3341 21.6696 45.6544 23.1593 45.6544C24.4384 45.6427 26.6088 45.3815 26.6088 43.675V43.6755ZM44.451 33.3367C43.4675 33.3367 42.6618 32.5191 42.6618 31.5144V22.7061C42.6618 21.7013 43.4586 20.7918 44.451 20.7918C45.434 20.7918 46.3136 21.6924 46.3136 22.7061V31.545C46.3136 32.5403 45.434 33.3373 44.451 33.3373V33.3367ZM44.421 37.867C50.2338 37.867 54.9507 33.0549 54.9507 27.1144C54.9507 21.1734 50.2338 16.3618 44.421 16.3618C38.6083 16.3618 33.8913 21.1739 33.8913 27.1144C33.8913 33.0549 38.6083 37.867 44.421 37.867ZM71.7972 38.116L65.1465 26.6371L71.1871 16.0594H64.527L61.7642 20.8214L59.0432 16.0594H52.1436L58.3086 26.7084L51.7824 38.1249H58.4836L61.6786 32.5364L64.9059 38.116H71.7966H71.7972ZM20.3404 38.1488V16.0332H33.6512L34.0658 22.0779H26.621V24.9668H32.6911V30.9986H26.5794V38.1516H20.3399V38.1488H20.3404Z"
    fill="#5C5C5C" />
</svg>
