<svg width="297" height="61" viewBox="0 0 297 61" fill="none" xmlns="http://www.w3.org/2000/svg">
  <path
    d="M85.0062 40.3527V36.295C85.3844 35.9458 85.8642 35.726 86.3759 35.6673C88.3294 35.1965 90.732 34.636 91.967 34.4118C92.9216 34.2682 93.8665 34.0661 94.7962 33.8066C95.1175 33.7036 95.4629 33.7036 95.7842 33.8066C95.7541 33.9277 95.7007 34.042 95.627 34.1428C94.7738 35.4655 92.461 38.8731 89.5869 42.7066L86.331 46.6074C86.2494 46.7464 86.1335 46.8622 85.9942 46.9436C85.9317 46.8174 85.8936 46.6805 85.8819 46.5401C85.6799 45.0605 85.1185 42.0565 85.0736 40.3303L85.0062 40.3527ZM83.7713 31.4751C83.5226 32.7004 82.856 33.8016 81.8851 34.5912C80.4497 36.1105 78.7731 37.3831 76.9228 38.3575C76.5389 38.574 76.1062 38.6897 75.6654 38.6937V38.5144L76.1144 37.8867L76.9677 36.6761C77.3689 36.1479 77.8039 35.6462 78.27 35.1741C79.2 34.2138 80.2314 33.3569 81.3462 32.6184C82.5138 31.8113 82.8956 31.5871 83.2997 31.5423H83.6141L83.7713 31.4751ZM58.9146 34.4791L60.6211 32.7081C60.9724 32.3923 61.3848 32.1519 61.8327 32.0015C62.2807 31.8511 62.7548 31.794 63.2258 31.8337C63.8994 31.8337 64.2587 32.1476 64.5506 32.9995C64.8425 33.8514 64.2362 34.3894 63.7872 35.1292L63.6524 35.3758C63.1276 36.1423 62.456 36.7975 61.6765 37.3038C61.0968 37.7396 60.4424 38.0662 59.7454 38.2678L58.9146 38.5816C58.3883 38.8507 57.7828 38.9222 57.2081 38.7834H56.6917C56.693 38.5431 56.7467 38.306 56.8489 38.0884L57.4327 36.8106L57.6347 36.4071C57.815 36.135 58.0525 35.9055 58.3308 35.7345C58.459 35.6431 58.5629 35.5218 58.6333 35.3811C58.7038 35.2404 58.7387 35.0847 58.735 34.9275L58.8922 34.7481L58.9146 34.4791ZM87.4088 16.9705C87.3044 17.0539 87.2199 17.1597 87.1617 17.2799C87.1034 17.4001 87.0728 17.5319 87.072 17.6654C87.1365 18.0608 87.29 18.4364 87.5211 18.7639L87.7456 19.1899C87.9958 19.579 88.2064 19.992 88.3744 20.4229C88.31 20.8464 88.31 21.2772 88.3744 21.7007V23.4269C88.4256 23.9859 88.302 24.5469 88.0205 25.0328C87.739 25.5186 87.3134 25.9053 86.8026 26.1395C85.0344 27.155 83.1286 27.9101 81.1441 28.3813L80.7849 28.4934C79.8481 28.8744 78.8676 29.138 77.8659 29.2781L76.339 29.5023C75.1568 29.7413 73.9524 29.854 72.7463 29.8385H71.3317C69.8133 29.9987 68.2783 29.8148 66.8409 29.3005C66.7232 29.2457 66.6166 29.1697 66.5265 29.0763C66.5265 28.8745 67.1104 28.3813 67.3124 28.2244L67.4696 28.0899L68.3902 27.4846L69.6028 26.6551C69.7599 26.543 70.2315 26.1619 70.0069 25.6912C69.7824 25.2204 69.5578 25.1755 68.278 25.4894C67.7272 25.6568 67.2049 25.9062 66.7286 26.2292L65.7407 26.7672C65.2179 27.0386 64.6445 27.1989 64.0566 27.238H63.2932C62.5534 27.4148 61.882 27.8046 61.3621 28.3589C61.0562 28.739 60.8412 29.1837 60.7334 29.6592L60.4864 30.2645L59.6556 31.1836L58.9146 31.9458C57.6779 33.172 56.6129 34.5596 55.7486 36.0708C55.4006 36.8363 55.1225 37.6317 54.9178 38.4471C54.8122 38.6992 54.7578 38.9697 54.7578 39.243C54.7578 39.5162 54.8122 39.7867 54.9178 40.0388C55.2322 40.5544 55.816 40.7114 56.6468 40.8683C58.4032 41.076 60.1753 40.6376 61.6316 39.6353C63.4321 38.182 64.9864 36.4485 66.2346 34.5015L67.0205 33.0219C67.2226 32.5735 67.29 32.4166 67.6268 32.2149C68.254 31.9597 68.9254 31.8302 69.6028 31.8337L71.3093 31.5871L75.8001 30.8025L76.8779 30.6456L79.1233 30.1972C79.5989 30.0332 80.1041 29.972 80.6052 30.0179C80.3887 30.2927 80.1563 30.5547 79.9092 30.8025L78.4497 32.0355L76.2042 33.7841C74.9735 34.6229 74.0324 35.8209 73.5098 37.2141L73.1056 38.066C72.8609 38.5615 72.7305 39.1053 72.7239 39.6577C72.7175 39.9829 72.7867 40.3052 72.926 40.5993C73.0946 40.9123 73.3314 41.1835 73.619 41.393C73.9066 41.6025 74.2376 41.745 74.5876 41.8099C75.5151 41.9524 76.4633 41.8723 77.3536 41.576C78.244 41.2797 79.0507 40.7758 79.7071 40.1061C80.69 38.9567 81.8777 37.999 83.2099 37.2814C83.2177 37.4008 83.2177 37.5206 83.2099 37.6401C83.2801 37.8652 83.3179 38.0992 83.3222 38.335V40.3527L83.5467 47.2127V48.6026C83.5467 49.9925 83.7039 50.8444 84.2653 51.3376L84.8042 51.4721C85.3431 51.4721 85.8595 50.822 87.0496 49.2303L87.7456 48.3111C88.6925 47.1454 89.5483 45.9088 90.3054 44.6121C91.5086 42.8078 92.8209 41.0784 94.2349 39.4335L94.3696 39.2318L95.0657 38.3799L96.121 37.0124C96.8562 36.051 97.7085 35.185 98.6583 34.4343L100.028 33.2013C101.586 31.6676 103.443 30.4696 105.484 29.6816C106.859 29.1019 108.288 28.6588 109.751 28.3589C109.908 28.2818 110.081 28.2416 110.256 28.2416C110.431 28.2416 110.604 28.2818 110.761 28.3589C110.836 28.5125 110.876 28.6812 110.876 28.8521C110.876 29.0231 110.836 29.1918 110.761 29.3453C110.468 30.1035 110.075 30.8197 109.593 31.4751L108.538 33.1564C107.195 35.4874 105.981 37.8897 104.901 40.3527C104.384 41.5857 104.249 42.4376 105.103 43.0204C105.956 43.6033 106.899 42.5272 109.032 40.4199L109.863 39.568C112.108 37.3262 116.734 32.6632 118.575 31.1164C120.284 29.7166 122.092 28.4429 123.986 27.3053C124.46 27.0982 124.853 26.7445 125.109 26.2964C125.289 26.2964 125.468 26.0947 125.468 25.8481V25.6912C125.311 25.2204 124.952 25.31 124.031 25.5566H123.739C122.096 25.9665 120.563 26.7318 119.249 27.7985C117.183 29.2781 115.319 30.5111 113.725 31.4751C113.577 31.5781 113.409 31.647 113.231 31.6768V31.3854L113.77 30.3766C114.194 29.7252 114.519 29.0152 114.735 28.2692C114.938 26.2292 113.164 25.8929 112.31 25.736C110.82 25.7712 109.347 26.0593 107.954 26.5879L107.101 26.8345H106.719C106.944 26.543 107.617 25.9153 108.403 25.1755L110.649 22.9337C112.092 21.4175 113.913 20.3112 115.925 19.7279C116.981 19.3916 118.171 19.414 118.351 19.7279C118.849 20.1583 119.488 20.3898 120.147 20.378H120.282C120.566 20.2167 120.808 19.9904 120.987 19.7176C121.167 19.4447 121.279 19.1333 121.314 18.8088C121.314 18.2259 120.843 17.7103 119.99 17.2843C118.933 16.8293 117.78 16.6404 116.633 16.7342C115.486 16.828 114.379 17.2017 113.411 17.8224H113.209L111.412 18.9433L110.424 19.6158C109.851 19.9339 109.323 20.3259 108.852 20.7816L107.775 21.8801L105.709 23.7408L102.431 26.9017C100.887 28.6154 99.0266 30.016 96.9518 31.0267C95.1628 31.8855 93.2676 32.5036 91.3158 32.865C90.5789 33.033 89.8263 33.1232 89.0704 33.134H88.06C87.072 33.134 86.5331 33.134 86.4658 32.9322L86.8026 32.439C87.7754 31.09 88.6389 29.6657 89.3848 28.1796C90.4373 26.3277 90.9869 24.2334 90.979 22.1042C90.9775 20.8794 90.757 19.6647 90.3279 18.5173C90.1189 17.8572 89.7208 17.2726 89.1827 16.836C88.9293 16.6485 88.6136 16.565 88.3005 16.6025C87.9874 16.6401 87.7005 16.7958 87.4986 17.0377L87.4088 16.9705ZM128.477 31.2509L130.004 29.7489C130.783 28.9148 131.702 28.2242 132.721 27.7088L133.485 27.3053C133.548 27.2754 133.617 27.2598 133.687 27.2598C133.757 27.2598 133.826 27.2754 133.889 27.3053C134.068 27.3053 134.226 27.7312 134.27 27.933C134.236 28.4849 134.077 29.0218 133.805 29.5033C133.532 29.9849 133.154 30.3984 132.699 30.7128C131.147 31.766 129.464 32.6102 127.691 33.2237C127.296 33.2764 126.896 33.2764 126.501 33.2237C126.775 32.9007 127.068 32.5939 127.377 32.3045L127.669 32.0355L128.477 31.2285V31.2509ZM135.214 23.3597C134.057 23.7899 132.985 24.4197 132.048 25.2204L131.351 25.7136L129.892 26.7896L128.343 27.9106C127.035 28.9083 125.811 30.0105 124.683 31.206L124.278 31.6096L122.505 32.7529L122.19 32.9322C121.342 33.356 120.581 33.9338 119.945 34.636C119.642 35.0514 119.492 35.5579 119.518 36.0708V37.2141L119.383 37.9315C119.236 38.5642 119.154 39.2102 119.136 39.8595C119.112 40.038 119.112 40.219 119.136 40.3975V40.5769C119.136 41.0252 119.316 41.1149 119.788 41.5184L121.247 42.5945C123.043 44.3431 126.12 43.1998 127.781 42.5945C129.443 41.9892 133.889 39.5008 134.068 39.4111C134.945 38.8648 135.936 38.5273 136.965 38.4247C137.128 38.3888 137.296 38.3888 137.459 38.4247C137.461 38.462 137.461 38.4995 137.459 38.5368C137.47 38.716 137.47 38.8957 137.459 39.0748C137.435 39.3658 137.435 39.6582 137.459 39.9491C137.447 40.2715 137.505 40.5927 137.629 40.8906C137.753 41.1885 137.94 41.4562 138.177 41.6754C140.423 43.9172 142.825 42.5048 147.024 40.0164L147.81 39.568C151.152 37.5297 154.362 35.2834 157.421 32.8426C158.005 32.3796 158.666 32.0229 159.374 31.7889C159.017 33.1222 158.398 34.3716 157.555 35.4655L156.814 36.6312L152.683 42.7738C151.15 45.3895 149.048 47.6269 146.53 49.32C144.42 50.7547 142.915 50.6875 138.851 50.2391C136.119 49.759 133.541 48.6371 131.329 46.9661L130.7 46.5625C130.184 46.2711 129.802 46.2487 129.533 46.5625C129.411 46.7197 129.344 46.9129 129.344 47.1118C129.344 47.3106 129.411 47.5038 129.533 47.661C130.747 49.0409 132.209 50.1815 133.844 51.0238C135.984 51.9982 138.252 52.6625 140.58 52.9966C141.679 53.2921 142.829 53.355 143.954 53.1813C145.079 53.0075 146.155 52.601 147.114 51.9877C150.181 49.7052 152.825 46.9058 154.928 43.7154C156.545 41.4736 158.431 38.7834 160.115 36.3174C161.485 34.3222 162.675 32.5735 163.281 31.8337C164.38 30.6381 165.037 29.1038 165.145 27.4846C165.162 27.2986 165.13 27.1113 165.051 26.9419C164.972 26.7725 164.849 26.6271 164.696 26.5206C164.269 26.2516 163.798 26.5206 163.057 26.8793L162.72 27.0811C161.938 27.481 161.188 27.938 160.474 28.4486L157.6 30.4887L155.669 31.8113L149.427 35.9811C148.719 36.4801 147.967 36.9152 147.182 37.2814L145.722 38.1109C144.577 38.8965 143.274 39.4243 141.905 39.6577C141.074 39.7698 140.939 39.6577 140.939 39.6577C140.939 39.6577 141.096 38.8507 141.209 38.6041V38.3799C141.47 37.5451 141.915 36.7792 142.511 36.138L143.319 35.2189L144.959 33.5151C145.542 32.9771 149.831 28.9194 150.572 27.9106C150.711 27.753 150.798 27.557 150.822 27.3487C150.846 27.1404 150.806 26.9298 150.707 26.7448C150.594 26.5365 150.43 26.361 150.229 26.2352C150.028 26.1095 149.798 26.0379 149.562 26.0274L148.978 26.274L147.698 27.1932L147.069 27.6191C145.924 28.4038 145.228 28.8521 141.815 31.5423C138.55 34.1791 135.056 36.5199 131.374 38.5368C130.439 39.1024 129.435 39.5468 128.387 39.8595L126.412 40.3527C123.807 41.2494 123.223 40.4872 122.931 40.1285C122.639 39.7698 122.572 39.3439 122.594 39.2542C122.752 38.6265 124.054 38.1109 124.84 37.7522L125.379 37.5504L128.522 36.0035L129.465 35.5103C132.634 33.615 135.465 31.2056 137.841 28.3813L138.11 27.9106C138.743 27.1038 139.126 26.1296 139.21 25.1083C139.216 24.8422 139.161 24.5782 139.048 24.3371C138.935 24.096 138.768 23.8842 138.559 23.7183C138.071 23.4457 137.533 23.2752 136.977 23.2174C136.421 23.1596 135.859 23.2156 135.326 23.3821L135.214 23.3597ZM219.057 21.0057C218.823 21.0115 218.593 21.0687 218.383 21.1733C218.173 21.2779 217.99 21.4274 217.844 21.611C217.738 21.7238 217.659 21.8589 217.613 22.0063C217.566 22.1538 217.553 22.3098 217.575 22.4629C217.682 22.8492 217.919 23.187 218.246 23.4196C218.573 23.6523 218.971 23.7656 219.371 23.7408C219.587 23.7307 219.799 23.6757 219.992 23.5791C220.185 23.4826 220.356 23.3468 220.494 23.1803C220.605 23.0523 220.686 22.9017 220.733 22.7391C220.779 22.5766 220.79 22.4058 220.763 22.2387C220.669 21.8658 220.447 21.5378 220.135 21.3123C219.823 21.0869 219.441 20.9783 219.057 21.0057Z"
    fill="#5C5C5C" />
  <path
    d="M218.054 22.4174C218.054 21.9467 218.525 21.5431 219.087 21.5207C219.351 21.4938 219.617 21.5596 219.838 21.7068C220.059 21.8541 220.222 22.0736 220.299 22.3278C220.302 22.4533 220.28 22.5781 220.234 22.695C220.188 22.8118 220.119 22.9183 220.031 23.0081C219.943 23.0979 219.838 23.1693 219.722 23.218C219.606 23.2667 219.482 23.2918 219.356 23.2918C218.772 23.2918 218.099 22.8882 218.054 22.4174ZM198.878 14.7504L192.276 20.624C192.097 20.8257 188.28 24.2109 186.506 25.556L184.664 27.1253L182.846 28.6049C181.952 29.2428 180.958 29.7276 179.904 30.0396L178.22 30.6674C177.401 30.9129 176.638 31.3166 175.975 31.8555L175.773 32.0349C175.558 32.1494 175.391 32.3358 175.3 32.5614C175.21 32.787 175.202 33.0372 175.279 33.2679C175.593 33.9404 176.671 33.7611 177.659 33.5145C178.647 33.2679 178.984 33.3575 179.029 33.38C178.975 33.659 178.868 33.9253 178.714 34.1646C178.338 34.7189 177.893 35.2236 177.389 35.6666L176.109 36.9669C175.65 37.4102 175.377 38.0113 175.346 38.6482C175.35 39.0344 175.48 39.4088 175.714 39.7157C175.949 40.0227 176.277 40.2459 176.648 40.352C177.771 40.7556 180.263 38.6034 180.308 38.581C180.353 38.5586 180.937 37.9533 180.915 37.6618V37.2807L180.6 37.1462C180.353 37.1032 180.116 37.0117 179.904 36.8772L180.106 36.5185L180.353 36.115L181.386 34.5009C182.208 33.4994 183.276 32.7271 184.485 32.259C185.046 32.1021 190.997 30.6898 194.118 30.0172C196.544 29.4823 199.048 29.3987 201.505 29.7706C202.044 29.7706 202.403 29.9948 202.471 30.1742C202.695 30.7346 201.595 32.1918 200.697 33.3575L200.517 33.6266L198.676 35.8684L196.677 38.4913C195.772 39.6085 195.121 40.9089 194.769 42.3024C194.567 43.1767 194.454 43.5803 194.971 43.8269C195.487 44.0735 195.645 44.0959 197.553 41.7195L198.698 40.0382L199.956 38.0878C201.28 36.2719 202.718 34.4336 203.975 32.9316L204.289 32.5505C205.053 31.6538 205.053 31.6538 205.704 31.3847C206.06 31.2007 206.36 30.9249 206.574 30.5858C206.787 30.2468 206.905 29.8569 206.916 29.4568V29.2774C207.102 28.908 207.32 28.5554 207.568 28.2238L207.882 27.7754C208.876 26.3992 209.94 25.0748 211.07 23.8074L214.394 20.1756L216.976 17.3958C217.402 16.925 217.605 16.7008 217.582 16.4318C217.591 16.3799 217.591 16.3268 217.582 16.2748V16.0282H217.38C217.111 16.0282 216.931 16.0282 216.527 16.2748L215.314 16.9698C214.33 17.5983 213.432 18.3518 212.642 19.2116L211.07 20.6688C208.825 22.6865 204.671 27.6857 204.491 27.8875C203.863 28.8291 202.83 28.6049 201.73 28.291L201.213 28.1565L199.843 27.7978L198.159 27.6633C195.813 27.5804 193.465 27.7457 191.154 28.1565L189.335 28.3807C188.549 28.4928 188.347 28.3807 188.302 28.3807C188.302 27.8427 190.031 26.1389 190.952 25.2197L191.333 24.8386L194.814 21.5656L196.52 19.9963C198.028 18.5266 199.368 16.8951 200.517 15.1315C200.607 14.9583 200.653 14.766 200.652 14.5711C200.656 14.4834 200.637 14.3963 200.598 14.3178C200.558 14.2393 200.5 14.1722 200.427 14.1227C200.001 13.8088 199.507 14.1227 198.9 14.7728L198.878 14.7504ZM237.252 24.3902L234.31 26.3855C233.367 27.1018 232.351 27.7179 231.279 28.2238C231.303 27.9554 231.364 27.6914 231.459 27.4391C231.707 26.7845 231.858 26.0973 231.908 25.3991C231.92 25.2288 231.895 25.0579 231.833 24.8988C231.77 24.7398 231.673 24.5966 231.549 24.4799C230.83 23.8298 229.505 24.4799 226.788 25.6681C223.927 27.05 221.165 28.6307 218.525 30.3983L216.684 31.5865C214.995 32.7493 213.206 33.762 211.34 34.613C211.747 33.9256 212.221 33.2799 212.755 32.685C213.606 31.6364 214.545 30.6615 215.561 29.7706L216.482 28.7842C217.919 26.9908 218.278 26.2285 218.278 25.8026C218.274 25.6607 218.218 25.5252 218.121 25.4215C217.739 24.9955 217.133 25.4215 216.864 25.4215C215.962 25.9559 215.138 26.6123 214.416 27.3719L209.925 32.3711L209.027 33.38L208.443 34.0077C207.862 34.6154 207.329 35.2675 206.849 35.9581L206.333 36.7427L205.075 38.8052L204.626 39.6122C203.863 41.0022 203.346 41.854 203.863 42.4369V42.5939C203.919 42.7358 204.011 42.8614 204.128 42.9593C204.246 43.0572 204.386 43.1242 204.536 43.1543C204.963 43.1543 205.479 43.0422 206.333 42.4369L206.714 42.1679L211.52 38.5137C214.394 36.2719 219.805 32.5953 222.432 30.9812C223.688 30.1677 224.984 29.4195 226.317 28.7394C226.604 28.6069 226.922 28.5528 227.237 28.5825C227.181 29.0006 227.027 29.3998 226.788 29.7482L225.149 32.4384L223.196 35.8684C222.106 37.5836 221.451 39.538 221.287 41.5626C221.287 42.28 221.287 42.9525 221.916 43.1095C222.544 43.2664 222.859 42.7059 223.016 42.4818C225.308 39.1455 227.926 36.0441 230.83 33.223L233.3 31.1157C235.038 29.5038 236.951 28.0902 239.003 26.9011C241.27 25.5365 243.679 24.4239 246.189 23.5832H246.57C247.626 23.3366 248.052 23.2469 248.03 22.7313C248.007 22.2157 247.424 22.1708 246.93 22.1036C243.528 21.8625 240.138 22.7106 237.252 24.5248"
    fill="#5C5C5C" />
  <path
    d="M268.301 20.1757L266.684 21.8571L263.675 24.9508C262.485 26.0941 260.487 28.3583 259.678 29.2551L257.186 32.3488L256.086 33.7387L255.614 34.4113C255.528 34.5722 255.414 34.7165 255.277 34.8372C255.277 34.8372 255.143 34.8372 254.851 34.613L254.671 34.4785C253.113 33.2418 251.293 32.3754 249.349 31.9453L246.835 31.3848C245.544 31.2489 244.281 30.9241 243.085 30.4208C243.287 29.7931 243.714 29.1206 244.589 29.2102L245.465 29.5017C245.842 29.7129 246.263 29.8349 246.695 29.8582C247.128 29.8815 247.559 29.8056 247.957 29.6362L249.754 29.0085L251.999 28.2462L256.984 26.5873C257.163 26.4528 257.77 26.0268 257.568 25.4664C257.366 24.9059 256.67 24.7938 255.075 24.9508C253.026 25.1416 250.998 25.5091 249.013 26.0493L248.317 26.2062L246.633 26.5873C244.746 26.9277 242.891 27.4225 241.086 28.0669C240.054 28.5825 239.088 29.1878 238.841 30.0397C238.793 30.2886 238.806 30.5455 238.881 30.7878C238.955 31.0302 239.088 31.2506 239.268 31.4296C240.505 32.5423 242.094 33.1851 243.758 33.2455L244.342 33.3576L246.116 33.5818C246.812 33.6227 247.5 33.7585 248.159 33.9853C250.248 34.7251 250.607 35.1062 250.54 35.308C250.315 35.9133 250.068 36.1375 248.99 36.3616L245.824 37.1014C244.095 37.6265 242.282 37.8242 240.48 37.6843C239.241 37.6211 238.023 37.3324 236.887 36.8324L236.73 36.5858C236.416 36.0702 235.832 35.0838 233.924 35.7115C233.924 35.7115 231.364 36.6755 231.454 37.9533C231.454 38.7828 232.756 38.9622 233.115 39.007C237.316 39.7597 241.603 39.9107 245.847 39.4554C247.785 39.0927 249.697 38.606 251.572 37.9982L252.246 37.7964H252.762C252.726 38.2364 252.62 38.6677 252.448 39.0743C252.079 39.8985 251.844 40.7764 251.752 41.6748C251.738 41.781 251.756 41.889 251.804 41.9849C251.852 42.0808 251.928 42.1601 252.022 42.2128C252.291 42.3772 252.583 42.2875 252.897 41.9438L253.975 40.5314L255.569 38.2896C257.054 35.7748 259.041 33.5922 261.407 31.878L262.014 31.5417C263.671 30.6291 265.513 30.1005 267.403 29.9949L269.064 29.7259C272.183 29.1405 275.345 28.8106 278.517 28.7394H285.254C287.813 28.7394 287.813 28.5153 287.836 28.1342C287.858 27.753 287.319 27.5513 285.95 27.484L283.704 27.3495C279.308 26.9147 274.883 26.8697 270.479 27.215C265.853 27.91 264.843 27.7082 264.641 27.5064C264.439 27.3047 264.641 27.1478 265.516 26.2959C265.516 26.2959 268.211 23.6057 269.379 22.283C269.858 21.8128 270.146 21.1818 270.187 20.512C270.193 20.3871 270.172 20.2625 270.125 20.1465C270.079 20.0305 270.008 19.9258 269.917 19.8394C269.67 19.5928 269.087 19.3462 268.031 20.4223L268.301 20.1757ZM55.4587 29.681C53.3718 28.345 50.9734 27.5726 48.4979 27.4392C47.0636 27.3152 45.6211 27.3152 44.1868 27.4392H43.5356C42.5701 27.4392 41.1105 27.6634 39.8756 27.7979H38.7753C37.0464 28.0221 34.9132 28.717 32.7352 29.1206C32.331 29.1206 31.096 29.4568 31.0736 30.376C31.0736 30.8243 31.3655 31.2503 32.0167 31.6762C32.6678 32.1022 33.7007 32.7075 33.7007 32.7075C34.0356 32.8094 34.3835 32.8623 34.7336 32.8644C35.1295 32.8694 35.5176 32.7541 35.8464 32.5339C36.1752 32.3138 36.4292 31.999 36.5748 31.6314C36.6167 31.559 36.6542 31.4841 36.6871 31.4072C37.8186 30.7012 39.0905 30.2499 40.4145 30.0845L41.5596 29.95H45.2421C47.2758 29.8282 49.3168 29.9335 51.3271 30.2639C53.1684 30.914 53.8195 31.1606 53.9767 31.4296C54.1339 31.6987 54.2013 31.7659 53.2582 32.3936C49.1197 34.8843 44.6208 36.7218 39.9205 37.8412L35.6318 38.6931L34.1947 39.007L33.2741 39.1863L31.0287 39.5226L29.5018 39.6571H28.424C26.3717 39.6351 24.3234 39.4703 22.294 39.1639C22.064 39.0919 21.8555 38.9641 21.687 38.792C21.5185 38.6199 21.3953 38.4088 21.3285 38.1775C20.7447 37.0118 23.3045 32.6851 24.7864 31.0934C25.4825 30.4432 27.7728 28.4256 27.7728 28.4256L28.8731 27.5961C31.3825 25.8591 33.9834 24.2576 36.6646 22.7986C38.3776 21.6787 40.1462 20.6461 41.9638 19.7049C44.5662 18.4346 47.3435 17.5582 50.2044 17.1044H51.3047C52.0629 17.0952 52.8009 17.3487 53.3929 17.8218C54.0045 18.3061 54.732 18.6229 55.5036 18.7409C55.7902 18.7317 56.0692 18.6466 56.3119 18.4943C56.4957 18.347 56.6422 18.1587 56.7397 17.9446C56.8372 17.7304 56.883 17.4964 56.8733 17.2613C56.8733 16.5663 56.1099 16.0731 55.6832 15.849C54.1963 15.1725 52.5794 14.8282 50.9454 14.8401H49.9574C46.0566 15.7073 42.2834 17.0711 38.7304 18.8978H38.5957C34.0943 21.0085 29.8895 23.6992 26.0888 26.9012L24.4047 28.4032C22.2213 30.3779 20.3176 32.6406 18.7463 35.1286L18.4993 35.5098C17.9116 36.4596 17.6005 37.5542 17.6011 38.6707C17.5548 39.0914 17.6148 39.517 17.7756 39.9087C17.9364 40.3003 18.1929 40.6454 18.5218 40.9125L18.881 41.204C19.7118 41.8765 20.5202 42.3249 23.9556 42.2801C24.8763 42.2801 26.0214 42.2801 27.4136 42.1455C31.7797 42.0649 36.1302 41.5998 40.4145 40.7556C44.1496 39.7585 47.7527 38.3211 51.1475 36.4737C52.8842 35.5852 54.5506 34.566 56.1323 33.4249C56.3614 33.1795 56.5375 32.8896 56.6495 32.5734C56.7615 32.2571 56.8071 31.9212 56.7835 31.5866C56.699 31.1976 56.5385 30.829 56.3112 30.502C56.0839 30.1751 55.7942 29.8961 55.4587 29.681Z"
    fill="#5C5C5C" />
</svg>
