<svg width="161" height="61" viewBox="0 0 161 61" fill="none" xmlns="http://www.w3.org/2000/svg">
  <g clip-path="url(#clip0_824_11708)">
    <path
      d="M70.6132 32.7294C70.4302 27.2895 72.4158 21.9949 76.1456 17.9772C78.2071 15.7513 80.7229 13.9792 83.5282 12.7767C86.3335 11.5743 89.3651 10.9685 92.4246 10.9993C97.2064 10.8683 101.854 12.5626 105.396 15.7278L103.078 18.5803C102.714 19.1497 102.237 19.6406 101.674 20.0232C101.112 20.4057 100.477 20.6721 99.807 20.8062C98.6544 20.977 97.4766 20.7836 96.4427 20.254C95.0606 19.6425 93.5658 19.3168 92.0507 19.297C85.4202 19.297 80.5137 24.2841 80.5137 31.9748C80.5137 39.2856 84.8129 41.3587 88.5883 41.3587C90.6163 41.3182 92.6142 40.8671 94.4575 40.0337C95.3586 39.5939 96.3493 39.3613 97.355 39.3535C98.0045 39.3555 98.6399 39.5401 99.1864 39.8856C99.7328 40.2312 100.168 40.7232 100.44 41.3039L102.571 44.5429C100.889 45.9411 96.627 49.7322 87.843 49.7322C85.2473 49.8609 82.658 49.3752 80.2923 48.3158C77.3213 46.9167 74.826 44.6999 73.1082 41.9337C71.3904 39.1674 70.5238 35.9704 70.6132 32.7294Z"
      fill="#5C5C5C" />
    <path
      d="M64.277 11.5156H52.8727L35.2689 44.4522L32.0173 38.4351C30.2231 35.0499 29.3651 33.6322 27.8494 33.0617C33.3633 31.5708 36.0924 28.4924 37.0259 23.5315C37.9542 18.6006 35.1946 15.3068 31.5492 13.1906C28.897 11.6449 24.2557 11.5352 19.0641 11.5352H7.71941L2 49.199H11.9059L14.1668 34.3502H14.9519C16.4393 34.3041 17.909 34.6782 19.1873 35.4282C20.4656 36.1782 21.4992 37.2728 22.1658 38.5826C22.1472 38.6009 26.1282 45.8686 26.1282 45.8934C27.7354 48.9849 28.9872 49.2238 32.3329 49.2238H38.0165C40.5029 49.2238 42.8952 49.2238 44.3897 46.0906L46.9875 41.1962H60.8186C60.8186 41.1962 61.9219 46.0723 61.902 46.054C62.5001 49.2003 65.0236 49.2368 67.6214 49.2186H72.5372L64.277 11.5156ZM27.2513 23.1072C26.9861 24.8043 25.7184 27.5603 19.0468 27.5603H15.2012L16.6214 18.4518C16.6214 18.4518 20.8265 18.4518 20.8265 18.4335C27.5126 18.4531 27.5312 21.3787 27.2513 23.1072ZM50.6329 34.3502L56.8005 22.8317L59.3201 34.3502H50.6329Z"
      fill="#5C5C5C" />
    <path
      d="M147.169 48.2222C141.563 50.5043 137.917 47.4859 135.525 44.7444L128.796 36.8513C127.955 35.7469 126.862 34.852 125.606 34.2385C124.35 33.625 122.965 33.31 121.562 33.3186H124.534C125.937 33.308 127.322 33.6222 128.579 34.2359C129.836 34.8495 130.928 35.7454 131.768 36.8513L138.497 44.7444C139.493 46.0364 140.823 47.0409 142.349 47.6528C143.875 48.2647 145.54 48.4614 147.169 48.2222Z"
      fill="#5C5C5C" />
    <path
      d="M149.351 45.9996L156.547 37.5543C157.854 35.9351 159.397 34.515 161.126 33.3401H152.285C150.882 33.3295 149.497 33.6437 148.24 34.2573C146.983 34.871 145.891 35.7669 145.051 36.8728L139.07 43.9016C141.745 46.9709 146.903 48.8469 149.351 45.9996Z"
      fill="#5C5C5C" />
    <path
      d="M147.171 48.2231C141.565 50.5051 137.919 47.4868 135.527 44.7452L128.792 36.8482C127.95 35.7439 126.858 34.8491 125.602 34.2356C124.346 33.6221 122.961 33.307 121.559 33.3155H115.69C117.422 34.4934 118.971 35.9129 120.287 37.5297L122.867 40.5467C121.563 41.0281 120.184 41.2834 118.792 41.3013C113.689 41.2647 110.606 37.9161 110.549 31.8625C110.567 24.5386 115.465 19.3688 121.953 19.3688C126.738 19.3871 130.215 23.049 130.233 28.4408C130.224 30.1678 129.953 31.8838 129.43 33.5322C130.622 34.2256 131.679 35.1231 132.551 36.1824L136.383 40.6903C138.912 36.9387 140.246 32.5294 140.215 28.0269C140.295 25.3876 139.741 22.767 138.598 20.3785C137.454 17.99 135.753 15.9013 133.634 14.2826C130.364 12.0036 126.422 10.8496 122.418 10.9992C119.364 10.9824 116.34 11.5941 113.54 12.7951C110.74 13.996 108.225 15.7598 106.158 17.9732C102.453 22.0057 100.471 27.2901 100.626 32.7254C100.548 36.0441 101.466 39.3116 103.264 42.1195C105.063 44.9274 107.662 47.1512 110.737 48.5129C113.003 49.3845 115.426 49.7914 117.858 49.7087C121.611 49.8567 125.339 49.0472 128.68 47.3588C131.11 49.8066 134.287 50.7819 138.418 50.7819C141.55 50.9618 144.647 50.0565 147.171 48.2231Z"
      fill="#5C5C5C" />
  </g>
  <defs>
    <clipPath id="clip0_824_11708">
      <rect width="161" height="61" fill="white" />
    </clipPath>
  </defs>
</svg>
