<svg width="237" height="61" viewBox="0 0 237 61" fill="none" xmlns="http://www.w3.org/2000/svg">
  <path
    d="M1.07744 22.684C1.07744 28.4405 4.42317 30.9483 11.3415 32.5442L16.7286 33.6841C23.0231 35.1089 24.2707 36.5338 24.2707 39.6686C24.2707 43.3732 21.0384 45.71 15.1975 45.71C9.3567 45.71 6.01097 43.0882 5.61402 37.7307H0C0 45.995 5.89756 50.7826 15.0841 50.7826C25.178 50.7826 30.0548 45.653 30.0548 38.9846C30.0548 33.0001 26.539 30.1504 20.528 28.8395L14.914 27.5286C8.44938 26.1037 6.69146 25.2488 6.69146 22.0001C6.69146 18.6944 9.01646 16.2436 14.3469 16.2436C20.8116 16.2436 22.7396 19.2073 23.1933 23.14H28.8073C28.8073 15.0467 22.5128 11.114 14.5738 11.114C5.27378 11.114 0.850609 16.4715 0.850609 22.741L1.07744 22.684ZM32.55 12.0829V34.539C32.55 45.995 37.9372 50.6686 47.4073 50.6686C56.8774 50.6686 62.2646 45.938 62.2646 34.539V12.0829H56.0835V35.2799C56.0835 42.6323 52.9646 45.482 47.067 45.482C41.7932 45.482 38.6176 42.4613 38.6176 35.2799V12.0829H32.55ZM66.3475 12.0829V49.6427H71.9615V20.4612L89.881 49.6997H96.2889V12.0829H90.6749V41.1504L73.1524 12.0829H66.3475ZM132.411 23.7669C131.788 16.2435 125.663 11.171 116.93 11.171C106.043 11.171 99.4645 19.1503 99.4645 30.6633C99.4645 44.1142 106.78 50.6116 116.42 50.6116C124.813 51.0106 132.071 44.5701 132.582 36.1349H126.797C125.607 42.1193 122.318 45.3681 116.817 45.3681C110.636 45.3681 105.646 41.2074 105.646 31.2903C105.646 20.9741 110.296 16.3005 116.817 16.3005C122.544 16.3005 125.436 19.0933 126.571 23.6529L132.411 23.7669ZM135.02 31.0053C135.02 43.8292 142.335 50.7826 153.053 50.7826C164.394 50.7826 171.256 42.6893 171.256 30.4353C171.256 16.8705 163.317 11 153.053 11C142.789 11 135.02 18.0104 135.02 31.0053ZM141.144 31.1763C141.144 21.4871 146.135 16.2436 153.336 16.2436C159.971 16.2436 165.245 20.9741 165.245 30.4353C165.245 40.4665 160.425 45.482 153.507 45.482C145.908 45.482 141.144 40.6945 141.144 31.1763ZM180.386 17.2125H191.614C196.037 17.2125 198.362 18.9793 198.362 23.14C198.362 27.3006 196.094 29.1814 191.103 29.1814H180.386V17.2125ZM174.432 12.0829V49.6427H180.386V33.969H190.65C195.583 33.969 197.341 35.4509 197.455 39.7255L197.738 45.0261C197.738 46.565 197.965 48.1608 198.419 49.6427H204.827C203.919 47.6479 203.466 45.4251 203.636 43.2022L203.522 39.0416C203.409 34.71 202.331 32.8291 198.872 31.3473C202.388 29.8084 204.543 26.2177 204.316 22.399C204.316 16.1866 200.517 12.0829 191.954 12.0829H174.432ZM207.889 12.0829V49.6427H213.9V34.539H224.391C232.103 34.539 236.129 30.2074 236.129 23.254C236.129 15.9586 231.649 12.0829 224.617 12.0829H207.889ZM213.9 17.1555H223.086C227.963 17.1555 230.118 19.2073 230.118 23.3679C230.118 27.5286 227.85 29.5804 223.086 29.5804H213.9V17.1555Z"
    fill="#5C5C5C" />
</svg>
