<svg width="213" height="61" viewBox="0 0 213 61" fill="none" xmlns="http://www.w3.org/2000/svg">
  <path
    d="M18.7067 28.0199C22.9148 29.2032 29.4568 31.1872 29.4568 39.2968C29.4568 47.9286 21.5357 50.6434 15.0643 50.6434C11.3513 50.6434 7.14319 49.7036 4.42029 47.5805C0.919421 44.8657 0 40.7586 0 39.7145C0 37.5913 2.22783 37.1389 3.14725 37.1389C4.80928 37.1389 5.1629 37.9394 5.37507 38.7051C5.87014 40.515 6.32985 42.5685 8.69913 44.274C11.0684 45.9795 13.9681 46.0839 15.5594 46.0839C16.8325 46.0839 19.7675 46.0143 21.8186 44.5176C23.3038 43.3691 24.1878 41.6288 24.1878 39.7841C24.1878 38.1482 23.4452 36.582 22.1368 35.5378C20.5809 34.2152 18.1409 33.5191 15.1704 32.649L10.9977 31.5004C9.51246 31.0479 7.77971 30.5258 6.57739 29.969C5.48116 29.4817 1.69739 27.637 1.69739 21.8941C1.69739 15.5595 6.01159 11 14.9936 11C17.469 11 21.8185 11.2784 25.0365 13.9585C27.2997 15.8031 28.8203 18.9356 28.8203 20.3975C28.8203 22.0333 27.5472 22.9035 26.062 22.9035C25.4609 22.9035 24.8597 22.799 24.2939 21.9637C24.1171 21.7549 23.5867 20.5367 23.3391 20.119C22.6319 18.692 20.9699 15.3855 14.8168 15.3855C12.7304 15.3855 10.8209 15.8031 9.51246 16.7429C8.23942 17.613 7.17855 19.1445 7.17855 21.3372C7.17855 23.3559 8.27478 24.3305 8.55768 24.5393C9.54783 25.3746 11.9525 26.0708 13.7206 26.558C13.6499 26.558 18.7067 28.0199 18.7067 28.0199ZM55.5542 48.033C55.4835 48.7987 55.3774 49.5992 54.3519 50.1561C53.6446 50.4694 52.5838 50.4694 51.8058 50.1561C50.6388 49.5644 50.6388 48.6943 50.6388 46.5015C48.2696 49.5992 45.8649 50.6434 41.8336 50.6434C40.4899 50.6434 36.9536 50.539 34.4783 47.859C32.109 45.2485 32.109 41.768 32.109 39.1924V24.0172C32.109 23.3211 32.3212 21.5112 34.6551 21.5112C36.989 21.5112 37.2719 23.2515 37.2719 23.9476V37.5217C37.2719 41.1763 37.4487 42.7078 38.1559 44.0304C39.429 46.3275 42.0458 46.3275 42.6823 46.3275C46.2893 46.3275 49.3304 44.2044 50.1791 40.5498C50.4974 39.1924 50.462 38.009 50.462 35.9555V24.0172C50.462 23.3211 50.6742 21.5112 53.0081 21.5112C55.3774 21.5112 55.6249 23.3211 55.6249 24.0172C55.5542 24.052 55.5542 48.033 55.5542 48.033ZM85.1525 21.7201H81.0504C81.0504 17.5086 81.0504 16.9517 82.0052 16.186C82.6771 15.6291 83.349 15.5943 84.8342 15.4899C85.7183 15.4203 87.3096 15.2811 87.3096 13.3668C87.3096 11.2436 85.3293 11.2436 84.4452 11.2436C81.0504 11.2436 78.2922 12.1834 76.9484 14.6198C76.029 16.2556 76.029 17.613 76.029 21.7549V47.9982C76.0643 48.7987 76.2058 49.634 77.2313 50.1909C77.691 50.3649 78.1154 50.4694 78.5043 50.4694C78.9641 50.4694 79.4591 50.3649 79.8835 50.1909C80.9444 49.5992 81.0858 48.8335 81.0858 47.9982V26.0011H85.1171C85.7183 26.0011 87.2388 25.7923 87.2388 23.878C87.2742 21.8941 85.8951 21.7201 85.1525 21.7201ZM109.977 28.0199C114.185 29.2032 120.727 31.1872 120.727 39.2968C120.727 47.9286 112.806 50.6434 106.299 50.6434C102.586 50.6434 98.378 49.7036 95.6551 47.5805C92.1542 44.8657 91.2348 40.7586 91.2348 39.7145C91.2348 37.5913 93.4626 37.1389 94.382 37.1389C96.0441 37.1389 96.3977 37.9394 96.6099 38.7051C97.1049 40.515 97.5646 42.5685 99.9339 44.274C102.303 45.9795 105.203 46.0839 106.794 46.0839C108.067 46.0839 111.002 46.0143 113.053 44.5176C114.539 43.3691 115.423 41.6288 115.423 39.7841C115.423 38.1482 114.68 36.582 113.372 35.5378C111.816 34.2152 109.376 33.5191 106.405 32.649L102.232 31.5004C100.747 31.0479 99.0145 30.5258 97.8122 29.969C96.7159 29.4817 92.9322 27.637 92.9322 21.8941C92.9322 15.5595 97.2464 11 106.228 11C108.704 11 113.053 11.2784 116.271 13.9585C118.535 15.8031 120.055 18.9356 120.055 20.3975C120.055 22.0333 118.782 22.9035 117.297 22.9035C116.696 22.9035 116.094 22.799 115.529 21.9637C115.352 21.7549 114.821 20.5367 114.574 20.119C113.867 18.692 112.205 15.3855 106.052 15.3855C103.965 15.3855 102.056 15.8031 100.747 16.7429C99.4742 17.613 98.4133 19.1445 98.4133 21.3372C98.4133 23.3559 99.5096 24.3305 99.7925 24.5393C100.783 25.3746 103.187 26.0708 104.955 26.558L109.977 28.0199ZM143.288 47.9982C143.288 48.4506 143.182 48.8683 143.005 49.1816C142.793 49.6688 142.121 50.4346 140.777 50.4346C139.292 50.4346 138.231 49.4948 138.231 47.9982V23.9476C138.231 23.2863 138.443 21.5461 140.707 21.5461C143.041 21.5461 143.253 23.2863 143.253 23.9476L143.288 47.9982ZM155.912 46.2579C154.427 46.1535 153.366 45.875 152.977 44.3088C152.801 43.6475 152.765 43.2646 152.765 39.9929V26.1404H156.195C156.797 26.1404 158.317 25.9315 158.317 24.0172C158.317 22.0681 156.867 21.8941 156.195 21.8941H152.765V15.4551C152.765 15.1767 152.765 14.8982 152.73 14.6198C152.659 13.2972 151.528 12.2878 150.219 12.2878C150.148 12.2878 150.113 12.2878 150.042 12.2878C148.734 12.3574 147.673 13.4364 147.708 14.759V21.8941L147.638 26.1404V42.1161C147.638 46.3623 147.638 50.4694 155.347 50.4694C156.832 50.4694 158.635 50.2605 158.635 48.3462C158.6 46.3971 157.221 46.2927 155.912 46.2579ZM132.255 46.2579C130.77 46.1535 129.709 45.875 129.32 44.3088C129.143 43.6475 129.108 43.2646 129.108 39.9929V26.1404H132.538C133.139 26.1404 134.624 25.9315 134.624 24.0172C134.624 22.0681 133.174 21.8941 132.538 21.8941H129.108V15.4551C129.108 15.1767 129.108 14.8982 129.072 14.6198C129.002 13.2972 127.906 12.2878 126.562 12.2878C126.491 12.2878 126.456 12.2878 126.385 12.2878C125.041 12.3574 124.051 13.4712 124.051 14.759V21.8941L123.98 26.1404V42.1161C123.98 46.3623 123.98 50.4694 131.689 50.4694C133.174 50.4694 134.943 50.2605 134.943 48.3462C134.943 46.3971 133.563 46.2927 132.255 46.2579ZM181.444 42.7077C181.02 42.3597 180.489 42.1857 179.923 42.1857C179.181 42.1857 178.474 42.4989 177.979 43.1254C177.59 43.6127 177.165 44.1 176.812 44.4132C175.821 45.3181 175.786 46.8496 176.705 47.859C177.165 48.3462 177.837 48.6247 178.509 48.6247C179.11 48.6247 179.711 48.4158 180.206 47.9634L180.383 47.7893C180.914 47.2673 181.409 46.7104 181.868 46.1187C182.187 45.701 182.399 45.1789 182.399 44.622C182.434 43.8911 182.045 43.1602 181.444 42.7077ZM182.823 26.384C181.338 23.9824 178.792 21.3024 172.356 21.3024C170.305 21.3024 162.702 21.3024 159.732 29.5861C159.024 31.6048 158.741 33.7279 158.741 35.9207C158.741 39.1576 159.413 42.7774 161.323 45.4574C161.429 45.5966 161.535 45.7706 161.641 45.9098L161.747 46.0143C162.03 46.3275 162.313 46.6408 162.631 46.954C162.808 47.128 162.985 47.3369 163.162 47.5109C163.621 47.9982 164.258 48.2418 164.93 48.2418C165.566 48.2418 166.168 48.033 166.663 47.5457C167.122 47.0932 167.405 46.4667 167.405 45.8054C167.405 45.2137 167.158 44.5872 166.698 44.1C166.663 44.0652 166.627 44.0304 166.592 43.9956C164.576 41.6636 164.046 38.4615 164.046 35.6771C164.046 30.3866 166.309 25.4095 172.179 25.4095C176.564 25.4095 178.049 28.1939 178.615 29.2728C179.216 30.5258 179.711 31.57 181.267 31.57C182.752 31.57 183.99 30.5955 183.99 29.1684C183.99 28.8552 183.99 28.1939 182.823 26.384ZM172.568 45.9098C172.497 45.9098 172.427 45.9098 172.321 45.9098C172.038 45.9447 171.79 45.9447 171.507 45.9447C171.224 45.9447 170.941 45.9447 170.694 45.9098C170.588 45.9098 170.482 45.875 170.411 45.875C169.173 45.875 168.112 46.8148 167.971 48.033C167.971 48.1374 167.936 48.2418 167.936 48.3114C167.936 49.5296 168.855 50.5738 170.128 50.713C170.588 50.7826 171.048 50.7826 171.543 50.7826C171.967 50.7826 172.356 50.7826 172.78 50.713C174.053 50.6086 175.008 49.5644 175.008 48.3114C175.008 48.2418 175.008 48.1722 175.008 48.0678C174.902 46.8496 173.841 45.9098 172.568 45.9098ZM209.699 43.5083C208.319 43.5083 207.223 44.5872 207.223 45.9447V48.0678C207.223 49.4252 208.319 50.5042 209.699 50.5042C211.078 50.5042 212.174 49.4252 212.174 48.0678V45.9447C212.139 44.5872 211.042 43.5083 209.699 43.5083ZM209.699 35.5378C208.355 35.5378 207.223 36.6168 207.223 37.9394V40.0625C207.223 41.4199 208.319 42.4989 209.699 42.4989C211.078 42.4989 212.174 41.4199 212.174 40.0625V37.9394C212.139 36.6168 211.042 35.5378 209.699 35.5378ZM212.139 31.5004V30.143C212.139 29.8645 212.139 29.5861 212.103 29.3077C212.032 27.9851 210.83 26.9409 209.486 27.0453C208.178 27.1149 207.188 28.1939 207.152 29.4817C207.152 29.5513 207.152 29.5861 207.152 29.6209C207.152 29.7949 207.152 29.9342 207.152 30.1082V31.57C207.152 32.8926 208.249 34.0064 209.592 34.0064C210.936 34.0064 212.068 32.9274 212.068 31.57C212.139 31.6048 212.139 31.5004 212.139 31.5004ZM190.391 43.5083C189.012 43.5083 187.915 44.5872 187.915 45.9447V48.0678C187.915 49.4252 189.012 50.5042 190.391 50.5042C191.77 50.5042 192.866 49.4252 192.866 48.0678V45.9447C192.831 44.5872 191.734 43.5083 190.391 43.5083ZM190.391 35.5378C189.012 35.5378 187.915 36.6168 187.915 37.9742V40.0973C187.915 41.4548 189.012 42.5337 190.391 42.5337C191.77 42.5337 192.866 41.4548 192.866 40.0973V37.9742C192.866 36.6168 191.734 35.5378 190.391 35.5378ZM192.866 30.1778C192.866 29.8993 192.866 29.6209 192.866 29.3425V29.3077C192.866 29.1684 192.831 29.0292 192.795 28.9248C192.795 28.89 192.795 28.89 192.795 28.8552C192.76 28.716 192.725 28.6115 192.654 28.4723C192.654 28.4723 192.619 28.4375 192.619 28.4027C192.548 28.2983 192.512 28.1591 192.406 28.0895C192.406 28.0895 192.371 28.0547 192.371 28.0199C192.3 27.9154 192.194 27.811 192.123 27.7414C192.123 27.7066 192.088 27.7066 192.088 27.7066C191.982 27.6022 191.876 27.5326 191.77 27.463C191.77 27.463 191.734 27.463 191.734 27.4282C191.628 27.3586 191.487 27.2889 191.381 27.2541C191.345 27.2541 191.345 27.2541 191.345 27.2541C191.204 27.2193 191.063 27.1497 190.921 27.1497H190.886C190.744 27.1149 190.603 27.1149 190.461 27.1149H190.285C190.285 27.1149 190.285 27.1149 190.249 27.1149C190.108 27.1149 189.966 27.1497 189.825 27.1845H189.79C189.648 27.2193 189.542 27.2541 189.401 27.3238C189.365 27.3238 189.365 27.3237 189.33 27.3586C189.224 27.4282 189.082 27.463 189.012 27.5674C188.976 27.5674 188.976 27.6022 188.941 27.6022C188.835 27.6718 188.729 27.7762 188.658 27.8458C188.623 27.8458 188.623 27.8806 188.623 27.8806C188.552 27.985 188.446 28.0895 188.375 28.1939L188.34 28.2287C188.269 28.3331 188.198 28.4723 188.163 28.5767L188.128 28.6464C188.092 28.7856 188.021 28.89 188.021 29.0292V29.064C187.986 29.2032 187.986 29.3425 187.986 29.4469C187.986 29.4469 187.986 29.4469 187.986 29.4817V31.6048C187.986 32.9622 189.082 34.0412 190.461 34.0412H190.497C191.876 34.0412 192.972 32.9622 192.972 31.6048V31.5004L192.866 30.1778ZM192.866 21.7201C192.866 21.4416 192.866 21.1632 192.866 20.8847C192.795 19.5969 191.699 18.5876 190.391 18.5876C190.355 18.5876 190.285 18.5876 190.249 18.5876C188.906 18.6572 187.845 19.8058 187.951 21.1632C187.951 21.3372 187.951 21.4764 187.951 21.6505V21.6853V23.1123C187.951 24.4349 189.047 25.5487 190.391 25.5487C191.77 25.5487 192.866 24.4697 192.866 23.1123V23.0775V21.7201ZM192.866 13.8192C192.795 12.5314 191.699 11.5221 190.391 11.5221C190.355 11.5221 190.285 11.5221 190.249 11.5221C188.906 11.5917 187.88 12.7403 187.951 14.0629C187.951 14.0629 187.951 14.0629 187.951 14.0977C187.951 14.2717 187.951 14.4109 187.951 14.585V14.6198V14.6894C187.951 16.012 189.047 17.1258 190.391 17.1258C191.77 17.1258 192.866 16.0468 192.866 14.6894V14.585C192.866 14.3413 192.866 14.0629 192.866 13.8192ZM143.076 13.8192C143.005 12.5314 141.909 11.5221 140.601 11.5221C140.565 11.5221 140.494 11.5221 140.459 11.5221C139.115 11.5917 138.09 12.7403 138.161 14.0629V14.0977C138.161 14.2717 138.161 14.4109 138.161 14.585V14.6198V14.6894C138.161 16.0468 139.257 17.1258 140.601 17.1258C141.98 17.1258 143.076 16.0468 143.076 14.6894V14.585C143.111 14.3413 143.111 14.0629 143.076 13.8192ZM208.956 25.4443C209.31 24.9918 209.451 24.4697 209.451 23.9476C209.451 23.2167 209.133 22.4858 208.496 22.0333C207.718 21.4416 206.834 20.9892 205.915 20.6759C204.642 20.2234 203.227 20.9195 202.803 22.1725C202.697 22.4162 202.661 22.6946 202.661 22.9731C202.661 23.9824 203.298 24.9222 204.323 25.2702C204.819 25.4443 205.172 25.6531 205.49 25.8619C205.95 26.21 206.481 26.384 206.976 26.384C207.718 26.384 208.461 26.0707 208.956 25.4443ZM198.772 20.6411C198.524 20.6411 198.241 20.6759 197.994 20.7803H197.958C197.145 21.0588 196.332 21.4068 195.589 21.8245C194.387 22.4858 193.998 23.9824 194.67 25.131C195.341 26.2796 196.827 26.6973 198.029 26.0359C198.524 25.7575 199.019 25.5139 199.55 25.3398C200.54 24.9918 201.212 24.0868 201.212 23.0427C201.247 21.7201 200.151 20.6411 198.772 20.6411ZM72.2806 21.7201H71.9623C68.6736 21.7201 65.3142 23.53 64.2887 26.6624V23.8432C64.2887 23.1819 64.0765 21.5461 61.9194 21.5461C59.6916 21.5461 59.4794 23.1819 59.4794 23.8432V48.1374C59.4794 48.9031 59.6916 50.4346 61.9548 50.4346C64.3241 50.4346 64.5009 49.0075 64.5009 48.1374V37.2781C64.5009 34.0064 64.5009 30.2126 68.1432 27.6718C69.6284 26.6276 70.6186 25.9663 72.033 25.9663H72.2806C72.8817 25.9663 74.367 25.7575 74.367 23.8432C74.4023 21.8941 73.0232 21.7201 72.2806 21.7201Z"
    fill="#5C5C5C" />
</svg>
