<svg width="239" height="61" viewBox="0 0 239 61" fill="none" xmlns="http://www.w3.org/2000/svg">
  <path fill-rule="evenodd" clip-rule="evenodd"
    d="M28.3744 48.6208C25.2192 46.6226 22.8947 39.7264 22.8947 31.5329C22.8947 31.2322 22.8966 30.9359 22.9033 30.6396L22.9071 30.6439C14.1312 29.2494 7.79034 25.4288 7.62795 20.9109L7.6022 20.963C5.45489 23.6612 4.22922 26.7809 4.22922 30.1051C4.22922 39.8865 14.8484 47.9011 28.3177 48.61L28.3744 48.6208ZM0.171875 30.8187C0.171875 19.8739 13.6423 11 30.2602 11C46.8775 11 60.3485 19.8739 60.3485 30.8187C60.3485 41.7635 46.8773 50.6377 30.2602 50.6377C13.6423 50.6377 0.171875 41.7633 0.171875 30.8187ZM30.2602 13.8602C33.4681 13.8602 36.1968 18.7805 37.2076 25.6458L37.2114 25.6354C43.4523 24.6532 47.8221 22.3872 47.8221 19.7505C47.8221 16.2115 39.9585 13.346 30.2602 13.346C20.5612 13.346 12.6983 16.2118 12.6983 19.7505C12.6983 22.3872 17.0673 24.6532 23.3089 25.6354L23.3127 25.6458C24.3235 18.7808 27.0529 13.8602 30.2602 13.8602ZM32.2022 48.6098C45.6714 47.9011 56.2921 39.8863 56.2921 30.1048C56.2921 26.7809 55.065 23.6612 52.9179 20.9628L52.8917 20.9107C52.7293 25.4285 46.3901 29.2491 37.6132 30.6437L37.6171 30.6393C37.623 30.9357 37.6261 31.232 37.6261 31.5326C37.6261 39.7262 35.3 46.6223 32.1466 48.6206L32.2022 48.6098ZM30.2602 26.156C31.6973 26.156 33.0945 26.094 34.4313 25.9749L34.4294 25.9771C33.7641 21.5761 32.1483 18.4702 30.2602 18.4702C28.3721 18.4702 26.7565 21.5761 26.0903 25.9771L26.0886 25.9749C27.4254 26.094 28.823 26.156 30.2602 26.156ZM30.2602 42.4533C32.6753 42.4533 34.6454 37.3715 34.7506 30.9976L34.7634 31.0022C33.3076 31.1384 31.8018 31.2096 30.2604 31.2096C28.7176 31.2096 27.2132 31.1384 25.7574 31.0022L25.771 30.9976C25.8745 37.3713 27.8441 42.4533 30.2602 42.4533Z"
    fill="#5C5C5C" />
  <path fill-rule="evenodd" clip-rule="evenodd"
    d="M153.703 30.8192C153.703 22.4537 160.412 15.6719 168.683 15.6719C176.959 15.6719 183.667 22.4535 183.667 30.8192C183.667 39.1856 176.959 45.9664 168.683 45.9664C160.412 45.9664 153.703 39.1856 153.703 30.8192ZM168.683 40.4121C173.304 40.4121 177.05 36.1168 177.05 30.8192C177.05 25.5218 173.304 21.226 168.683 21.226C164.066 21.226 160.321 25.5218 160.321 30.8192C160.321 36.1165 164.066 40.4121 168.683 40.4121Z"
    fill="#5C5C5C" />
  <path fill-rule="evenodd" clip-rule="evenodd"
    d="M200.657 21.9835V45.2793H194.346V21.9835H194.366H185.539V16.7168H209.462V21.9835H200.678H200.657Z"
    fill="#5C5C5C" />
  <path fill-rule="evenodd" clip-rule="evenodd"
    d="M217.103 38.8511L217.097 38.8571L214.676 45.2776H207.305L218.959 16.7148H222.888H226.814L238.469 45.2776H231.097L228.675 38.8571L228.669 38.8511H222.889H217.103ZM222.888 34.0304H226.859L226.857 34.0316L222.915 23.5775H222.86L218.916 34.0316L218.914 34.0304H222.888Z"
    fill="#5C5C5C" />
  <path fill-rule="evenodd" clip-rule="evenodd"
    d="M84.314 21.9835V45.2793H78.0018V21.9835H78.0232H69.1953V16.7168H93.1194V21.9835H84.3359H84.314Z"
    fill="#5C5C5C" />
  <path fill-rule="evenodd" clip-rule="evenodd"
    d="M94.7266 30.8192C94.7266 22.4537 101.435 15.6719 109.709 15.6719C117.983 15.6719 124.691 22.4535 124.691 30.8192C124.691 39.1856 117.983 45.9664 109.709 45.9664C101.435 45.9664 94.7266 39.1856 94.7266 30.8192ZM109.709 40.4121C114.328 40.4121 118.074 36.1168 118.074 30.8192C118.074 25.5218 114.328 21.226 109.709 21.226C105.09 21.226 101.344 25.5218 101.344 30.8192C101.344 36.1165 105.09 40.4121 109.709 40.4121Z"
    fill="#5C5C5C" />
  <path fill-rule="evenodd" clip-rule="evenodd"
    d="M139.198 45.2793H142.399V34.5671V34.4336L153.41 16.7168H146.04L139.198 28.7222L132.357 16.7168H124.984L135.997 34.4336V34.5671V45.2793H139.198Z"
    fill="#5C5C5C" />
</svg>
