<svg width="145" height="125" viewBox="0 0 145 125" fill="none" xmlns="http://www.w3.org/2000/svg">
<path d="M25.3984 22.4131H91.22V82.5938C91.22 84.1644 91.22 85.4367 91.22 85.4367H25.3986C25.3986 85.4367 25.3984 84.1644 25.3984 82.5938V22.4131Z" fill="#110C11" stroke="white" stroke-width="0.72314" stroke-miterlimit="10"/>
<path d="M25.3989 10.0332H91.22C91.22 10.0332 91.22 11.3055 91.22 12.8762V22.4127H25.3984V12.8762C25.3984 11.3055 25.3985 10.0332 25.3989 10.0332Z" fill="#110C11" stroke="white" stroke-width="0.72314" stroke-miterlimit="10"/>
<path d="M25.3984 69.1387H91.2257" stroke="white" stroke-width="0.72314" stroke-miterlimit="10"/>
<path d="M56.4717 81.5715H30.8907C30.8907 81.5715 30.8907 81.0648 30.8907 80.4456V73.9208C30.8907 73.3016 30.8906 72.7949 30.8906 72.7949H57.5976C57.5976 72.7949 57.5976 73.3016 57.5976 73.9208V81.5715C57.5976 81.5715 57.0909 81.5715 56.4717 81.5715Z" fill="white" stroke="white" stroke-width="0.72314" stroke-miterlimit="10"/>
<path d="M84.6123 81.5715H59.0312C59.0312 81.5715 59.0313 81.0648 59.0313 80.4456V73.9208C59.0313 73.3016 59.0313 72.7949 59.0313 72.7949H85.7382C85.7382 72.7949 85.7382 73.3016 85.7382 73.9208V81.5715C85.7382 81.5715 85.2372 81.5715 84.6123 81.5715Z" fill="#110C11" stroke="white" stroke-width="0.72314" stroke-miterlimit="10"/>
<path d="M2.4375 41.9814H68.2591V102.162C68.2591 103.733 68.2591 105.005 68.2591 105.005H2.43761C2.43761 105.005 2.4375 103.733 2.4375 102.162V41.9814Z" fill="#110C11" stroke="white" stroke-width="0.72314" stroke-miterlimit="10"/>
<path d="M2.43799 29.6016H68.2591C68.2591 29.6016 68.2591 30.8739 68.2591 32.4445V41.9811H2.4375V32.4445C2.4375 30.8739 2.43761 29.6016 2.43799 29.6016Z" fill="#110C11" stroke="white" stroke-width="0.72314" stroke-miterlimit="10"/>
<path d="M9.87926 37.7429C10.9581 37.7429 11.8327 36.8683 11.8327 35.7894C11.8327 34.7105 10.9581 33.8359 9.87926 33.8359C8.80038 33.8359 7.92578 34.7105 7.92578 35.7894C7.92578 36.8683 8.80038 37.7429 9.87926 37.7429Z" fill="white" stroke="white" stroke-width="0.72314" stroke-miterlimit="10"/>
<path d="M16.6332 37.7429C17.712 37.7429 18.5866 36.8683 18.5866 35.7894C18.5866 34.7105 17.712 33.8359 16.6332 33.8359C15.5543 33.8359 14.6797 34.7105 14.6797 35.7894C14.6797 36.8683 15.5543 37.7429 16.6332 37.7429Z" fill="white" stroke="white" stroke-width="0.72314" stroke-miterlimit="10"/>
<path d="M23.3988 37.7429C24.4777 37.7429 25.3523 36.8683 25.3523 35.7894C25.3523 34.7105 24.4777 33.8359 23.3988 33.8359C22.3199 33.8359 21.4453 34.7105 21.4453 35.7894C21.4453 36.8683 22.3199 37.7429 23.3988 37.7429Z" fill="white" stroke="white" stroke-width="0.72314" stroke-miterlimit="10"/>
<path d="M2.44141 52.582H68.2686" stroke="white" stroke-width="0.72314" stroke-miterlimit="10"/>
<path d="M2.44141 88.708H68.2686" stroke="white" stroke-width="0.72314" stroke-miterlimit="10"/>
<path d="M12.9727 52.582V88.7073" stroke="white" stroke-width="0.72314" stroke-miterlimit="10"/>
<path d="M33.5068 101.139H7.92586C7.92586 101.139 7.92581 100.633 7.92581 100.013V93.4887C7.92581 92.8695 7.92578 92.3628 7.92578 92.3628H34.6327C34.6327 92.3628 34.6327 92.8695 34.6327 93.4887V101.139C34.6327 101.139 34.1261 101.139 33.5068 101.139Z" fill="white" stroke="white" stroke-width="0.72314" stroke-miterlimit="10"/>
<path d="M61.6475 101.139H36.0664C36.0664 101.139 36.0664 100.633 36.0664 100.013V93.4887C36.0664 92.8695 36.0665 92.3628 36.0665 92.3628H62.7734C62.7734 92.3628 62.7734 92.8695 62.7734 93.4887V101.139C62.7734 101.139 62.2724 101.139 61.6475 101.139Z" fill="#110C11" stroke="white" stroke-width="0.72314" stroke-miterlimit="10"/>
<g filter="url(#filter0_b_904_21071)">
<path d="M40.9237 83.0332H45.6621C61.5858 54.4145 84.6066 52.2655 84.6066 52.2655V32.0332C55.9879 47.0973 43.2824 77.8651 43.2824 77.8651C43.2824 77.8651 39.194 64.95 25 59.1423V73.3469C25 73.3574 34.4662 73.567 40.9237 83.0332Z" fill="url(#paint0_linear_904_21071)" fill-opacity="0.8"/>
</g>
<defs>
<filter id="filter0_b_904_21071" x="21" y="28.0332" width="67.6055" height="59" filterUnits="userSpaceOnUse" color-interpolation-filters="sRGB">
<feFlood flood-opacity="0" result="BackgroundImageFix"/>
<feGaussianBlur in="BackgroundImage" stdDeviation="2"/>
<feComposite in2="SourceAlpha" operator="in" result="effect1_backgroundBlur_904_21071"/>
<feBlend mode="normal" in="SourceGraphic" in2="effect1_backgroundBlur_904_21071" result="shape"/>
</filter>
<linearGradient id="paint0_linear_904_21071" x1="25" y1="32.0332" x2="96.1756" y2="93.2987" gradientUnits="userSpaceOnUse">
<stop stop-color="#4744FD"/>
<stop offset="1" stop-color="#CA6394"/>
</linearGradient>
</defs>
</svg>
