<svg width="145" height="125" viewBox="0 0 145 125" fill="none" xmlns="http://www.w3.org/2000/svg">
<path d="M7 36.0332H116V98.0332C116 98.0332 114.754 98.0332 113.217 98.0332H9.78894C8.25116 98.0332 7.00551 98.0332 7.00551 98.0332V36.0332H7Z" fill="#110C11" stroke="white" stroke-miterlimit="10"/>
<path d="M7.00002 22.0332H116C116 22.0332 116 23.472 116 25.2483V36.0332H7.00038V25.2483C7.00038 23.472 6.99989 22.0332 7.00002 22.0332Z" fill="#110C11" stroke="white" stroke-miterlimit="10"/>
<path d="M15.665 31.1512C16.8736 31.1512 17.8534 30.1715 17.8534 28.9628C17.8534 27.7542 16.8736 26.7744 15.665 26.7744C14.4563 26.7744 13.4766 27.7542 13.4766 28.9628C13.4766 30.1715 14.4563 31.1512 15.665 31.1512Z" fill="white" stroke="white" stroke-miterlimit="10" stroke-linecap="round" stroke-linejoin="round"/>
<path d="M23.2431 31.1517C24.4517 31.1517 25.4315 30.1719 25.4315 28.9633C25.4315 27.7547 24.4517 26.7749 23.2431 26.7749C22.0345 26.7749 21.0547 27.7547 21.0547 28.9633C21.0547 30.1719 22.0345 31.1517 23.2431 31.1517Z" fill="white" stroke="white" stroke-miterlimit="10" stroke-linecap="round" stroke-linejoin="round"/>
<path d="M30.8095 31.1512C32.0181 31.1512 32.9979 30.1715 32.9979 28.9628C32.9979 27.7542 32.0181 26.7744 30.8095 26.7744C29.6009 26.7744 28.6211 27.7542 28.6211 28.9628C28.6211 30.1715 29.6009 31.1512 30.8095 31.1512Z" fill="white" stroke="white" stroke-miterlimit="10" stroke-linecap="round" stroke-linejoin="round"/>
<path d="M64.6647 69.5327C64.6553 69.5327 64.6442 69.5307 64.6296 69.5226L64.3885 69.9606C64.23 69.8734 64.105 69.7132 64.0429 69.5157L64.5199 69.3658C64.5075 69.3263 64.5 69.281 64.5 69.2314V66.865H64V62.1321H64.5V57.3992H64V52.6663H64.5V47.9334H64V43.2005H64.5V40.834C64.5 40.7844 64.5075 40.7392 64.5199 40.6996L64.0429 40.5498C64.105 40.3522 64.23 40.1921 64.3885 40.1048L64.6296 40.5428C64.6442 40.5348 64.6553 40.5327 64.6647 40.5327H66.9482V40.0327H71.5153V40.5327H76.0824V40.0327H80.6494V40.5327H85.2165V40.0327H89.7835V40.5327H94.3506V40.0327H98.9176V40.5327H103.485V40.0327H108.052V40.5327H110.335C110.345 40.5327 110.356 40.5348 110.37 40.5428L110.612 40.1048C110.77 40.1921 110.895 40.3522 110.957 40.5498L110.48 40.6996C110.492 40.7392 110.5 40.7844 110.5 40.834V43.2005H111V47.9334H110.5V52.6663H111V57.3992H110.5V62.1321H111V66.865H110.5V69.2314C110.5 69.281 110.492 69.3263 110.48 69.3658L110.957 69.5157C110.895 69.7132 110.77 69.8734 110.612 69.9606L110.37 69.5226C110.356 69.5307 110.345 69.5327 110.335 69.5327H108.052V70.0327H103.485V69.5327H98.9176V70.0327H94.3506V69.5327H89.7835V70.0327H85.2165V69.5327H80.6494V70.0327H76.0824V69.5327H71.5153V70.0327H66.9482V69.5327H64.6647Z" stroke="white" stroke-dasharray="4.47 4.47"/>
<path d="M60.307 69.0332H12.693C12.3099 69.0332 12 68.6868 12 68.2584V40.808C12 40.3796 12.3099 40.0332 12.693 40.0332H60.307C60.6901 40.0332 61 40.3796 61 40.808V68.2647C61 68.6868 60.6901 69.0332 60.307 69.0332Z" fill="#110C11" stroke="white" stroke-miterlimit="10" stroke-linecap="round" stroke-linejoin="round"/>
<path d="M24.0225 68.8366H13.0804C12.6516 68.8366 12.3047 68.4898 12.3047 68.0609V40.5765C12.3047 40.1477 12.6516 39.8008 13.0804 39.8008H24.0225V68.8366Z" fill="white" stroke="white" stroke-miterlimit="10" stroke-linecap="round" stroke-linejoin="round"/>
<path d="M58 45.0332H27V58.0332H58V45.0332Z" fill="#110C11" stroke="white" stroke-miterlimit="10" stroke-linecap="round" stroke-linejoin="round"/>
<g filter="url(#filter0_b_904_21070)">
<path d="M102.671 79.4941C90.7076 79.4941 81 89.2017 81 101.165C81 113.129 90.7076 122.836 102.671 122.836C114.635 122.836 124.342 113.129 124.342 101.165C124.376 89.2017 114.669 79.4941 102.671 79.4941Z" fill="url(#paint0_linear_904_21070)" fill-opacity="0.8"/>
<path d="M102.672 110.636V91.6992" stroke="white" stroke-miterlimit="10" stroke-linecap="round" stroke-linejoin="round"/>
<path d="M93.2344 101.168H112.137" stroke="white" stroke-miterlimit="10" stroke-linecap="round" stroke-linejoin="round"/>
</g>
<defs>
<filter id="filter0_b_904_21070" x="77" y="75.4941" width="51.3438" height="51.3423" filterUnits="userSpaceOnUse" color-interpolation-filters="sRGB">
<feFlood flood-opacity="0" result="BackgroundImageFix"/>
<feGaussianBlur in="BackgroundImage" stdDeviation="2"/>
<feComposite in2="SourceAlpha" operator="in" result="effect1_backgroundBlur_904_21070"/>
<feBlend mode="normal" in="SourceGraphic" in2="effect1_backgroundBlur_904_21070" result="shape"/>
</filter>
<linearGradient id="paint0_linear_904_21070" x1="81" y1="79.4941" x2="139.416" y2="122.516" gradientUnits="userSpaceOnUse">
<stop stop-color="#4744FD"/>
<stop offset="1" stop-color="#CA6394"/>
</linearGradient>
</defs>
</svg>
