<svg width="145" height="125" viewBox="0 0 145 125" fill="none" xmlns="http://www.w3.org/2000/svg">
<path d="M8.21973 25.4043H74.8065V78.7794C74.8065 78.7794 73.8474 78.7794 72.6593 78.7794H8.21875C8.21875 78.7794 8.21973 77.8909 8.21973 76.7902V25.4043Z" fill="#110C11" stroke="white" stroke-miterlimit="10"/>
<path d="M8.21875 14.9668H74.8068C74.8068 14.9668 74.8068 15.856 74.8068 16.9566V25.4038H8.21994V16.9566C8.21994 15.856 8.21875 14.9668 8.21875 14.9668Z" fill="white" stroke="white" stroke-miterlimit="10"/>
<path d="M50.5634 18.5352H32.4688C32.4688 18.5352 32.469 19.2711 32.469 20.1861C32.469 21.0945 32.4708 21.8371 32.4708 21.8371H50.5634C50.5634 21.8371 50.5634 21.1011 50.5634 20.1861C50.5634 19.2711 50.5634 18.5352 50.5634 18.5352Z" fill="#110C11"/>
<path d="M17.8945 65.1758H100.134V94.6094C100.134 94.6094 98.4777 94.6094 96.426 94.6094H21.6023C19.5507 94.6094 17.8945 94.6094 17.8945 94.6094V65.1758Z" fill="#110C11" stroke="white" stroke-miterlimit="10"/>
<path d="M17.8953 50.3672H100.134C100.134 50.3672 100.134 51.9007 100.134 53.8003V65.1755H17.8945V53.8003C17.8945 51.9007 17.8953 50.3672 17.8953 50.3672Z" fill="#110C11" stroke="white" stroke-miterlimit="10"/>
<path d="M27.5096 60.1183C28.9021 60.1183 30.0309 59.0731 30.0309 57.7838C30.0309 56.4944 28.9021 55.4492 27.5096 55.4492C26.1171 55.4492 24.9883 56.4944 24.9883 57.7838C24.9883 59.0731 26.1171 60.1183 27.5096 60.1183Z" fill="white" stroke="white" stroke-miterlimit="10"/>
<path d="M36.2635 60.1183C37.656 60.1183 38.7848 59.0731 38.7848 57.7838C38.7848 56.4944 37.656 55.4492 36.2635 55.4492C34.871 55.4492 33.7422 56.4944 33.7422 57.7838C33.7422 59.0731 34.871 60.1183 36.2635 60.1183Z" fill="white" stroke="white" stroke-miterlimit="10"/>
<path d="M44.9862 60.1183C46.3786 60.1183 47.5074 59.0731 47.5074 57.7838C47.5074 56.4944 46.3786 55.4492 44.9862 55.4492C43.5937 55.4492 42.4648 56.4944 42.4648 57.7838C42.4648 59.0731 43.5937 60.1183 44.9862 60.1183Z" fill="white" stroke="white" stroke-miterlimit="10"/>
<path d="M44.7397 84.3355H38.4117C37.7196 84.3355 37.1758 83.832 37.1758 83.1912V77.3319C37.1758 76.691 37.7196 76.1875 38.4117 76.1875H44.7397C45.4318 76.1875 45.9757 76.691 45.9757 77.3319V83.1912C45.9757 83.832 45.4071 84.3355 44.7397 84.3355Z" fill="white" stroke="white" stroke-miterlimit="10"/>
<path d="M62.189 84.3355H55.8609C55.1688 84.3355 54.625 83.832 54.625 83.1912V77.3319C54.625 76.691 55.1688 76.1875 55.8609 76.1875H62.189C62.8811 76.1875 63.4249 76.691 63.4249 77.3319V83.1912C63.4249 83.832 62.8564 84.3355 62.189 84.3355Z" fill="#110C11" stroke="white" stroke-miterlimit="10"/>
<path d="M79.6186 84.3355H73.2906C72.5985 84.3355 72.0547 83.832 72.0547 83.1912V77.3319C72.0547 76.691 72.5985 76.1875 73.2906 76.1875H79.6186C80.3108 76.1875 80.8546 76.691 80.8546 77.3319V83.1912C80.8793 83.832 80.3108 84.3355 79.6186 84.3355Z" stroke="white" stroke-miterlimit="10"/>
<g filter="url(#filter0_b_904_21069)">
<path d="M67.2988 80.7925C69.0456 79.2742 71.3984 78.2839 74.2859 77.8218C78.1002 77.1947 81.4155 77.5248 84.2317 78.8121C87.0836 80.0994 88.7947 82.3769 89.4363 85.6777C89.8285 87.6911 89.6146 89.5065 88.759 91.0579C88.2956 92.0151 87.2618 93.2694 85.6933 94.8868L84.1604 96.4711C83.3049 97.3293 82.8414 98.2536 82.6989 99.2438C82.6276 99.7059 82.6632 100.333 82.7702 101.125C82.8414 101.653 82.4493 102.115 81.9146 102.214L77.1734 102.974C76.5674 103.073 75.997 102.677 75.9257 102.115C75.6405 100.003 75.6405 98.4846 75.8544 97.5604C76.1039 96.4711 76.9951 95.1508 78.5636 93.5334L80.1322 91.9161C80.6669 91.3879 81.059 90.8599 81.3442 90.2987C81.8433 89.3415 82.0215 88.3512 81.8076 87.295C81.5938 86.1067 80.9877 85.0835 80.0609 84.2253C79.134 83.3671 77.6724 83.1031 75.6761 83.4331C73.7155 83.7632 72.4678 84.5884 71.8618 85.9087C71.3984 86.9649 71.1845 87.9882 71.2558 89.0114C71.2914 89.5065 70.8993 89.9356 70.3646 90.0017L65.1599 90.8598C64.5539 90.9589 63.9479 90.5628 63.9122 89.9687C63.5914 86.0077 64.7322 82.971 67.2988 80.7925ZM77.5299 106.208L82.984 105.317C83.5544 105.218 84.1248 105.581 84.2317 106.109L85.1586 110.928C85.2655 111.457 84.8734 111.985 84.303 112.084L78.8488 112.975C78.2785 113.074 77.7081 112.711 77.6012 112.183L76.6743 107.364C76.5674 106.803 76.9595 106.307 77.5299 106.208Z" fill="url(#paint0_linear_904_21069)" fill-opacity="0.8"/>
<path d="M111.002 88.5503C113.355 89.0125 115.565 90.2007 117.668 92.0821C120.413 94.5907 122.053 97.2973 122.588 100.169C123.123 103.041 122.089 105.681 119.558 108.058C117.989 109.51 116.278 110.401 114.424 110.665C113.319 110.863 111.608 110.83 109.291 110.566L107.01 110.302C105.762 110.17 104.657 110.335 103.73 110.797C103.302 111.029 102.732 111.392 102.09 111.92C101.662 112.283 101.021 112.25 100.629 111.887L97.2064 108.784C96.7786 108.388 96.7786 107.728 97.242 107.332C98.9532 105.912 100.236 105.021 101.199 104.625C102.304 104.196 103.98 104.097 106.297 104.328L108.649 104.592C109.398 104.691 110.111 104.658 110.753 104.559C111.893 104.394 112.856 103.932 113.64 103.173C114.567 102.315 115.102 101.291 115.316 100.103C115.53 98.9147 114.924 97.6604 113.462 96.3401C112.036 95.0528 110.574 94.5908 109.077 94.9208C107.901 95.1849 106.867 95.614 106.011 96.2741C105.584 96.5712 105.013 96.5382 104.621 96.1751L100.878 92.7423C100.45 92.3462 100.45 91.6531 100.914 91.29C104.265 88.8144 107.616 87.8902 111.002 88.5503ZM94.5684 111.029L98.5254 114.626C98.9532 115.022 98.9532 115.65 98.5254 116.013L94.818 119.478C94.3902 119.875 93.7129 119.875 93.3207 119.478L89.3638 115.881C88.936 115.485 88.936 114.857 89.3638 114.494L93.0712 111.029C93.499 110.665 94.1763 110.632 94.5684 111.029Z" fill="url(#paint1_linear_904_21069)" fill-opacity="0.8"/>
</g>
<defs>
<filter id="filter0_b_904_21069" x="59.8594" y="73.5137" width="66.8672" height="50.2617" filterUnits="userSpaceOnUse" color-interpolation-filters="sRGB">
<feFlood flood-opacity="0" result="BackgroundImageFix"/>
<feGaussianBlur in="BackgroundImage" stdDeviation="2"/>
<feComposite in2="SourceAlpha" operator="in" result="effect1_backgroundBlur_904_21069"/>
<feBlend mode="normal" in="SourceGraphic" in2="effect1_backgroundBlur_904_21069" result="shape"/>
</filter>
<linearGradient id="paint0_linear_904_21069" x1="63.8594" y1="77.5137" x2="105.507" y2="99.7901" gradientUnits="userSpaceOnUse">
<stop stop-color="#4744FD"/>
<stop offset="1" stop-color="#CA6394"/>
</linearGradient>
<linearGradient id="paint1_linear_904_21069" x1="89.043" y1="88.3438" x2="132.189" y2="122.394" gradientUnits="userSpaceOnUse">
<stop stop-color="#4744FD"/>
<stop offset="1" stop-color="#CA6394"/>
</linearGradient>
</defs>
</svg>
