<svg width="145" height="118" viewBox="0 0 145 118" fill="none" xmlns="http://www.w3.org/2000/svg">
  <path d="M0.53009 27.0332H139.413V80.0401H0.53009V27.0332Z" stroke="#312E2E"
    stroke-miterlimit="10" />
  <path
    d="M0.53009 0.529297H139.413V27.0328H0.53009V6.6781C0.53009 3.27506 0.53009 0.529297 0.53009 0.529297Z"
    fill="#312E2E" stroke="#312E2E" stroke-miterlimit="10" />
  <path
    d="M17.5035 17.8829C20.0055 17.8829 22.0304 16.0065 22.0304 13.6954C22.0304 11.3843 20.0055 9.50781 17.5035 9.50781C15.0015 9.50781 12.9765 11.3843 12.9765 13.6954C12.9765 16.0065 15.0015 17.8829 17.5035 17.8829Z"
    fill="white" stroke="white" stroke-miterlimit="10" />
  <path
    d="M33.2259 17.8829C35.7279 17.8829 37.7528 16.0065 37.7528 13.6954C37.7528 11.3843 35.7279 9.50781 33.2259 9.50781C30.7238 9.50781 28.6989 11.3843 28.6989 13.6954C28.6989 16.0065 30.7238 17.8829 33.2259 17.8829Z"
    fill="white" stroke="white" stroke-miterlimit="10" />
  <path
    d="M48.8846 17.8829C51.3867 17.8829 53.4116 16.0065 53.4116 13.6954C53.4116 11.3843 51.3867 9.50781 48.8846 9.50781C46.3826 9.50781 44.3577 11.3843 44.3577 13.6954C44.3577 16.0065 46.3826 17.8829 48.8846 17.8829Z"
    fill="white" stroke="white" stroke-miterlimit="10" />
  <path d="M59.6772 36.8398H6.71091V44.2608H59.6772V36.8398Z" fill="white" stroke="#110C11"
    stroke-linecap="round" stroke-linejoin="round" />
  <path d="M38.0602 50.4199H6.71091V56.7808H38.0602V50.4199Z" fill="white" stroke="#110C11"
    stroke-linecap="round" stroke-linejoin="round" />
  <g opacity="0.9">
    <path
      d="M98.7976 14.2476V29.4712C98.7976 30.5101 99.9108 31.1568 100.801 30.6374C105.053 28.1566 117.605 21.6262 123.298 27.7856C130.486 35.567 119.937 50.5892 115.983 57.2786C112.686 62.855 106.6 71.4527 103.759 75.407C103.123 76.2975 103.759 77.5273 104.851 77.5273H119.27C119.704 77.5273 120.107 77.3259 120.362 76.9654C121.602 75.2162 125.525 69.6929 129.288 64.5406C133.667 58.5508 138.978 48.9247 141.724 42.7229C145.403 34.4221 148.446 22.0502 136.466 12.615C127.041 5.18344 109.77 7.01748 99.4549 13.0709C99.0414 13.3147 98.7976 13.7706 98.7976 14.2476Z"
      fill="url(#paint0_linear_3266_32225)" />
  </g>
  <path
    d="M111.498 105.812C117.957 105.812 123.192 100.577 123.192 94.1191C123.192 87.6611 117.957 82.4258 111.498 82.4258C105.04 82.4258 99.8048 87.6611 99.8048 94.1191C99.8048 100.577 105.04 105.812 111.498 105.812Z"
    fill="url(#paint1_linear_3266_32225)" fill-opacity="0.8" />
  <path
    d="M72.0856 85.787C81.1371 85.787 88.4748 78.4496 88.4748 69.3984C88.4748 60.3472 81.1371 53.0098 72.0856 53.0098C63.0341 53.0098 55.6964 60.3472 55.6964 69.3984C55.6964 78.4496 63.0341 85.787 72.0856 85.787Z"
    fill="white" stroke="#231F20" stroke-miterlimit="10" />
  <path
    d="M72.0856 81.8831C78.9803 81.8831 84.5695 76.294 84.5695 69.3995C84.5695 62.5051 78.9803 56.916 72.0856 56.916C65.1909 56.916 59.6017 62.5051 59.6017 69.3995C59.6017 76.294 65.1909 81.8831 72.0856 81.8831Z"
    fill="white" stroke="#231F20" stroke-miterlimit="10" />
  <path
    d="M77.1432 85.5308C77.1432 85.5308 77.3192 83.3382 79.0638 82.6019C80.8083 81.8657 82.3128 82.794 82.857 83.6102C83.4012 84.4265 95.9011 102.672 95.9011 102.672C95.9011 102.672 96.8614 106.657 93.0522 108.305C89.243 109.97 86.7782 106.865 86.7782 106.865L77.1432 85.5308Z"
    fill="white" stroke="#231F20" stroke-miterlimit="10" />
  <defs>
    <linearGradient id="paint0_linear_3266_32225" x1="98.7976" y1="42.6381" x2="145" y2="42.6381"
      gradientUnits="userSpaceOnUse">
      <stop stop-color="#4744FD" />
      <stop offset="1" stop-color="#CA6394" />
    </linearGradient>
    <linearGradient id="paint1_linear_3266_32225" x1="99.8048" y1="94.1191" x2="123.192"
      y2="94.1191" gradientUnits="userSpaceOnUse">
      <stop stop-color="#4744FD" />
      <stop offset="1" stop-color="#CA6394" />
    </linearGradient>
  </defs>
</svg>
