<svg width="60" height="40" viewBox="0 0 60 40" fill="none" xmlns="http://www.w3.org/2000/svg">
  <g clip-path="url(#clip0_1261_1802)">
    <path d="M59.2312 0H0V40H59.2312V0Z" fill="#110C11" />
    <path
      d="M43.8438 15.4812V18.6649L49.3049 20.8766L43.8438 23.0681V26.2488L53.0743 22.3011V19.4307L43.8438 15.4812Z"
      fill="white" />
    <path
      d="M6.15625 19.4307V22.3011L15.3868 26.25V23.0693L9.92572 20.8778L15.3868 18.6661V15.4812L6.15625 19.4307Z"
      fill="white" />
    <path
      d="M29.1075 27.6931L27.8453 24.4093H21.4045L20.1204 27.6931H16.9219L23.2324 12.3083H25.9955L32.306 27.6931H29.1075ZM24.6249 16.0974L22.4926 21.5851H26.7353L24.6249 16.0974Z"
      fill="white" />
    <path d="M40.262 12.3093L33.8438 27.6928H37.0991L43.0743 12.3093H40.262Z" fill="white" />
  </g>
  <defs>
    <clipPath id="clip0_1261_1802">
      <rect width="59.2312" height="40" fill="white" />
    </clipPath>
  </defs>
</svg>
