<svg width="345" height="48" viewBox="0 0 345 48" fill="none" xmlns="http://www.w3.org/2000/svg">
<path d="M66.2188 16.084V20.8931L74.4665 24.2333L66.2188 27.5431V32.3468L80.1593 26.3838V22.0488L66.2188 16.084Z" fill="white"/>
<path d="M9.29688 22.0488V26.3838L23.2375 32.3486V27.5449L14.9898 24.2351L23.2375 20.8948V16.084L9.29688 22.0488Z" fill="white"/>
<path d="M43.966 34.5279L42.0597 29.5685H32.3324L30.393 34.5279H25.5625L35.093 11.293H39.266L48.7965 34.5279H43.966ZM37.1961 17.0145L33.9757 25.3024H40.3833L37.1961 17.0145Z" fill="white"/>
<path d="M60.8183 11.2949L51.125 34.5281H56.0414L65.0656 11.2949H60.8183Z" fill="white"/>
<path d="M119.837 32H116.015L114.507 28.282H106.811L105.277 32H101.455L108.995 14.58H112.297L119.837 32ZM113.181 25.084L110.659 18.87L108.111 25.084H113.181ZM133.259 19L127.851 32H124.211L118.803 19H122.495L126.031 27.814L129.567 19H133.259ZM148.015 19.026V32H144.583V30.986C143.421 31.922 141.991 32.39 140.293 32.39C138.577 32.39 137.086 31.74 135.821 30.44C134.555 29.14 133.923 27.502 133.923 25.526C133.923 23.55 134.555 21.912 135.821 20.612C137.103 19.2947 138.594 18.636 140.293 18.636C142.009 18.636 143.439 19.1127 144.583 20.066V19.026H148.015ZM140.891 29.4C141.861 29.4 142.719 29.0447 143.465 28.334C144.21 27.606 144.583 26.67 144.583 25.526C144.583 24.382 144.21 23.446 143.465 22.718C142.719 21.99 141.861 21.626 140.891 21.626C139.833 21.626 138.958 21.9813 138.265 22.692C137.589 23.4027 137.251 24.3473 137.251 25.526C137.251 26.7047 137.589 27.6493 138.265 28.36C138.958 29.0533 139.833 29.4 140.891 29.4ZM155.076 32H151.644V13.28H155.076V32ZM164.76 18.714C166.702 18.714 168.348 19.3553 169.7 20.638C171.07 21.9033 171.754 23.5327 171.754 25.526C171.754 27.5193 171.07 29.1573 169.7 30.44C168.348 31.7053 166.702 32.338 164.76 32.338C162.784 32.338 161.112 31.7053 159.742 30.44C158.373 29.1573 157.688 27.5193 157.688 25.526C157.688 23.5327 158.373 21.9033 159.742 20.638C161.112 19.3553 162.784 18.714 164.76 18.714ZM164.76 29.4C165.714 29.4 166.563 29.0447 167.308 28.334C168.054 27.606 168.426 26.67 168.426 25.526C168.426 24.382 168.054 23.4547 167.308 22.744C166.563 22.016 165.714 21.652 164.76 21.652C163.772 21.652 162.897 22.0073 162.134 22.718C161.389 23.4287 161.016 24.3647 161.016 25.526C161.016 26.6873 161.389 27.6233 162.134 28.334C162.897 29.0447 163.772 29.4 164.76 29.4ZM181.857 18.636C183.417 18.636 184.674 19.1473 185.627 20.17C186.581 21.1753 187.057 22.484 187.057 24.096V32H183.625V24.824C183.625 23.9053 183.383 23.1687 182.897 22.614C182.429 22.0593 181.797 21.782 180.999 21.782C178.85 21.782 177.775 23.2727 177.775 26.254V32H174.343V19.026H177.775V20.196C178.815 19.156 180.176 18.636 181.857 18.636ZM200.223 32H196.687V14.58H200.223V32ZM211.387 18.636C212.947 18.636 214.203 19.1473 215.157 20.17C216.11 21.1753 216.587 22.484 216.587 24.096V32H213.155V24.824C213.155 23.9053 212.912 23.1687 212.427 22.614C211.959 22.0593 211.326 21.782 210.529 21.782C208.379 21.782 207.305 23.2727 207.305 26.254V32H203.873V19.026H207.305V20.196C208.345 19.156 209.705 18.636 211.387 18.636ZM227.408 18.636C228.968 18.636 230.225 19.1473 231.178 20.17C232.132 21.1753 232.608 22.484 232.608 24.096V32H229.176V24.824C229.176 23.9053 228.934 23.1687 228.448 22.614C227.98 22.0593 227.348 21.782 226.55 21.782C224.401 21.782 223.326 23.2727 223.326 26.254V32H219.894V19.026H223.326V20.196C224.366 19.156 225.727 18.636 227.408 18.636ZM241.948 18.714C243.889 18.714 245.536 19.3553 246.888 20.638C248.257 21.9033 248.942 23.5327 248.942 25.526C248.942 27.5193 248.257 29.1573 246.888 30.44C245.536 31.7053 243.889 32.338 241.948 32.338C239.972 32.338 238.299 31.7053 236.93 30.44C235.56 29.1573 234.876 27.5193 234.876 25.526C234.876 23.5327 235.56 21.9033 236.93 20.638C238.299 19.3553 239.972 18.714 241.948 18.714ZM241.948 29.4C242.901 29.4 243.75 29.0447 244.496 28.334C245.241 27.606 245.614 26.67 245.614 25.526C245.614 24.382 245.241 23.4547 244.496 22.744C243.75 22.016 242.901 21.652 241.948 21.652C240.96 21.652 240.084 22.0073 239.322 22.718C238.576 23.4287 238.204 24.3647 238.204 25.526C238.204 26.6873 238.576 27.6233 239.322 28.334C240.084 29.0447 240.96 29.4 241.948 29.4ZM264.046 19L258.638 32H254.998L249.59 19H253.282L256.818 27.814L260.354 19H264.046ZM278.802 19.026V32H275.37V30.986C274.208 31.922 272.778 32.39 271.08 32.39C269.364 32.39 267.873 31.74 266.608 30.44C265.342 29.14 264.71 27.502 264.71 25.526C264.71 23.55 265.342 21.912 266.608 20.612C267.89 19.2947 269.381 18.636 271.08 18.636C272.796 18.636 274.226 19.1127 275.37 20.066V19.026H278.802ZM271.678 29.4C272.648 29.4 273.506 29.0447 274.252 28.334C274.997 27.606 275.37 26.67 275.37 25.526C275.37 24.382 274.997 23.446 274.252 22.718C273.506 21.99 272.648 21.626 271.678 21.626C270.62 21.626 269.745 21.9813 269.052 22.692C268.376 23.4027 268.038 24.3473 268.038 25.526C268.038 26.7047 268.376 27.6493 269.052 28.36C269.745 29.0533 270.62 29.4 271.678 29.4ZM290.881 28.568L291.869 31.428C290.673 32.0693 289.547 32.39 288.489 32.39C286.895 32.39 285.647 31.9653 284.745 31.116C283.844 30.2493 283.393 28.9493 283.393 27.216V21.834H280.611V19.026H283.393V15.1H286.825V19.026H291.063V21.834H286.825V26.956C286.825 28.4467 287.458 29.192 288.723 29.192C289.382 29.192 290.101 28.984 290.881 28.568ZM294.121 13.722C294.519 13.306 295.013 13.098 295.603 13.098C296.192 13.098 296.686 13.306 297.085 13.722C297.483 14.1207 297.683 14.5973 297.683 15.152C297.683 15.724 297.483 16.2007 297.085 16.582C296.686 16.9633 296.192 17.154 295.603 17.154C294.996 17.154 294.493 16.9633 294.095 16.582C293.713 16.2007 293.523 15.724 293.523 15.152C293.523 14.5973 293.722 14.1207 294.121 13.722ZM297.319 32H293.887V19.026H297.319V32ZM307.176 18.714C309.118 18.714 310.764 19.3553 312.116 20.638C313.486 21.9033 314.17 23.5327 314.17 25.526C314.17 27.5193 313.486 29.1573 312.116 30.44C310.764 31.7053 309.118 32.338 307.176 32.338C305.2 32.338 303.528 31.7053 302.158 30.44C300.789 29.1573 300.104 27.5193 300.104 25.526C300.104 23.5327 300.789 21.9033 302.158 20.638C303.528 19.3553 305.2 18.714 307.176 18.714ZM307.176 29.4C308.13 29.4 308.979 29.0447 309.724 28.334C310.47 27.606 310.842 26.67 310.842 25.526C310.842 24.382 310.47 23.4547 309.724 22.744C308.979 22.016 308.13 21.652 307.176 21.652C306.188 21.652 305.313 22.0073 304.55 22.718C303.805 23.4287 303.432 24.3647 303.432 25.526C303.432 26.6873 303.805 27.6233 304.55 28.334C305.313 29.0447 306.188 29.4 307.176 29.4ZM324.273 18.636C325.833 18.636 327.09 19.1473 328.043 20.17C328.997 21.1753 329.473 22.484 329.473 24.096V32H326.041V24.824C326.041 23.9053 325.799 23.1687 325.313 22.614C324.845 22.0593 324.213 21.782 323.415 21.782C321.266 21.782 320.191 23.2727 320.191 26.254V32H316.759V19.026H320.191V20.196C321.231 19.156 322.592 18.636 324.273 18.636ZM331.689 28.568L335.147 27.866C335.303 29.0447 336.196 29.634 337.825 29.634C338.449 29.634 338.943 29.5127 339.307 29.27C339.671 29.0273 339.853 28.7153 339.853 28.334C339.853 27.762 339.376 27.372 338.423 27.164L335.771 26.618C334.592 26.3753 333.682 25.9333 333.041 25.292C332.417 24.6507 332.105 23.862 332.105 22.926C332.105 21.6607 332.582 20.6293 333.535 19.832C334.506 19.0347 335.797 18.636 337.409 18.636C338.917 18.636 340.174 18.9913 341.179 19.702C342.202 20.4127 342.826 21.34 343.051 22.484L339.775 23.134C339.706 22.5967 339.446 22.1633 338.995 21.834C338.562 21.5047 337.998 21.34 337.305 21.34C336.681 21.34 336.23 21.47 335.953 21.73C335.676 21.9727 335.537 22.2673 335.537 22.614C335.537 23.1687 335.927 23.5327 336.707 23.706L339.801 24.382C340.91 24.6247 341.751 25.0753 342.323 25.734C342.912 26.3753 343.207 27.1467 343.207 28.048C343.207 29.452 342.687 30.5267 341.647 31.272C340.624 32.0173 339.246 32.39 337.513 32.39C335.97 32.39 334.653 32.078 333.561 31.454C332.469 30.8127 331.845 29.8507 331.689 28.568Z" fill="white"/>
</svg>
