<svg width="26" height="25" viewBox="0 0 26 25" fill="#312E2E" xmlns="http://www.w3.org/2000/svg">
  <path fill-rule="evenodd" clip-rule="evenodd" d="M21.9364 0.111328H3.79682C2.00339 0.111328 0.554688 1.56105 0.554688 3.34525V21.494C0.554688 23.2864 2.01159 24.735 3.79682 24.735H21.9364C23.7288 24.735 25.1784 23.2792 25.1784 21.494V3.35347C25.1784 1.56105 23.7216 0.111328 21.9364 0.111328ZM15.531 4.64217V5.48655C15.531 5.58403 15.4418 5.65071 15.3515 5.62815C14.6712 5.44141 13.9674 5.34497 13.2564 5.34497C12.5226 5.34423 11.7924 5.44717 11.0875 5.65071C10.99 5.67329 10.9007 5.60557 10.9007 5.50913V4.64217C10.9009 4.35879 11.0137 4.08709 11.2142 3.88681C11.4146 3.68653 11.6864 3.57405 11.9698 3.57411H14.4619C14.7453 3.57405 15.0171 3.68653 15.2176 3.88681C15.4181 4.08709 15.5308 4.35879 15.531 4.64217ZM8.2752 6.16577L8.701 6.59155C8.7605 6.65927 8.75312 6.76391 8.67842 6.80907C8.33504 7.05583 8.01248 7.33035 7.714 7.62985C7.418 7.92721 7.1453 8.24689 6.89832 8.58607C6.83882 8.65277 6.74136 8.66815 6.67364 8.60147L6.25504 8.18287C6.15554 8.08398 6.0766 7.96641 6.02272 7.83691C5.96884 7.70739 5.94112 7.56851 5.94112 7.42825C5.94112 7.28799 5.96884 7.14909 6.02272 7.01959C6.0766 6.89009 6.15554 6.77251 6.25504 6.67362L6.76392 6.16577C6.86314 6.06649 6.98092 5.98773 7.11058 5.93401C7.24024 5.88027 7.37922 5.85261 7.51956 5.85261C7.65992 5.85261 7.79888 5.88027 7.92854 5.93401C8.0582 5.98773 8.176 6.06649 8.2752 6.16577ZM13.249 12.925V9.27246C13.249 9.19038 13.3239 9.13087 13.3988 9.13087C14.8424 9.1832 16.092 9.98962 16.7651 11.1705C16.802 11.2444 16.7794 11.3347 16.7056 11.3716L13.4583 13.0522C13.3619 13.1045 13.249 13.0296 13.249 12.925ZM8.3417 13.1712C8.3417 15.8747 10.5414 18.0714 13.249 18.0714C15.965 18.0714 18.1565 15.8747 18.1565 13.1712C18.1565 10.4677 15.9576 8.27213 13.249 8.27213C10.5414 8.27213 8.3417 10.4677 8.3417 13.1712ZM6.28458 13.1712C6.28458 9.32581 9.4036 6.21091 13.249 6.21091C17.1016 6.21091 20.2134 9.3176 20.2134 13.164C20.2134 17.0105 17.0944 20.1254 13.249 20.1254C9.4036 20.1254 6.28458 17.0177 6.28458 13.1712Z" stroke-width="0" />
</svg>
