<svg viewBox="0 0 176 50" fill="none" xmlns="http://www.w3.org/2000/svg">
  <path d="M30.285 47.33c8.41-1.465 15.356-2.678 15.436-2.694l.145-.03-7.94-9.314c-4.367-5.123-7.94-9.333-7.94-9.358 0-.046 8.199-22.31 8.245-22.39.015-.026 5.595 9.473 13.525 23.027l13.603 23.25.103.179-25.234-.003-25.235-.003 15.292-2.664zm96.772-2.253c-3.841-.242-6.075-2.4-6.667-6.437-.158-1.074-.159-1.101-.175-8.074l-.015-6.747h3.4l.013 6.527c.012 5.882.02 6.572.077 6.986.231 1.679.692 2.808 1.477 3.62.627.648 1.363 1.028 2.38 1.23.48.094 1.846.095 2.283 0 1.032-.224 1.858-.667 2.588-1.386.831-.82 1.446-1.982 1.744-3.296l.1-.443.011-6.583.011-6.582h3.471v20.695h-3.435v-1.642c0-1.115-.013-1.637-.039-1.629-.021.007-.109.14-.196.296a6.934 6.934 0 01-2.659 2.625c-1.295.703-2.594.953-4.369.84zm38.989-.016a9.096 9.096 0 01-3.951-1.272c-2.46-1.5-3.915-3.974-4.341-7.377-.148-1.178-.165-2.76-.042-3.76.275-2.236 1.166-4.431 2.435-5.998a12.352 12.352 0 011.47-1.45 9.218 9.218 0 013.753-1.767c.796-.171 2.198-.252 3.043-.175 2.125.194 4.072 1.18 5.395 2.733 1.345 1.578 2.084 3.782 2.178 6.495.015.426.018 1.171.008 1.657l-.019.884-7.44.01-7.441.009v.327c0 .997.246 2.132.671 3.098.366.833.997 1.743 1.513 2.183a6.703 6.703 0 003.772 1.572c.526.049 1.866-.002 2.465-.093 1.709-.259 3.334-.92 4.646-1.89.155-.114.303-.221.329-.237.038-.024.047.274.046 1.528l-.001 1.558-.352.214a12.426 12.426 0 01-4.985 1.704c-.538.065-2.51.094-3.152.047zm6.475-13.137c0-1.67-.714-3.525-1.723-4.48-.721-.681-1.592-1.098-2.627-1.256-.49-.075-1.523-.046-2.039.057a5.356 5.356 0 00-2.783 1.458 7.466 7.466 0 00-1.842 2.907 9.286 9.286 0 00-.356 1.43l-.024.174h11.394v-.29zM71.593 44.54l5.614-14.545 5.6-14.5h3.598l.148.378c.457 1.153 11.209 28.682 11.209 28.696 0 .01-.861.017-1.914.017h-1.914l-1.55-4.07-1.55-4.068H78.356l-.054.138c-.03.076-.692 1.907-1.471 4.068l-1.417 3.93-1.918.001c-1.518 0-1.915-.009-1.902-.045zm18.103-11.197c0-.006-1.043-2.794-2.318-6.196-2.384-6.362-2.518-6.745-2.706-7.767-.088-.479-.133-.492-.185-.055a10.04 10.04 0 01-.326 1.4 816.36 816.36 0 01-2.386 6.458 990.107 990.107 0 00-2.274 6.14c0 .018 2.294.032 5.098.032 2.803 0 5.097-.006 5.097-.012zm9.224 10.713v-.53l6.216-8.427 6.217-8.428-5.629-.018-5.628-.018-.01-1.409-.01-1.409h16.282v.952l-6.217 8.473c-3.42 4.66-6.218 8.481-6.218 8.491 0 .01 2.765.017 6.143.017h6.143v2.836H98.92v-.53zm45.619.505c-.013-.013-.025-4.686-.025-10.384v-10.36h3.398v2.136c0 1.175.015 2.136.033 2.136.017 0 .1-.192.183-.427a7.378 7.378 0 011.898-2.883 4.948 4.948 0 012.685-1.316c.291-.047.538-.055 1.12-.04.732.018 1.114.071 1.559.215l.14.045v3.478l-.401-.198c-.709-.35-1.409-.489-2.25-.446-.547.028-.907.098-1.344.26a4.243 4.243 0 00-2.142 1.724 9.947 9.947 0 00-1.421 4.03c-.028.246-.044 2.253-.051 6.21l-.009 5.845h-1.674c-.921 0-1.685-.011-1.699-.025zM0 44.49c0-.014 3.741-6.418 8.314-14.233l8.314-14.208 9.69-8.019C31.647 3.62 36.02.007 36.038 0c.018-.006-.052.168-.155.387L25.362 22.64 15.028 44.495l-7.514.01C3.381 44.508 0 44.502 0 44.49z" fill="#0089D6" />
</svg>
