<svg width="37" height="25" viewBox="0 0 37 25" fill="#312E2E" xmlns="http://www.w3.org/2000/svg">
  <path d="M16.8531 23.6649C21.5182 22.9324 25.3713 22.3262 25.4156 22.3179L25.4961 22.3027L21.0917 17.646C18.6693 15.0847 16.6874 12.9793 16.6874 12.9671C16.6874 12.9442 21.2352 1.81189 21.2608 1.77229C21.2694 1.75905 24.3643 6.50869 28.7632 13.2857C32.8815 19.6305 36.2768 24.8619 36.3084 24.9109L36.3658 25L22.3684 24.9984L8.37104 24.9968L16.8531 23.6649ZM0.0546875 22.2448C0.0546875 22.2383 2.12999 19.036 4.66648 15.1286L9.27826 8.02438L14.6528 4.01523C17.6087 1.8102 20.0352 0.00338577 20.045 9.05751e-05C20.0547 -0.00320396 20.0158 0.083791 19.9586 0.193414C19.9013 0.303036 17.2751 5.31004 14.1226 11.3201L8.39074 22.2474L4.22271 22.2521C1.9303 22.2547 0.0546875 22.2514 0.0546875 22.2448Z" stroke-width="0" />
</svg>
