<svg viewBox="0 0 198 31" fill="none" xmlns="http://www.w3.org/2000/svg">
  <path d="M23.275 8.129h1.119l3.188-3.189.157-1.353a14.331 14.331 0 00-23.315 6.992c.355-.146.749-.17 1.119-.067L11.92 9.46s.324-.537.492-.503a7.955 7.955 0 0110.885-.828h-.022z" fill="#EA4335" />
  <path d="M32.124 10.58a14.365 14.365 0 00-4.33-6.982L23.32 8.073a7.953 7.953 0 012.92 6.31v.794a3.982 3.982 0 110 7.966h-7.966l-.794.805v4.777l.794.794h7.966a10.359 10.359 0 005.884-18.94z" fill="#4285F4" />
  <path d="M10.297 29.474h7.966v-6.377h-7.966a3.96 3.96 0 01-1.644-.358l-1.119.347-3.21 3.189-.28 1.119c1.8 1.36 3.997 2.09 6.253 2.08z" fill="#34A853" />
  <path d="M10.298 8.79a10.36 10.36 0 00-6.254 18.57l4.62-4.62a3.983 3.983 0 115.27-5.27l4.62-4.62a10.349 10.349 0 00-8.256-4.06z" fill="#FBBC05" />
  <path d="M57.889 25.022a10.19 10.19 0 01-7.384-3.032 9.846 9.846 0 01-3.099-7.294 9.857 9.857 0 013.1-7.294 10.192 10.192 0 017.383-3.088 9.89 9.89 0 017.082 2.853l-1.992 2.025a7.171 7.171 0 00-5.09-2.014 7.093 7.093 0 00-5.258 2.237 7.305 7.305 0 00-2.16 5.314 7.304 7.304 0 002.16 5.247 7.507 7.507 0 0010.471.123 5.952 5.952 0 001.533-3.479h-6.713v-2.864h9.499c.093.577.13 1.161.112 1.745a8.951 8.951 0 01-2.45 6.601 9.52 9.52 0 01-7.194 2.92zm22.084-1.902a6.846 6.846 0 01-9.476 0 6.376 6.376 0 01-1.935-4.755 6.389 6.389 0 011.935-4.754 6.858 6.858 0 019.476 0 6.387 6.387 0 011.936 4.754 6.378 6.378 0 01-1.947 4.755h.011zm-7.384-1.868a3.626 3.626 0 005.292 0A3.984 3.984 0 0079 18.365a3.994 3.994 0 00-1.119-2.897 3.68 3.68 0 00-5.314 0 3.993 3.993 0 00-1.119 2.897 3.985 3.985 0 001.13 2.887h.011zm21.95 1.868a6.847 6.847 0 01-9.476 0 6.375 6.375 0 01-1.935-4.755 6.389 6.389 0 011.935-4.754 6.846 6.846 0 019.476 0 6.386 6.386 0 011.936 4.754 6.377 6.377 0 01-1.936 4.755zm-7.384-1.868a3.626 3.626 0 005.292 0 3.984 3.984 0 001.119-2.887 3.994 3.994 0 00-1.119-2.897 3.68 3.68 0 00-5.314 0 3.995 3.995 0 00-1.119 2.897 3.983 3.983 0 001.13 2.887h.011zm16.961 9.744a5.864 5.864 0 01-3.726-1.186 6.86 6.86 0 01-2.17-2.752l2.551-1.063a4.283 4.283 0 001.264 1.667 3.188 3.188 0 002.092.705 3.357 3.357 0 002.607-1.007 4.084 4.084 0 00.928-2.909v-.962h-.101A4.255 4.255 0 01104.06 25a6.074 6.074 0 01-4.475-1.946 6.433 6.433 0 01-1.913-4.688 6.5 6.5 0 011.913-4.72 6.064 6.064 0 014.475-1.959 4.812 4.812 0 012.058.46 4.142 4.142 0 011.455 1.062h.1v-1.063h2.775V24.06a6.946 6.946 0 01-1.779 5.202 6.27 6.27 0 01-4.553 1.734zm.201-8.592a3.256 3.256 0 002.528-1.119 4.132 4.132 0 001.018-2.864 4.225 4.225 0 00-1.018-2.92 3.245 3.245 0 00-2.528-1.118 3.453 3.453 0 00-2.618 1.118 4.085 4.085 0 00-1.119 2.898 4.012 4.012 0 001.119 2.864 3.468 3.468 0 002.618 1.141zm11.064-17.34v19.555h-2.92V5.063h2.92zm8.011 19.958a6.356 6.356 0 01-4.71-1.913 6.48 6.48 0 01-1.891-4.744 6.545 6.545 0 011.824-4.788 5.985 5.985 0 014.475-1.868 5.648 5.648 0 012.237.436c.638.258 1.22.638 1.712 1.119.422.408.798.862 1.119 1.354.259.415.48.853.66 1.309l.302.76-8.95 3.68a3.352 3.352 0 003.222 2.015 3.815 3.815 0 003.278-1.846l2.237 1.51a7.374 7.374 0 01-2.148 2.036 6.084 6.084 0 01-3.367.94zm-3.737-6.858l5.952-2.473a2.059 2.059 0 00-.929-1.018 3.03 3.03 0 00-1.532-.391 3.459 3.459 0 00-2.406 1.063 3.553 3.553 0 00-1.085 2.82zM144.413 25.022a9.219 9.219 0 01-9.375-9.431 9.22 9.22 0 019.375-9.431 8.343 8.343 0 016.634 2.953l-1.611 1.566a6.084 6.084 0 00-5.012-2.293 6.832 6.832 0 00-6.535 4.386 6.974 6.974 0 00-.468 2.819 6.974 6.974 0 002.025 5.213 6.833 6.833 0 004.978 1.991 7.113 7.113 0 005.594-2.618l1.611 1.611a8.784 8.784 0 01-3.099 2.361 9.484 9.484 0 01-4.117.873zM155.959 24.62h-2.316V6.55h2.316V24.62zM159.74 13.745a6.476 6.476 0 019.129 0 6.548 6.548 0 011.79 4.699 6.551 6.551 0 01-1.79 4.698 6.48 6.48 0 01-9.129 0 6.533 6.533 0 01-1.79-4.699 6.533 6.533 0 011.79-4.698zm1.723 7.943a3.9 3.9 0 004.38.902c.487-.21.927-.517 1.292-.902a4.478 4.478 0 001.197-3.244 4.479 4.479 0 00-1.197-3.245 3.911 3.911 0 00-2.836-1.22 3.903 3.903 0 00-2.836 1.22 4.48 4.48 0 00-1.197 3.245 4.475 4.475 0 001.208 3.233l-.011.01zM183.491 24.619h-2.237v-1.712h-.068a4.3 4.3 0 01-1.633 1.544 4.563 4.563 0 01-2.293.616 4.352 4.352 0 01-3.513-1.41 5.587 5.587 0 01-1.197-3.781v-7.608h2.316v7.182c0 2.305 1.018 3.457 3.054 3.457a2.843 2.843 0 002.349-1.118c.6-.761.92-1.705.906-2.674v-6.847h2.316V24.62zM191.356 25.022a5.44 5.44 0 01-4.139-1.89 6.711 6.711 0 01-1.734-4.688 6.712 6.712 0 011.734-4.688 5.437 5.437 0 014.139-1.89c.88-.015 1.75.193 2.529.603a4.285 4.285 0 011.678 1.51h.101l-.101-1.71V6.55h2.316V24.62h-2.238v-1.712h-.101a4.278 4.278 0 01-1.678 1.51 5.245 5.245 0 01-2.506.605zm.381-2.115a3.697 3.697 0 002.785-1.208 4.53 4.53 0 001.119-3.255 4.53 4.53 0 00-1.119-3.256 3.78 3.78 0 00-5.593 0 4.472 4.472 0 00-1.119 3.244 4.478 4.478 0 001.119 3.245 3.68 3.68 0 002.808 1.23z" fill="#5F6368" />
</svg>
