<svg viewBox="0 0 132 45" xmlns="http://www.w3.org/2000/svg">
  <path d="M39.94 18.985c-3.804 0-6.315 2.511-6.315 6.09 0 3.555 2.511 6.066 6.315 6.066 1.616 0 2.86-.323 3.73-.994v-2.909h-.125c-.796 1.02-1.914 1.541-3.356 1.541-2.412 0-3.904-1.516-3.904-3.703 0-2.238 1.492-3.73 3.904-3.73 1.417 0 2.536.473 3.356 1.517h.124v-2.858c-.92-.672-2.113-1.02-3.729-1.02zM51.163 18.985c-1.74 0-2.934.696-3.605 2.039h-.05l-.1-1.79h-2.212v11.658h2.635v-5.17c0-2.834 1.02-4.226 3.108-4.226.721 0 1.343.199 1.84.547h.124v-2.61c-.372-.249-.994-.448-1.74-.448z" fill="#528693" />
  <path d="M57.495 35.614l6.986-16.38h-2.71l-3.282 8.45h-.05l-3.256-8.45H52.35l4.699 11.284-2.263 5.096h2.71zM68.937 18.985c-2.81 0-4.674 1.492-4.674 3.779 0 2.212 1.118 3.157 4.152 3.405 1.89.15 2.412.497 2.412 1.268 0 .845-.846 1.392-2.213 1.392-1.79 0-3.207-.547-4.177-1.59h-.124v2.758c.97.746 2.486 1.144 4.425 1.144 2.91 0 4.674-1.417 4.674-3.704 0-2.361-1.218-3.505-4.326-3.679-1.715-.1-2.237-.398-2.237-1.069 0-.82.895-1.392 2.162-1.392 1.517 0 2.736.423 3.531 1.243h.124v-2.71c-.845-.546-2.212-.845-3.729-.845zM81.387 28.108h-.125c-.472.522-1.044.696-1.666.696-1.143 0-1.814-.746-1.814-2.014v-5.27h3.555v-2.287h-3.555v-3.206h-2.188l-.373 3.206h-2.139v2.287h2.065v5.37c0 2.759 1.417 4.25 4.052 4.25.92 0 1.64-.149 2.188-.422v-2.61zM94.14 30.892V19.234h-2.187l-.1 1.665h-.05c-.845-1.193-2.287-1.914-4.176-1.914-3.332 0-5.769 2.56-5.769 6.09s2.437 6.066 5.769 6.066c1.889 0 3.356-.721 4.202-1.914h.05l.074 1.665h2.188zm-6.09-2.113c-2.09 0-3.531-1.54-3.531-3.703 0-2.213 1.442-3.73 3.53-3.73 2.089 0 3.53 1.517 3.53 3.73 0 2.162-1.441 3.703-3.53 3.703zM96.1 30.891h2.636v-17.4H96.1v17.4zM100.712 30.891h2.636v-17.4h-2.636v17.4zM106.641 13.914c-.995 0-1.666.696-1.666 1.69 0 .995.671 1.666 1.666 1.666 1.019 0 1.691-.671 1.691-1.666 0-.994-.672-1.69-1.691-1.69zm-1.318 5.32v11.658h2.636V19.233h-2.636zM109.437 30.891h10.218v-2.286h-6.663l6.539-7.259v-2.113h-9.721v2.287h6.166l-6.539 7.259v2.112zM132 25.87v-1.292c0-3.405-2.288-5.593-5.892-5.593-3.556 0-6.067 2.511-6.067 6.09 0 3.63 2.735 6.066 6.812 6.066 1.84 0 3.432-.448 4.426-1.218v-2.61h-.124c-1.045.994-2.487 1.516-4.202 1.516-2.312 0-3.903-1.094-4.227-2.958H132zm-5.818-4.573c1.815 0 3.158 1.02 3.381 2.61h-6.837c.324-1.566 1.79-2.61 3.456-2.61z" fill="#528693" />
  <path d="M23.91 19.578l-6.487 25.105-8.374-5.341L15.536 0 25 15.37l-1.09 4.208z" fill="#BFF6F8" />
  <path d="M5.967 20.337L3.732 35.946l-1.258-.801L0 16.992l5.967 3.345z" fill="#DFFAFB" />
  <path d="M13.054 9.957L8.29 38.855 4.5 36.437l4.65-32.48 3.904 6z" fill="#CFF8FA" />
  <path d="M30.12 18.45l-5.368 20.682-3.556 2.944-2.834 2.288 6.06-23.452 5.697-2.461z" fill="#ACF3F6" />
</svg>
