<svg viewBox="0 0 159 45" xmlns="http://www.w3.org/2000/svg">
  <path opacity=".54" d="M47.54 34.144h-2.98V11.137h13.53v2.826H47.54v7.554h9.517v2.762H47.54v9.865zm16.153-19.696a2.12 2.12 0 01-2.664.266 2.085 2.085 0 01-.78-2.542 2.113 2.113 0 012.358-1.255 2.098 2.098 0 011.7 2.052 2 2 0 01-.617 1.479h.003zm0 19.696h-2.98V18.4h2.98v15.745zm6.537 0h-2.979V18.4h2.848v2.571h.129a4.044 4.044 0 011.861-2.121 5.354 5.354 0 012.737-.836 5.714 5.714 0 012.233.386l-1.133 2.762a4.536 4.536 0 00-1.586-.226 3.905 3.905 0 00-2.865 1.27c-.832.847-1.247 1.956-1.247 3.326l.002 8.613zm14.992.502c-2.395 0-4.343-.792-5.842-2.377-1.498-1.584-2.249-3.584-2.25-5.997a8.63 8.63 0 012.185-5.912 7.106 7.106 0 015.584-2.475c2.352 0 4.235.76 5.65 2.281 1.414 1.522 2.12 3.557 2.119 6.106l-.033.547H80.103c.086 1.585.62 2.84 1.604 3.766a4.877 4.877 0 003.446 1.38c2.137 0 3.582-.9 4.338-2.698l2.655 1.092a7.07 7.07 0 01-2.556 3.067c-1.19.814-2.645 1.22-4.368 1.22zm4.275-10.292c-.064-.9-.48-1.757-1.247-2.57-.767-.814-1.908-1.212-3.422-1.196a4.29 4.29 0 00-2.865 1.03 5.246 5.246 0 00-1.667 2.761l9.2-.025zm13.935 10.292a6.78 6.78 0 01-3.243-.753 5.48 5.48 0 01-2.152-1.928h-.129v2.18h-2.85V11.136h2.98v7.262l-.13 2.184h.13a5.48 5.48 0 012.151-1.927 6.783 6.783 0 013.243-.771c2.05 0 3.82.803 5.311 2.41 1.49 1.606 2.234 3.599 2.233 5.977-.002 2.378-.745 4.37-2.233 5.977-1.489 1.607-3.259 2.406-5.311 2.398zm-.486-2.698a4.753 4.753 0 003.561-1.56c.993-1.039 1.489-2.415 1.489-4.129 0-1.713-.496-3.09-1.489-4.13a4.876 4.876 0 00-3.565-1.557 4.875 4.875 0 00-3.572 1.543c-.981 1.027-1.472 2.409-1.472 4.144 0 1.736.496 3.121 1.487 4.157a4.762 4.762 0 003.571 1.544l-.01-.012zm15.614 2.698c-1.686 0-3.093-.482-4.223-1.446s-1.696-2.238-1.7-3.823c0-1.714.67-3.057 2.008-4.031 1.339-.974 2.99-1.462 4.952-1.462 1.749 0 3.182.322 4.3.965v-.45a3.505 3.505 0 00-1.199-2.779 4.319 4.319 0 00-2.941-1.032c-.824-.01-1.635.2-2.347.61-.668.367-1.18.961-1.442 1.672l-2.719-1.157c.368-.946 1.091-1.823 2.174-2.63 1.082-.81 2.504-1.21 4.274-1.206 2.023 0 3.709.586 5.058 1.757 1.349 1.172 2.018 2.832 2.008 4.981v9.53h-2.858V31.96h-.129c-1.188 1.791-2.926 2.683-5.212 2.683l-.004.003zm.486-2.698a4.869 4.869 0 003.354-1.353 4.224 4.224 0 001.517-3.229c-.843-.686-2.108-1.029-3.794-1.029-1.446 0-2.536.31-3.27.931a2.79 2.79 0 00-1.1 2.184 2.099 2.099 0 001.012 1.833c.674.45 1.469.685 2.281.675v-.012zm16.477 2.698c-1.771 0-3.232-.428-4.386-1.285a7.616 7.616 0 01-2.529-3.213l2.656-1.092c.843 1.971 2.276 2.957 4.299 2.957a3.95 3.95 0 002.276-.61c.559-.345.897-.953.891-1.607 0-1.027-.724-1.723-2.174-2.088l-3.204-.77a7.653 7.653 0 01-2.881-1.462 3.504 3.504 0 01-1.36-2.907c0-1.392.62-2.522 1.861-3.389a7.516 7.516 0 014.418-1.3 7.414 7.414 0 013.754.951 5.36 5.36 0 012.362 2.716l-2.588 1.05c-.581-1.393-1.79-2.089-3.626-2.089a4.255 4.255 0 00-2.233.547 1.663 1.663 0 00-.906 1.479c0 .9.702 1.511 2.104 1.832l3.139.741c1.489.335 2.59.92 3.303 1.757a4.249 4.249 0 011.067 2.827 4.369 4.369 0 01-1.747 3.534c-1.165.948-2.665 1.421-4.5 1.421h.004zm16.024 0c-2.396 0-4.343-.792-5.842-2.377-1.499-1.584-2.25-3.588-2.251-6.01a8.632 8.632 0 012.185-5.912 7.118 7.118 0 015.592-2.462c2.36 0 4.243.76 5.65 2.282 1.406 1.52 2.112 3.556 2.119 6.105l-.033.547h-12.542c.086 1.585.621 2.84 1.604 3.766a4.874 4.874 0 003.454 1.375c2.136 0 3.582-.9 4.338-2.698l2.655 1.092a7.07 7.07 0 01-2.557 3.067c-1.188.817-2.646 1.225-4.373 1.225h.001zm4.274-10.292c-.064-.9-.48-1.757-1.247-2.57-.767-.814-1.906-1.212-3.417-1.196a4.292 4.292 0 00-2.865 1.03 5.248 5.248 0 00-1.667 2.761l9.196-.025z" fill="#000" />
  <path d="M.017 35.91L5.495.857A1.012 1.012 0 017.387.535l5.666 10.567 2.258-4.3a1.012 1.012 0 011.79 0l15.29 29.108H.017z" fill="#FFA000" />
  <path d="M18.943 22.256l-5.893-11.16L.017 35.912l18.926-13.655z" fill="#F57C00" />
  <path d="M32.39 35.91L28.196 9.946a1.013 1.013 0 00-1.712-.547L.017 35.909l14.644 8.213c.92.514 2.04.514 2.96 0l14.77-8.212z" fill="#FFCA28" />
  <path d="M28.195 9.946a1.013 1.013 0 00-1.712-.547l-5.253 5.266-4.13-7.863a1.012 1.012 0 00-1.79 0l-2.26 4.3L7.386.533a1.012 1.012 0 00-1.892.324L.018 35.91H0l.018.02.144.071L26.475 9.657a1.012 1.012 0 011.715.546l4.16 25.733.041-.026-4.196-25.964zM.065 35.862l5.43-34.756A1.012 1.012 0 017.389.782l5.665 10.567 2.258-4.3a1.012 1.012 0 011.791 0l4.047 7.697L.065 35.862z" fill="#fff" fill-opacity=".2" />
  <path opacity=".2" d="M17.62 43.875c-.92.514-2.04.514-2.959 0L.053 35.685l-.036.226 14.644 8.21c.92.513 2.04.513 2.96 0l14.77-8.21-.038-.233-14.733 8.197z" fill="#A52714" />
  <path d="M28.154 9.952a1.006 1.006 0 00-1.706-.546l-5.235 5.263-4.116-7.86a1.008 1.008 0 00-1.785 0l-2.25 4.298L7.416.545a1.007 1.007 0 00-1.885.323L.074 35.905l14.593 8.206a3.016 3.016 0 002.95 0l14.718-8.206L28.154 9.95z" fill="url(#prefix__paint0_linear_4_397)" />
  <defs>
    <linearGradient id="prefix__paint0_linear_4_397" x1="-1.051" y1="7.582" x2="39.207" y2="28.818" gradientUnits="userSpaceOnUse">
      <stop stop-color="#fff" stop-opacity=".1" />
      <stop offset=".14" stop-color="#fff" stop-opacity=".08" />
      <stop offset=".61" stop-color="#fff" stop-opacity=".02" />
      <stop offset="1" stop-color="#fff" stop-opacity="0" />
    </linearGradient>
  </defs>
</svg>
