<svg viewBox="0 0 114 38" xmlns="http://www.w3.org/2000/svg">
  <path d="M114 33.343c0 1.341-1.08 2.422-2.384 2.422H76.149c-1.304 0-2.384-1.08-2.384-2.422V3.912c0-1.341 1.08-2.422 2.384-2.422h35.467c1.304 0 2.384 1.08 2.384 2.422v29.431z" fill="#F63" />
  <path d="M114 33.343c0 1.341-1.08 2.422-2.384 2.422H76.149c-1.304 0-2.384-1.08-2.384-2.422V3.912c0-1.341 1.08-2.422 2.384-2.422h35.467c1.304 0 2.384 1.08 2.384 2.422v29.431z" fill="url(#prefix__paint0_linear_4_354)" />
  <path d="M80.77 30.847c-1.342 0-2.385-1.08-2.385-2.422V9.09c0-1.34 1.08-2.421 2.384-2.421 1.304 0 2.384 1.08 2.384 2.421v19.335c.038 1.342-1.043 2.422-2.384 2.422zM102.078 18.478l7.004-8.047c.857-1.006.783-2.533-.223-3.427-1.006-.894-2.496-.783-3.39.223l-6.594 7.6-6.595-7.6a2.376 2.376 0 00-3.39-.223c-1.006.894-1.08 2.421-.223 3.427l7.004 8.085-7.004 8.047c-.857 1.005-.783 2.533.223 3.427a2.29 2.29 0 001.565.596c.67 0 1.341-.26 1.825-.82l6.594-7.6 6.595 7.6c.484.56 1.155.82 1.825.82a2.29 2.29 0 001.565-.596c1.006-.894 1.08-2.422.223-3.427l-7.004-8.085z" fill="#F5F5F5" />
  <path d="M2.98 24.588V12.667H0V8.94h6.706v15.647h2.98v3.726H0v-3.726h2.98zM6.706 2.235A2.242 2.242 0 014.47 4.471a2.242 2.242 0 01-2.236-2.236A2.242 2.242 0 014.471 0a2.242 2.242 0 012.235 2.235zM14.902 24.588V12.666h-2.98V8.941h7.003v2.235c2.236-1.825 4.583-2.645 6.743-2.645 2.161 0 3.651 1.006 4.471 3.018 2.459-2.012 4.769-3.018 6.892-3.018 1.23 0 2.236.261 3.018.82.782.559 1.341 1.266 1.602 2.086.26.857.41 2.086.41 3.726v9.425h3.352v3.726h-7.115V15.87c0-1.117-.037-1.9-.15-2.347a2.08 2.08 0 00-.744-1.155c-.41-.298-.894-.447-1.453-.447-1.602 0-3.39.82-5.44 2.497v10.17h3.018v3.726h-6.668V15.535c0-1.267-.187-2.16-.522-2.757-.372-.559-.969-.857-1.825-.857-1.416 0-3.651.56-5.85 2.236v10.431h3.763v3.726H11.921v-3.726h2.98zM69.294 8.941v3.726H66.09L66.052 26.6c0 1.937-.111 3.39-.298 4.322-.186.93-.67 1.9-1.415 2.868-.745.969-1.863 1.788-3.39 2.459-1.49.67-3.204 1.006-5.03 1.006-2.794 0-5.29-.857-7.488-2.57l2.422-2.758c1.639 1.304 3.427 1.938 5.364 1.938 1.08 0 2.05-.224 2.98-.634.932-.41 1.603-.931 2.05-1.527.447-.596.745-1.155.856-1.714.15-.521.187-1.453.187-2.72v-1.75c-.596.745-1.528 1.49-2.757 2.16-1.267.671-2.645 1.006-4.135 1.006-2.72 0-4.955-.968-6.669-2.868-1.714-1.9-2.57-4.285-2.57-7.079 0-3.055.93-5.514 2.83-7.414 1.9-1.9 4.062-2.83 6.558-2.83 2.496 0 5.03 1.34 7.004 3.39V8.903h6.743v.037zm-19.15 9.761c0 1.937.56 3.54 1.677 4.806 1.118 1.23 2.534 1.863 4.285 1.863 1.713 0 3.166-.634 4.396-1.863 1.229-1.23 1.862-2.831 1.862-4.806s-.633-3.577-1.862-4.769c-1.23-1.192-2.646-1.788-4.285-1.788-1.639 0-3.055.596-4.247 1.788-1.192 1.118-1.825 2.757-1.825 4.769z" fill="#000" />
  <defs>
    <linearGradient id="prefix__paint0_linear_4_354" x1="93.882" y1="35.765" x2="93.882" y2="1.49" gradientUnits="userSpaceOnUse">
      <stop stop-color="#D84A2E" />
      <stop offset="1" stop-color="#F63" />
    </linearGradient>
  </defs>
</svg>
