<svg viewBox="0 0 76 46" xmlns="http://www.w3.org/2000/svg">
  <path d="M17.933 11.997h14.334v1.143h-13.02v8.603H31.49v1.143H19.247v9.445h13.17v1.144H17.932V11.997zm15.618 0h1.523l6.75 9.445 6.898-9.445L58.105 0 42.689 22.435l7.944 11.04H49.05l-7.227-10.047-7.256 10.047h-1.553l8.003-11.04-7.466-10.438zm17.65 1.143v-1.143h16.334v1.143H60.01v20.334h-1.314V13.14H51.2zM0 11.997h1.643L24.29 46l-9.36-12.525L1.373 13.622l-.06 19.853H0V11.997zm67.403 19.99a.465.465 0 01-.47-.479c0-.27.201-.478.47-.478.272 0 .47.208.47.478s-.198.478-.47.478zm1.291-1.26h.704c.01.383.288.64.696.64.457 0 .716-.276.716-.793v-3.275h.716v3.278c0 .931-.537 1.468-1.425 1.468-.834 0-1.406-.52-1.406-1.317zm3.768-.04h.71c.06.439.489.718 1.106.718.574 0 .996-.299.996-.71 0-.352-.268-.564-.879-.709l-.594-.144c-.834-.195-1.214-.6-1.214-1.281 0-.825.67-1.375 1.677-1.375.937 0 1.621.55 1.662 1.33h-.696c-.067-.427-.438-.694-.975-.694-.566 0-.943.273-.943.69 0 .331.243.52.844.662l.508.125c.946.222 1.336.607 1.336 1.304 0 .886-.684 1.442-1.777 1.442-1.022 0-1.71-.53-1.76-1.359z" fill="#000" />
</svg>
