<svg viewBox="0 0 149 28" xmlns="http://www.w3.org/2000/svg">
  <path d="M50.173 5.754h4.46l9.453 15.055V5.754h4.117v21.333h-4.43L54.29 12.063v15.024h-4.117V5.754zM86.607 27.087H82.77v-2.383c-.873 1.677-2.651 2.62-4.896 2.62-3.557 0-5.866-2.498-5.866-6.095v-9.503h3.837v8.717c0 2.103 1.31 3.565 3.275 3.565 2.153 0 3.65-1.645 3.65-3.9v-8.382h3.837v15.36zM99.957 26.844l-3.68-5.12-3.682 5.12h-4.087l5.679-8.016-5.241-7.345h4.18l3.15 4.42 3.119-4.42h4.212l-5.273 7.345 5.678 8.016h-4.055zM111.811 7.094v4.631h4.367v3.14h-4.367v7.625c0 .256.104.502.289.683a1 1 0 00.699.284h3.379v3.623h-2.527c-3.432 0-5.677-1.95-5.677-5.361v-6.851h-3.088v-3.143h1.938c.903 0 1.429-.525 1.429-1.395V7.094h3.558zM125.85 22.255V5.754h4.116V20.99c0 4.115-2.027 6.096-5.458 6.096h-4.792v-3.624h4.898c.328 0 .643-.127.874-.354.232-.226.362-.533.362-.854zM132.432 19.924h3.963c.219 2.383 1.842 3.9 4.462 3.9 2.339 0 3.963-.912 3.963-2.802 0-4.572-11.737-1.403-11.737-9.57.003-3.504 3.091-5.94 7.528-5.94 4.618 0 7.736 2.59 7.927 6.583h-3.942c-.186-1.859-1.677-3.108-3.992-3.108-2.153 0-3.494.975-3.494 2.468 0 4.724 11.89 1.191 11.89 9.509 0 3.962-3.339 6.37-8.142 6.37-4.96 0-8.204-2.927-8.422-7.407" fill="#012A35" />
  <path fill-rule="evenodd" clip-rule="evenodd" d="M18.139 1.48c-1.152-1.973-4.031-1.973-5.183 0L.406 22.976c-1.152 1.973.287 4.439 2.59 4.439h9.799c-.985-.857-1.35-2.34-.604-3.611l9.505-16.232-3.557-6.094z" fill="#80EEC0" />
  <path d="M26.09 6.195c.954-1.614 3.337-1.614 4.29 0l10.387 17.59c.953 1.613-.239 3.63-2.145 3.63H17.848c-1.906 0-3.097-2.017-2.144-3.63L26.09 6.194z" fill="#00DC82" />
</svg>
