<svg viewBox="0 0 174 45" xmlns="http://www.w3.org/2000/svg">
  <path fill-rule="evenodd" clip-rule="evenodd" d="M57.4271 12.9037H58.5069C59.2439 12.9037 59.8412 13.501 59.8412 14.2379V15.5012C59.8412 15.5404 59.8729 15.5721 59.9121 15.5721C60.5268 14.485 61.3542 13.6943 62.3943 13.2002C63.4346 12.706 64.5574 12.4589 65.7632 12.4589C67.0633 12.4589 68.2335 12.6998 69.2736 13.1816C70.3139 13.6634 71.2004 14.3244 71.9332 15.1645C72.6661 16.0045 73.2216 16.9928 73.5998 18.1294C73.978 19.266 74.1671 20.489 74.1671 21.7986C74.1671 23.108 73.9662 24.331 73.5644 25.4677C73.1624 26.6043 72.6011 27.5927 71.8801 28.4328C71.159 29.2727 70.2903 29.9336 69.2736 30.4155C68.2571 30.8973 67.1461 31.1381 65.9405 31.1381C65.1367 31.1381 64.4275 31.0517 63.8128 30.8788C63.1981 30.7058 62.6544 30.4835 62.1816 30.2117C61.7088 29.9398 61.3068 29.6496 60.976 29.3407C60.645 29.0318 60.3731 28.7291 60.1604 28.4328C60.1016 28.4328 60.0541 28.4803 60.0541 28.5391V37.5153C60.0541 38.4145 59.3251 39.1435 58.4256 39.1435H57.4271C56.5278 39.1435 55.7988 38.4145 55.7988 37.5153V14.532C55.7988 13.6327 56.5278 12.9037 57.4271 12.9037ZM69.9119 21.7986C69.9119 21.1068 69.7997 20.4397 69.575 19.7972C69.3505 19.1548 69.0195 18.5866 68.5821 18.0924C68.1448 17.5982 67.6188 17.2029 67.0042 16.9064C66.3896 16.6099 65.6922 16.4616 64.912 16.4616C64.132 16.4616 63.4346 16.6099 62.8199 16.9064C62.2052 17.2029 61.6793 17.5982 61.2419 18.0924C60.8045 18.5866 60.4737 19.1548 60.249 19.7972C60.0245 20.4397 59.9121 21.1068 59.9121 21.7986C59.9121 22.4904 60.0245 23.1576 60.249 23.7998C60.4737 24.4423 60.8045 25.0105 61.2419 25.5047C61.6793 25.9989 62.2052 26.3943 62.8199 26.6907C63.4346 26.9872 64.132 27.1355 64.912 27.1355C65.6922 27.1355 66.3896 26.9872 67.0042 26.6907C67.6188 26.3943 68.1448 25.9989 68.5821 25.5047C69.0195 25.0105 69.3505 24.4423 69.575 23.7998C69.7997 23.1576 69.9119 22.4904 69.9119 21.7986ZM80.2989 12.9037H81.5176C82.2954 12.9037 82.9259 13.5342 82.9259 14.312V15.6495C82.9259 15.6886 82.9576 15.7204 82.9968 15.7204C83.4696 14.6826 84.1433 13.8796 85.018 13.3113C85.8928 12.7431 86.8974 12.4589 88.0321 12.4589C88.2921 12.4589 88.5462 12.4836 88.7945 12.5331C89.2377 12.6213 89.5569 13.0103 89.5569 13.4622V15.9022C89.5569 16.3929 89.1591 16.7907 88.6684 16.7907C88.6156 16.7907 88.5629 16.786 88.5108 16.7767C88.168 16.7149 87.8312 16.684 87.5002 16.684C86.5073 16.684 85.7095 16.8755 85.1066 17.2585C84.5039 17.6414 84.0429 18.08 83.7237 18.5742C83.4046 19.0684 83.1917 19.5624 83.0854 20.0566C82.979 20.5508 82.9259 20.9213 82.9259 21.1685V29.065C82.9259 29.9645 82.1968 30.6935 81.2976 30.6935H80.2989C79.3996 30.6935 78.6706 29.9645 78.6706 29.065V14.532C78.6706 13.6327 79.3996 12.9037 80.2989 12.9037ZM94.6958 12.9037H95.6943C96.5937 12.9037 97.3228 13.6327 97.3228 14.532V29.065C97.3228 29.9645 96.5937 30.6935 95.6943 30.6935H94.6958C93.7965 30.6935 93.0675 29.9645 93.0675 29.065V14.532C93.0675 13.6327 93.7965 12.9037 94.6958 12.9037ZM92.4646 6.86255C92.4646 6.14602 92.7187 5.52215 93.227 4.99091C93.7354 4.45969 94.3795 4.19409 95.1597 4.19409C95.9399 4.19409 96.5957 4.44733 97.1277 4.95385C97.6596 5.46037 97.9255 6.0966 97.9255 6.86255C97.9255 7.6285 97.6596 8.26473 97.1277 8.77125C96.5957 9.27777 95.9399 9.53103 95.1597 9.53103C94.3795 9.53103 93.7354 9.26541 93.227 8.73419C92.7187 8.20297 92.4646 7.57908 92.4646 6.86255ZM110.798 16.9691C109.934 16.3343 109.166 16.0169 108.493 16.0169C107.925 16.0169 107.37 16.1651 106.826 16.4616C106.282 16.7581 106.011 17.2399 106.011 17.907C106.011 18.4506 106.235 18.8459 106.684 19.0931C107.133 19.3401 107.701 19.5501 108.386 19.723C109.072 19.896 109.811 20.0753 110.603 20.2606C111.394 20.4459 112.133 20.7299 112.819 21.113C113.504 21.4959 114.072 22.0209 114.521 22.6881C114.97 23.3552 115.195 24.2693 115.195 25.4307C115.195 26.4931 114.976 27.3887 114.539 28.1177C114.101 28.8465 113.534 29.4333 112.836 29.8781C112.139 30.3229 111.353 30.6439 110.478 30.8418C109.604 31.0394 108.729 31.1381 107.854 31.1381C106.53 31.1381 105.313 30.9405 104.202 30.5452C103.767 30.3904 103.245 30.0794 102.636 29.6119C101.922 29.0645 101.788 28.0422 102.335 27.3288C102.382 27.268 102.433 27.2106 102.487 27.1571L102.929 26.7246C103.538 26.1277 104.504 26.102 105.144 26.6655C105.402 26.8927 105.626 27.068 105.815 27.191C106.442 27.5988 107.204 27.8026 108.103 27.8026C108.41 27.8026 108.729 27.7656 109.06 27.6914C109.391 27.6173 109.698 27.4938 109.982 27.3208C110.266 27.1479 110.496 26.9317 110.674 26.6722C110.851 26.4128 110.939 26.1101 110.939 25.7642C110.939 25.1465 110.715 24.6895 110.266 24.3929C109.817 24.0964 109.249 23.8556 108.564 23.6703C107.878 23.485 107.139 23.312 106.347 23.1514C105.555 22.9908 104.817 22.7313 104.131 22.373C103.445 22.0148 102.878 21.5144 102.429 20.872C101.98 20.2295 101.755 19.3401 101.755 18.2036C101.755 17.2152 101.95 16.3566 102.34 15.6277C102.73 14.8988 103.245 14.2997 103.883 13.8302C104.521 13.3608 105.254 13.0149 106.081 12.7925C106.909 12.5701 107.748 12.4589 108.599 12.4589C109.734 12.4589 110.857 12.6628 111.968 13.0704C112.37 13.2181 112.819 13.4914 113.314 13.8905C114.015 14.4547 114.125 15.4798 113.561 16.1801C113.514 16.2383 113.463 16.2933 113.408 16.3445L112.878 16.8433C112.306 17.3816 111.431 17.4345 110.798 16.9691ZM120.475 12.9037H121.261C122.161 12.9037 122.89 13.6327 122.89 14.532V15.6833C123.339 14.8432 123.947 14.0958 124.787 13.4411C125.626 12.7863 126.755 12.4589 128.173 12.4589C130.845 12.4589 132.617 13.5584 133.492 15.7574C134.107 14.6209 134.875 13.787 135.797 13.2558C136.719 12.7245 137.818 12.4589 139.095 12.4589C140.23 12.4589 141.187 12.6566 141.967 13.0519C142.747 13.4472 143.38 13.9908 143.864 14.6826C144.349 15.3745 144.698 16.1837 144.91 17.1102C145.123 18.0368 145.229 19.0312 145.229 20.0938V29.065C145.229 29.9645 144.5 30.6935 143.601 30.6935H142.603C141.703 30.6935 140.974 29.9645 140.974 29.065V20.6126C140.974 20.0689 140.927 19.5439 140.832 19.0374C140.738 18.5308 140.572 18.0862 140.336 17.7032C140.1 17.3202 139.78 17.0176 139.379 16.7952C138.977 16.5728 138.457 16.4616 137.818 16.4616C137.156 16.4616 136.595 16.5913 136.134 16.8508C135.673 17.1102 135.295 17.4561 134.999 17.8885C134.704 18.3209 134.491 18.815 134.361 19.3709C134.231 19.927 134.166 20.489 134.166 21.0573V29.065C134.166 29.9645 133.437 30.6935 132.538 30.6935H131.539C130.64 30.6935 129.911 29.9645 129.911 29.065V20.0938C129.911 18.9818 129.686 18.0985 129.237 17.4438C128.788 16.789 128.043 16.4616 127.003 16.4616C126.294 16.4616 125.697 16.5852 125.212 16.8322C124.727 17.0793 124.326 17.4129 124.007 17.8329C123.687 18.253 123.457 18.7348 123.315 19.2784C123.173 19.8219 123.102 20.3901 123.102 20.9832V29.065C123.102 29.9645 122.373 30.6935 121.474 30.6935H120.475C119.576 30.6935 118.847 29.9645 118.847 29.065V14.532C118.847 13.6327 119.576 12.9037 120.475 12.9037ZM152.106 12.9037H153.105C154.004 12.9037 154.733 13.6327 154.733 14.532V29.065C154.733 29.9645 154.004 30.6935 153.105 30.6935H152.106C151.207 30.6935 150.478 29.9645 150.478 29.065V14.532C150.478 13.6327 151.207 12.9037 152.106 12.9037ZM149.875 6.86255C149.875 6.14602 150.129 5.52215 150.637 4.99091C151.145 4.45969 151.79 4.19409 152.57 4.19409C153.35 4.19409 154.006 4.44733 154.538 4.95385C155.07 5.46037 155.336 6.0966 155.336 6.86255C155.336 7.6285 155.07 8.26473 154.538 8.77125C154.006 9.27777 153.35 9.53103 152.57 9.53103C151.79 9.53103 151.145 9.26541 150.637 8.73419C150.129 8.20297 149.875 7.57908 149.875 6.86255ZM170.691 17.2667C170.516 17.1296 170.362 17.0219 170.229 16.9434C169.685 16.6222 169.13 16.4616 168.562 16.4616C167.782 16.4616 167.085 16.6099 166.47 16.9064C165.856 17.2029 165.329 17.5982 164.892 18.0924C164.455 18.5866 164.124 19.1548 163.899 19.7972C163.675 20.4397 163.562 21.1068 163.562 21.7986C163.562 22.4904 163.675 23.1576 163.899 23.7998C164.124 24.4423 164.455 25.0105 164.892 25.5047C165.329 25.9989 165.856 26.3943 166.47 26.6907C167.085 26.9872 167.782 27.1355 168.562 27.1355C169.224 27.1355 169.839 26.9934 170.406 26.7092C170.521 26.6519 170.645 26.5738 170.78 26.4749C171.457 25.9771 172.402 26.0764 172.961 26.7043L173.607 27.431C174.177 28.0705 174.12 29.0505 173.48 29.6198C173.402 29.6897 173.316 29.7514 173.225 29.804C172.67 30.1251 172.108 30.3846 171.541 30.5822C170.974 30.7799 170.43 30.922 169.91 31.0085C169.39 31.0949 168.941 31.1381 168.562 31.1381C167.286 31.1381 166.08 30.9158 164.945 30.471C163.811 30.0264 162.83 29.3962 162.002 28.5808C161.175 27.7656 160.519 26.7834 160.034 25.6345C159.55 24.4855 159.307 23.2069 159.307 21.7986C159.307 20.3901 159.55 19.1116 160.034 17.9626C160.519 16.8137 161.175 15.8316 162.002 15.0162C162.83 14.2008 163.811 13.5708 164.945 13.126C166.08 12.6813 167.286 12.4589 168.562 12.4589C169.65 12.4589 170.743 12.6751 171.842 13.1075C172.261 13.2723 172.756 13.5669 173.325 13.9914C174.046 14.5288 174.195 15.549 173.658 16.27C173.618 16.3235 173.575 16.3745 173.529 16.4227L172.871 17.11C172.292 17.7147 171.35 17.7824 170.691 17.2667Z" fill="black"/>
  <path fill-rule="evenodd" clip-rule="evenodd" d="M44.1615 23.2872L40.8625 19.981C40.601 19.7189 40.4542 19.3637 40.4542 18.9935V14.9467C40.4542 11.2078 40.0658 9.85191 39.3362 8.485C38.6069 7.11809 37.5363 6.04532 36.1724 5.31429C34.8084 4.58325 33.4555 4.19393 29.7245 4.19393H24.3886C24.2341 4.19393 24.1089 4.06877 24.1089 3.91434C24.1089 3.8403 24.1383 3.76928 24.1906 3.71685L27.4897 0.410524C27.752 0.1477 28.1081 0 28.4794 0H30.3329C35.3075 0 37.1114 0.519073 38.9301 1.49379C40.7487 2.4685 42.1759 3.89884 43.1485 5.72141C44.1212 7.54395 44.6392 9.35175 44.6392 14.3371V23.0896C44.6392 23.244 44.514 23.3692 44.3595 23.3692C44.2853 23.3692 44.214 23.3397 44.1615 23.2872Z" fill="#D56044"/>
  <path fill-rule="evenodd" clip-rule="evenodd" d="M21.4008 44.2588L24.6999 40.9523C24.9622 40.6896 25.3183 40.5418 25.6896 40.5418H29.7247C33.4556 40.5418 34.8086 40.1526 36.1724 39.4215C37.5364 38.6905 38.6068 37.6178 39.3364 36.2508C40.0658 34.8839 40.4543 33.528 40.4543 29.7891V24.4421C40.4543 24.2876 40.5796 24.1626 40.7338 24.1626C40.8082 24.1626 40.8794 24.192 40.9318 24.2446L44.2308 27.5507C44.4923 27.8128 44.6392 28.1679 44.6392 28.5382V30.3987C44.6392 35.3841 44.1212 37.1918 43.1486 39.0145C42.1761 40.8369 40.7487 42.2674 38.9301 43.2421C37.1114 44.2167 35.3076 44.7359 30.333 44.7359H21.5986C21.4441 44.7359 21.3191 44.6107 21.3191 44.4562C21.3191 44.3822 21.3485 44.3112 21.4008 44.2588Z" fill="#EECA5E"/>
  <path fill-rule="evenodd" clip-rule="evenodd" d="M0.477513 21.4485L3.77652 24.7547C4.03806 25.0168 4.18493 25.372 4.18493 25.7422V29.7889C4.18493 33.528 4.5734 34.8837 5.30285 36.2506C6.03232 37.6176 7.10277 38.6903 8.46674 39.4213C9.83073 40.1525 11.1837 40.5418 14.9146 40.5418H20.2506C20.4051 40.5418 20.5303 40.6668 20.5303 40.8213C20.5303 40.8953 20.5009 40.9665 20.4486 41.0187L17.1493 44.3252C16.8871 44.588 16.531 44.7357 16.1598 44.7357H14.3062C9.33164 44.7357 7.52773 44.2167 5.7091 43.2419C3.89046 42.2672 2.46318 40.8369 1.49057 39.0143C0.517957 37.1918 0 35.3839 0 30.3987V21.6461C0 21.4917 0.12518 21.3665 0.279597 21.3665C0.353854 21.3665 0.425061 21.396 0.477513 21.4485Z" fill="#7F8FE6"/>
  <path fill-rule="evenodd" clip-rule="evenodd" d="M23.2386 0.477089L19.9392 3.78342C19.677 4.04624 19.3211 4.19395 18.9498 4.19395H14.9146C11.1837 4.19395 9.83072 4.58325 8.46674 5.31429C7.10277 6.04532 6.03232 7.11809 5.30285 8.485C4.5734 9.85191 4.18493 11.2078 4.18493 14.9467V20.2936C4.18493 20.4481 4.05975 20.5733 3.90532 20.5733C3.83108 20.5733 3.75986 20.5437 3.70741 20.4913L0.408396 17.1851C0.146874 16.923 0 16.5679 0 16.1976V14.3371C0 9.35176 0.517957 7.54397 1.49057 5.72141C2.46318 3.89886 3.89046 2.4685 5.7091 1.49379C7.52773 0.519075 9.33164 0 14.3062 0H23.0406C23.195 0 23.3202 0.12518 23.3202 0.279597C23.3202 0.353646 23.2908 0.424671 23.2386 0.477089Z" fill="#CB82E2"/>
  <path fill-rule="evenodd" clip-rule="evenodd" d="M37.1912 16.3221L32.6926 12.0133C32.395 11.7151 32.0469 11.4984 31.6759 11.363C31.3692 11.2468 31.0367 11.1832 30.6894 11.1832H17.4105C17.256 11.1832 17.1309 11.058 17.1309 10.9036C17.1309 10.8295 17.1603 10.7584 17.2126 10.706L20.5149 7.39936C20.7771 7.13679 21.133 6.98926 21.5042 6.98926H32.0843C35.166 6.98926 37.6642 9.49284 37.6642 12.5812V16.1202C37.6642 16.2746 37.5391 16.3998 37.3847 16.3998C37.3126 16.3998 37.2433 16.3719 37.1912 16.3221Z" fill="#D56044"/>
  <path fill-rule="evenodd" clip-rule="evenodd" d="M28.3505 37.276L32.6513 32.7661C32.9489 32.468 33.1653 32.1192 33.3003 31.7473C33.4162 31.4399 33.4796 31.1067 33.4796 30.7586V17.4517C33.4796 17.2973 33.6048 17.1721 33.7593 17.1721C33.8335 17.1721 33.9048 17.2017 33.9572 17.2543L37.2566 20.5636C37.518 20.8256 37.6646 21.1806 37.6646 21.5507V32.1565C37.6646 35.245 35.1665 37.7486 32.0847 37.7486H28.5529C28.3984 37.7486 28.2732 37.6234 28.2732 37.4689C28.2732 37.3971 28.3008 37.3279 28.3505 37.276Z" fill="#EECA5E"/>
  <path fill-rule="evenodd" clip-rule="evenodd" d="M7.44785 28.4131L11.9466 32.7219C12.2441 33.0201 12.5922 33.2368 12.9632 33.3722C13.2699 33.4883 13.6024 33.552 13.9497 33.552H27.2286C27.3831 33.552 27.5083 33.6772 27.5083 33.8317C27.5083 33.9057 27.4789 33.9767 27.4264 34.0291L24.1242 37.3358C23.8619 37.5984 23.506 37.7459 23.1349 37.7459H12.5548C9.47306 37.7459 6.97485 35.2423 6.97485 32.154V28.6149C6.97485 28.4607 7.10004 28.3354 7.25447 28.3354C7.32653 28.3354 7.3958 28.3632 7.44785 28.4131Z" fill="#7F8FE6"/>
  <path fill-rule="evenodd" clip-rule="evenodd" d="M16.289 7.4618L11.9881 11.9717C11.6906 12.2699 11.4743 12.6187 11.3393 12.9904C11.2233 13.2978 11.1598 13.6311 11.1598 13.9792V27.2861C11.1598 27.4406 11.0346 27.5656 10.8802 27.5656C10.8059 27.5656 10.7346 27.536 10.6822 27.4834L7.38285 24.1742C7.12156 23.9122 6.97485 23.5572 6.97485 23.1872V12.5812C6.97485 9.49284 9.47306 6.98926 12.5548 6.98926H16.0867C16.2411 6.98926 16.3663 7.11443 16.3663 7.26885C16.3663 7.34072 16.3386 7.40981 16.289 7.4618Z" fill="#CB82E2"/>
</svg>
