<svg width="26" height="25" viewBox="0 0 26 25" fill="#312E2E" xmlns="http://www.w3.org/2000/svg">
  <path fill-rule="evenodd" clip-rule="evenodd" d="M22.9813 13.5486L24.8258 15.3965C24.9716 15.5431 25.0542 15.7424 25.0542 15.9493V16.9889C25.0542 19.7743 24.7647 20.7847 24.2209 21.8035C23.6899 22.8095 22.8687 23.6326 21.864 24.166C20.8473 24.7097 19.839 25 17.0591 25H12.1778C12.1148 24.9997 12.0582 24.9615 12.0342 24.9032C12.0102 24.8449 12.0236 24.7779 12.0681 24.7333V24.734L13.9119 22.8861C14.0577 22.7396 14.2563 22.6569 14.4633 22.6569H16.7195C18.8042 22.6569 19.5598 22.4396 20.3223 22.0306C21.0759 21.6307 21.6919 21.0134 22.0903 20.259C22.4912 19.5079 22.708 18.7628 22.7152 16.7513L22.7153 13.659C22.7157 13.5962 22.7536 13.5396 22.8117 13.5155C22.8697 13.4914 22.9366 13.5045 22.9813 13.5486ZM0.374371 11.9854L2.21951 13.8333C2.36534 13.9799 2.44798 14.1792 2.44798 14.3861V16.6472C2.44798 18.7368 2.66465 19.4944 3.07298 20.2583C3.47121 21.0126 4.08697 21.6299 4.84034 22.0299C5.60284 22.4389 6.35909 22.6562 8.44382 22.6562H11.4258C11.489 22.656 11.5462 22.694 11.5705 22.7524C11.5949 22.8108 11.5816 22.8781 11.5369 22.9229L9.69173 24.7708C9.5459 24.9174 9.34729 25 9.14104 25H8.10354C5.32368 25 4.31604 24.7097 3.29937 24.1653C2.29437 23.632 1.47293 22.8089 0.941732 21.8028C0.405534 20.7982 0.116491 19.8017 0.108566 17.1032L0.108398 12.0958C0.10873 12.033 0.146689 11.9764 0.204737 11.9523C0.262786 11.9283 0.329624 11.9413 0.374371 11.9854ZM19.0841 9.64167L20.9285 11.4917C21.0744 11.6382 21.1563 11.8368 21.1563 12.0444V17.9708C21.1563 19.6965 19.7605 21.0958 18.0383 21.0958H16.064C16.0016 21.0955 15.9454 21.0582 15.921 21.0009C15.8965 20.9435 15.9085 20.8771 15.9515 20.8319V20.8312L18.3542 18.3111C18.5209 18.1444 18.6417 17.95 18.7174 17.7417C18.7838 17.5652 18.8177 17.3781 18.8174 17.1896V9.75208C18.8175 9.68893 18.8556 9.63202 18.9139 9.60786C18.9723 9.5837 19.0394 9.59704 19.0841 9.64167ZM4.2702 15.8778H4.26951L6.78479 18.2861C6.95076 18.4528 7.1459 18.5736 7.35284 18.6493C7.52368 18.7146 7.70979 18.75 7.90423 18.75H15.3251C15.3881 18.7503 15.4448 18.7885 15.4687 18.8468C15.4927 18.9051 15.4793 18.9721 15.4348 19.0167L13.589 20.8653C13.4431 21.0111 13.2445 21.0938 13.0383 21.0938H7.12437C6.29649 21.0928 5.50288 20.7631 4.91813 20.177C4.33339 19.591 4.00539 18.7966 4.00631 17.9687V15.9903C4.00662 15.9279 4.04394 15.8717 4.10129 15.8473C4.15863 15.8229 4.22502 15.8348 4.2702 15.8778ZM9.09868 3.90625C9.16101 3.90655 9.21721 3.94388 9.24165 4.00122C9.2661 4.05857 9.25417 4.12495 9.21118 4.17014L6.8077 6.69097C6.64104 6.85764 6.5209 7.05208 6.44521 7.26042C6.3786 7.43686 6.34448 7.6239 6.34451 7.8125V15.25C6.3439 15.3127 6.30584 15.369 6.24785 15.3929C6.18987 15.4168 6.12319 15.4038 6.07854 15.3597L4.23409 13.5097C4.08811 13.3631 4.00621 13.1646 4.00632 12.9576V7.03125C4.00632 5.30556 5.40215 3.90625 7.12437 3.90625H9.09868ZM21.864 0.834722C22.8687 1.3681 23.6899 2.19122 24.2209 3.19722C24.7571 4.20182 25.0461 5.19832 25.0541 7.89677L25.0542 12.9042C25.0542 12.9673 25.0161 13.0242 24.9578 13.0484C24.8994 13.0726 24.8323 13.0592 24.7876 13.0146V13.0139L22.9438 11.1667C22.7974 11.02 22.7152 10.8211 22.7153 10.6139V8.35278C22.7153 6.26319 22.498 5.50556 22.0903 4.74167C21.6919 3.98725 21.0759 3.37003 20.3223 2.97014C19.5605 2.56111 18.8042 2.34375 16.7195 2.34375H13.7369C13.6738 2.34342 13.6172 2.30524 13.5932 2.24696C13.5692 2.18867 13.5826 2.12168 13.6271 2.07708L15.4709 0.229167C15.6167 0.0826389 15.8153 0 16.0223 0H17.0591C19.839 0 20.8473 0.290278 21.864 0.834722ZM12.9848 0C13.0478 0.000334705 13.1045 0.0385056 13.1285 0.0967935C13.1524 0.155081 13.1391 0.222072 13.0945 0.266667L11.2508 2.11458C11.1042 2.26111 10.9063 2.34375 10.6994 2.34375H8.44312C6.3584 2.34375 5.60215 2.56111 4.83965 2.97014C4.08602 3.37003 3.47001 3.98725 3.07159 4.74167C2.66395 5.50556 2.44659 6.26319 2.44659 8.35278V11.3417C2.44626 11.4045 2.4083 11.4611 2.35025 11.4852C2.29221 11.5092 2.22537 11.4962 2.18062 11.4521L0.337565 9.60417C0.190905 9.45758 0.108398 9.25875 0.108398 9.05139V8.01181C0.108398 5.22639 0.397982 4.21597 0.941732 3.19722C1.47274 2.19122 2.29393 1.3681 3.29868 0.834722C4.30122 0.297839 5.29567 0.0081123 7.98807 0.000167888L12.9848 0ZM18.0383 3.90625C19.7605 3.90625 21.1563 5.30556 21.1563 7.03125V9.00972C21.156 9.07206 21.1187 9.12825 21.0613 9.1527C21.004 9.17714 20.9376 9.16522 20.8924 9.12222L18.3785 6.71389C18.2119 6.54722 18.0174 6.42639 17.8098 6.35069C17.6336 6.28396 17.4468 6.24984 17.2584 6.25H9.83757C9.77441 6.24994 9.7175 6.21188 9.69334 6.15353C9.66918 6.09518 9.68252 6.02802 9.72715 5.98333L11.5737 4.13472C11.7195 3.98889 11.9174 3.90625 12.1244 3.90625H18.0383Z" stroke-width="0"/>
</svg>
