<svg width="29" height="25" viewBox="0 0 29 25" stroke="#312E2E" fill="#312E2E" xmlns="http://www.w3.org/2000/svg">
  <path d="M14.5224 14.869C15.8308 14.869 16.8915 13.8084 16.8915 12.4999C16.8915 11.1915 15.8308 10.1309 14.5224 10.1309C13.214 10.1309 12.1533 11.1915 12.1533 12.4999C12.1533 13.8084 13.214 14.869 14.5224 14.869Z" stroke-width="0" />
  <path d="M14.5217 17.354C21.5425 17.354 27.2339 15.1809 27.2339 12.5002C27.2339 9.81958 21.5425 7.64648 14.5217 7.64648C7.501 7.64648 1.80957 9.81958 1.80957 12.5002C1.80957 15.1809 7.501 17.354 14.5217 17.354Z" fill="transparent" stroke-width="1.65247" />
  <path d="M10.3173 14.9253C13.8277 21.0054 18.5554 24.8478 20.8769 23.5075C23.1984 22.1672 22.2346 16.1517 18.7242 10.0716C15.2139 3.99142 10.4862 0.149046 8.16471 1.48937C5.8432 2.82969 6.80696 8.84516 10.3173 14.9253Z" fill="transparent" stroke-width="1.65247" />
  <path d="M10.3161 10.0713C6.80574 16.1515 5.84197 22.1669 8.16348 23.5073C10.485 24.8476 15.2127 21.0052 18.723 14.9251C22.2334 8.84494 23.1971 2.82947 20.8756 1.48915C18.5541 0.148826 13.8265 3.9912 10.3161 10.0713Z" fill="transparent" stroke-width="1.65247" />
</svg>
