<svg width="24" height="24" viewBox="0 0 24 24" fill="currentColor" xmlns="http://www.w3.org/2000/svg">
<g>
<path d="M11 17C11.9582 16.8873 12.8992 16.6135 13.7376 16.1626C15.808 15.0676 17.0057 13.1997 17.1084 10.8969L17.1255 10.7037H20C19.8289 9.36715 19.2814 8.09501 18.443 7L15.5 8.75523C16.3897 10.0274 16.5095 11.6377 15.8251 13.0064C15.0209 14.7456 13.1217 16.2593 11 17" fill="currentColor"/>
<path d="M19.9668 11H17.5428C17.3768 13.3495 16.1149 15.3264 14.0562 16.4444C12.8608 17.0764 11.5326 17.4167 10.1711 17.4005C9.09195 17.4005 8.01277 17.206 7 16.8333C8.21201 17.5949 9.63985 18 11.0843 18H11.1009C13.7075 18 16.0983 16.6227 17.3602 14.3866L17.4764 14.1921L19.1034 15.1968C19.6845 14.0787 20 12.831 20 11.5671C19.9834 11.3889 19.9834 11.1944 19.9668 11" fill="currentColor"/>
<path d="M10.9795 18.7488C8.30034 18.7488 5.79181 17.4375 4 15.2017C5.97952 19.3708 11.0307 21.1695 15.2457 19.2027C16.8157 18.4798 18.1297 17.2862 19 15.8069L17.7031 15C16.2867 17.3367 13.744 18.7656 10.9795 18.7488Z" fill="currentColor"/>
<path d="M12.0084 20.7098C7.19833 20.7098 3.29019 16.8017 3.29019 11.9916C3.29019 7.18163 7.19833 3.27349 12.0084 3.27349C16.8184 3.27349 20.7265 7.18163 20.7265 11.9916C20.7265 16.8017 16.8351 20.7098 12.0084 20.7098C12.0251 20.7098 12.0251 20.7098 12.0084 20.7098ZM12.0084 0C5.37787 0 0 5.36117 0 11.9916C0 18.6221 5.36117 24 11.9916 24C18.6221 24 24 18.6388 24 12.0084V11.9916C24 5.37787 18.6388 0 12.0251 0H12.0084Z" fill="currentColor"/>
</g>
</svg>
