<svg viewBox="0 0 73 31" xmlns="http://www.w3.org/2000/svg">
  <path fill-rule="evenodd" clip-rule="evenodd" d="M73 16.017c0 .497-.04 1.573-.04 1.842h-9.916c.223 2.442 1.967 3.146 3.934 3.146 2.007 0 3.589-.435 4.968-1.139v4.14c-1.38.786-3.204 1.345-5.617 1.345-4.948 0-8.395-3.146-8.395-9.375 0-5.256 2.92-9.437 7.746-9.437 4.805 0 7.32 4.18 7.32 9.478zm-10.017-1.966h5.231c0-2.338-1.318-3.31-2.555-3.31-1.277 0-2.676.972-2.676 3.31zM50.106 6.54c3.549 0 6.895 3.27 6.915 9.271 0 6.56-3.305 9.54-6.935 9.54-1.784 0-2.86-.765-3.59-1.303l-.02 5.856L41.408 31V6.87h4.461l.264 1.284c.71-.663 1.987-1.615 3.974-1.615zM48.89 20.798c1.865 0 3.123-2.07 3.123-4.843 0-2.71-1.278-4.822-3.123-4.822-1.156 0-1.886.414-2.413 1.015l.02 7.677c.487.538 1.196.973 2.393.973zM34.432 5.318V1.097L39.522 0v4.2l-5.09 1.118zm0 1.573h5.09V25h-5.09V6.89zm-5.455 1.532c1.196-2.235 3.569-1.78 4.218-1.532v4.76c-.629-.228-2.657-.518-3.853 1.076v12.272h-5.07V6.89h4.38l.325 1.532zM18.838 2.4l-.02 4.49h3.853V11.3h-3.853v7.346c0 3.063 3.204 2.111 3.853 1.842v4.201c-.67.373-1.886.683-3.55.683-3 0-5.251-2.255-5.251-5.318l.02-16.576L18.838 2.4zM5.13 12.148c0 2.317 7.726 1.22 7.746 7.387 0 3.705-2.9 5.836-7.117 5.836-1.744 0-3.65-.352-5.536-1.18v-4.925c1.703.952 3.853 1.656 5.536 1.656 1.135 0 1.947-.31 1.947-1.262C7.706 17.197 0 18.108 0 12.396c0-3.663 2.737-5.857 6.854-5.857 1.683 0 3.346.27 5.029.952v4.864c-1.541-.849-3.488-1.325-5.03-1.325-1.074 0-1.723.31-1.723 1.118z" fill="#635BFF" />
</svg>
