<svg viewBox="0 0 105 45" xmlns="http://www.w3.org/2000/svg">
  <path d="M48.01 29.999a4.56 4.56 0 01-2.532-.691A3.558 3.558 0 0144 27.416l1.541-.547a2.77 2.77 0 001.007 1.178c.45.291.983.442 1.525.433a2.295 2.295 0 001.455-.426 1.48 1.48 0 00.42-.545 1.43 1.43 0 00.122-.67 1.292 1.292 0 00-.15-.615 1.843 1.843 0 00-.337-.464 2.29 2.29 0 00-.582-.372 8.788 8.788 0 00-.653-.289 21.132 21.132 0 00-.762-.265c-.42-.142-.735-.254-.944-.335a7.213 7.213 0 01-.826-.402 3.043 3.043 0 01-.77-.562 2.711 2.711 0 01-.464-.737 2.55 2.55 0 01-.13-1.612 2.62 2.62 0 01.869-1.38c.63-.538 1.483-.806 2.563-.806.902 0 1.644.192 2.225.577a2.8 2.8 0 011.172 1.535l-1.51.486a1.719 1.719 0 00-.731-.783 2.526 2.526 0 00-1.282-.296 2.026 2.026 0 00-1.234.334c-.148.11-.266.254-.344.418a1.09 1.09 0 00-.104.524.956.956 0 00.346.73c.209.198.454.358.723.47.252.102.634.238 1.148.41l.7.251c.152.056.375.15.668.281.236.1.462.22.676.357.193.134.376.278.55.433.19.16.352.346.48.555.123.216.218.445.284.683.08.28.12.569.118.859 0 .992-.352 1.77-1.054 2.331-.703.563-1.604.844-2.705.844zm10.08-.183l-3.774-10.634h1.761l2.5 7.414c.139.398.255.804.347 1.215.092-.41.207-.817.346-1.215l2.469-7.414h1.745l-3.758 10.634H58.09zm8.728 0V19.182h6.825v1.49h-5.19v2.916h3.35v1.489h-3.35v3.25h5.536v1.49h-7.171zm11.338 0V19.182h1.636v9.115h5.378v1.52h-7.014zm13.178-9.115v9.115H89.7v-9.115h-3.114v-1.519h7.863v1.52h-3.114zm6.495 9.115V19.182h6.825v1.49h-5.19v2.916h3.35v1.489h-3.35v3.25H105v1.49h-7.171z" fill="#4A4A55" />
  <path d="M34.642 5.954c-4.13-5.98-12.284-7.753-18.18-3.951L6.105 8.682a11.946 11.946 0 00-3.523 3.453 12.103 12.103 0 00-1.844 4.6 12.796 12.796 0 001.234 8.128 12.138 12.138 0 00-1.778 4.494 12.963 12.963 0 00.116 5.065 12.887 12.887 0 002.047 4.624c4.13 5.981 12.285 7.753 18.18 3.951l10.356-6.679a11.944 11.944 0 003.523-3.453 12.101 12.101 0 001.844-4.6 12.8 12.8 0 00-1.233-8.129c.886-1.36 1.49-2.889 1.776-4.493.296-1.68.256-3.401-.115-5.065a12.884 12.884 0 00-2.047-4.624z" fill="#FF3E00" />
  <path d="M15.788 39.73a8.93 8.93 0 01-5.189-.253 8.627 8.627 0 01-4.106-3.082 7.64 7.64 0 01-1.296-2.8 7.516 7.516 0 01-.073-3.068 7.17 7.17 0 01.26-.986l.206-.606.558.397a14.25 14.25 0 004.265 2.063l.405.119-.037.391a2.31 2.31 0 00.44 1.57c.304.424.735.749 1.236.928.5.18 1.046.207 1.562.077.237-.061.463-.157.67-.285l10.903-6.726c.267-.162.496-.377.672-.63.176-.253.296-.538.352-.839a2.27 2.27 0 00-.022-.924 2.309 2.309 0 00-.39-.845 2.6 2.6 0 00-1.237-.929 2.692 2.692 0 00-1.563-.077 2.44 2.44 0 00-.669.285l-4.16 2.567a8.09 8.09 0 01-2.215.942 8.932 8.932 0 01-5.189-.253 8.628 8.628 0 01-4.106-3.083 7.64 7.64 0 01-1.296-2.8 7.516 7.516 0 01-.073-3.068 7.151 7.151 0 011.167-2.785 7.415 7.415 0 012.231-2.091l10.902-6.727a8.08 8.08 0 012.216-.942 8.931 8.931 0 015.189.253 8.627 8.627 0 014.106 3.082 7.641 7.641 0 011.296 2.8c.235 1.008.26 2.051.073 3.068-.063.334-.15.664-.26.986l-.206.606-.558-.397a14.24 14.24 0 00-4.265-2.063l-.405-.12.037-.39a2.315 2.315 0 00-.44-1.57 2.598 2.598 0 00-1.236-.929 2.69 2.69 0 00-1.562-.076 2.445 2.445 0 00-.67.284l-10.903 6.727a2.235 2.235 0 00-.672.63 2.155 2.155 0 00-.352.839 2.268 2.268 0 00.412 1.769 2.6 2.6 0 001.237.929c.5.18 1.046.207 1.563.077a2.45 2.45 0 00.67-.285l4.16-2.566a8.068 8.068 0 012.213-.942 8.93 8.93 0 015.19.253 8.627 8.627 0 014.105 3.082 7.639 7.639 0 011.297 2.8c.235 1.008.26 2.051.073 3.068a7.153 7.153 0 01-1.168 2.786 7.42 7.42 0 01-2.23 2.091l-10.902 6.726a8.08 8.08 0 01-2.216.942" fill="#fff" />
</svg>
