<svg viewBox="0 0 121 45" xmlns="http://www.w3.org/2000/svg">
  <path d="M14.736 27.171c-3.75-1.038-6.989-1.931-6.989-5.425 0-2.484 1.968-4.358 4.583-4.358 3.167 0 4.12 2.127 5.04 4.186.76 1.702 1.481 3.311 3.42 3.311 1.622 0 2.844-1.195 2.844-2.78 0-3.592-4.357-7.307-11.645-7.307-6.616 0-11.416 3.647-11.416 8.673 0 6.71 5.15 8.096 9.692 9.323 3.721 1.002 6.936 1.868 6.936 5.318 0 2.727-1.885 4.356-5.04 4.356-3.577 0-4.572-2.174-5.54-4.276-.774-1.687-1.505-3.281-3.545-3.281C1.148 34.91 0 36.019 0 37.874c0 3.475 4.547 7.069 12.162 7.069 7.19 0 12.214-3.494 12.214-8.497 0-6.617-5.12-8.03-9.64-9.277v.002zm47.538-12.375c-2.04 0-3.358 1.329-3.358 3.381 0 1.983 1.093 3.17 2.254 4.426 1.279 1.384 2.6 2.815 2.6 5.51 0 7.524-4.728 13.58-8.639 13.58-.89 0-1.614-.289-2.153-.86-.851-.902-1.264-2.498-1.233-4.744l.114-19.637c0-.59-.168-1.032-.497-1.316-.381-.331-.955-.425-1.707-.276l-5.594 1.19c-.733.14-1.205.646-1.205 1.295v.177c0 .59.422.99.868 1.415.611.582 1.302 1.236 1.302 2.575v8.207c0 7.493-3.666 11.972-7.212 11.972-.832 0-1.525-.285-2.063-.856-.861-.913-1.3-2.51-1.264-4.627l.112-19.756c0-.529-.133-.902-.407-1.15-.447-.404-1.19-.355-1.787-.264l-6.064 1.012c-.686.143-1.146.663-1.146 1.293v.176c0 .59.422.992.87 1.416.611.582 1.303 1.236 1.303 2.575v12.078C27.368 43.89 33.752 45 36.498 45c4.04 0 7.332-1.815 9.546-5.26C47.338 43.136 50.06 45 53.756 45c7.092 0 14.274-7.047 14.274-20.516.005-5.975-2.204-9.688-5.756-9.688zm21.384 14.11c-2.18.454-5.672.526-7.944.367a22.383 22.383 0 01-.147-2.645c0-5.215 2.746-8.998 6.528-8.998 2.897 0 5.393 2.515 5.446 5.49.059 4.302-1.93 5.34-3.883 5.788v-.002zm11.093 5.897c-.533-.223-1.173-.022-1.559.492l-.025.036c-1.193 2.484-4.457 4.22-7.929 4.22-4.113 0-7.317-2.617-8.832-7.196 3.44.318 6.257.21 8.598-.333 5.87-1.312 9.372-4.645 9.372-8.91 0-2.13-.695-3.928-2.069-5.348-1.892-1.953-4.972-3.01-8.664-2.972-8.135.063-14.043 6.315-14.043 14.865 0 9.177 5.807 15.34 14.448 15.34 4.085 0 6.717-1.695 8.204-3.115 1.673-1.603 2.855-3.779 3.152-5.823l.002-.01c.053-.582-.19-1.051-.655-1.246zm12.257 6.75c-.649-.544-1.322-1.104-1.322-2.31V1.431c0-.528-.217-.976-.598-1.224-.455-.298-1.081-.274-1.77.07L97.545 3.25c-.512.267-1.09.568-1.09 1.273v.179c0 .52.37.889.797 1.316.588.585 1.317.448 1.317 1.863v31.36c0 1.213-.607 1.774-1.193 2.317-.474.44-.92.855-.92 1.55v.178c0 .68.556 1.117 1.416 1.117h8.685c.868 0 1.475-.457 1.475-1.117v-.178c0-.7-.498-1.117-1.024-1.556zm12.97 0c-.649-.544-1.321-1.104-1.321-2.31V1.431c0-.528-.217-.976-.598-1.224-.455-.298-1.083-.274-1.77.07l-5.773 2.974c-.512.267-1.09.568-1.09 1.273v.179c0 .52.367.889.797 1.316.586.585 1.317.448 1.317 1.863v31.36c0 1.213-.607 1.774-1.193 2.317-.474.44-.925.855-.925 1.55v.178c0 .68.558 1.117 1.416 1.117h8.687c.868 0 1.475-.457 1.475-1.117v-.178c0-.7-.495-1.117-1.022-1.556z" fill="#523695" />
</svg>
