<svg width="200" height="60" viewBox="0 0 200 60" fill="none" xmlns="http://www.w3.org/2000/svg">
<path d="M82.7851 33.9595H81.0557C80.555 33.9595 80.1454 33.5499 80.1454 33.0492V22.0581H76.7093C74.957 22.0581 73.5234 23.4917 73.5234 25.2439V34.7559C73.5234 36.5082 74.957 37.9418 76.7093 37.9418H89.4071V15.4361H82.7851V33.9595ZM67.6978 22.0582H55.2276V26.0177H63.3514C63.8521 26.0177 64.2617 26.4274 64.2617 26.928V33.9596H62.5322C62.0316 33.9596 61.622 33.55 61.622 33.0493V27.9975H58.1858C56.4336 27.9975 55 29.4311 55 31.1834V34.7333C55 36.4855 56.4336 37.9191 58.1858 37.9191H70.8837V25.2213C70.8837 23.4918 69.4501 22.0582 67.6978 22.0582ZM99.6018 33.9596H101.331V22.0582H107.953V41.378C107.953 43.1303 106.52 44.5639 104.767 44.5639H92.2971V39.9217H101.331V37.9419H95.2554C93.5032 37.9419 92.0696 36.5083 92.0696 34.756V22.0582H98.6916V33.0493C98.6916 33.55 99.1012 33.9596 99.6018 33.9596ZM123.291 22.0582H110.593V34.7561C110.593 36.5083 112.027 37.9419 113.779 37.9419H126.249V33.9823H118.125C117.625 33.9823 117.215 33.5727 117.215 33.0721V26.0177H118.944C119.445 26.0177 119.855 26.4274 119.855 26.928V31.9798H123.291C125.043 31.9798 126.477 30.5462 126.477 28.794V25.244C126.477 23.4918 125.043 22.0582 123.291 22.0582ZM129.116 22.0582H141.814C143.589 22.0582 145 23.4918 145 25.2213V37.9191H138.378V26.928C138.378 26.4274 137.968 26.0177 137.468 26.0177H135.738V37.9419H129.116V22.0582Z" fill="#0ABF53"/>
</svg>
