<svg width="200" height="60" viewBox="0 0 200 60" fill="none" xmlns="http://www.w3.org/2000/svg">
<g clip-path="url(#clip0_46_120)">
<path d="M58.5 28.0041C58.4996 31.1661 57.4287 34.2349 55.4617 36.711C53.4946 39.1871 50.7472 40.9247 47.6667 41.641L44.5 46L41.3333 41.641C38.2528 40.9247 35.5054 39.1871 33.5383 36.711C31.5713 34.2349 30.5004 31.1661 30.5 28.0041C30.5 27.6003 30.5169 27.2006 30.5508 26.8052C30.8494 23.312 32.4483 20.058 35.0313 17.6869C37.6143 15.3157 40.9933 14 44.5 14C48.0067 14 51.3857 15.3157 53.9687 17.6869C56.5517 20.058 58.1506 23.312 58.4492 26.8052C58.4831 27.2001 58.5 27.5997 58.5 28.0041Z" fill="#FFA300"/>
<path d="M50.4508 23.41L45.1667 26.4617C44.964 26.5787 44.734 26.6403 44.5 26.6403C44.2659 26.6403 44.036 26.5787 43.8333 26.4617L38.5492 23.41C38.4987 23.3807 38.4567 23.3387 38.4276 23.2881C38.3984 23.2375 38.3831 23.1801 38.3831 23.1217C38.3831 23.0633 38.3984 23.0059 38.4276 22.9553C38.4567 22.9047 38.4987 22.8627 38.5492 22.8333L43.8333 19.7825C44.036 19.6655 44.2659 19.6039 44.5 19.6039C44.734 19.6039 44.964 19.6655 45.1667 19.7825L50.4508 22.8333C50.5013 22.8627 50.5433 22.9047 50.5724 22.9553C50.6016 23.0059 50.6169 23.0633 50.6169 23.1217C50.6169 23.1801 50.6016 23.2375 50.5724 23.2881C50.5433 23.3387 50.5013 23.3807 50.4508 23.41Z" fill="white"/>
<path d="M43.5 29.3493V35.1784C43.5001 35.237 43.4847 35.2945 43.4555 35.3453C43.4263 35.396 43.3842 35.4382 43.3335 35.4675C43.2829 35.4968 43.2253 35.5122 43.1668 35.5123C43.1082 35.5123 43.0507 35.4969 43 35.4676L37.8333 32.4843C37.6312 32.3676 37.4633 32.1999 37.3463 31.9979C37.2293 31.7959 37.1673 31.5668 37.1667 31.3334V25.5001C37.1666 25.4415 37.1819 25.384 37.2111 25.3333C37.2404 25.2825 37.2824 25.2404 37.3331 25.2111C37.3838 25.1817 37.4413 25.1663 37.4999 25.1663C37.5584 25.1662 37.616 25.1816 37.6667 25.2109L42.8333 28.1943C43.0361 28.3113 43.2044 28.4797 43.3214 28.6824C43.4385 28.8852 43.5001 29.1152 43.5 29.3493Z" fill="white"/>
<path d="M51.8333 25.5001V31.3334C51.8334 31.5675 51.7718 31.7975 51.6548 32.0003C51.5377 32.203 51.3694 32.3714 51.1667 32.4884L46 35.4718C45.9493 35.501 45.8918 35.5164 45.8332 35.5164C45.7747 35.5164 45.7171 35.501 45.6665 35.4716C45.6158 35.4423 45.5737 35.4002 45.5445 35.3494C45.5153 35.2987 45.4999 35.2411 45.5 35.1826V29.3493C45.4999 29.1152 45.5615 28.8852 45.6786 28.6824C45.7956 28.4797 45.9639 28.3113 46.1667 28.1943L51.3333 25.2109C51.384 25.1816 51.4416 25.1662 51.5001 25.1663C51.5587 25.1663 51.6162 25.1817 51.6669 25.2111C51.7176 25.2404 51.7596 25.2825 51.7889 25.3333C51.8181 25.384 51.8334 25.4415 51.8333 25.5001Z" fill="white"/>
<path fill-rule="evenodd" clip-rule="evenodd" d="M78.4806 35.0381H78.524V36.6357H81.385V23.3369H78.524V24.9776H78.4806C77.7437 23.855 76.2265 22.9915 74.2325 22.9915C69.8976 22.9915 67.1667 26.7048 67.1667 29.9863C67.1667 33.4405 69.7242 37.0243 74.1024 37.0243C75.9231 37.0243 77.5703 36.2471 78.4806 35.0381ZM78.6541 29.9805C78.6541 32.3552 76.7034 34.2983 74.4492 34.2983C72.1084 34.2983 70.2011 32.3552 70.2011 29.9805C70.2011 27.6057 72.1084 25.6627 74.4492 25.6627C76.7034 25.6627 78.6541 27.6057 78.6541 29.9805Z" fill="black"/>
<path fill-rule="evenodd" clip-rule="evenodd" d="M85.2412 26.1124H83.3772V23.4353H85.2412V21.19C85.2412 18.7289 86.7584 16.3541 90.2263 16.3541C90.9198 16.3541 91.8302 16.4837 92.437 16.6995L91.2666 19.2902C90.8765 19.1175 90.5297 19.0312 90.0095 19.0312C88.8391 19.0312 88.1455 19.9811 88.1455 20.9742V23.3921H91.0065V26.0692H88.1455V36.691H85.2845V26.1124H85.2412Z" fill="black"/>
<path fill-rule="evenodd" clip-rule="evenodd" d="M94.0674 26.0244H92.4202V23.3474H94.0674V19.375H96.9284V23.3474H98.9658V26.0244H96.9284V36.6462H94.0674V26.0244Z" fill="black"/>
<path fill-rule="evenodd" clip-rule="evenodd" d="M107.278 37.0244C109.662 37.0244 111.873 35.8154 113.477 33.7861L111.049 32.4044C110.052 33.7429 108.752 34.4769 107.191 34.4769C105.197 34.4769 103.29 33.0089 103.116 30.9795H114.214V30.4614C114.214 25.28 110.052 22.9916 107.278 22.9916C102.596 22.9916 99.9086 26.4458 99.9086 29.9864C99.9086 33.527 102.596 37.0244 107.278 37.0244ZM106.811 25.4901C108.632 25.4901 110.149 26.5695 110.756 28.5989H103.04C103.517 26.6127 104.99 25.4901 106.811 25.4901Z" fill="black"/>
<path fill-rule="evenodd" clip-rule="evenodd" d="M116.396 23.262H119.084V24.7301H119.127C119.604 23.6507 120.601 22.9166 121.771 22.9166C122.422 22.9166 122.942 23.0893 123.332 23.3484L122.292 26.1982C122.032 25.9823 121.511 25.8096 121.208 25.8096C120.168 25.8096 119.214 26.5868 119.214 27.839V36.6472H116.353V23.262H116.396Z" fill="black"/>
<path fill-rule="evenodd" clip-rule="evenodd" d="M125.442 32.6562C126.483 33.7356 128.13 34.5992 129.647 34.5992C131.294 34.5992 132.291 33.6492 132.291 32.9152C132.291 32.0517 131.598 31.5767 130.557 31.3608L128.91 31.0586C125.139 30.3677 124.098 29.1587 124.098 27.2589C124.098 25.0137 126.006 22.8979 129.344 22.8979C131.208 22.8979 132.812 23.4593 134.632 24.7546L132.985 26.784C131.598 25.6182 130.341 25.3159 129.387 25.3159C128.13 25.3159 126.916 25.9204 126.916 26.9998C126.916 27.7771 127.566 28.2088 128.65 28.3815L131.554 28.9429C133.939 29.3746 135.109 30.4973 135.109 32.4834C135.109 34.4264 133.505 36.9739 129.43 36.9739C127.176 36.9739 125.226 36.1967 123.405 34.6423L125.442 32.6562Z" fill="black"/>
<path fill-rule="evenodd" clip-rule="evenodd" d="M136.801 19.375H139.662V25.0313H139.705C140.485 23.7791 141.959 23.0019 143.78 23.0019C146.598 23.0019 148.982 25.3335 148.982 28.6582V36.6667H146.121V29.2627C146.121 26.8448 144.864 25.8517 142.956 25.8517C141.092 25.8517 139.662 27.0175 139.662 29.2196V36.6667H136.801V19.375Z" fill="black"/>
<path fill-rule="evenodd" clip-rule="evenodd" d="M154.498 20.4377C154.498 19.5741 153.761 18.8401 152.894 18.8401C151.983 18.8401 151.29 19.5309 151.29 20.4377C151.29 21.3012 152.027 22.0353 152.894 22.0353C153.761 22.0353 154.498 21.3012 154.498 20.4377ZM154.338 23.3661H151.477V36.6667H154.338V23.3661Z" fill="black"/>
<path fill-rule="evenodd" clip-rule="evenodd" d="M159.915 24.9287H159.872V23.3311H157.011V41.2499H159.872V34.9891H159.915C160.652 36.1117 162.169 36.9753 164.163 36.9753C168.498 36.9753 171.229 33.262 171.229 29.9805C171.229 26.5262 168.672 22.9425 164.293 22.9425C162.473 22.9425 160.956 23.6765 159.915 24.9287ZM159.742 29.9805C159.742 27.6057 161.692 25.6627 163.946 25.6627C166.287 25.6627 168.195 27.6057 168.195 29.9805C168.195 32.3553 166.287 34.2983 163.946 34.2983C161.692 34.2983 159.742 32.3553 159.742 29.9805Z" fill="black"/>
</g>
<defs>
<clipPath id="clip0_46_120">
<rect width="143" height="32" fill="white" transform="translate(28.5 14)"/>
</clipPath>
</defs>
</svg>
