<svg width="200" height="60" viewBox="0 0 200 60" fill="none" xmlns="http://www.w3.org/2000/svg">
<path d="M74.0306 15.96H64.8429L67.68 24.6393H76.8678L69.4368 29.8082L72.2739 38.5336C77.0557 35.1153 78.6245 29.9372 76.8678 24.6301L74.0306 15.96ZM52.8181 24.6393H62.0058L64.8429 15.96H55.6552L52.8181 24.6393C51.0613 29.9464 52.6302 35.1245 57.412 38.5428L60.2491 29.8174L52.8181 24.6393ZM57.412 38.5336L64.8429 43.6932L72.2739 38.5336L64.8429 33.2818L57.412 38.5336ZM126.752 24.4182C124.582 24.4182 123.191 25.3856 122.544 26.9611H122.374V19.8206H119.114V38.4967H122.449V30.3886C122.449 28.3801 123.718 27.2284 125.512 27.2284C127.259 27.2284 128.293 28.3248 128.293 30.1952V38.4967H131.627V29.6515C131.618 26.2886 129.683 24.4182 126.752 24.4182ZM140.637 19.7837C136.128 19.7837 133.403 23.248 133.394 29.2646C133.394 35.2995 136.099 38.81 140.637 38.81C145.165 38.8192 147.88 35.3088 147.88 29.2646C147.87 23.2573 145.146 19.7837 140.637 19.7837ZM136.842 29.2646C136.851 24.8696 138.307 22.557 140.637 22.557C142.234 22.557 143.418 23.6258 144.01 25.6989L136.898 30.7664C136.86 30.3058 136.842 29.7989 136.842 29.2646ZM140.637 35.9998C138.993 35.9998 137.781 34.8573 137.208 32.646L144.357 27.5508C144.413 28.0853 144.442 28.6564 144.442 29.2737C144.442 33.6964 142.986 35.9998 140.637 35.9998ZM104.102 32.6644C104.102 34.7743 102.561 35.8247 101.086 35.8247C99.4801 35.8247 98.4185 34.7098 98.4185 32.95V24.6209H95.0835V33.4569C95.0835 36.7922 97.0188 38.681 99.7995 38.681C101.923 38.681 103.407 37.5845 104.055 36.0366H104.205V38.506H107.437V24.6209H104.102V32.6644ZM87.5397 24.409C84.5617 24.409 82.279 25.7081 81.5462 28.2418L84.6557 28.675C84.9845 27.7259 85.924 26.9151 87.5585 26.9151C89.1087 26.9151 89.9542 27.689 89.9542 29.0527V29.1079C89.9542 30.0478 88.9489 30.0938 86.4501 30.3517C83.7069 30.6374 81.0764 31.4483 81.0764 34.5717C81.0764 37.2989 83.115 38.7455 85.8112 38.7455C88.0284 38.7455 89.3529 37.7227 89.9636 36.5618H90.0763V38.4691H93.2798V29.1816C93.2891 25.5146 90.2454 24.409 87.5397 24.409ZM89.9636 33.4845C89.9636 35.0324 88.6954 36.3407 86.6849 36.3407C85.2946 36.3407 84.2987 35.7141 84.2987 34.5164C84.2987 33.2633 85.4167 32.7381 86.901 32.5262C87.7746 32.4065 89.522 32.1945 89.9636 31.8444V33.4845ZM114.558 21.1473H111.223V24.6209H109.203V27.2284H111.223V34.9125C111.204 37.5201 113.139 38.81 115.648 38.7362C116.399 38.7179 116.963 38.5981 117.348 38.4875V35.8984C117.095 35.9353 116.503 36.009 116.08 36.0183C115.244 36.0366 114.567 35.7326 114.567 34.4058V27.2284H117.348V24.6301H114.558V21.1473Z" fill="black"/>
</svg>
