<svg width="200" height="60" viewBox="0 0 200 60" fill="none" xmlns="http://www.w3.org/2000/svg">
<g clip-path="url(#clip0_3_203)">
<path d="M73.5756 23.0172L66.6595 20.6897V10.6034L73.5841 12.6724L73.5756 23.0172Z" fill="#F68D11"/>
<path d="M75.3793 12.6724L82.3039 10.6034L82.2798 20.6827L75.3793 23.0172V12.6724Z" fill="#F68D11"/>
<path d="M80.8933 9.5113L74.4396 7.5L68.07 9.5113L74.4489 11.2355L80.8933 9.5113Z" fill="#F68D11"/>
<path d="M91.0152 23.0172L84.0991 20.6897V10.6034L91.0237 12.6724L91.0152 23.0172Z" fill="#F68D11"/>
<path d="M92.819 12.6724L99.7435 10.6034L99.7194 20.6827L92.819 23.0172V12.6724Z" fill="#F68D11"/>
<path d="M98.333 9.5113L91.8793 7.5L85.5097 9.5113L91.8885 11.2355L98.333 9.5113Z" fill="#F68D11"/>
<path d="M47.4246 27.4138L40.5 25.3448V35.431L47.4162 37.7586L47.4246 27.4138Z" fill="#F68D11"/>
<path d="M49.2198 27.4138L56.1444 25.3448L56.1204 35.4243L49.2198 37.7586V27.4138Z" fill="#F68D11"/>
<path d="M54.7338 24.2527L48.2801 22.2414L41.9106 24.2527L48.2894 25.9769L54.7338 24.2527Z" fill="#F68D11"/>
<path d="M64.8558 37.7586L57.9397 35.431V25.3448L64.8642 27.4138L64.8558 37.7586Z" fill="#F68D11"/>
<path d="M66.6595 27.4138L73.5841 25.3448L73.5599 35.4243L66.6595 37.7586V27.4138Z" fill="#F68D11"/>
<path d="M72.1735 24.2527L65.7198 22.2414L59.3502 24.2527L65.7291 25.9769L72.1735 24.2527Z" fill="#F68D11"/>
<path d="M56.136 52.5L49.2198 50.1724V40.0862L56.1444 42.1552L56.136 52.5Z" fill="#F68D11"/>
<path d="M57.9397 42.1552L64.8642 40.0862L64.8402 50.1656L57.9397 52.5V42.1552Z" fill="#F68D11"/>
<path d="M63.4537 38.9941L56.9999 36.9828L50.6304 38.9941L57.0093 40.7183L63.4537 38.9941Z" fill="#F68D11"/>
<path d="M86.7638 43.5841L86.255 43.5859C86.0683 43.5859 85.8303 43.7131 85.7718 43.9193L84.2281 49.4033L82.7014 43.9312C82.6555 43.7596 82.4952 43.5859 82.2772 43.5859H81.6748C81.4578 43.5859 81.2996 43.762 81.2557 43.9347L79.8354 49.35L78.3679 43.9179C78.3099 43.7193 78.066 43.5859 77.8747 43.5859L77.1425 43.5846C76.9861 43.5846 76.8406 43.6524 76.7627 43.7614C76.7099 43.8354 76.6952 43.9193 76.7196 43.9922L78.9868 52.0859C79.0368 52.2561 79.1829 52.4276 79.3968 52.4276H80.1249C80.3217 52.4276 80.494 52.283 80.5438 52.0779L81.9392 46.6865L83.4577 52.0841C83.5034 52.2494 83.6503 52.4276 83.8652 52.4276H84.5815C84.7808 52.4276 84.9486 52.288 84.9978 52.0834L87.1801 43.9955C87.2057 43.9176 87.1908 43.8311 87.1388 43.7581C87.0621 43.6507 86.9185 43.5841 86.7638 43.5841" fill="#100F0D"/>
<path d="M93.0595 47.0204H89.2131C89.3015 45.9318 90.0025 44.8032 91.1899 44.7598C92.4535 44.8014 93.0316 45.9042 93.0595 47.0204ZM91.1871 43.5262C88.5888 43.5262 87.4055 45.8425 87.4055 47.9945C87.4055 50.6804 88.8766 52.4156 91.1532 52.4156C92.7825 52.4156 94.0246 51.5855 94.5611 50.1351C94.5899 50.0522 94.5809 49.9622 94.536 49.8815C94.4814 49.7835 94.3778 49.7095 94.2552 49.6824L93.534 49.5432C93.3404 49.5126 93.1185 49.6283 93.0452 49.7961C92.6948 50.602 92.0562 51.0592 91.2548 51.083C90.4836 51.059 89.7755 50.597 89.4511 49.9068C89.1874 49.343 89.1484 48.7873 89.1441 48.2222L94.366 48.2203C94.4755 48.2203 94.5888 48.1717 94.6688 48.09C94.7358 48.0222 94.7722 47.938 94.7714 47.8536C94.7586 45.7614 93.8105 43.5262 91.1871 43.5262" fill="#100F0D"/>
<path d="M101.196 48.0075C101.196 48.503 101.107 50.9773 99.3635 51.0406C98.7792 51.0181 98.1888 50.6718 97.859 50.1598C97.6162 49.7726 97.4743 49.2372 97.4379 48.5749V47.1192C97.4664 46.004 98.2447 44.7802 99.3578 44.7328C101.107 44.8024 101.196 47.4726 101.196 48.0075ZM99.6368 43.4511H99.4986C98.6361 43.4511 97.9583 43.8124 97.4379 44.5529L97.4371 41.1409C97.4371 40.9492 97.2409 40.7747 97.0242 40.7747H96.2733C96.0771 40.7747 95.8576 40.9314 95.8571 41.1409V51.7919C95.8578 51.9854 96.054 52.1612 96.2705 52.1612L96.491 52.16C96.6993 52.16 96.8475 51.9907 96.8975 51.8335L97.1325 51.0817C97.6782 51.8632 98.5002 52.3223 99.3799 52.3223H99.5145C101.832 52.3223 102.869 50.0496 102.869 47.7972C102.869 46.6761 102.595 45.6041 102.117 44.8562C101.565 43.9896 100.614 43.4511 99.6368 43.4511" fill="#100F0D"/>
<path d="M111.091 47.7678C110.603 47.414 110.016 47.2958 109.428 47.1774L108.3 46.9665C107.491 46.8324 107.023 46.6136 107.023 45.8936C107.023 45.1324 107.805 44.8415 108.468 44.8234C109.278 44.844 109.887 45.2084 110.183 45.8493C110.253 46.0003 110.409 46.102 110.571 46.102C110.598 46.102 110.627 46.0988 110.653 46.093L111.357 45.9362C111.472 45.9106 111.579 45.8312 111.637 45.728C111.683 45.646 111.693 45.5566 111.665 45.4766C111.234 44.2117 110.141 43.5432 108.487 43.5432C106.993 43.5466 105.396 44.2167 105.396 46.0882C105.396 47.3674 106.193 48.1797 107.767 48.503L109.029 48.7456C109.722 48.8793 110.43 49.1172 110.43 49.8675C110.43 50.9783 109.149 51.0915 108.761 51.0996C107.892 51.0807 106.907 50.6897 106.668 49.8616C106.62 49.6795 106.393 49.5507 106.194 49.5925L105.458 49.7457C105.347 49.7692 105.246 49.8419 105.187 49.94C105.137 50.0217 105.123 50.1132 105.146 50.1968C105.526 51.5708 106.841 52.3994 108.665 52.4133L108.705 52.4136C110.334 52.4136 112.074 51.7104 112.074 49.7377C112.074 48.9347 111.716 48.2167 111.091 47.7678Z" fill="#100F0D"/>
<path d="M118.536 47.0284H114.689C114.777 45.9388 115.477 44.8097 116.665 44.7682C117.928 44.8087 118.507 45.9113 118.536 47.0284ZM116.663 43.5336C114.064 43.5336 112.88 45.8501 112.88 48.002C112.88 50.6876 114.352 52.4227 116.629 52.4227C118.258 52.4227 119.5 51.5925 120.037 50.1424C120.066 50.0594 120.057 49.9692 120.012 49.8882C119.957 49.7901 119.853 49.7162 119.731 49.6895L119.009 49.5504C118.84 49.5227 118.604 49.6109 118.521 49.8036C118.17 50.6089 117.531 51.0662 116.731 51.091C115.959 51.0662 115.251 50.6043 114.928 49.9143C114.664 49.3518 114.624 48.7956 114.621 48.2291L119.842 48.2278C119.951 48.2278 120.063 48.1795 120.143 48.0983C120.211 48.0302 120.247 47.9459 120.246 47.8611C120.234 45.7691 119.287 43.5336 116.663 43.5336" fill="#100F0D"/>
<path d="M125.177 43.6321C125.075 43.6208 124.977 43.6154 124.882 43.6154C124.006 43.6154 123.294 44.0958 122.8 45.0137L122.802 44.2099C122.801 44.0152 122.608 43.8442 122.39 43.8442H121.738C121.524 43.8442 121.335 44.0159 121.333 44.213L121.332 52.0216C121.332 52.2175 121.521 52.3896 121.736 52.3896L122.497 52.3893C122.695 52.3893 122.918 52.2326 122.92 52.0216L122.921 48.0849C122.921 47.4357 122.981 46.9466 123.288 46.3681C123.727 45.5439 124.341 45.1396 125.164 45.1331C125.37 45.1316 125.551 44.9501 125.551 44.7445V44.0141C125.551 43.823 125.386 43.6552 125.177 43.6321" fill="#100F0D"/>
<path d="M133.166 43.4788L132.565 43.4791C132.377 43.4791 132.136 43.6154 132.077 43.8153L130.129 49.9887L128.14 43.8215C128.081 43.6167 127.84 43.4791 127.65 43.4791L126.792 43.4783C126.635 43.4783 126.482 43.5491 126.404 43.6585C126.352 43.7317 126.338 43.8148 126.364 43.8923L129.086 52.036C129.138 52.1971 129.277 52.3854 129.497 52.3854H130.535C130.726 52.3854 130.882 52.2546 130.953 52.0353L133.594 43.8949C133.62 43.8176 133.606 43.7343 133.554 43.6608C133.476 43.5504 133.324 43.4788 133.166 43.4788Z" fill="#100F0D"/>
<path d="M135.14 40.3485C134.587 40.3485 134.137 40.8036 134.137 41.3636C134.137 41.9234 134.587 42.3783 135.14 42.3783C135.694 42.3783 136.145 41.9234 136.145 41.3636C136.145 40.8036 135.694 40.3485 135.14 40.3485Z" fill="#100F0D"/>
<path d="M135.554 43.4292L134.73 43.4284C134.505 43.4284 134.301 43.6112 134.301 43.8117L134.297 52.1028C134.297 52.2031 134.348 52.3027 134.437 52.3767C134.518 52.4438 134.622 52.4826 134.727 52.4826L135.557 52.4839H135.557C135.785 52.4819 135.984 52.304 135.984 52.1033V43.8117C135.984 43.6079 135.783 43.4292 135.554 43.4292Z" fill="#100F0D"/>
<path d="M143.254 49.0516L142.566 49.0542C142.374 49.0542 142.213 49.1706 142.142 49.3727C141.89 50.4662 141.321 51.0328 140.458 51.0579C138.776 51.0075 138.646 48.6442 138.646 47.9211C138.646 46.4791 139.141 44.9229 140.524 44.8818C141.358 44.9077 141.965 45.5111 142.147 46.4943C142.182 46.695 142.335 46.8468 142.543 46.8732L143.28 46.8805C143.5 46.8564 143.672 46.6885 143.671 46.4803C143.41 44.7034 142.189 43.5549 140.557 43.5549L140.501 43.5564L140.437 43.5549C138.064 43.5549 137.001 45.7885 137.001 48.002C137.001 50.0315 137.897 52.4012 140.424 52.4012H140.545C142.136 52.4012 143.337 51.2765 143.681 49.4529C143.688 49.366 143.659 49.2792 143.598 49.2085C143.519 49.117 143.393 49.0583 143.254 49.0516" fill="#100F0D"/>
<path d="M150.05 47.0284H146.202C146.29 45.9385 146.991 44.8097 148.18 44.7682C149.443 44.8087 150.022 45.9113 150.05 47.0284ZM148.177 43.5336C145.579 43.5336 144.395 45.8501 144.395 48.002C144.395 50.6876 145.867 52.4227 148.143 52.4227C149.772 52.4227 151.014 51.593 151.551 50.1427C151.579 50.0592 151.57 49.9686 151.525 49.8882C151.47 49.7894 151.369 49.7172 151.245 49.6895L150.523 49.5504C150.354 49.5227 150.119 49.6109 150.036 49.8036C149.684 50.6089 149.045 51.0662 148.244 51.0913C147.473 51.0662 146.765 50.6043 146.442 49.9143C146.178 49.351 146.138 48.7947 146.134 48.2291L151.356 48.2283C151.466 48.2283 151.579 48.1795 151.66 48.0975C151.726 48.029 151.762 47.9446 151.761 47.8611C151.749 45.7691 150.801 43.5336 148.177 43.5336" fill="#100F0D"/>
<path d="M158.303 47.7678C157.813 47.4137 157.226 47.2956 156.639 47.1774L155.511 46.9665C154.703 46.8324 154.235 46.6136 154.235 45.8936C154.235 44.9118 155.443 44.8298 155.678 44.8234C156.489 44.844 157.098 45.2084 157.393 45.8496C157.464 46.0006 157.62 46.102 157.782 46.102C157.81 46.102 157.838 46.0988 157.866 46.093L158.569 45.9362C158.684 45.9106 158.791 45.8309 158.848 45.7278C158.894 45.6458 158.904 45.5566 158.876 45.4766C158.446 44.2117 157.353 43.5432 155.698 43.5432C154.204 43.5466 152.607 44.2167 152.607 46.0882C152.607 47.3677 153.404 48.18 154.978 48.503L156.241 48.7456C156.934 48.8793 157.642 49.1172 157.642 49.8675C157.642 50.9783 156.36 51.0915 155.973 51.0996C155.167 51.0822 154.135 50.7465 153.88 49.8626C153.834 49.6795 153.607 49.5509 153.404 49.5925L152.669 49.7457C152.558 49.7695 152.456 49.8427 152.397 49.941C152.348 50.0229 152.334 50.1137 152.357 50.1968C152.736 51.5708 154.051 52.3994 155.875 52.4133L155.915 52.4136C157.544 52.4136 159.285 51.7104 159.285 49.7377C159.285 48.9342 158.927 48.216 158.303 47.7678" fill="#100F0D"/>
<path fill-rule="evenodd" clip-rule="evenodd" d="M124.804 27.466V25.5833C124.805 25.2978 125.02 25.1061 125.278 25.1064L133.643 25.1061C133.91 25.1061 134.125 25.3024 134.125 25.5812V27.1958C134.122 27.466 133.896 27.8194 133.495 28.3806L129.162 34.6187C130.77 34.5802 132.472 34.823 133.933 35.6512C134.263 35.8378 134.35 36.1149 134.377 36.3853V38.3943C134.377 38.6713 134.077 38.9914 133.761 38.8246C131.187 37.4643 127.77 37.3158 124.922 38.8404C124.632 38.9969 124.327 38.6817 124.327 38.4047V36.4957C124.327 36.1911 124.333 35.6679 124.638 35.2019L129.658 27.9403L125.288 27.9393C125.021 27.9393 124.807 27.7474 124.804 27.466" fill="#100F0D"/>
<path fill-rule="evenodd" clip-rule="evenodd" d="M94.2924 39.2208H91.7469C91.5051 39.2049 91.3115 39.0209 91.2922 38.7863L91.294 25.6153C91.294 25.3518 91.5141 25.1413 91.7849 25.1413L94.1549 25.14C94.4032 25.154 94.6017 25.3428 94.6186 25.5822V27.3032H94.6658C95.2828 25.6394 96.4469 24.8646 98.0144 24.8646C99.6058 24.8646 100.604 25.6394 101.316 27.3032C101.935 25.6394 103.336 24.8646 104.833 24.8646C105.902 24.8646 107.065 25.3073 107.778 26.3046C108.585 27.4138 108.419 29.0203 108.419 30.4344L108.417 38.7463C108.417 39.0091 108.197 39.2208 107.927 39.2208H105.385C105.129 39.2049 104.928 38.999 104.928 38.7475V31.7646C104.928 31.2106 104.975 29.8242 104.856 29.2981C104.666 28.4104 104.095 28.1624 103.36 28.1624C102.742 28.1624 102.1 28.5781 101.839 29.2418C101.578 29.9081 101.602 31.0166 101.602 31.7646V38.7463C101.602 39.0091 101.382 39.2208 101.111 39.2208H98.5689C98.3142 39.2049 98.1124 38.999 98.1124 38.7475L98.1091 31.7646C98.1091 30.2955 98.3473 28.1346 96.5423 28.1346C94.7132 28.1346 94.7845 30.2404 94.7845 31.7646L94.783 38.7463C94.784 39.0091 94.564 39.2208 94.2924 39.2208" fill="#100F0D"/>
<path fill-rule="evenodd" clip-rule="evenodd" d="M141.35 27.552C139.472 27.552 139.354 30.1293 139.354 31.7374C139.354 33.3446 139.33 36.781 141.327 36.781C143.299 36.781 143.393 34.0094 143.393 32.319C143.393 31.2106 143.346 29.8806 143.014 28.8273C142.728 27.9123 142.158 27.552 141.35 27.552V27.552ZM141.327 24.8646C145.103 24.8646 147.147 28.1346 147.147 32.2904C147.147 36.31 144.889 39.4975 141.327 39.4975C137.62 39.4975 135.601 36.2266 135.601 32.1525C135.601 28.0508 137.643 24.8646 141.327 24.8646" fill="#100F0D"/>
<path fill-rule="evenodd" clip-rule="evenodd" d="M152.045 39.2208H149.509C149.254 39.2049 149.053 38.999 149.053 38.7475L149.049 25.5706C149.07 25.3306 149.281 25.1413 149.537 25.1413L151.898 25.14C152.121 25.1524 152.303 25.305 152.35 25.5091V27.5244H152.398C153.11 25.7227 154.108 24.8646 155.865 24.8646C157.006 24.8646 158.123 25.2791 158.835 26.4158C159.5 27.4685 159.5 29.2418 159.5 30.5169V38.8055C159.472 39.0391 159.265 39.2208 159.014 39.2208H156.461C156.226 39.2054 156.037 39.03 156.008 38.8055V31.6538C156.008 30.2127 156.175 28.1058 154.416 28.1058C153.799 28.1058 153.23 28.5225 152.944 29.1592C152.587 29.9626 152.54 30.7663 152.54 31.6538V38.7463C152.536 39.0091 152.316 39.2208 152.045 39.2208" fill="#100F0D"/>
<path fill-rule="evenodd" clip-rule="evenodd" d="M120.702 39.1875C120.533 39.3393 120.291 39.3494 120.101 39.2472C119.256 38.5388 119.104 38.2104 118.642 37.5367C117.245 38.9715 116.256 39.4019 114.447 39.4019C112.304 39.4019 110.638 38.0684 110.638 35.402C110.638 33.3194 111.756 31.9028 113.351 31.2079C114.732 30.5967 116.661 30.4854 118.136 30.3182V29.9854C118.136 29.3747 118.184 28.6521 117.826 28.1247C117.518 27.6525 116.923 27.4585 116.398 27.4585C115.427 27.4585 114.565 27.9603 114.353 28.9999C114.309 29.2307 114.141 29.46 113.911 29.4711L111.445 29.2017C111.236 29.1544 111.005 28.9865 111.065 28.666C111.632 25.6479 114.334 24.736 116.756 24.736C117.993 24.736 119.613 25.0691 120.589 26.0134C121.826 27.1804 121.707 28.7357 121.707 30.4302V34.4281C121.707 35.6307 122.203 36.1585 122.669 36.8067C122.83 37.0404 122.866 37.3174 122.659 37.4889C122.14 37.928 121.216 38.7362 120.709 39.1932L120.702 39.1875V39.1875ZM118.136 32.9299C118.136 33.93 118.16 34.7641 117.66 35.6522C117.255 36.375 116.612 36.819 115.898 36.819C114.923 36.819 114.352 36.0693 114.352 34.9577C114.352 32.7726 116.296 32.3748 118.136 32.3748V32.9299" fill="#100F0D"/>
<path fill-rule="evenodd" clip-rule="evenodd" d="M87.3421 39.1875C87.1739 39.3393 86.9305 39.3494 86.7402 39.2472C85.8952 38.5388 85.7439 38.2104 85.2814 37.5367C83.8852 38.9715 82.8955 39.4019 81.0857 39.4019C78.9432 39.4019 77.2766 38.0684 77.2766 35.402C77.2766 33.3194 78.3961 31.9028 79.9911 31.2079C81.3721 30.5967 83.3005 30.4854 84.7762 30.3182V29.9854C84.7762 29.3747 84.8242 28.6521 84.4667 28.1247C84.1574 27.6525 83.5616 27.4585 83.0387 27.4585C82.0679 27.4585 81.2044 27.9603 80.9928 28.9999C80.9487 29.2307 80.7812 29.46 80.5509 29.4711L78.084 29.2017C77.8757 29.1544 77.6444 28.9865 77.7042 28.666C78.271 25.6479 80.9733 24.736 83.3949 24.736C84.6336 24.736 86.2519 25.0691 87.2283 26.0134C88.4662 27.1804 88.3467 28.7357 88.3467 30.4302V34.4281C88.3467 35.6307 88.8427 36.1585 89.3074 36.8067C89.4695 37.0404 89.5062 37.3174 89.2995 37.4889C88.7794 37.928 87.8553 38.7362 87.348 39.1932L87.3421 39.1875V39.1875ZM84.7762 32.9299C84.7762 33.93 84.7995 34.7641 84.3005 35.6522C83.896 36.375 83.2523 36.819 82.5391 36.819C81.5619 36.819 80.991 36.0693 80.991 34.9577C80.991 32.7726 82.935 32.3748 84.7762 32.3748V32.9299" fill="#100F0D"/>
</g>
<defs>
<clipPath id="clip0_3_203">
<rect width="119" height="45" fill="white" transform="translate(40.5 7.5)"/>
</clipPath>
</defs>
</svg>
