<svg width="200" height="60" viewBox="0 0 200 60" fill="none" xmlns="http://www.w3.org/2000/svg">
<g clip-path="url(#clip0_1_67)">
<path d="M34.6672 36.1921C33.8802 35.3913 33.2577 34.4417 32.8351 33.3979C32.4126 32.354 32.1985 31.2364 32.205 30.1089C32.2021 28.9815 32.4222 27.8649 32.8523 26.8242C33.2825 25.7836 33.914 24.8399 34.7101 24.0483C35.0511 23.7426 35.3266 23.37 35.5198 22.9533C35.713 22.5365 35.8199 22.0844 35.8338 21.6245C35.8477 21.1647 35.7684 20.7068 35.6007 20.279C35.433 19.8511 35.1804 19.4623 34.8585 19.1363C34.5366 18.8103 34.1521 18.554 33.7286 18.383C33.305 18.2121 32.8513 18.1301 32.3952 18.1421C31.9391 18.1541 31.4903 18.2599 31.0762 18.4529C30.662 18.646 30.2913 18.9222 29.9868 19.2648C27.126 22.1325 25.512 26.0286 25.4997 30.0963C25.4875 34.1639 27.0781 38.0698 29.9216 40.955C30.2251 41.297 30.5946 41.5732 31.0075 41.7665C31.4203 41.9599 31.8679 42.0665 32.323 42.0797C32.778 42.093 33.2309 42.0126 33.6542 41.8436C34.0774 41.6746 34.4621 41.4204 34.7847 41.0966C35.1073 40.7728 35.3612 40.3861 35.5308 39.9601C35.7004 39.5341 35.7822 39.0778 35.7713 38.6189C35.7603 38.16 35.6567 37.7082 35.4669 37.2909C35.2771 36.8737 35.005 36.4998 34.6672 36.1921V36.1921Z" fill="#FFDA00"/>
<path d="M34.7101 24.0483C36.3144 22.4468 38.4829 21.552 40.7404 21.5601C42.9978 21.5682 45.16 22.4785 46.753 24.0915C47.0555 24.4371 47.4249 24.7168 47.8385 24.9131C48.2522 25.1095 48.7013 25.2185 49.1582 25.2334C49.6152 25.2483 50.0703 25.1689 50.4956 24.9998C50.921 24.8308 51.3076 24.5759 51.6316 24.2507C51.9557 23.9255 52.2103 23.5369 52.3799 23.1087C52.5495 22.6806 52.6305 22.2221 52.6179 21.7612C52.6052 21.3004 52.4993 20.847 52.3065 20.429C52.1137 20.011 51.8381 19.6372 51.4968 19.3305C50.094 17.8977 48.4244 16.7585 46.5837 15.9783C44.7431 15.1981 42.7678 14.7922 40.7711 14.784C38.7745 14.7758 36.7959 15.1654 34.9491 15.9305C33.1022 16.6956 31.4234 17.821 30.0091 19.2422C29.6669 19.5463 29.3898 19.9176 29.1948 20.3334C28.9998 20.7492 28.8909 21.2007 28.875 21.6604C28.859 22.12 28.9362 22.5782 29.1019 23.0067C29.2676 23.4352 29.5183 23.8251 29.8386 24.1526C30.1589 24.4801 30.5421 24.7382 30.9647 24.9111C31.3874 25.0841 31.8406 25.1683 32.2966 25.1585C32.7526 25.1487 33.2019 25.0452 33.6169 24.8543C34.0318 24.6634 34.4038 24.3892 34.7101 24.0483V24.0483Z" fill="#67B3FF"/>
<path d="M46.7325 36.2353C45.9386 37.0305 44.9969 37.6599 43.9614 38.0876C42.9259 38.5152 41.817 38.7327 40.698 38.7276C39.5793 38.7292 38.4715 38.5058 37.4395 38.0705C36.4075 37.6351 35.472 36.9965 34.6877 36.1921C34.3846 35.8483 34.0151 35.5704 33.6018 35.3756C33.1885 35.1807 32.7401 35.073 32.2841 35.059C31.8281 35.045 31.374 35.1249 30.9497 35.294C30.5254 35.4631 30.1398 35.7178 29.8165 36.0424C29.4932 36.367 29.239 36.7547 29.0695 37.1818C28.9 37.609 28.8187 38.0665 28.8306 38.5264C28.8425 38.9863 28.9474 39.4389 29.1389 39.8565C29.3303 40.2741 29.6042 40.6479 29.9439 40.955C31.3491 42.3876 33.0209 43.5266 34.8634 44.3065C36.7059 45.0864 38.6829 45.4921 40.6811 45.5001C42.6794 45.5081 44.6596 45.1184 46.5082 44.3533C48.3568 43.5882 50.0375 42.4627 51.4539 41.0414C51.7669 40.7288 52.0157 40.3571 52.1862 39.9475C52.3567 39.5379 52.4455 39.0985 52.4476 38.6543C52.4497 38.2101 52.365 37.7698 52.1983 37.3586C52.0316 36.9475 51.7863 36.5734 51.4763 36.2578C51.1663 35.9423 50.7977 35.6914 50.3915 35.5194C49.9853 35.3475 49.5495 35.258 49.109 35.2559C48.6685 35.2538 48.2319 35.3392 47.8242 35.5072C47.4164 35.6753 47.0454 35.9227 46.7325 36.2353V36.2353Z" fill="#EB5A68"/>
<path d="M34.7101 24.0483C34.2402 24.5216 33.6415 24.8434 32.9899 24.9731C32.3383 25.1027 31.6633 25.0343 31.0503 24.7765C30.4374 24.5187 29.9142 24.0831 29.5471 23.525C29.18 22.9669 28.9855 22.3115 28.9884 21.6418C28.9913 20.9721 29.1914 20.3183 29.5632 19.7635C29.9351 19.2086 30.4621 18.7776 31.0772 18.5252C31.6923 18.2728 32.368 18.2103 33.0184 18.3456C33.6688 18.481 34.2648 18.808 34.7306 19.2854C35.3511 19.9214 35.6972 20.7789 35.6934 21.6711C35.6895 22.5633 35.3361 23.4178 34.7101 24.0483Z" fill="#47A1FF"/>
<path d="M34.6449 40.955C34.1748 41.4281 33.576 41.7497 32.9244 41.8791C32.2727 42.0085 31.5977 41.9398 30.9848 41.6817C30.372 41.4237 29.849 40.9879 29.4821 40.4297C29.1152 39.8714 28.921 39.2159 28.9242 38.5462C28.9273 37.8765 29.1276 37.2229 29.4997 36.6681C29.8718 36.1134 30.3989 35.6827 31.0142 35.4305C31.6294 35.1783 32.3051 35.116 32.9555 35.2516C33.6058 35.3872 34.2016 35.7146 34.6672 36.1921C35.2875 36.8283 35.6333 37.686 35.6291 38.5782C35.6249 39.4704 35.2711 40.3247 34.6449 40.955V40.955Z" fill="#D5465F"/>
<path fill-rule="evenodd" clip-rule="evenodd" d="M66.4154 33.4219C67.382 32.6857 67.5106 33.097 68.3263 33.9196C68.7342 34.3309 69.8499 35.0465 69.1198 35.6512C67.5962 36.9058 66.2217 37.4692 64.2773 37.4692C59.8762 37.4486 56.7639 34.1356 57.0135 29.7408C57.1197 27.7726 57.8926 25.9095 59.418 24.6324C60.813 23.4417 62.5507 22.9233 64.376 22.9665C65.2706 22.9638 66.1568 23.14 66.9835 23.4849C67.5434 23.6887 68.071 23.9734 68.5498 24.33C69.5165 25.0812 69.0657 25.5207 68.3133 26.2776C68.1419 26.4504 67.9706 26.625 67.8197 26.7978C67.4342 27.1866 67.1753 27.4683 66.6613 27.1002C65.6741 26.4072 64.4263 26.0391 63.2473 26.349C59.4478 27.3218 59.6191 34.1412 64.2791 34.1638C65.0516 34.1535 65.8004 33.8935 66.4154 33.4219V33.4219ZM172.032 37.5537C171.88 37.5545 171.729 37.5248 171.588 37.4664C171.447 37.408 171.319 37.322 171.211 37.2134C171.103 37.1048 171.017 36.9757 170.959 36.8336C170.901 36.6915 170.871 36.5393 170.872 36.3856L170.937 21.2762C170.936 21.1225 170.966 20.9702 171.024 20.828C171.082 20.6858 171.167 20.5566 171.275 20.4479C171.382 20.3391 171.51 20.2529 171.651 20.1942C171.792 20.1356 171.943 20.1056 172.096 20.1061H173.342C173.494 20.1056 173.645 20.1356 173.786 20.1944C173.927 20.2532 174.055 20.3395 174.163 20.4485C174.271 20.5575 174.356 20.6869 174.414 20.8293C174.472 20.9717 174.501 21.1242 174.5 21.2781L174.435 36.3874C174.436 36.5411 174.406 36.6933 174.348 36.8354C174.29 36.9774 174.205 37.1065 174.097 37.2151C173.989 37.3238 173.861 37.4098 173.721 37.4682C173.58 37.5267 173.429 37.5564 173.276 37.5556L172.032 37.5537ZM165.513 35.8015C164.161 37.0786 162.872 37.7491 160.961 37.7491C157.099 37.7265 155.251 34.5018 155.251 30.8865L155.273 24.7394C155.273 24.5858 155.303 24.4336 155.361 24.2916C155.419 24.1497 155.504 24.0207 155.612 23.9123C155.72 23.8038 155.848 23.718 155.989 23.6598C156.13 23.6016 156.281 23.5721 156.434 23.5731H157.68C157.832 23.5724 157.983 23.6021 158.124 23.6605C158.265 23.719 158.393 23.805 158.501 23.9136C158.608 24.0222 158.694 24.1513 158.752 24.2934C158.81 24.4355 158.839 24.5877 158.838 24.7413L158.818 30.8883C158.818 32.9017 159.891 34.4812 161.995 34.4812C164.1 34.4812 165.387 32.7064 165.407 30.725V28.5294C165.39 28.4442 165.383 28.3572 165.387 28.2703L165.407 24.7845C165.407 24.6309 165.436 24.4786 165.494 24.3366C165.552 24.1945 165.637 24.0654 165.745 23.9568C165.853 23.8482 165.981 23.7622 166.122 23.7037C166.262 23.6453 166.413 23.6156 166.566 23.6163H167.795C167.947 23.6156 168.098 23.6453 168.239 23.7037C168.38 23.7622 168.508 23.8482 168.616 23.9568C168.724 24.0654 168.809 24.1945 168.867 24.3366C168.925 24.4786 168.954 24.6309 168.953 24.7845L168.913 36.3874C168.91 36.6944 168.786 36.9877 168.569 37.2029C168.351 37.418 168.058 37.5375 167.754 37.535H166.702C166.403 37.5256 166.119 37.4016 165.907 37.1884C165.696 36.9752 165.573 36.6888 165.564 36.3874L165.513 35.8015ZM150.694 23.6163H153.098C153.25 23.6185 153.401 23.6511 153.541 23.7123C153.681 23.7734 153.807 23.8619 153.913 23.9726C154.019 24.0833 154.102 24.214 154.157 24.3573C154.213 24.5005 154.239 24.6533 154.236 24.807V25.6071C154.234 25.9155 154.111 26.2107 153.895 26.4291C153.679 26.6476 153.387 26.7719 153.081 26.7753H150.671L150.628 36.3217C150.629 36.4754 150.6 36.6277 150.542 36.7699C150.484 36.9121 150.398 37.0413 150.291 37.1501C150.183 37.2588 150.055 37.345 149.914 37.4037C149.773 37.4623 149.622 37.4923 149.47 37.4918H148.226C148.073 37.4923 147.922 37.4623 147.781 37.4037C147.64 37.3451 147.512 37.2589 147.404 37.1502C147.296 37.0414 147.211 36.9122 147.153 36.7701C147.095 36.6279 147.065 36.4755 147.065 36.3217L147.108 23.1186C147.108 20.2395 148.74 17.9651 151.66 17.7059C151.746 17.7059 151.809 17.6853 151.895 17.6853C152.067 17.674 152.239 17.674 152.411 17.6853H153.528C153.681 17.6875 153.831 17.72 153.971 17.781C154.11 17.8421 154.237 17.9304 154.343 18.0409C154.448 18.1514 154.531 18.2819 154.587 18.4249C154.643 18.5679 154.669 18.7206 154.666 18.8741V19.6103C154.664 19.9197 154.542 20.2159 154.325 20.4349C154.108 20.6538 153.815 20.7779 153.508 20.7804H152.606C151.232 20.7804 150.653 21.8396 150.63 23.1393L150.694 23.6163ZM142.065 23.5731H144.7C145.004 23.5761 145.295 23.7008 145.509 23.9198C145.722 24.1388 145.84 24.4343 145.838 24.7413V25.5414C145.835 25.8484 145.711 26.1417 145.494 26.3568C145.277 26.572 144.984 26.6914 144.68 26.6889H142.042L142.022 32.5298C142.022 33.6567 142.558 34.3046 143.674 34.3046H144.21C144.515 34.3081 144.806 34.4332 145.019 34.6525C145.232 34.8718 145.351 35.1675 145.348 35.4747V36.286C145.345 36.5929 145.221 36.8859 145.004 37.1009C144.787 37.3159 144.494 37.4355 144.19 37.4335H143.18C142.994 37.4373 142.807 37.4298 142.621 37.411C139.766 37.2232 138.5 35.3564 138.5 32.5411C138.522 28.7529 138.522 24.9873 138.543 21.1992C138.544 21.047 138.575 20.8966 138.634 20.7566C138.693 20.6166 138.779 20.4897 138.887 20.3831C138.995 20.2765 139.122 20.1924 139.262 20.1356C139.402 20.0787 139.552 20.0502 139.703 20.0517H140.927C141.231 20.0547 141.522 20.1793 141.735 20.3984C141.949 20.6174 142.067 20.9129 142.065 21.2199V23.5731ZM103.883 23.421H106.519C106.823 23.424 107.114 23.5487 107.327 23.7677C107.541 23.9867 107.659 24.2822 107.657 24.5892V25.393C107.653 25.6999 107.529 25.9929 107.312 26.2079C107.095 26.4229 106.803 26.5425 106.498 26.5405H103.854V32.3833C103.854 33.5102 104.39 34.1581 105.506 34.1581H106.044C106.194 34.1596 106.343 34.191 106.482 34.2505C106.621 34.31 106.746 34.3965 106.852 34.5049C106.957 34.6134 107.041 34.7418 107.097 34.8827C107.153 35.0236 107.181 35.1744 107.18 35.3263V36.1264C107.177 36.4334 107.053 36.7267 106.836 36.9418C106.619 37.157 106.326 37.2764 106.021 37.2739H105.228C102.114 37.2532 100.311 35.9104 100.311 32.3908C100.333 28.6027 100.333 24.8352 100.354 21.0471C100.357 20.7399 100.481 20.4466 100.699 20.2315C100.916 20.0164 101.21 19.897 101.514 19.8996H102.738C103.042 19.903 103.333 20.0282 103.546 20.2476C103.759 20.4669 103.877 20.7626 103.874 21.0696L103.883 23.421ZM88.3855 25.0662C89.652 23.8755 91.0265 23.1186 92.807 23.1186C96.6717 23.1393 98.6683 26.3114 98.646 29.9793L98.6255 36.1264C98.626 36.2802 98.5963 36.4325 98.5382 36.5747C98.48 36.7169 98.3946 36.8461 98.2867 36.9548C98.1789 37.0636 98.0508 37.1498 97.9098 37.2084C97.7688 37.267 97.6177 37.2969 97.4651 37.2964H96.221C96.0685 37.2969 95.9174 37.267 95.7764 37.2084C95.6354 37.1498 95.5073 37.0636 95.3994 36.9548C95.2916 36.8461 95.2061 36.7169 95.148 36.5747C95.0898 36.4325 95.0602 36.2802 95.0607 36.1264L95.083 30.0225C95.083 28.0092 94.0102 26.4297 91.9056 26.4297C89.801 26.4297 88.514 28.1839 88.4935 30.1747L88.4711 36.1264C88.4682 36.4334 88.3445 36.7267 88.1273 36.9418C87.9101 37.157 87.6171 37.2764 87.3127 37.2739H86.089C85.7845 37.2709 85.4937 37.1462 85.2803 36.9272C85.067 36.7082 84.9485 36.4127 84.951 36.1057C84.9715 32.404 84.9715 28.6816 84.9938 24.9798V24.4821C84.9948 24.1755 85.1163 23.8817 85.3317 23.6652C85.5471 23.4487 85.8389 23.3271 86.143 23.3271H87.1953C87.4943 23.3361 87.7786 23.4598 87.9901 23.6731C88.2017 23.8864 88.3244 24.1731 88.3333 24.4746L88.3855 25.0662ZM126.639 25.2165C127.906 24.0276 129.279 23.2689 131.061 23.2689C134.926 23.2914 136.92 26.4729 136.9 30.1315L136.877 36.286C136.878 36.4397 136.849 36.5921 136.791 36.7342C136.733 36.8764 136.648 37.0056 136.54 37.1144C136.432 37.2231 136.304 37.3093 136.163 37.368C136.022 37.4266 135.871 37.4566 135.719 37.4561H134.475C134.322 37.4566 134.171 37.4266 134.03 37.368C133.889 37.3094 133.761 37.2232 133.653 37.1145C133.545 37.0057 133.46 36.8766 133.402 36.7344C133.344 36.5922 133.314 36.4398 133.315 36.286L133.337 30.1822C133.337 28.1689 132.262 26.5894 130.159 26.5894C128.057 26.5894 126.768 28.3416 126.745 30.3343L126.716 36.286C126.712 36.5932 126.588 36.8865 126.371 37.1016C126.153 37.3167 125.86 37.436 125.555 37.4335H124.332C124.028 37.4301 123.737 37.3052 123.524 37.0862C123.311 36.8672 123.193 36.572 123.196 36.2654L123.238 24.6399C123.239 24.4871 123.269 24.3359 123.328 24.195C123.387 24.0541 123.472 23.9263 123.58 23.8189C123.688 23.7116 123.816 23.6268 123.956 23.5695C124.097 23.5121 124.247 23.4834 124.399 23.4849H125.451C125.751 23.4949 126.036 23.6203 126.247 23.8354C126.459 24.0506 126.58 24.3391 126.587 24.6418L126.639 25.2165ZM76.6983 23.0097C72.5114 22.9872 69.55 26.0391 69.5276 30.2385C69.5072 34.4812 72.4257 37.4918 76.6554 37.5124C80.8852 37.5331 83.8465 34.5469 83.867 30.2761C83.8894 26.1048 80.8628 23.0304 76.6983 23.0097ZM111.453 31.6903C111.752 33.6379 113.6 34.438 115.403 34.4605C116.307 34.4525 117.199 34.2536 118.022 33.8764C118.154 33.8221 118.283 33.7593 118.407 33.6886C118.837 33.4501 119.223 33.2998 119.61 33.6886C119.824 33.9046 120.018 34.1224 120.232 34.3159C120.435 34.5105 120.621 34.7209 120.791 34.9451C121.37 35.6794 120.962 35.8541 120.298 36.3086C118.88 37.2608 117.034 37.7359 115.338 37.7359C110.788 37.7153 107.782 34.9188 107.782 30.2911C107.804 25.917 110.808 23.0172 115.144 23.0379C119.567 23.0604 122.078 25.6804 122.143 30.139C122.164 31.3504 122.207 31.741 120.962 31.741L111.453 31.6903ZM76.6983 26.2776C78.8662 26.2776 80.3041 28.1839 80.3041 30.2836C80.3041 32.4697 78.9519 34.2276 76.6759 34.2276C74.3999 34.2276 73.0701 32.4528 73.0701 30.2667C73.0701 28.0806 74.4446 26.2776 76.6983 26.2776V26.2776ZM111.547 28.6816L118.675 28.7022C118.416 26.9049 116.936 26.1912 115.241 26.1912C113.546 26.1912 112.075 26.9932 111.547 28.6816Z" fill="#29303A"/>
</g>
<defs>
<clipPath id="clip0_1_67">
<rect width="149" height="31" fill="white" transform="translate(25.5 14.5)"/>
</clipPath>
</defs>
</svg>
