<svg width="200" height="60" viewBox="0 0 200 60" fill="none" xmlns="http://www.w3.org/2000/svg">
<g clip-path="url(#clip0_3_223)">
<path opacity="0.54" d="M76.0803 38.7977H73.8499V21.4146H83.9762V23.5498H76.0803V29.2573H83.203V31.3441H76.0803V38.7977V38.7977ZM88.1696 23.9163C87.9109 24.1762 87.5713 24.3381 87.2081 24.3747C86.8449 24.4113 86.4803 24.3204 86.1758 24.1173C85.8722 23.9158 85.6478 23.6137 85.5413 23.2631C85.4347 22.9125 85.4527 22.5353 85.592 22.1966C85.733 21.8576 85.9856 21.5781 86.3072 21.4053C86.6287 21.2325 86.9995 21.1771 87.3568 21.2484C87.7139 21.3181 88.036 21.5107 88.2681 21.7935C88.5002 22.0763 88.6278 22.4316 88.6291 22.7988C88.6326 23.0072 88.5934 23.214 88.514 23.4063C88.4345 23.5986 88.3165 23.7722 88.1674 23.9163H88.1696V23.9163ZM88.1696 38.7977H85.9393V26.9022H88.1696V38.7985V38.7977ZM93.0621 38.7977H90.8325V26.9022H92.964V28.8448H93.0606C93.3192 28.1591 93.8136 27.5903 94.4534 27.2422C95.0668 26.8479 95.7749 26.6296 96.5018 26.6106C97.0726 26.5942 97.6409 26.6934 98.1731 26.9022L97.3251 28.9891C96.9426 28.8615 96.5407 28.8037 96.1381 28.8183C95.7344 28.8201 95.3355 28.9063 94.9665 29.0714C94.5974 29.2366 94.2663 29.4771 93.9939 29.7779C93.3712 30.4178 93.0606 31.2557 93.0606 32.2909L93.0621 38.7985V38.7977ZM104.283 39.177C102.49 39.177 101.032 38.5786 99.9102 37.381C98.789 36.1842 98.227 34.6731 98.2262 32.85C98.194 31.2061 98.7781 29.6107 99.8615 28.3831C100.377 27.7774 101.019 27.2952 101.742 26.9717C102.465 26.6482 103.25 26.4915 104.041 26.5131C105.801 26.5131 107.21 27.0873 108.269 28.2365C109.328 29.3865 109.856 30.9241 109.855 32.85L109.831 33.2633H100.451C100.516 34.4608 100.915 35.409 101.652 36.1087C102.342 36.7858 103.269 37.1606 104.231 37.1513C105.83 37.1513 106.912 36.4713 107.478 35.1129L109.465 35.9379C109.061 36.8798 108.397 37.6844 107.552 38.2552C106.661 38.8702 105.572 39.177 104.283 39.177V39.177ZM107.482 31.4008C107.434 30.7208 107.123 30.0733 106.549 29.459C105.975 28.844 105.121 28.5433 103.988 28.5554C103.203 28.5414 102.44 28.8183 101.843 29.3336C101.221 29.8795 100.784 30.6093 100.596 31.4197L107.481 31.4008H107.482ZM117.911 39.177C117.068 39.1939 116.234 38.9984 115.484 38.6081C114.828 38.2767 114.272 37.7736 113.874 37.1513H113.777V38.7985H111.644V21.4139H113.874V26.9007L113.777 28.5509H113.874C114.272 27.929 114.828 27.4262 115.484 27.0949C116.233 26.6999 117.067 26.4997 117.911 26.5124C119.446 26.5124 120.77 27.1191 121.886 28.3333C123.001 29.5467 123.558 31.0525 123.558 32.8492C123.556 34.6459 123 36.151 121.886 37.3652C120.772 38.5793 119.447 39.183 117.911 39.177V39.177ZM117.548 37.1385C118.049 37.1428 118.546 37.04 119.005 36.8368C119.464 36.6337 119.876 36.3348 120.213 35.9598C120.956 35.1748 121.327 34.1352 121.327 32.8401C121.327 31.5459 120.956 30.5055 120.213 29.7197C119.872 29.3493 119.459 29.0536 119 28.8512C118.541 28.6489 118.046 28.544 117.545 28.5433C117.044 28.5419 116.548 28.6447 116.088 28.8453C115.628 29.0459 115.214 29.3399 114.871 29.7091C114.137 30.4851 113.77 31.5293 113.77 32.8401C113.77 34.1518 114.141 35.1982 114.882 35.981C115.222 36.3544 115.635 36.6514 116.095 36.8524C116.556 37.0534 117.053 37.154 117.555 37.1476L117.548 37.1385V37.1385ZM129.234 39.177C127.972 39.177 126.919 38.8128 126.073 38.0845C125.227 37.3561 124.804 36.3935 124.801 35.196C124.801 33.9009 125.302 32.8862 126.303 32.1503C127.306 31.4144 128.541 31.0457 130.01 31.0457C131.319 31.0457 132.391 31.289 133.228 31.7748V31.4348C133.243 31.0394 133.171 30.6455 133.015 30.2821C132.86 29.9188 132.626 29.5952 132.331 29.3351C131.719 28.8077 130.934 28.5297 130.129 28.5554C129.513 28.5478 128.906 28.7065 128.373 29.0163C127.873 29.2936 127.49 29.7424 127.294 30.2796L125.259 29.4054C125.534 28.6906 126.075 28.028 126.886 27.4183C127.696 26.8063 128.76 26.5041 130.085 26.5071C131.599 26.5071 132.86 26.9498 133.87 27.8346C134.88 28.7201 135.38 29.9743 135.373 31.598V38.7985H133.234V37.1476H133.137C132.248 38.5008 130.947 39.1747 129.237 39.1747L129.234 39.177V39.177ZM129.597 37.1385C130.533 37.1357 131.432 36.7697 132.108 36.1162C132.462 35.8178 132.747 35.4448 132.943 35.0233C133.139 34.6019 133.241 34.1422 133.243 33.6765C132.612 33.1582 131.665 32.8991 130.403 32.8991C129.321 32.8991 128.505 33.1333 127.956 33.6025C127.704 33.7964 127.498 34.0457 127.356 34.3317C127.213 34.6176 127.137 34.9325 127.133 35.2526C127.128 35.5302 127.195 35.8042 127.328 36.0472C127.461 36.2903 127.655 36.4938 127.89 36.6376C128.395 36.9776 128.99 37.1551 129.597 37.1476V37.1385V37.1385ZM141.929 39.177C140.604 39.177 139.51 38.8536 138.647 38.2061C137.808 37.5862 137.154 36.7467 136.754 35.7785L138.742 34.9534C139.373 36.4426 140.445 37.1876 141.959 37.1876C142.56 37.2125 143.154 37.0517 143.663 36.7267C144.081 36.4661 144.334 36.0067 144.329 35.5125C144.329 34.7366 143.788 34.2107 142.702 33.9349L140.304 33.3532C139.516 33.1441 138.781 32.7675 138.148 32.2485C137.817 31.9908 137.552 31.657 137.375 31.2749C137.198 30.8929 137.114 30.4736 137.13 30.0521C137.13 29.0004 137.594 28.1466 138.523 27.4916C139.496 26.8229 140.653 26.4794 141.83 26.5093C142.813 26.4933 143.782 26.7413 144.639 27.2279C145.445 27.6857 146.07 28.4107 146.407 29.28L144.47 30.0733C144.035 29.0208 143.13 28.4949 141.756 28.4949C141.172 28.4753 140.594 28.6183 140.085 28.9082C139.881 29.0135 139.71 29.1735 139.59 29.3707C139.471 29.5678 139.407 29.7945 139.407 30.0257C139.407 30.7057 139.932 31.1673 140.982 31.4099L143.331 31.9697C144.445 32.2229 145.269 32.6649 145.803 33.2973C146.319 33.8864 146.604 34.6465 146.602 35.4332C146.606 35.9506 146.49 36.4618 146.263 36.9256C146.036 37.3894 145.704 37.7929 145.294 38.1033C144.422 38.8196 143.3 39.177 141.926 39.177H141.929V39.177ZM153.922 39.177C152.129 39.177 150.672 38.5786 149.55 37.381C148.428 36.1842 147.866 34.6701 147.865 32.8401C147.833 31.1963 148.417 29.6009 149.5 28.3733C150.017 27.769 150.661 27.2886 151.385 26.9668C152.109 26.6451 152.895 26.4901 153.685 26.5131C155.452 26.5131 156.861 27.0873 157.914 28.2373C158.966 29.3857 159.495 30.9241 159.5 32.85L159.475 33.2633H150.089C150.153 34.4608 150.553 35.409 151.289 36.1087C151.981 36.7862 152.91 37.1597 153.874 37.1476C155.473 37.1476 156.555 36.4676 157.121 35.1091L159.108 35.9341C158.704 36.8762 158.039 37.6807 157.194 38.2514C156.305 38.8687 155.214 39.177 153.921 39.177H153.922V39.177ZM157.121 31.4008C157.073 30.7208 156.762 30.0733 156.187 29.459C155.613 28.844 154.761 28.5433 153.63 28.5554C152.845 28.5416 152.082 28.8184 151.486 29.3336C150.863 29.8795 150.427 30.6094 150.238 31.4197L157.121 31.4008V31.4008Z" fill="black"/>
<path d="M40.5127 40.132L44.6126 13.6475C44.6371 13.4891 44.7102 13.3425 44.8217 13.2284C44.9332 13.1142 45.0774 13.0384 45.2339 13.0115C45.3904 12.9846 45.5514 13.008 45.694 13.0785C45.8366 13.149 45.9537 13.2629 46.0286 13.4042L50.2692 21.3882L51.9592 18.1393C52.0235 18.0162 52.1199 17.9132 52.2379 17.8414C52.356 17.7695 52.4912 17.7316 52.629 17.7316C52.7669 17.7316 52.9021 17.7695 53.0201 17.8414C53.1381 17.9132 53.2345 18.0162 53.2989 18.1393L64.7423 40.132H40.5127V40.132Z" fill="#FFA000"/>
<path d="M54.6775 29.8156L50.267 21.3836L40.5127 40.1335L54.6775 29.8164V29.8156Z" fill="#F57C00"/>
<path d="M64.7416 40.132L61.6027 20.5147C61.5791 20.3767 61.5185 20.2479 61.4275 20.1422C61.3364 20.0366 61.2184 19.9582 61.0862 19.9156C60.9541 19.8729 60.8129 19.8677 60.678 19.9005C60.5432 19.9333 60.4198 20.0028 60.3214 20.1015L40.5127 40.1312L51.4727 46.3366C52.1612 46.725 52.9995 46.725 53.688 46.3366L64.7423 40.132H64.7416Z" fill="#FFCA28"/>
<path d="M61.6019 20.5146C61.5784 20.3766 61.5178 20.2477 61.4267 20.1421C61.3357 20.0364 61.2176 19.958 61.0855 19.9154C60.9534 19.8728 60.8122 19.8676 60.6773 19.9003C60.5424 19.9331 60.4191 20.0026 60.3206 20.1013L56.3891 24.08L53.2981 18.1391C53.2338 18.0161 53.1374 17.913 53.0194 17.8412C52.9013 17.7693 52.7661 17.7314 52.6283 17.7314C52.4904 17.7314 52.3552 17.7693 52.2372 17.8412C52.1191 17.913 52.0228 18.0161 51.9584 18.1391L50.267 21.388L46.0279 13.4025C45.9528 13.2612 45.8356 13.1473 45.6929 13.0769C45.5502 13.0065 45.3891 12.9832 45.2326 13.0103C45.076 13.0373 44.9318 13.1134 44.8204 13.2277C44.709 13.3421 44.6361 13.4888 44.6119 13.6473L40.5135 40.1318H40.5L40.5135 40.1469L40.6212 40.2006L60.3146 20.2962C60.4128 20.1967 60.5363 20.1264 60.6715 20.093C60.8067 20.0597 60.9484 20.0646 61.0811 20.1072C61.2137 20.1498 61.3321 20.2285 61.4233 20.3346C61.5146 20.4408 61.5751 20.5702 61.5982 20.7088L64.7116 40.1515L64.7423 40.1318L61.6019 20.5146V20.5146ZM40.5486 40.0956L44.6126 13.8355C44.6364 13.6765 44.7093 13.5292 44.8208 13.4144C44.9323 13.2997 45.0768 13.2233 45.2338 13.1962C45.3907 13.1691 45.5522 13.1926 45.6951 13.2634C45.8381 13.3342 45.9553 13.4487 46.0301 13.5907L50.27 21.5746L51.9599 18.3257C52.0242 18.2025 52.1206 18.0993 52.2387 18.0273C52.3568 17.9553 52.4922 17.9173 52.6301 17.9173C52.7681 17.9173 52.9035 17.9553 53.0216 18.0273C53.1397 18.0993 53.2361 18.2025 53.3004 18.3257L56.3292 24.1412L40.5486 40.0956Z" fill="white" fill-opacity="0.2"/>
<path opacity="0.2" d="M53.6873 46.15C52.9987 46.5384 52.1605 46.5384 51.4727 46.15L40.5397 39.962L40.5127 40.1328L51.4727 46.3359C52.1612 46.7235 52.9995 46.7235 53.688 46.3359L64.7423 40.1328L64.7139 39.9567L53.6873 46.15Z" fill="#A52714"/>
<path d="M61.5712 20.5193C61.5487 20.3812 61.4889 20.252 61.3983 20.1461C61.3077 20.0401 61.1899 19.9615 61.0578 19.9188C60.9258 19.8761 60.7846 19.8711 60.6499 19.9043C60.5152 19.9374 60.3922 20.0075 60.2944 20.1068L56.3764 24.0833L53.2959 18.1446C53.2319 18.0216 53.1359 17.9186 53.0182 17.8468C52.9004 17.775 52.7655 17.737 52.6279 17.737C52.4903 17.737 52.3554 17.775 52.2376 17.8468C52.1199 17.9186 52.0239 18.0216 51.9599 18.1446L50.276 21.392L46.0503 13.4118C45.9759 13.2704 45.8592 13.1564 45.7169 13.0859C45.5746 13.0154 45.4138 12.992 45.2576 13.019C45.1013 13.046 44.9574 13.1221 44.8465 13.2365C44.7355 13.3508 44.6631 13.4975 44.6396 13.6558L40.5554 40.1282L51.4772 46.3283C51.8144 46.5192 52.1945 46.6194 52.5811 46.6194C52.9677 46.6194 53.3478 46.5192 53.685 46.3283L64.7004 40.1282L61.5712 20.5178V20.5193Z" fill="url(#paint0_linear_3_223)"/>
</g>
<defs>
<linearGradient id="paint0_linear_3_223" x1="39.7134" y1="18.7286" x2="69.9673" y2="34.5369" gradientUnits="userSpaceOnUse">
<stop stop-color="white" stop-opacity="0.1"/>
<stop offset="0.14" stop-color="white" stop-opacity="0.08"/>
<stop offset="0.61" stop-color="white" stop-opacity="0.02"/>
<stop offset="1" stop-color="white" stop-opacity="0"/>
</linearGradient>
<clipPath id="clip0_3_223">
<rect width="119" height="34" fill="white" transform="translate(40.5 13)"/>
</clipPath>
</defs>
</svg>
