<svg width="200" height="60" viewBox="0 0 200 60" fill="none" xmlns="http://www.w3.org/2000/svg">
<g clip-path="url(#clip0_3_213)">
<path d="M36.8958 24.0556H37.8283L40.485 21.4839L40.6158 20.3927C39.0937 19.0925 37.2543 18.1893 35.2711 17.7683C33.288 17.3474 31.2268 17.4227 29.2821 17.9871C27.3374 18.5515 25.5735 19.5863 24.157 20.9939C22.7405 22.4014 21.7182 24.1352 21.1867 26.0314C21.4825 25.9137 21.8108 25.8944 22.1192 25.9774L27.4333 25.129C27.4333 25.129 27.7033 24.696 27.8433 24.7234C28.982 23.5134 30.5555 22.7703 32.2417 22.6462C33.928 22.5221 35.5995 23.0263 36.9142 24.0556H36.8958V24.0556Z" fill="#EA4335"/>
<path d="M44.27 26.0323C43.6593 23.8554 42.4052 21.8985 40.6617 20.4016L36.9333 24.0105C37.7106 24.625 38.3335 25.4024 38.7551 26.2839C39.1766 27.1654 39.3857 28.128 39.3667 29.0992V29.7395C40.247 29.7395 41.0912 30.0779 41.7137 30.6803C42.3361 31.2827 42.6858 32.0997 42.6858 32.9516C42.6858 33.8035 42.3361 34.6205 41.7137 35.2229C41.0912 35.8253 40.247 36.1637 39.3667 36.1637H32.7283L32.0667 36.8129V40.6653L32.7283 41.3056H39.3667C41.2203 41.3197 43.0294 40.756 44.5263 39.6979C46.0232 38.6398 47.1284 37.1435 47.6784 35.4303C48.2283 33.7172 48.1938 31.8782 47.58 30.1855C46.9662 28.4928 45.8056 27.0363 44.27 26.0315V26.0323Z" fill="#4285F4"/>
<path d="M26.0808 41.2693H32.7192V36.1266H26.0808C25.6081 36.1264 25.1409 36.028 24.7108 35.8379L23.7783 36.1177L21.1033 38.6895L20.87 39.5919C22.37 40.6887 24.2008 41.2774 26.0808 41.2693V41.2693Z" fill="#34A853"/>
<path d="M26.0817 24.5887C24.2834 24.5995 22.5336 25.1535 21.0764 26.1732C19.6192 27.1929 18.5275 28.6276 17.9535 30.2768C17.3796 31.926 17.3521 33.7075 17.875 35.3726C18.3978 37.0377 19.4449 38.5032 20.87 39.5645L24.72 35.8387C24.2308 35.6247 23.8025 35.299 23.4719 34.8896C23.1412 34.4802 22.9182 33.9993 22.8218 33.4882C22.7255 32.977 22.7587 32.4509 22.9187 31.9549C23.0786 31.4589 23.3605 31.0078 23.7401 30.6404C24.1198 30.273 24.5859 30.0002 25.0984 29.8455C25.6109 29.6907 26.1546 29.6585 26.6828 29.7518C27.211 29.845 27.7079 30.0609 28.1309 30.3808C28.554 30.7008 28.8905 31.1152 29.1117 31.5887L32.9617 27.8629C32.1534 26.8407 31.1118 26.0132 29.9183 25.4452C28.7248 24.8773 27.4117 24.5841 26.0817 24.5887V24.5887Z" fill="#FBBC05"/>
<path d="M65.7408 37.679C64.5979 37.6932 63.4638 37.484 62.4065 37.0638C61.3491 36.6436 60.3903 36.0212 59.5875 35.2339C58.7594 34.48 58.1023 33.5679 57.6577 32.5553C57.2131 31.5427 56.9909 30.4517 57.005 29.3516C56.9915 28.2515 57.2142 27.1607 57.6589 26.1482C58.1035 25.1356 58.7606 24.2235 59.5883 23.4694C60.3872 22.674 61.3441 22.0434 62.4014 21.6154C63.4588 21.1874 64.5947 20.9709 65.7408 20.979C66.833 20.965 67.9172 21.1611 68.9303 21.5561C69.9435 21.9511 70.8654 22.537 71.6425 23.2798L69.9825 24.9129C68.8462 23.85 67.321 23.266 65.7408 23.2887C64.9211 23.2789 64.1083 23.4343 63.354 23.7449C62.5997 24.0554 61.9203 24.5144 61.3592 25.0928C60.7759 25.6526 60.3157 26.3209 60.0063 27.0574C59.697 27.7939 59.5449 28.5833 59.5592 29.3782C59.5523 30.1641 59.7081 30.9433 60.0172 31.67C60.3263 32.3967 60.7826 33.0562 61.3592 33.6097C62.5137 34.7229 64.0716 35.3562 65.7013 35.3748C67.331 35.3933 68.9038 34.7956 70.085 33.7089C70.8163 32.934 71.2651 31.9485 71.3625 30.9032H65.7683V28.5936H73.6842C73.7617 29.0589 73.7925 29.5298 73.7775 30.0008C73.8267 30.9756 73.6712 31.95 73.3203 32.8649C72.9693 33.7799 72.4303 34.6165 71.7358 35.3242C70.9636 36.1023 70.0306 36.7142 68.9977 37.1199C67.9647 37.5257 66.855 37.7162 65.7408 37.679V37.679ZM84.1442 36.1452C83.082 37.1307 81.6674 37.681 80.1958 37.681C78.7243 37.681 77.3097 37.1307 76.2475 36.1452C75.7188 35.649 75.3024 35.052 75.0248 34.3918C74.7472 33.7317 74.6145 33.0229 74.635 32.3105C74.6153 31.5983 74.7484 30.8899 75.0259 30.23C75.3035 29.5701 75.7194 28.973 76.2475 28.4766C77.3109 27.4933 78.725 26.9445 80.1958 26.9445C81.6666 26.9445 83.0808 27.4933 84.1442 28.4766C84.6725 28.9729 85.0886 29.5699 85.3663 30.2298C85.644 30.8897 85.7772 31.5982 85.7575 32.3105C85.7766 33.0236 85.6423 33.7328 85.3629 34.3929C85.0836 35.0531 84.6654 35.6498 84.135 36.1452H84.1442V36.1452ZM77.9908 34.6387C78.2735 34.9306 78.615 35.1633 78.9942 35.3224C79.3735 35.4815 79.7825 35.5635 80.1958 35.5635C80.6092 35.5635 81.0182 35.4815 81.3974 35.3224C81.7767 35.1633 82.1182 34.9306 82.4008 34.6387C82.709 34.3305 82.9502 33.9657 83.1104 33.5659C83.2705 33.166 83.3463 32.7392 83.3333 32.3105C83.347 31.8805 83.2715 31.4523 83.1113 31.051C82.9512 30.6498 82.7096 30.2836 82.4008 29.9742C82.1146 29.6851 81.7709 29.4551 81.3903 29.2979C81.0098 29.1408 80.6004 29.0598 80.1867 29.0598C79.7729 29.0598 79.3635 29.1408 78.983 29.2979C78.6025 29.4551 78.2587 29.6851 77.9725 29.9742C77.6637 30.2836 77.4221 30.6498 77.2619 31.051C77.1018 31.4523 77.0263 31.8805 77.04 32.3105C77.0283 32.7398 77.1055 33.167 77.2673 33.5669C77.429 33.9667 77.6719 34.3312 77.9817 34.6387H77.9908ZM96.2825 36.1452C95.2202 37.1306 93.8056 37.6807 92.3342 37.6807C90.8627 37.6807 89.4481 37.1306 88.3858 36.1452C87.8571 35.6491 87.4407 35.052 87.1631 34.3918C86.8855 33.7317 86.7528 33.0229 86.7733 32.3105C86.7536 31.5983 86.8867 30.8899 87.1643 30.23C87.4418 29.5701 87.8578 28.973 88.3858 28.4766C89.448 27.4911 90.8626 26.9408 92.3342 26.9408C93.8057 26.9408 95.2203 27.4911 96.2825 28.4766C96.8109 28.9729 97.227 29.5699 97.5047 30.2298C97.7824 30.8897 97.9156 31.5982 97.8958 32.3105C97.9162 33.023 97.7833 33.7318 97.5055 34.3919C97.2278 35.052 96.8113 35.6491 96.2825 36.1452V36.1452ZM90.1292 34.6387C90.4118 34.9306 90.7533 35.1633 91.1326 35.3224C91.5118 35.4815 91.9208 35.5635 92.3342 35.5635C92.7475 35.5635 93.1565 35.4815 93.5358 35.3224C93.915 35.1633 94.2565 34.9306 94.5392 34.6387C94.8473 34.3305 95.0885 33.9657 95.2487 33.5659C95.4089 33.166 95.4847 32.7392 95.4717 32.3105C95.4853 31.8805 95.4098 31.4523 95.2497 31.051C95.0895 30.6498 94.8479 30.2836 94.5392 29.9742C94.2529 29.6851 93.9092 29.4551 93.5287 29.2979C93.1482 29.1408 92.7387 29.0598 92.325 29.0598C91.9113 29.0598 91.5018 29.1408 91.1213 29.2979C90.7408 29.4551 90.3971 29.6851 90.1108 29.9742C89.8021 30.2837 89.5605 30.6498 89.4004 31.0511C89.2402 31.4523 89.1647 31.8805 89.1783 32.3105C89.1665 32.7398 89.2437 33.167 89.4055 33.5669C89.5672 33.9668 89.8102 34.3313 90.12 34.6387H90.1292ZM104.263 42.4968C103.146 42.5311 102.05 42.1935 101.158 41.5403C100.367 40.9645 99.744 40.1998 99.35 39.321L101.476 38.4637C101.707 38.9892 102.069 39.4511 102.529 39.8081C103.022 40.1925 103.64 40.3941 104.272 40.3766C104.674 40.4002 105.075 40.3399 105.45 40.1998C105.825 40.0596 106.164 39.843 106.445 39.5645C107.007 38.9087 107.284 38.0679 107.218 37.2186V36.4428H107.134C106.779 36.8515 106.331 37.1745 105.824 37.386C105.318 37.5975 104.767 37.6918 104.217 37.6613C103.517 37.6635 102.824 37.5251 102.182 37.255C101.54 36.9849 100.963 36.5888 100.487 36.0919C99.9713 35.5989 99.5639 35.0096 99.2899 34.3598C99.0159 33.7099 98.881 33.0131 98.8933 32.3113C98.8806 31.6056 99.0152 30.9048 99.2891 30.2507C99.5631 29.5966 99.9707 29.0028 100.487 28.5048C100.962 28.0057 101.538 27.6074 102.18 27.3355C102.822 27.0635 103.516 26.9237 104.217 26.925C104.81 26.9244 105.395 27.0511 105.932 27.296C106.396 27.4919 106.81 27.7843 107.144 28.1524H107.227V27.2952H109.54V36.9032C109.601 37.6633 109.501 38.4274 109.246 39.1488C108.991 39.8702 108.587 40.5336 108.057 41.0984C107.553 41.5647 106.958 41.9286 106.307 42.1688C105.655 42.409 104.96 42.5205 104.263 42.4968V42.4968ZM104.431 35.5677C104.829 35.5761 105.224 35.4996 105.588 35.3437C105.952 35.1877 106.276 34.9561 106.538 34.6653C107.113 34.0277 107.417 33.2019 107.386 32.3557C107.421 31.4952 107.118 30.6538 106.538 30.0008C106.277 29.7097 105.952 29.4779 105.588 29.3221C105.224 29.1662 104.829 29.0901 104.431 29.0992C104.022 29.0908 103.616 29.1668 103.24 29.3223C102.863 29.4778 102.526 29.7091 102.249 30.0008C101.632 30.6306 101.297 31.4704 101.317 32.3379C101.308 32.7633 101.385 33.1863 101.545 33.5826C101.705 33.979 101.944 34.3409 102.249 34.6476C102.524 34.9421 102.861 35.1764 103.238 35.3351C103.614 35.4937 104.021 35.5731 104.431 35.5677V35.5677ZM113.651 21.5839V37.354H111.218V21.5831H113.651V21.5839ZM120.327 37.679C119.598 37.6971 118.873 37.5694 118.198 37.304C117.522 37.0385 116.911 36.641 116.402 36.1363C115.885 35.6352 115.479 35.0376 115.208 34.38C114.937 33.7223 114.807 33.0182 114.826 32.3105C114.798 31.601 114.918 30.8934 115.179 30.2299C115.44 29.5665 115.837 28.9608 116.346 28.4492C116.824 27.9602 117.403 27.5736 118.046 27.3141C118.688 27.0547 119.379 26.9282 120.075 26.9428C120.715 26.9361 121.349 27.0558 121.939 27.2944C122.471 27.5024 122.956 27.8089 123.366 28.1968C123.718 28.5258 124.031 28.8919 124.298 29.2887C124.514 29.6234 124.698 29.9766 124.848 30.3444L125.1 30.9573L117.642 33.925C117.867 34.427 118.244 34.8512 118.723 35.1413C119.203 35.4315 119.762 35.574 120.327 35.55C120.876 35.5515 121.417 35.4151 121.895 35.1542C122.374 34.8933 122.775 34.5167 123.058 34.0613L124.923 35.279C124.447 35.9378 123.838 36.4964 123.133 36.921C122.294 37.4339 121.318 37.6974 120.327 37.679V37.679ZM117.213 32.1484L122.173 30.154C122.02 29.8025 121.746 29.5125 121.398 29.3331C121.009 29.1205 120.569 29.0117 120.122 29.0178C119.363 29.0368 118.642 29.3449 118.117 29.875C117.803 30.1665 117.559 30.5214 117.402 30.9145C117.246 31.3075 117.181 31.7291 117.213 32.1492V32.1484ZM137.844 37.679C136.809 37.6963 135.782 37.511 134.823 37.1343C133.864 36.7576 132.993 36.1972 132.264 35.4869C131.534 34.7766 130.96 33.9309 130.577 33.0006C130.193 32.0704 130.008 31.0747 130.032 30.0734C130.008 29.0721 130.193 28.0765 130.577 27.1463C130.96 26.2161 131.534 25.3705 132.264 24.6601C132.993 23.9498 133.864 23.3895 134.823 23.0128C135.782 22.636 136.809 22.4506 137.844 22.4678C138.892 22.4359 139.933 22.6335 140.89 23.0459C141.847 23.4583 142.696 24.0747 143.373 24.8492L142.03 26.1121C141.533 25.5075 140.896 25.0249 140.17 24.7036C139.445 24.3822 138.651 24.2312 137.853 24.2629C136.68 24.2371 135.526 24.5631 134.551 25.1963C133.576 25.8295 132.828 26.739 132.408 27.8C132.117 28.5236 131.984 29.2977 132.018 30.0734C131.984 30.8489 132.116 31.6228 132.407 32.3463C132.697 33.0698 133.139 33.7273 133.705 34.2774C134.249 34.8019 134.897 35.2145 135.61 35.4904C136.323 35.7664 137.086 35.8999 137.853 35.8831C138.744 35.8929 139.626 35.7082 140.433 35.3426C141.24 34.9771 141.952 34.4402 142.515 33.7718L143.858 35.071C143.155 35.8847 142.272 36.5354 141.275 36.975C140.2 37.4554 139.028 37.696 137.844 37.679ZM147.466 37.3548H145.536V22.7823H147.466V37.3548ZM150.617 28.5847C151.628 27.6125 152.995 27.0669 154.42 27.0669C155.846 27.0669 157.213 27.6125 158.224 28.5847C158.719 29.0901 159.105 29.685 159.361 30.3354C159.617 30.9857 159.737 31.6786 159.716 32.3742C159.737 33.0697 159.616 33.7624 159.361 34.4125C159.105 35.0627 158.718 35.6576 158.224 36.1629C157.213 37.1343 155.845 37.6794 154.42 37.6794C152.995 37.6794 151.628 37.1343 150.617 36.1629C150.122 35.6579 149.735 35.063 149.479 34.4126C149.223 33.7622 149.103 33.0691 149.125 32.3734C149.103 31.6778 149.223 30.9849 149.479 30.3346C149.735 29.6843 150.122 29.0896 150.617 28.5847V28.5847ZM152.053 34.9903C152.51 35.4592 153.106 35.7805 153.759 35.9106C154.412 36.0407 155.09 35.9734 155.703 35.7178C156.108 35.5484 156.475 35.3008 156.779 34.9903C157.116 34.64 157.378 34.2283 157.549 33.7792C157.721 33.3301 157.798 32.8525 157.777 32.3742C157.798 31.8958 157.721 31.4181 157.549 30.9688C157.378 30.5195 157.116 30.1077 156.779 29.7573C156.475 29.4467 156.108 29.1993 155.702 29.0301C155.296 28.861 154.858 28.7736 154.416 28.7734C153.973 28.7732 153.536 28.8604 153.129 29.0296C152.723 29.1988 152.357 29.4464 152.053 29.7573C151.715 30.1077 151.454 30.5196 151.282 30.9688C151.111 31.4181 151.034 31.8958 151.055 32.3742C151.036 32.8516 151.115 33.328 151.288 33.7755C151.461 34.2231 151.724 34.633 152.062 34.9815L152.053 34.9895V34.9903ZM170.409 37.354H168.545V35.9734H168.488C168.157 36.4979 167.687 36.9276 167.127 37.2186C166.547 37.5444 165.888 37.7158 165.217 37.7153C164.672 37.7514 164.125 37.6678 163.618 37.4709C163.112 37.274 162.657 36.9689 162.289 36.5782C161.583 35.7141 161.228 34.6293 161.292 33.529V27.3936H163.222V33.1855C163.222 35.0444 164.07 35.9734 165.767 35.9734C166.144 35.9847 166.518 35.9088 166.858 35.752C167.199 35.5952 167.496 35.362 167.724 35.0718C168.224 34.4581 168.491 33.6968 168.479 32.9153V27.3936H170.409V37.3548V37.354ZM176.963 37.679C176.309 37.681 175.662 37.5458 175.066 37.2827C174.471 37.0196 173.941 36.6348 173.514 36.1548C172.547 35.1217 172.03 33.7675 172.069 32.3742C172.03 30.981 172.547 29.6267 173.514 28.5936C173.941 28.1135 174.471 27.7286 175.066 27.4655C175.661 27.2024 176.309 27.0672 176.963 27.0694C177.697 27.0573 178.422 27.225 179.071 27.5557C179.641 27.8333 180.124 28.2538 180.469 28.7734H180.553L180.469 27.3944V22.7823H182.399V37.3548H180.534V35.9742H180.45C180.105 36.494 179.622 36.9145 179.052 37.1919C178.408 37.5202 177.691 37.6879 176.963 37.6798V37.679ZM177.281 35.9734C177.717 35.9792 178.149 35.8954 178.549 35.7275C178.949 35.5595 179.308 35.3113 179.602 34.9992C180.257 34.277 180.592 33.3339 180.534 32.3742C180.593 31.4143 180.257 30.4708 179.602 29.7484C179.306 29.4342 178.947 29.1832 178.545 29.0115C178.144 28.8397 177.71 28.751 177.271 28.751C176.832 28.751 176.398 28.8397 175.997 29.0115C175.596 29.1832 175.236 29.4342 174.941 29.7484C174.615 30.1036 174.365 30.5175 174.205 30.9665C174.045 31.4154 173.978 31.8905 174.008 32.3645C173.978 32.8386 174.045 33.3138 174.205 33.7629C174.365 34.2119 174.615 34.626 174.941 34.9815C175.234 35.2999 175.595 35.5533 175.999 35.7245C176.403 35.8956 176.84 35.9805 177.281 35.9734V35.9734Z" fill="#5F6368"/>
</g>
<defs>
<clipPath id="clip0_3_213">
<rect width="165" height="25" fill="white" transform="translate(17.5 17.5)"/>
</clipPath>
</defs>
</svg>
