<svg width="200" height="60" viewBox="0 0 200 60" fill="none" xmlns="http://www.w3.org/2000/svg">
<g clip-path="url(#clip0_46_111)">
<path d="M75.529 24.4783C75.529 23.7293 74.9512 23.1147 74.1424 23.1147C73.3336 23.1147 72.7559 23.7293 72.7559 24.4783V35.5407C72.7559 36.2898 73.3336 36.9044 74.1424 36.9044C74.9704 36.9044 75.529 36.2898 75.529 35.5407V24.4783Z" fill="#081D34"/>
<path d="M89.1829 23.1147C88.3741 23.1147 87.8156 23.7293 87.8156 24.4783V29.2029L87.8926 33.4282L86.2172 29.4717L84.0219 24.9776C83.3479 23.5756 82.5777 23.1147 81.48 23.1147C79.8624 23.1147 79.1499 24.1326 79.1499 25.5922V35.5407C79.1499 36.2898 79.7083 36.9044 80.5172 36.9044C81.326 36.9044 81.8844 36.2898 81.8844 35.5407L81.8652 30.8738L81.8074 26.0915L83.5983 30.4704L85.8128 35.0413C86.5062 36.5009 87.238 36.9236 88.3548 36.9236C89.7991 36.9236 90.5501 36.04 90.5501 34.4076V24.4783C90.5501 23.7293 89.9917 23.1147 89.1829 23.1147Z" fill="#081D34"/>
<path d="M100.775 25.9379L103.914 26.0147C104.645 26.0339 105.223 25.477 105.223 24.6703C105.223 23.8637 104.645 23.3067 103.914 23.3067L94.824 23.2875C94.1116 23.2875 93.5147 23.8445 93.5147 24.6511C93.5147 25.4578 94.1116 26.0147 94.824 25.9955L97.9823 25.9379V35.5407C97.9823 36.2898 98.5599 36.9044 99.3688 36.9044C100.197 36.9044 100.775 36.2898 100.775 35.5407V25.9379Z" fill="#081D34"/>
<path d="M110.08 36.7314H116.839C117.552 36.7314 118.13 36.1937 118.13 35.4446C118.13 34.6764 117.552 34.1387 116.839 34.1387L110.966 34.1579V30.9505H116.05C116.743 30.9505 117.301 30.4319 117.301 29.7214C117.301 28.9915 116.743 28.473 116.05 28.473L110.966 28.5114V25.8611H116.839C117.552 25.8611 118.13 25.3233 118.13 24.5551C118.13 23.7869 117.552 23.2683 116.839 23.2683L110.099 23.2875C108.867 23.2875 108.174 23.9789 108.174 25.2081V34.8109C108.174 36.04 108.867 36.7314 110.08 36.7314Z" fill="#081D34"/>
<path d="M129.139 31.2579C130.969 30.7778 132.047 29.3566 132.047 27.4744C132.047 25.381 130.68 23.2875 127.406 23.2875H123.169C121.937 23.2875 121.244 23.9789 121.244 25.2081V35.5407C121.244 36.2898 121.821 36.9044 122.669 36.9044C123.497 36.9044 124.094 36.2898 124.094 35.5407L124.075 31.93H126.405L128.773 36.1937C129.158 36.8467 129.967 37.1156 130.718 36.7315C131.469 36.3282 131.681 35.5215 131.277 34.8686L129.139 31.2579ZM124.075 25.8419H127.425C128.561 25.8419 129.274 26.5525 129.274 27.6088C129.274 28.6459 128.6 29.4142 127.464 29.4142H124.075V25.8419Z" fill="#081D34"/>
<path d="M140.552 36.981C143.364 36.981 145.174 35.7136 145.79 33.6585C146.118 32.4869 145.425 31.6419 144.385 31.6419C143.749 31.6419 143.326 31.9684 143.075 32.6791C142.69 33.7546 141.746 34.4268 140.398 34.4268C138.261 34.4268 137.337 32.9863 137.337 29.9902C137.337 27.0518 138.28 25.6498 140.398 25.6498C141.727 25.6498 142.498 26.2068 142.979 27.4935C143.249 28.2234 143.692 28.5498 144.346 28.5498C145.347 28.5498 146.079 27.7432 145.771 26.6293C145.155 24.363 143.364 23.0955 140.475 23.0955C136.509 23.0955 134.486 25.5154 134.486 29.9902C134.486 34.5035 136.509 36.981 140.552 36.981Z" fill="#081D34"/>
<path d="M154.244 36.9428C158.326 36.9428 160.348 34.4459 160.348 29.9902C160.348 25.4962 158.268 23.0187 154.244 23.0187C150.2 23.0187 148.178 25.5346 148.158 29.9902C148.158 34.4651 150.219 36.9428 154.244 36.9428ZM154.244 34.3692C151.971 34.3692 150.989 32.9288 150.989 29.9902C150.989 27.0134 151.991 25.573 154.224 25.573C156.477 25.573 157.537 27.0134 157.517 29.9902C157.517 32.9479 156.516 34.3692 154.244 34.3692Z" fill="#081D34"/>
<path d="M178.275 25.5154C178.275 23.9981 177.331 23.0955 175.868 23.0955C174.674 23.0955 173.769 23.7484 173.326 25.2465L171.843 30.0671L170.861 33.5433L169.917 30.0671L168.338 25.2465C167.895 23.8445 167.125 23.0955 165.777 23.0955C164.294 23.0955 163.37 23.9789 163.37 25.5154V35.5406C163.37 36.2897 163.909 36.9044 164.698 36.9044C165.488 36.9044 166.027 36.2897 166.027 35.5406L166.008 30.7009L165.873 25.5154L167.395 30.8162L169.012 35.5022C169.359 36.5393 170.013 36.8851 170.861 36.8851C171.65 36.8851 172.286 36.597 172.613 35.5406L174.154 30.8162L175.791 25.477L175.637 30.7009V35.5406C175.637 36.2897 176.195 36.9044 176.965 36.9044C177.755 36.9044 178.294 36.2897 178.294 35.5406L178.275 25.5154Z" fill="#081D34"/>
<path d="M52.671 31.8051C52.671 32.1253 52.5449 32.4322 52.3203 32.6585C52.0958 32.8848 51.7912 33.012 51.4736 33.012C51.156 33.012 50.8514 32.8848 50.6269 32.6585C50.4023 32.4322 50.2762 32.1253 50.2762 31.8051V21.0241C50.2762 20.7041 50.4023 20.3971 50.6269 20.1708C50.8514 19.9445 51.156 19.8174 51.4736 19.8174C51.7912 19.8174 52.0958 19.9445 52.3203 20.1708C52.5449 20.3971 52.671 20.7041 52.671 21.0241V31.8051ZM52.2553 39.2751C52.097 39.4347 47.644 43.1746 39.4802 43.1746C31.3164 43.1746 26.8931 39.4547 26.7051 39.295C26.5866 39.1944 26.489 39.0711 26.4179 38.9323C26.3467 38.7934 26.3035 38.6419 26.2906 38.4862C26.2778 38.3306 26.2955 38.1739 26.3429 38.0251C26.3902 37.8765 26.4662 37.7385 26.5665 37.6195C26.7732 37.3785 27.066 37.2297 27.3811 37.2053C27.6963 37.1811 28.0081 37.2834 28.2488 37.4899C28.318 37.5398 32.296 40.791 39.4703 40.791C46.6446 40.791 50.6522 37.5198 50.6919 37.4899C50.9352 37.2852 51.2481 37.1842 51.564 37.2085C51.88 37.2327 52.1742 37.3801 52.384 37.6195C52.5858 37.8569 52.6866 38.1651 52.6644 38.4769C52.6422 38.7887 52.4988 39.0792 52.2652 39.2851L52.2553 39.2751ZM26.2796 21.0241C26.2974 20.7031 26.4407 20.4022 26.6781 20.1873C26.9154 19.9724 27.2275 19.8609 27.5462 19.8772C27.8416 19.8941 28.1203 20.0207 28.3286 20.2325C28.537 20.4442 28.6601 20.7263 28.6743 21.0241V31.7853C28.6743 32.1053 28.5481 32.4122 28.3236 32.6385C28.099 32.8649 27.7945 32.992 27.4769 32.992C27.1594 32.992 26.8548 32.8649 26.6302 32.6385C26.4057 32.4122 26.2796 32.1053 26.2796 31.7853V21.0241ZM32.2862 18.6306C32.304 18.3095 32.4473 18.0086 32.6847 17.7937C32.922 17.5788 33.2341 17.4673 33.5528 17.4836C33.8482 17.5006 34.1269 17.6271 34.3352 17.8389C34.5435 18.0507 34.6667 18.3327 34.6809 18.6306V34.5877C34.6809 34.9078 34.5547 35.2147 34.3302 35.441C34.1056 35.6673 33.8011 35.7944 33.4835 35.7944C33.1659 35.7944 32.8614 35.6673 32.6368 35.441C32.4123 35.2147 32.2862 34.9078 32.2862 34.5877V18.6306ZM38.3225 18.0322C38.3225 17.7121 38.4486 17.4052 38.6732 17.1789C38.8977 16.9526 39.2023 16.8254 39.5197 16.8254C39.8373 16.8254 40.1419 16.9526 40.3665 17.1789C40.591 17.4052 40.7171 17.7121 40.7171 18.0322V35.3856C40.7171 35.7056 40.591 36.0125 40.3665 36.2389C40.1419 36.4652 39.8373 36.5923 39.5197 36.5923C39.2023 36.5923 38.8977 36.4652 38.6732 36.2389C38.4486 36.0125 38.3225 35.7056 38.3225 35.3856V18.0322ZM44.2598 18.6306C44.2598 18.3105 44.3859 18.0036 44.6105 17.7773C44.835 17.551 45.1396 17.4238 45.4571 17.4238C45.7747 17.4238 46.0792 17.551 46.3038 17.7773C46.5283 18.0036 46.6545 18.3105 46.6545 18.6306V34.5877C46.6545 34.9078 46.5283 35.2147 46.3038 35.441C46.0792 35.6673 45.7747 35.7944 45.4571 35.7944C45.1396 35.7944 44.835 35.6673 44.6105 35.441C44.3859 35.2147 44.2598 34.9078 44.2598 34.5877V18.6306ZM52.9975 12.0483H26.0025C25.4143 12.0443 24.8311 12.1573 24.2863 12.3809C23.7415 12.6044 23.2458 12.934 22.8275 13.3509C22.4093 13.7678 22.0768 14.2637 21.849 14.8103C21.6212 15.3569 21.5026 15.9434 21.5 16.5362V43.4639C21.5026 44.0566 21.6212 44.6432 21.849 45.1898C22.0768 45.7362 22.4093 46.2323 22.8275 46.6491C23.2458 47.0659 23.7415 47.3957 24.2863 47.6191C24.8311 47.8427 25.4143 47.9556 26.0025 47.9517H52.9975C53.5848 47.9556 54.1673 47.8431 54.7114 47.6201C55.2556 47.3973 55.7509 47.0684 56.169 46.6526C56.5871 46.2368 56.9198 45.7421 57.1481 45.1966C57.3766 44.6512 57.4961 44.0658 57.4999 43.4738V16.5362C57.4974 15.9442 57.3791 15.3585 57.1519 14.8126C56.9248 14.2667 56.5932 13.7712 56.1759 13.3545C55.7588 12.9377 55.2643 12.6079 54.7205 12.3838C54.1769 12.1596 53.5948 12.0456 53.0074 12.0483" fill="#081D34"/>
</g>
<defs>
<clipPath id="clip0_46_111">
<rect width="157" height="36" fill="white" transform="translate(21.5 12)"/>
</clipPath>
</defs>
</svg>
