<svg width="200" height="60" viewBox="0 0 200 60" fill="none" xmlns="http://www.w3.org/2000/svg">
<g clip-path="url(#clip0_46_132)">
<path d="M108.752 18.5927C109.438 18.5964 110.098 18.3336 110.591 17.8603C111.083 17.389 111.368 16.7437 111.385 16.0644C111.377 15.3757 111.097 14.7178 110.606 14.2329C110.112 13.7459 109.447 13.4695 108.752 13.4623C108.067 13.4781 107.415 13.7596 106.935 14.2468C106.457 14.732 106.191 15.3851 106.194 16.0644C106.199 16.7342 106.471 17.3746 106.949 17.8462C107.429 18.3197 108.076 18.5877 108.752 18.5929V18.5927ZM126.646 21.0238H132.997V21.5218C132.645 21.5831 132.305 21.6993 131.989 21.866C131.409 22.1344 130.247 23.4355 129.356 25.6159C127.846 29.4044 126.26 33.8795 124.595 39.0082L123.975 40.9531C123.704 41.8321 123.471 42.4059 123.355 42.7521C123.239 43.0983 123.083 43.6312 122.814 44.2807C122.66 44.7694 122.463 45.2432 122.224 45.6967C121.912 46.2704 121.332 47.4471 120.868 47.801C120.131 48.4137 119.047 49.1021 117.693 48.9874C115.06 48.9874 113.086 47.0426 113.046 44.7418C113.046 43.1721 114.054 42.1395 115.563 42.1395C116.648 42.1395 117.614 42.7229 117.614 43.9365C117.614 44.8176 116.725 45.7355 116.725 46.1946C116.725 47.3808 117.421 47.9448 118.777 47.9448C119.86 47.9448 120.745 47.2564 121.409 45.8794C122.3 44.3099 122.377 42.5888 121.641 40.6749L116.067 26.0979C114.788 22.7316 113.82 21.625 112.621 21.5063V21.0081H121.409V21.5059C120.364 21.6208 119.822 22.2334 119.822 23.3418C119.822 24.1451 120.131 25.3704 120.712 26.9399L121.757 29.77C122.958 32.831 123.922 35.5091 124.43 37.1935C125.552 33.7121 126.595 30.6509 127.604 27.9727C128.34 25.983 128.689 24.5673 128.689 23.7251C128.689 22.2334 127.876 21.545 126.636 21.545L126.646 21.0236V21.0238ZM65.5093 39.6577C64.3876 39.4633 63.4193 38.4713 63.4193 36.367V11L57.0308 12.3771V12.9139C58.1152 12.799 59.1956 13.7539 59.1956 15.7825V36.367C59.1956 38.3567 58.1112 39.5042 57.0308 39.6577C56.9293 39.6754 56.8265 39.6878 56.7237 39.6946C56.1708 39.7322 55.617 39.6355 55.11 39.4127C54.2518 39.0431 53.5356 38.3839 52.9292 37.3998L49.9773 32.732C49.3547 31.7475 48.4293 30.9892 47.3387 30.5702C46.2456 30.1495 45.0456 30.0892 43.9154 30.3981L47.2454 26.7634C49.7606 24.0095 52.085 22.2493 54.2911 21.522V21.0236H46.9661V21.5216C48.8632 22.2489 48.747 23.8555 46.5725 26.3838L41.8885 31.7767V11L35.5 12.3771V12.9139C36.5844 12.9139 37.6648 13.9834 37.6648 15.8583V36.367C37.6648 38.6251 36.6199 39.5042 35.5 39.6577V40.1557H43.9862V39.6577C42.593 39.4633 41.8963 38.3956 41.8963 36.367V32.5802L43.7147 30.5908L48.1194 37.744C49.1645 39.4671 50.1327 40.1557 51.6816 40.1557H66.4225V39.7667C66.4225 39.7667 66.0013 39.7375 65.5093 39.6577V39.6577ZM83.0963 37.2383V28.6808C83.0115 23.0855 80.638 20.5378 75.2022 20.5378C73.4668 20.5244 71.7769 21.0899 70.4022 22.1439C68.9694 23.2157 68.2727 24.441 68.2727 25.8569C68.2727 27.234 69.0462 28.2666 70.3233 28.2666C71.6795 28.2666 72.6478 27.5022 72.6478 26.4307C72.6478 25.6273 72.1045 24.517 72.1045 23.7525C72.1045 22.3737 73.1516 21.1873 74.97 21.1873C77.2944 21.1873 78.9575 22.9106 78.9575 26.736V29.031L77.0227 29.4899C76.0151 29.6843 75.1649 29.8789 74.5055 30.0733C73.8463 30.2678 72.9961 30.5324 71.9884 30.9135C69.975 31.68 68.8926 32.4073 67.9618 33.7843C67.5061 34.4498 67.2633 35.2369 67.2651 36.0422C67.2651 39.2163 69.5105 40.6712 72.6478 40.6712C75.1254 40.6712 77.7647 39.3699 78.9575 36.9213C78.9746 37.6937 79.1617 38.453 79.5065 39.1463C80.8192 41.7718 85.1668 40.2198 85.1668 40.2198V39.722C83.2635 40.0157 83.1061 37.779 83.0963 37.2383V37.2383ZM78.9632 34.5894C78.9632 35.8516 78.4987 36.8844 77.57 37.6117C76.6803 38.3392 75.7513 38.7223 74.7831 38.7223C72.8858 38.7223 71.646 37.497 71.646 35.2389C71.646 34.1694 72.2364 33.1734 72.7304 32.5999C73.1219 32.2036 73.581 31.8796 74.0863 31.6428C74.7438 31.2986 75.0704 31.1217 75.5191 30.9155L77.2904 30.266C78.1799 29.9218 78.7212 29.7311 78.9535 29.6165L78.9632 34.5894V34.5894ZM164.5 21.0238H149.442V11H164.5L161.339 16.012L164.5 21.0236V21.0238ZM133.892 37.7206C132.966 36.779 132.235 35.6646 131.743 34.4415C131.25 33.2183 131.005 31.9104 131.021 30.5928C131 29.2813 131.244 27.979 131.737 26.7625C132.231 25.5439 132.963 24.4354 133.892 23.5016C135.792 21.5101 138.118 20.5124 140.834 20.5124C143.508 20.5124 145.837 21.5101 147.736 23.5016C148.677 24.4279 149.421 25.5343 149.922 26.7541C150.421 27.9717 150.667 29.2777 150.645 30.5928C150.664 31.9128 150.417 33.2233 149.917 34.4464C149.417 35.6717 148.675 36.785 147.736 37.7206C145.837 39.6655 143.508 40.6712 140.834 40.6712C138.118 40.6712 135.792 39.6752 133.892 37.7206V37.7206ZM144.323 23.8206C143.558 22.3406 142.552 21.4732 141.371 21.2397C138.976 20.7633 136.858 23.1962 136.069 27.0647C135.732 28.7999 135.651 30.5747 135.827 32.3332C136 34.0933 136.495 35.807 137.287 37.3901C138.055 38.8721 139.059 39.7375 140.239 39.9708C142.635 40.4473 144.813 37.9113 145.608 34.0039C146.268 30.7386 145.933 26.7614 144.313 23.8186L144.323 23.8208V23.8206Z" fill="black"/>
<path d="M110.998 36.367V21.0238H97.3687V21.4849C99.1891 21.7533 100.055 23.1109 99.2287 25.3123C94.9697 36.752 95.2412 36.2386 94.9697 37.1566C94.6981 36.2755 94.078 34.111 93.0724 31.3958C92.0666 28.6808 91.4074 26.88 91.1359 26.0767C90.0908 22.9006 90.4391 21.7142 92.1434 21.5238V21.0258H83.3146V21.5238C84.6312 21.7922 85.7925 23.2837 86.7607 25.9618L88.1167 29.4432C89.6065 33.2046 91.3563 38.3896 91.9407 40.1577H94.8751C95.8198 37.4347 99.6103 26.5687 100.118 25.4641C100.665 24.2056 101.285 23.2525 101.978 22.5933C102.313 22.238 102.72 21.9577 103.172 21.771C103.625 21.5838 104.113 21.4942 104.603 21.5081C104.603 21.5081 106.731 21.5081 106.731 23.5367V36.367C106.731 38.5065 105.686 39.5042 104.601 39.6577V40.1557H113.043V39.6577C111.927 39.5042 110.998 38.5102 110.998 36.367V36.367Z" fill="black"/>
</g>
<defs>
<clipPath id="clip0_46_132">
<rect width="129" height="38" fill="white" transform="translate(35.5 11)"/>
</clipPath>
</defs>
</svg>
