<svg width="200" height="60" viewBox="0 0 200 60" fill="none" xmlns="http://www.w3.org/2000/svg">
<path d="M19.2205 30.7024C18.9387 30.6882 18.6562 30.7074 18.3789 30.7598C17.9163 30.8349 17.4731 31.0019 17.0753 31.2512C16.6774 31.5004 16.3328 31.8269 16.0616 32.2115C15.7903 32.5961 15.5978 33.0312 15.4953 33.4915C15.3928 33.9517 15.3823 34.4279 15.4644 34.8923C15.666 36.8075 17.6946 38.4225 19.5725 38.4706C19.7652 38.4755 19.958 38.4626 20.1484 38.4321C22.1805 38.101 22.7126 35.9932 22.3776 33.9228C21.9992 31.5852 20.344 30.7612 19.2205 30.7024ZM21.2117 36.2408C21.1259 36.3701 21.0068 36.4735 20.8672 36.5399C20.7275 36.6063 20.5726 36.6333 20.4189 36.618C20.1487 36.5965 19.8968 36.4724 19.7141 36.2709C19.5315 36.0694 19.4317 35.8055 19.4351 35.5327C19.4304 35.1693 19.5 34.8087 19.6396 34.4734C19.7268 34.2605 19.7352 34.0231 19.6632 33.8044C19.5913 33.5857 19.4438 33.4003 19.2475 33.2818C19.0064 33.1313 18.717 33.0798 18.4392 33.1378C18.1702 33.1898 17.9324 33.3467 17.7777 33.5743C17.6733 33.7442 17.5918 33.9273 17.5353 34.1189C17.5243 34.1524 17.5156 34.1787 17.5089 34.1958C17.4169 34.4322 17.2699 34.5013 17.1706 34.4884C17.134 34.4817 17.1001 34.4645 17.073 34.4389C17.0458 34.4133 17.0266 34.3804 17.0175 34.3441C16.966 34.0286 16.9901 33.7052 17.0879 33.401C17.1857 33.0968 17.3544 32.8205 17.5798 32.5952C17.7761 32.398 18.0146 32.2485 18.277 32.1581C18.5394 32.0677 18.8189 32.0387 19.0941 32.0735C19.3831 32.1085 19.6593 32.2137 19.8989 32.3801C20.1384 32.5466 20.3341 32.7692 20.4691 33.0288C20.5989 33.3412 20.6514 33.6807 20.6221 34.0181C20.5928 34.3555 20.4825 34.6806 20.3008 34.9656C20.2778 35.0149 20.2568 35.0601 20.2388 35.1004C20.1734 35.2121 20.1374 35.3386 20.134 35.4682C20.1306 35.5977 20.16 35.726 20.2194 35.841C20.2717 35.9111 20.3399 35.9675 20.4184 36.0055C20.4969 36.0435 20.5833 36.062 20.6704 36.0594C20.7535 36.0583 20.8362 36.0472 20.9167 36.0263C21.021 36.0031 21.129 35.9792 21.1947 36.0578C21.2165 36.0826 21.2299 36.1136 21.2329 36.1465C21.236 36.1795 21.2285 36.2125 21.2117 36.2408V36.2408Z" fill="white"/>
<path d="M45.1888 40.1683C45.6128 39.0854 45.8579 37.9399 45.9144 36.7773C45.9144 35.3479 45.1104 34.7555 44.5984 34.7555C44.5828 34.7003 44.4815 34.3276 44.3421 33.8789C44.2623 33.6187 44.1677 33.3634 44.0586 33.1142C44.4776 32.5316 44.6549 31.8077 44.553 31.0958C44.4692 30.5469 44.2099 30.0405 43.8144 29.6533C43.0638 29.0119 42.1681 28.566 41.2061 28.3548C41.0611 28.314 40.5834 28.1822 40.5415 28.1693C40.5382 28.1417 40.5066 26.5947 40.4778 25.9305C40.4654 25.2645 40.3668 24.603 40.1845 23.9626C39.9579 23.0437 39.4894 22.2032 38.8284 21.5295C40.4834 19.8052 41.5166 17.9057 41.5141 16.2762C41.5094 13.1425 37.6803 12.1942 32.9618 14.1581C32.9566 14.1603 31.969 14.5812 31.962 14.5848C31.9576 14.5804 30.1545 12.8024 30.1274 12.7785C24.7477 8.06206 7.92694 26.8542 13.3049 31.4183L14.4802 32.419C14.163 33.2744 14.051 34.1931 14.1534 35.1003C14.3127 36.4201 14.9608 37.6309 15.9683 38.4907C16.9463 39.384 18.2097 39.8953 19.5299 39.932C21.6227 44.7794 26.4043 47.753 32.0109 47.9204C38.025 48.0999 43.0735 45.2635 45.1888 40.1683ZM46.4233 34.4317C46.9385 35.101 47.2036 35.9312 47.1722 36.7773C47.1181 38.097 46.8439 39.3982 46.3611 40.6264L46.3497 40.6552C45.2584 43.2967 43.3531 45.5155 40.9144 46.9847C38.3761 48.4707 35.4841 49.234 32.548 49.1928H32.5474C32.3574 49.1928 32.1644 49.1898 31.9736 49.1841C29.0758 49.1232 26.2471 48.2827 23.7809 46.75C21.6101 45.3807 19.8534 43.439 18.7014 41.1358C17.3743 40.9283 16.1353 40.3383 15.1342 39.4371C13.8896 38.3668 13.0923 36.863 12.9018 35.2265C12.8169 34.4313 12.8627 33.6275 13.0374 32.8474L12.4918 32.383C12.0501 31.999 11.6912 31.5282 11.4371 30.9994C11.1831 30.4706 11.0392 29.8951 11.0144 29.3082C10.9696 28.09 11.1788 26.8759 11.6284 25.744C12.7484 22.6661 15.325 19.0011 18.5213 15.9399C19.9476 14.5467 21.5298 13.325 23.2362 12.2993C24.6594 11.383 26.2939 10.8531 27.9809 10.761C29.0689 10.7325 30.1286 11.1119 30.9542 11.8257C31.0013 11.8671 31.7077 12.5625 32.2435 13.0907C32.3779 13.0336 32.4746 12.9925 32.4775 12.9914C34.0624 12.2965 35.7658 11.9161 37.494 11.8709C40.6962 11.8709 42.7678 13.5993 42.7719 16.2743C42.7744 17.9249 41.9693 19.7753 40.485 21.5665C40.8889 22.195 41.1943 22.8822 41.3908 23.6041C41.6016 24.343 41.7171 25.1063 41.7343 25.8749C41.7488 26.2056 41.7635 26.7362 41.7754 27.2046C42.8704 27.4836 43.8823 28.0245 44.7252 28.7814C45.2967 29.352 45.6715 30.092 45.7946 30.8927C45.9183 31.6831 45.797 32.4927 45.4471 33.2111C45.4783 33.3011 45.5107 33.3988 45.5429 33.5023C45.5709 33.5926 45.5974 33.6796 45.6221 33.7622C45.9303 33.9301 46.2026 34.1577 46.4233 34.4317H46.4233Z" fill="white"/>
<path d="M42.6109 32.8667C42.8149 32.6738 42.9739 32.4378 43.0768 32.1758C43.1796 31.9137 43.2236 31.6321 43.2056 31.3509C43.1648 31.0675 43.0335 30.8052 42.8314 30.6036C42.2386 30.1083 41.5332 29.7683 40.7782 29.614C40.4333 29.5155 40.1994 29.4524 39.9473 29.368C39.4989 29.2178 39.2774 29.0969 39.2272 28.2391C39.2053 27.8639 39.141 26.557 39.1179 26.017C39.077 25.0707 38.965 23.7772 38.1765 23.2432C37.9759 23.1092 37.7426 23.0334 37.5021 23.0239C37.3675 23.0155 37.2324 23.029 37.102 23.0637C36.7017 23.1578 36.3375 23.3674 36.0537 23.6667C35.6864 24.0043 35.2533 24.2614 34.782 24.4215C34.3106 24.5816 33.8114 24.6414 33.3159 24.5969C32.764 24.5733 32.1791 24.4859 31.5086 24.4454C31.3781 24.4377 31.2473 24.4294 31.1167 24.4225C30.2503 24.4482 29.422 24.7866 28.7828 25.3758C28.1436 25.9651 27.7362 26.766 27.6348 27.6324C27.2509 30.3199 29.1634 31.7087 29.7155 32.5237C29.8008 32.6277 29.8537 32.7548 29.8674 32.889C29.8531 33.0379 29.7828 33.1756 29.6709 33.274L29.671 33.2748C28.9065 34.1411 28.3697 35.1863 28.1097 36.3152C27.8497 37.444 27.8748 38.6204 28.1827 39.7369C28.2556 40.0051 28.3492 40.2672 28.4624 40.5207C29.8579 43.8393 34.1869 45.3848 38.4162 43.9792C38.9702 43.7951 39.5077 43.564 40.0229 43.2884C40.9502 42.8219 41.7843 42.1876 42.4834 41.4172C43.5743 40.3035 44.2907 38.8736 44.532 37.3287C44.6594 36.4735 44.4728 36.1424 44.2188 35.9832C44.0394 35.8817 43.8316 35.8431 43.628 35.8735C43.5204 35.2021 43.3314 34.5465 43.0654 33.9213L42.6109 32.8667Z" fill="white"/>
<path d="M35.6799 20.0496C35.7482 20.0654 35.7915 19.9467 35.7305 19.9123C34.7201 19.3852 33.6057 19.0917 32.4684 19.053C32.4574 19.0528 32.4468 19.0496 32.4375 19.0437C32.4283 19.0378 32.4208 19.0295 32.416 19.0196C32.4112 19.0097 32.4092 18.9987 32.4102 18.9877C32.4112 18.9768 32.4152 18.9663 32.4217 18.9575C32.5985 18.7249 32.8049 18.5167 33.0356 18.3383C33.0459 18.3302 33.0534 18.319 33.057 18.3064C33.0605 18.2937 33.06 18.2802 33.0554 18.2679C33.0508 18.2556 33.0424 18.245 33.0314 18.2379C33.0204 18.2307 33.0075 18.2272 32.9944 18.228C31.6018 18.3657 30.2631 18.8408 29.0926 19.6126C29.0826 19.6194 29.0709 19.623 29.0588 19.6229C29.0468 19.6229 29.035 19.6192 29.0251 19.6124C29.0151 19.6056 29.0075 19.5959 29.003 19.5846C28.9986 19.5734 28.9977 19.561 29.0003 19.5492C29.0946 19.1953 29.2333 18.8549 29.4132 18.5364C29.4191 18.5254 29.4214 18.5129 29.4197 18.5005C29.418 18.4882 29.4124 18.4767 29.4037 18.4678C29.3951 18.4589 29.3838 18.4531 29.3716 18.4511C29.3594 18.4491 29.3468 18.4512 29.3359 18.4569C27.6457 19.3913 26.1392 20.6286 24.8908 22.1079C24.881 22.1192 24.8757 22.1337 24.8759 22.1486C24.876 22.1636 24.8816 22.1779 24.8916 22.189C24.9016 22.2 24.9153 22.207 24.9301 22.2086C24.9448 22.2101 24.9596 22.2062 24.9717 22.1975C26.4185 21.1798 28.0484 20.4557 29.7703 20.0655C31.7141 19.6142 33.7338 19.6087 35.6799 20.0496" fill="white"/>
<path d="M30.7019 15.2493C30.7019 15.2493 29.2377 13.543 28.7957 13.4172C26.0764 12.6786 20.2023 16.7504 16.4517 22.13C14.9341 24.3066 12.7616 28.1612 13.8004 30.1438C14.1697 30.5889 14.5859 30.9923 15.0418 31.3468C15.7378 30.3648 16.7853 29.6931 17.9636 29.4731C19.4425 25.3117 22.0383 21.6443 25.463 18.8783C27.1063 17.5245 28.8587 16.3107 30.7019 15.2493" fill="white"/>
<path d="M21.1132 36.1669C21.1343 36.1927 21.1472 36.2242 21.1501 36.2574C21.153 36.2906 21.1459 36.3239 21.1297 36.353C21.0508 36.4819 20.9376 36.5861 20.803 36.6538C20.6684 36.7215 20.5177 36.75 20.3679 36.736C20.1008 36.7071 19.8547 36.5772 19.6792 36.3726C19.5037 36.168 19.4119 35.9039 19.4223 35.6338C19.4178 35.2657 19.4846 34.9002 19.6189 34.5578C19.7037 34.3432 19.7126 34.1058 19.644 33.8855C19.5754 33.6652 19.4335 33.4753 19.2423 33.3478C19.1291 33.2724 19.002 33.2206 18.8686 33.1954C18.7352 33.1703 18.5981 33.1723 18.4655 33.2014C18.3355 33.2289 18.2124 33.2823 18.1032 33.3584C17.9941 33.4346 17.9012 33.5319 17.83 33.6447C17.7292 33.8183 17.6509 34.0041 17.5969 34.1977C17.5864 34.2318 17.578 34.2585 17.5717 34.2758C17.4831 34.5161 17.342 34.5862 17.2464 34.5733C17.2012 34.567 17.1391 34.5366 17.0992 34.4266C17.0492 34.1086 17.0719 33.7834 17.1656 33.4756C17.2593 33.1678 17.4214 32.8855 17.6397 32.6503C17.8231 32.4521 18.0507 32.3007 18.3037 32.2086C18.5567 32.1165 18.8279 32.0864 19.0948 32.1207C19.3775 32.1598 19.6462 32.2689 19.8768 32.4382C20.1073 32.6074 20.2926 32.8316 20.4159 33.0907C20.5409 33.409 20.5913 33.7521 20.5633 34.0932C20.5353 34.4344 20.4296 34.7644 20.2544 35.0578C20.2323 35.1077 20.212 35.1535 20.1949 35.1949C20.1319 35.3095 20.0973 35.4377 20.0941 35.5686C20.0908 35.6995 20.119 35.8293 20.1762 35.9469C20.2246 36.0171 20.2895 36.0741 20.3651 36.1128C20.4407 36.1515 20.5247 36.1707 20.6095 36.1687C20.6894 36.1675 20.7689 36.1562 20.8461 36.135C20.9464 36.1113 21.0502 36.0871 21.1132 36.1669M45.8603 36.7888C45.8042 37.9487 45.5607 39.0917 45.1395 40.1728C43.0379 45.2572 38.0225 48.0878 32.0478 47.9086C26.478 47.7416 21.7276 44.7741 19.6485 39.9369C18.3359 39.8999 17.0803 39.3895 16.1104 38.4986C15.1085 37.6389 14.4648 36.431 14.3072 35.1154C14.2056 34.2102 14.3168 33.2936 14.6319 32.4397L13.4643 31.441C8.12163 26.8866 24.832 8.13387 30.1767 12.8405C30.2037 12.8642 31.9948 14.6386 31.9993 14.643C32.0064 14.6393 32.9875 14.2193 32.9925 14.2172C37.6802 12.2573 41.4841 13.2036 41.4889 16.3307C41.4914 17.9569 40.465 19.8524 38.8209 21.573C39.478 22.2461 39.9432 23.0847 40.1679 24.0009C40.3491 24.6401 40.4471 25.3003 40.4593 25.9648C40.4879 26.6275 40.5195 28.1715 40.5226 28.1989C40.5644 28.2117 41.0389 28.3432 41.1828 28.384C42.1392 28.5951 43.0292 29.0402 43.7741 29.6798C44.1674 30.0668 44.4249 30.5721 44.5079 31.1193C44.6093 31.8293 44.4332 32.5513 44.0168 33.1334C44.1252 33.3822 44.2192 33.637 44.2984 33.8966C44.4368 34.3444 44.5374 34.7161 44.5529 34.7712C45.0615 34.7712 45.8603 35.3624 45.8603 36.7888L45.8603 36.7888ZM22.2498 33.9988C21.8865 31.6246 20.2957 30.7879 19.2163 30.7282C18.9454 30.7137 18.6737 30.7332 18.4075 30.7862C16.481 31.1786 15.3929 32.8333 15.607 34.9833C15.7629 35.9477 16.2374 36.831 16.9537 37.4904C17.67 38.1499 18.5862 38.547 19.5544 38.6175C19.7397 38.6225 19.9251 38.6093 20.1078 38.5783C22.0605 38.2421 22.5717 36.1014 22.2498 33.9988ZM25.5428 18.9273C27.1747 17.5769 28.9156 16.3655 30.7473 15.306C30.7473 15.306 29.2929 13.6033 28.8537 13.4779C26.1522 12.7406 20.3164 16.8039 16.5905 22.1722C15.0829 24.3443 12.9247 28.1909 13.9565 30.1692C14.3231 30.6132 14.7366 31.0157 15.1898 31.3697C15.8797 30.3909 16.9206 29.7204 18.0926 29.5001C19.5589 25.3512 22.1375 21.6918 25.5428 18.9273V18.9273ZM31.4142 37.7155C31.4858 38.0311 31.6407 38.3213 31.8626 38.5555C32.0845 38.7897 32.3652 38.9593 32.6749 39.0462C32.9971 39.1671 33.3296 39.2582 33.6682 39.3185C37.9414 40.0606 41.9364 37.5938 42.8359 36.9725C42.9034 36.9259 42.948 36.9714 42.8938 37.0537C42.8667 37.0975 42.8373 37.1399 42.8057 37.1805C41.7049 38.6142 38.7455 40.2743 34.8951 40.2737C33.2158 40.2735 31.5374 39.6761 30.9211 38.7584C29.965 37.3342 30.8737 35.2556 32.4669 35.4722C32.4687 35.4725 33.012 35.5347 33.1647 35.5518C35.6411 35.7915 38.1373 35.3882 40.4149 34.3804C42.5884 33.3617 43.4095 32.2406 43.2863 31.3331C43.2452 31.0513 43.1136 30.7907 42.9116 30.5912C42.3172 30.0987 41.6114 29.7612 40.8567 29.6085C40.5115 29.5106 40.2772 29.4482 40.0248 29.3642C39.5762 29.215 39.3544 29.0949 39.3041 28.2431C39.2823 27.8706 39.2179 26.5729 39.1946 26.0365C39.1536 25.0968 39.0418 23.8124 38.2523 23.282C38.0513 23.1489 37.8179 23.0736 37.5775 23.0642C37.4427 23.056 37.3074 23.0694 37.1768 23.1039C36.7769 23.197 36.4124 23.4051 36.1277 23.7027C35.7587 24.0383 35.3248 24.2936 34.8532 24.4526C34.3816 24.6115 33.8825 24.6707 33.3871 24.6263C32.8347 24.603 32.2493 24.5162 31.5783 24.4759C31.4478 24.4682 31.3167 24.46 31.1859 24.4533C30.3219 24.4761 29.4947 24.8104 28.8551 25.3955C28.2154 25.9805 27.8058 26.7773 27.7007 27.6408C27.3165 30.3096 29.2308 31.6887 29.7834 32.4979C29.8688 32.601 29.9217 32.7273 29.9355 32.8608C29.9209 33.0088 29.8505 33.1456 29.7388 33.243V33.2438C28.9744 34.101 28.4371 35.1385 28.1767 36.2602C27.9163 37.3818 27.9412 38.5515 28.2491 39.6609C28.3222 39.9273 28.4158 40.1876 28.5292 40.4393C29.926 43.7348 34.259 45.2693 38.4923 43.8735C39.0466 43.6908 39.5846 43.4614 40.1006 43.1878C41.0276 42.7253 41.8624 42.0954 42.5635 41.3294C43.6537 40.2265 44.3711 38.806 44.6139 37.2694C44.7413 36.42 44.5548 36.0915 44.3004 35.9334C44.1206 35.8325 43.9127 35.7942 43.7091 35.8243C43.6013 35.1572 43.4121 34.5061 43.146 33.8856C41.9369 34.8039 40.5702 35.4902 39.1142 35.9101C37.3624 36.4083 35.54 36.6073 33.7228 36.4987C32.5537 36.4033 31.7803 36.0587 31.4894 37.0133C33.2578 37.6085 35.1353 37.8013 36.9867 37.5778C36.9997 37.5765 37.0129 37.5777 37.0255 37.5815C37.038 37.5853 37.0497 37.5916 37.0598 37.5999C37.0699 37.6082 37.0783 37.6185 37.0845 37.6301C37.0907 37.6418 37.0945 37.6545 37.0958 37.6676C37.0978 37.6897 37.0929 37.7118 37.0818 37.7309C37.0708 37.75 37.0541 37.7652 37.0341 37.7744C37.0341 37.7744 34.8627 38.7923 31.4142 37.7155V37.7155ZM25.0547 22.2395C26.4909 21.2246 28.1104 20.5019 29.8219 20.1122C31.7528 19.6618 33.7597 19.6563 35.6929 20.0962C35.7606 20.1119 35.8037 19.9935 35.7432 19.9593C34.74 19.4336 33.6326 19.1405 32.5023 19.1017C32.4914 19.1015 32.4807 19.0983 32.4716 19.0924C32.4624 19.0865 32.455 19.0782 32.4502 19.0683C32.4454 19.0585 32.4434 19.0475 32.4444 19.0366C32.4454 19.0257 32.4494 19.0152 32.4559 19.0065C32.6315 18.7745 32.8366 18.5667 33.0659 18.3885C33.0762 18.3804 33.0836 18.3693 33.0872 18.3566C33.0907 18.344 33.0902 18.3306 33.0856 18.3183C33.081 18.306 33.0727 18.2955 33.0618 18.2883C33.0508 18.2812 33.0379 18.2777 33.0249 18.2784C31.6407 18.4161 30.3105 18.8903 29.1486 19.6601C29.1387 19.6669 29.127 19.6705 29.115 19.6705C29.103 19.6704 29.0913 19.6668 29.0814 19.66C29.0715 19.6531 29.0639 19.6435 29.0595 19.6322C29.0551 19.621 29.0542 19.6087 29.0569 19.5969C29.1505 19.2439 29.2883 18.9043 29.467 18.5863C29.4729 18.5754 29.4753 18.5629 29.4736 18.5506C29.4719 18.5383 29.4664 18.5269 29.4578 18.518C29.4492 18.5091 29.438 18.5032 29.4258 18.5012C29.4137 18.4992 29.4012 18.5012 29.3902 18.5069C27.71 19.4404 26.2134 20.6752 24.9743 22.1505C24.9646 22.1617 24.9593 22.176 24.9595 22.1909C24.9596 22.2058 24.9652 22.22 24.9751 22.231C24.985 22.242 24.9986 22.249 25.0133 22.2505C25.028 22.2521 25.0427 22.2482 25.0547 22.2395V22.2395ZM36.3078 31.2986C36.4247 31.3731 36.5649 31.4017 36.7014 31.3788C36.838 31.356 36.9614 31.2833 37.0481 31.1747C37.1559 30.9647 36.9994 30.6799 36.6984 30.5385C36.5814 30.4639 36.4413 30.4354 36.3047 30.4583C36.1681 30.4812 36.0447 30.5539 35.9581 30.6626C35.8501 30.8724 36.0068 31.1572 36.3078 31.2986ZM37.231 27.8934C37.3032 28.2715 37.459 28.6283 37.6868 28.9376C37.9222 28.9084 38.1603 28.9084 38.3957 28.9376C38.5333 28.5226 38.5453 28.0758 38.4303 27.6539C38.2602 26.8754 38.0299 26.4043 37.5541 26.4775C37.0785 26.5509 37.061 27.1149 37.231 27.8934ZM38.2431 29.6816C38.1231 29.647 37.9953 29.651 37.8778 29.6932C37.7602 29.7354 37.6587 29.8136 37.5876 29.9169C37.5164 30.0201 37.4792 30.1432 37.4811 30.2688C37.4831 30.3944 37.5241 30.5163 37.5984 30.6172C37.6726 30.7182 37.7765 30.7932 37.8953 30.8317C38.0141 30.8702 38.1419 30.8703 38.2608 30.8319C38.3796 30.7935 38.4836 30.7186 38.5579 30.6178C38.6323 30.5169 38.6734 30.395 38.6755 30.2694C38.6928 30.1342 38.6574 29.9975 38.5768 29.888C38.4962 29.7784 38.3766 29.7045 38.2431 29.6816V29.6816Z" fill="black"/>
<path d="M30.3446 29.6121C30.2687 29.6013 30.2364 29.5686 30.2268 29.5253C30.1974 29.391 30.4026 29.17 30.6189 29.0105C30.9345 28.7782 31.3043 28.6315 31.6926 28.5846C32.0808 28.5377 32.4745 28.5921 32.8359 28.7426C33.1735 28.8828 33.4638 29.118 33.6721 29.42C33.7494 29.547 33.7643 29.6455 33.7144 29.6971C33.6365 29.7798 33.4378 29.685 33.1144 29.5423C32.7259 29.3504 32.2967 29.2573 31.8641 29.2712C31.3517 29.3561 30.8444 29.4699 30.3446 29.6121V29.6121ZM33.5678 30.28C33.4281 30.1321 33.2541 30.0215 33.0615 29.9579C32.8688 29.8943 32.6635 29.8799 32.4639 29.9158C32.1696 29.9473 31.8908 30.0643 31.6614 30.2525C31.5545 30.3297 31.481 30.4452 31.456 30.5753C31.4554 30.5897 31.458 30.6041 31.4636 30.6175C31.4692 30.6308 31.4776 30.6428 31.4882 30.6525C31.5072 30.6698 31.5319 30.6793 31.5576 30.679C31.6634 30.6634 31.767 30.6345 31.8657 30.593C32.2981 30.429 32.7652 30.3802 33.2218 30.4513C33.4334 30.4752 33.5334 30.4885 33.5798 30.4154C33.5917 30.3943 33.5969 30.37 33.5948 30.3458C33.5927 30.3216 33.5832 30.2987 33.5678 30.28V30.28Z" fill="black"/>
<path d="M32.9686 30.4752C33.1022 29.9969 33.1098 29.4918 32.9908 29.0096C32.8187 28.23 32.5584 27.7844 32.076 27.8578C31.5936 27.9312 31.5811 28.5595 31.7366 29.3424C31.8081 29.7012 31.9473 30.0428 32.1468 30.3488C32.5306 30.8879 32.7909 30.7484 32.9679 30.4752L32.9686 30.4752Z" fill="black"/>
<path d="M69.3602 22.3508C67.0302 22.3508 65.8779 24.1929 65.3526 25.3869C65.056 26.0521 64.9713 26.5723 64.7341 26.5723C64.3952 26.5723 64.6409 26.1203 64.3613 25.1055C63.9969 23.775 62.904 22.3508 60.5739 22.3508C58.1253 22.3508 57.0831 24.4317 56.5832 25.5745C56.2443 26.3591 56.2443 26.5723 55.9817 26.5723C55.6004 26.5723 55.9139 25.9498 56.0833 25.2249C56.4223 23.7921 56.1596 22.6919 56.1596 22.6919H52.296V37.3607H57.5915V30.0604C57.5915 28.6191 58.1931 26.7941 59.2183 26.7941C60.4045 26.7941 60.6417 27.7066 60.6417 29.4037V37.3607H65.9542V30.0519C65.9542 28.7726 66.471 26.7855 67.5894 26.7855C68.7925 26.7855 69.0044 28.0733 69.0044 29.3952V37.3522H74.2236V28.7215C74.2236 24.8923 72.8849 22.3423 69.3687 22.3423L69.3602 22.3508Z" fill="black"/>
<path d="M159.189 22.3508C156.859 22.3508 155.707 24.1929 155.181 25.3869C154.885 26.0521 154.8 26.5723 154.563 26.5723C154.224 26.5723 154.453 25.9924 154.19 25.1055C153.8 23.7836 152.834 22.3508 150.403 22.3508C147.971 22.3508 146.912 24.4317 146.412 25.5745C146.073 26.3591 146.073 26.5723 145.81 26.5723C145.429 26.5723 145.743 25.9498 145.912 25.2249C146.251 23.7921 145.988 22.6919 145.988 22.6919H142.108V37.3607H147.403V30.0604C147.403 28.6191 148.005 26.7941 149.03 26.7941C150.216 26.7941 150.453 27.7066 150.453 29.4037V37.3607H155.766V30.0519C155.766 28.7726 156.283 26.7855 157.401 26.7855C158.604 26.7855 158.816 28.0733 158.816 29.3952V37.3522H164.035V28.7215C164.035 24.8923 162.697 22.3423 159.18 22.3423L159.189 22.3508Z" fill="black"/>
<path d="M83.2556 22.3508C79.1971 22.3508 76.291 23.8518 76.291 23.8518V28.2609C76.291 28.2609 79.5022 26.4018 82.1118 26.4018C84.1961 26.4018 84.4503 27.5275 84.3486 28.4656C84.3486 28.4656 83.747 28.3036 81.9169 28.3036C77.6043 28.3036 75.4268 30.2736 75.4268 33.4376C75.4268 36.4396 77.8754 37.6933 79.9343 37.6933C82.9421 37.6933 84.2639 35.655 84.6706 34.6913C84.9502 34.0176 85.001 33.5741 85.2552 33.5741C85.5433 33.5741 85.4501 33.8982 85.4331 34.5634C85.4077 35.7318 85.467 36.6102 85.6449 37.3607H89.6356V30.1372C89.6356 25.6257 88.0512 22.3423 83.2471 22.3423L83.2556 22.3508ZM81.9678 33.9323C80.7053 34.2223 80.0444 33.83 80.0444 32.9856C80.0444 31.8258 81.2306 31.3653 82.9252 31.3653C83.6708 31.3653 84.374 31.4335 84.374 31.4335C84.374 31.9281 83.3065 33.6167 81.9593 33.9323H81.9678Z" fill="black"/>
<path d="M103.65 18.2401H98.3542V37.3606H103.65V18.2401Z" fill="black"/>
<path d="M109.479 30.0263C109.479 28.7045 110.699 27.5105 112.936 27.5105C115.376 27.5105 117.333 28.6874 117.774 28.9603V23.8604C117.774 23.8604 116.223 22.3594 112.419 22.3594C108.411 22.3594 105.065 24.7217 105.065 29.8046C105.065 34.8875 108.098 37.7104 112.402 37.7104C115.766 37.7104 117.774 35.8512 117.774 35.8512V31.0071C117.138 31.3653 115.368 32.6019 112.953 32.6019C110.394 32.6019 109.47 31.4165 109.47 30.0434L109.479 30.0263Z" fill="black"/>
<path d="M128.483 22.3508C125.416 22.3508 124.256 25.276 124.018 25.7792C123.781 26.2823 123.671 26.5808 123.476 26.5723C123.146 26.5638 123.374 25.9497 123.501 25.5574C123.747 24.8069 124.272 22.8454 124.272 20.4319C124.272 18.7945 124.052 18.2487 124.052 18.2487H119.485V37.3607H124.781V30.0604C124.781 28.875 125.255 26.794 126.586 26.794C127.687 26.794 128.034 27.6213 128.034 29.2758V37.3607H133.33V29.5913C133.33 25.8218 132.711 22.3423 128.492 22.3423L128.483 22.3508Z" fill="black"/>
<path d="M135.05 22.7091V37.3608H140.345V22.7091C140.345 22.7091 139.456 23.2293 137.702 23.2293C135.948 23.2293 135.05 22.7091 135.05 22.7091Z" fill="black"/>
<path d="M137.676 22.3508C139.464 22.3508 140.913 21.3963 140.913 20.2188C140.913 19.0412 139.464 18.0867 137.676 18.0867C135.889 18.0867 134.44 19.0412 134.44 20.2188C134.44 21.3963 135.889 22.3508 137.676 22.3508Z" fill="black"/>
<path d="M91.3556 22.7091V37.3608H96.6511V22.7091C96.6511 22.7091 95.7615 23.2293 94.0076 23.2293C92.2537 23.2293 91.3556 22.7091 91.3556 22.7091Z" fill="black"/>
<path d="M93.9822 22.3508C95.7697 22.3508 97.2188 21.3963 97.2188 20.2188C97.2188 19.0412 95.7697 18.0867 93.9822 18.0867C92.1946 18.0867 90.7456 19.0412 90.7456 20.2188C90.7456 21.3963 92.1946 22.3508 93.9822 22.3508Z" fill="black"/>
<path d="M174.559 22.3508C171.839 22.3508 170.593 24.4062 170.051 25.5745C169.695 26.3506 169.712 26.5724 169.449 26.5724C169.068 26.5724 169.382 25.9498 169.551 25.2249C169.89 23.7921 169.627 22.692 169.627 22.692H165.747V41.4202H171.042V35.4845C171.669 36.5505 172.83 37.6933 174.618 37.6933C178.448 37.6933 180.371 34.4355 180.371 30.0263C180.371 25.0373 178.066 22.3508 174.55 22.3508H174.559ZM173.11 34.2137C171.898 34.2137 171 32.6616 171 30.5039C171 28.3462 171.915 26.7941 173.067 26.7941C174.542 26.7941 175.169 28.1501 175.169 30.5039C175.169 32.8577 174.592 34.2137 173.11 34.2137V34.2137Z" fill="black"/>
</svg>
