<svg width="200" height="60" viewBox="0 0 200 60" fill="none" xmlns="http://www.w3.org/2000/svg">
<path d="M116.041 20.0082H133.084V23.1529H126.323V39.6968H122.943V23.1529H116.041V20.0082Z" fill="black"/>
<path d="M88.0135 20.0082V23.1529H74.3532V28.2118H85.3389V31.3565H74.3532V36.5521H88.0135V39.6968H70.9729V23.1529H70.9715V20.0082H88.0135Z" fill="black"/>
<path d="M96.5232 20.0164H92.0995L107.944 39.705H112.381L104.458 29.8675L112.368 20.0315L107.944 20.0383L102.243 27.1176L96.5232 20.0164Z" fill="black"/>
<path d="M101.063 34.0801L98.8474 31.3264L92.0867 39.7201H96.5232L101.063 34.0801Z" fill="black"/>
<path fill-rule="evenodd" clip-rule="evenodd" d="M71.0914 39.6968L55.2253 20H51V39.6886H54.3802V24.2084L66.8449 39.6968H71.0914Z" fill="black"/>
<path d="M133.844 39.5766C133.596 39.5766 133.385 39.4908 133.209 39.3194C133.033 39.1479 132.945 38.9403 132.948 38.6944C132.945 38.4552 133.033 38.2498 133.209 38.0784C133.385 37.9069 133.596 37.8212 133.844 37.8212C134.082 37.8212 134.29 37.9069 134.466 38.0784C134.645 38.2498 134.734 38.4552 134.737 38.6944C134.734 38.8568 134.693 39.0057 134.611 39.1388C134.526 39.2742 134.418 39.3803 134.283 39.457C134.15 39.536 134.004 39.5766 133.844 39.5766Z" fill="black"/>
<path d="M139.613 31.2823H141.111V37.0517C141.109 37.582 140.994 38.0355 140.77 38.4168C140.543 38.7981 140.229 39.0892 139.826 39.2945C139.425 39.4976 138.955 39.6014 138.422 39.6014C137.934 39.6014 137.497 39.5134 137.107 39.3419C136.718 39.1704 136.409 38.9132 136.182 38.5747C135.953 38.2363 135.841 37.8144 135.841 37.309H137.341C137.343 37.5301 137.394 37.7219 137.49 37.8821C137.586 38.0423 137.719 38.1641 137.888 38.2498C138.06 38.3356 138.257 38.3784 138.479 38.3784C138.72 38.3784 138.926 38.3288 139.093 38.2273C139.26 38.128 139.388 37.9791 139.478 37.7805C139.565 37.5843 139.611 37.3405 139.613 37.0517V31.2823Z" fill="black"/>
<path d="M147.274 33.5387C147.238 33.1889 147.077 32.9159 146.798 32.7219C146.516 32.5256 146.152 32.4285 145.705 32.4285C145.391 32.4285 145.121 32.4759 144.897 32.5685C144.672 32.6632 144.498 32.7895 144.379 32.9497C144.26 33.1099 144.2 33.2927 144.196 33.498C144.196 33.6695 144.237 33.8184 144.317 33.9425C144.398 34.0689 144.505 34.175 144.645 34.2607C144.782 34.3487 144.936 34.4209 145.103 34.4795C145.272 34.5382 145.442 34.5878 145.611 34.6285L146.392 34.8203C146.706 34.8924 147.011 34.9895 147.302 35.1136C147.592 35.2354 147.856 35.3911 148.087 35.5784C148.319 35.7656 148.502 35.9913 148.637 36.2553C148.772 36.5193 148.841 36.8284 148.841 37.1849C148.841 37.6654 148.717 38.0874 148.467 38.4529C148.218 38.8162 147.858 39.1005 147.386 39.3058C146.917 39.5089 146.349 39.6127 145.68 39.6127C145.034 39.6127 144.471 39.5134 143.996 39.3149C143.52 39.1185 143.149 38.8297 142.881 38.4507C142.613 38.0716 142.469 37.609 142.448 37.0653H143.932C143.953 37.3495 144.045 37.5865 144.2 37.7783C144.359 37.9678 144.565 38.1077 144.817 38.2025C145.071 38.295 145.355 38.3423 145.669 38.3423C145.996 38.3423 146.285 38.2927 146.534 38.1957C146.782 38.0987 146.976 37.9633 147.116 37.7873C147.258 37.6136 147.329 37.4082 147.331 37.1736C147.329 36.9592 147.265 36.781 147.141 36.6411C147.015 36.5012 146.841 36.3839 146.619 36.2891C146.395 36.1943 146.133 36.1086 145.836 36.0341L144.887 35.795C144.203 35.6212 143.66 35.3572 143.263 35.003C142.865 34.6488 142.668 34.1795 142.668 33.5905C142.668 33.1077 142.801 32.6835 143.069 32.3203C143.335 31.957 143.699 31.675 144.159 31.4741C144.622 31.2711 145.144 31.1718 145.726 31.1718C146.317 31.1718 146.834 31.2711 147.281 31.4741C147.727 31.675 148.078 31.9547 148.332 32.3112C148.587 32.6677 148.719 33.0761 148.726 33.5387H147.274Z" fill="black"/>
</svg>
