<svg width="200" height="60" viewBox="0 0 200 60" fill="none" xmlns="http://www.w3.org/2000/svg">
<g clip-path="url(#clip0_46_114)">
<path d="M69.0725 37.8534V22.0074H75.8139C76.5785 22.0074 77.2735 22.1465 77.8989 22.494C78.5244 22.772 79.0804 23.189 79.4975 23.7449C79.9145 24.3009 80.3314 24.8569 80.54 25.4824C80.8179 26.108 80.957 26.803 80.957 27.4284C80.957 28.1234 80.8181 28.8184 80.6095 29.444C80.3316 30.0695 80.0535 30.6255 79.567 31.1815C79.15 31.668 78.5941 32.0849 77.9685 32.363C77.3431 32.641 76.6481 32.7799 75.8835 32.7799H72.6864V37.9229H69.0725V37.8534V37.8534ZM72.756 29.583H75.7445C76.1616 29.583 76.5785 29.3745 76.8566 29.027C77.2041 28.6795 77.3431 28.1235 77.3431 27.4285C77.3431 27.081 77.2735 26.7335 77.2041 26.4555C77.1345 26.1774 76.9956 25.969 76.787 25.7605C76.6481 25.552 76.4395 25.4824 76.231 25.3435C76.0225 25.2045 75.8139 25.2045 75.6056 25.2045H72.756V29.583Z" fill="#222222"/>
<path d="M81.9995 37.8534V22.0074H89.1581C89.9226 22.0074 90.6176 22.1465 91.2431 22.494C91.8685 22.772 92.4245 23.189 92.911 23.7449C93.3975 24.2315 93.745 24.8569 94.0231 25.4824C94.301 26.108 94.4401 26.803 94.4401 27.4284C94.4401 27.9149 94.3706 28.4015 94.2316 28.8184C94.0926 29.3049 93.9537 29.7219 93.7451 30.0694C93.5366 30.4864 93.2587 30.8339 92.9112 31.1814C92.5637 31.5289 92.2162 31.8069 91.7991 32.0154L95.4131 37.9229H91.3126L88.1156 32.7799H85.7526V37.9229H81.9995V37.8534H81.9995ZM85.6829 29.583H89.0189C89.436 29.583 89.8529 29.3745 90.131 28.9574C90.4785 28.5405 90.6175 28.054 90.6175 27.359C90.6175 26.7334 90.4089 26.1774 90.0614 25.8299C89.7139 25.413 89.2969 25.274 88.88 25.274H85.6135L85.6829 29.583Z" fill="#222222"/>
<path d="M96.3164 37.8534V22.0074H100V37.8534H96.3164V37.8534Z" fill="#222222"/>
<path d="M105.351 28.8184V37.8534H101.668V22.0074H104.517L111.885 31.3205V22.0074H115.568V37.8534H112.649L105.351 28.8184Z" fill="#222222"/>
<path d="M129.815 25.2044H125.02V37.8534H121.336V25.2044H116.471V22.0074H129.815V25.2044Z" fill="#222222"/>
<path d="M130.719 37.8534V22.0074H141.491V25.2044H134.402V28.6099H140.24V31.5984H134.402V37.8534H130.719V37.8534Z" fill="#222222"/>
<path d="M149.206 34.7259C149.831 34.7259 150.387 34.5869 150.805 34.309C151.222 34.0309 151.569 33.6834 151.847 33.2665C152.125 32.8495 152.333 32.363 152.403 31.807C152.542 31.251 152.542 30.695 152.542 30.0695V22.0074H156.226V30.139C156.226 31.2509 156.087 32.2934 155.809 33.197C155.531 34.17 155.114 35.004 154.557 35.699C154.001 36.394 153.237 36.9499 152.403 37.367C151.569 37.784 150.457 37.9924 149.275 37.9924C148.024 37.9924 146.912 37.784 146.009 37.367C145.105 36.9499 144.41 36.3244 143.854 35.6294C143.298 34.9344 142.881 34.1004 142.603 33.1274C142.325 32.1545 142.186 31.1815 142.186 30.139V22.0074H145.87V30.139C145.87 30.7645 145.939 31.3205 146.078 31.8765C146.217 32.4324 146.426 32.919 146.634 33.3359C146.912 33.7529 147.26 34.1004 147.677 34.3784C148.094 34.5869 148.58 34.7259 149.206 34.7259Z" fill="#222222"/>
<path d="M158.171 37.8534V22.0074H161.855V34.6565H169.5V37.8535H158.171V37.8534Z" fill="#222222"/>
<path d="M30.5 37.9924L39.8129 22.0074L49.126 37.9924H30.5Z" fill="#F2C994"/>
<path d="M38.9095 37.9924L48.2225 22.0074L57.5354 37.9924H38.9095Z" fill="#ED4642"/>
<path d="M47.3189 37.9924L56.632 22.0074L65.945 37.9924H47.3189Z" fill="#17BCB5"/>
<path d="M38.9095 37.9925H49.126L43.9829 29.2355L38.9095 37.9925Z" fill="#DF392F"/>
<path d="M47.3189 37.9925H57.5354L52.462 29.2355L47.3189 37.9925Z" fill="#16342F"/>
<path d="M47.3189 37.9924H49.126L48.2225 36.4634L47.3189 37.9924Z" fill="#15291A"/>
</g>
<defs>
<clipPath id="clip0_46_114">
<rect width="139" height="16" fill="white" transform="translate(30.5 22)"/>
</clipPath>
</defs>
</svg>
