<svg width="200" height="60" viewBox="0 0 200 60" fill="none" xmlns="http://www.w3.org/2000/svg">
<g clip-path="url(#clip0_3_184)">
<path fill-rule="evenodd" clip-rule="evenodd" d="M78.4152 22.9627H79.2033C79.7412 22.9627 80.1772 23.4007 80.1772 23.9411V24.8675C80.1772 24.8963 80.2003 24.9195 80.229 24.9195C80.6776 24.1223 81.2815 23.5425 82.0407 23.1801C82.8 22.8177 83.6195 22.6365 84.4996 22.6365C85.4485 22.6365 86.3026 22.8132 87.0618 23.1665C87.8211 23.5198 88.4681 24.0045 89.003 24.6206C89.5379 25.2366 89.9434 25.9614 90.2194 26.7949C90.4954 27.6284 90.6335 28.5253 90.6335 29.4856C90.6335 30.4459 90.4868 31.3427 90.1936 32.1763C89.9001 33.0098 89.4905 33.7346 88.9642 34.3507C88.4379 34.9666 87.8038 35.4513 87.0618 35.8047C86.3198 36.158 85.5089 36.3346 84.629 36.3346C84.0423 36.3346 83.5247 36.2712 83.076 36.1444C82.6274 36.0176 82.2305 35.8546 81.8854 35.6552C81.5403 35.4558 81.2469 35.243 81.0055 35.0165C80.7639 34.79 80.5654 34.568 80.4102 34.3507C80.3673 34.3507 80.3326 34.3855 80.3326 34.4287V41.0112C80.3326 41.6706 79.8005 42.2052 79.144 42.2052H78.4152C77.7588 42.2052 77.2267 41.6706 77.2267 41.0112V24.1568C77.2267 23.4973 77.7588 22.9627 78.4152 22.9627ZM87.5277 29.4856C87.5277 28.9783 87.4458 28.4891 87.2818 28.0179C87.1179 27.5468 86.8763 27.1302 86.5571 26.7677C86.2379 26.4053 85.854 26.1154 85.4054 25.898C84.9568 25.6806 84.4478 25.5718 83.8783 25.5718C83.309 25.5718 82.8 25.6806 82.3513 25.898C81.9027 26.1154 81.5188 26.4053 81.1996 26.7677C80.8803 27.1302 80.6389 27.5468 80.4748 28.0179C80.311 28.4891 80.229 28.9783 80.229 29.4856C80.229 29.9929 80.311 30.4822 80.4748 30.9532C80.6389 31.4243 80.8803 31.841 81.1996 32.2034C81.5188 32.5658 81.9027 32.8558 82.3513 33.0732C82.8 33.2906 83.309 33.3994 83.8783 33.3994C84.4478 33.3994 84.9568 33.2906 85.4054 33.0732C85.854 32.8558 86.2379 32.5658 86.5571 32.2034C86.8763 31.841 87.1179 31.4243 87.2818 30.9532C87.4458 30.4822 87.5277 29.9929 87.5277 29.4856ZM95.109 22.9627H95.9985C96.5662 22.9627 97.0264 23.4251 97.0264 23.9955V24.9763C97.0264 25.005 97.0495 25.0283 97.0781 25.0283C97.4232 24.2672 97.9149 23.6784 98.5534 23.2616C99.1919 22.8449 99.9251 22.6365 100.753 22.6365C100.943 22.6365 101.129 22.6546 101.31 22.6909C101.633 22.7556 101.866 23.0409 101.866 23.3723V25.1616C101.866 25.5214 101.576 25.8132 101.218 25.8132C101.179 25.8132 101.141 25.8097 101.103 25.8029C100.853 25.7576 100.607 25.7349 100.365 25.7349C99.6404 25.7349 99.0581 25.8754 98.618 26.1562C98.1781 26.437 97.8417 26.7587 97.6087 27.1211C97.3758 27.4835 97.2204 27.8457 97.1428 28.2082C97.0651 28.5706 97.0264 28.8423 97.0264 29.0236V34.8143C97.0264 35.474 96.4942 36.0086 95.8379 36.0086H95.109C94.4526 36.0086 93.9205 35.474 93.9205 34.8143V24.1568C93.9205 23.4973 94.4526 22.9627 95.109 22.9627ZM105.617 22.9627H106.346C107.002 22.9627 107.534 23.4973 107.534 24.1568V34.8143C107.534 35.474 107.002 36.0086 106.346 36.0086H105.617C104.961 36.0086 104.429 35.474 104.429 34.8143V24.1568C104.429 23.4973 104.961 22.9627 105.617 22.9627ZM103.989 18.5325C103.989 18.0071 104.174 17.5496 104.545 17.16C104.916 16.7704 105.386 16.5757 105.956 16.5757C106.525 16.5757 107.004 16.7614 107.392 17.1328C107.78 17.5043 107.974 17.9708 107.974 18.5325C107.974 19.0942 107.78 19.5608 107.392 19.9322C107.004 20.3037 106.525 20.4894 105.956 20.4894C105.386 20.4894 104.916 20.2946 104.545 19.9051C104.174 19.5155 103.989 19.058 103.989 18.5325ZM117.37 25.944C116.739 25.4785 116.179 25.2457 115.687 25.2457C115.273 25.2457 114.868 25.3544 114.471 25.5718C114.074 25.7893 113.876 26.1426 113.876 26.6318C113.876 27.0304 114.039 27.3203 114.367 27.5016C114.695 27.6827 115.109 27.8367 115.609 27.9635C116.11 28.0904 116.649 28.2219 117.227 28.3578C117.805 28.4936 118.344 28.7019 118.845 28.9829C119.345 29.2636 119.759 29.6486 120.087 30.1379C120.415 30.6271 120.579 31.2975 120.579 32.1492C120.579 32.9283 120.419 33.585 120.1 34.1196C119.781 34.6541 119.367 35.0844 118.857 35.4106C118.349 35.7368 117.775 35.9722 117.136 36.1173C116.498 36.2622 115.86 36.3346 115.221 36.3346C114.255 36.3346 113.366 36.1897 112.555 35.8998C112.238 35.7863 111.857 35.5582 111.412 35.2154C110.891 34.814 110.794 34.0643 111.193 33.5411C111.227 33.4965 111.264 33.4544 111.304 33.4152L111.626 33.098C112.071 32.6603 112.776 32.6415 113.243 33.0547C113.431 33.2213 113.595 33.3499 113.733 33.4401C114.19 33.7391 114.747 33.8886 115.403 33.8886C115.627 33.8886 115.86 33.8614 116.101 33.807C116.343 33.7527 116.567 33.6621 116.774 33.5352C116.982 33.4084 117.149 33.2499 117.279 33.0596C117.408 32.8694 117.473 32.6474 117.473 32.3937C117.473 31.9408 117.309 31.6056 116.982 31.3881C116.654 31.1707 116.239 30.9941 115.739 30.8582C115.239 30.7223 114.699 30.5955 114.121 30.4777C113.543 30.3599 113.004 30.1696 112.504 29.9069C112.003 29.6442 111.589 29.2772 111.261 28.8061C110.934 28.335 110.769 27.6827 110.769 26.8493C110.769 26.1245 110.912 25.4948 111.196 24.9603C111.481 24.4258 111.857 23.9864 112.323 23.6421C112.788 23.2979 113.323 23.0442 113.927 22.8812C114.531 22.7181 115.144 22.6365 115.765 22.6365C116.593 22.6365 117.413 22.786 118.224 23.0849C118.517 23.1933 118.845 23.3937 119.206 23.6864C119.718 24.1001 119.798 24.8518 119.386 25.3654C119.352 25.4081 119.315 25.4484 119.275 25.486L118.888 25.8517C118.47 26.2465 117.832 26.2853 117.37 25.944ZM124.433 22.9627H125.007C125.663 22.9627 126.196 23.4973 126.196 24.1568V25.0011C126.523 24.385 126.967 23.8369 127.58 23.3568C128.193 22.8766 129.017 22.6365 130.052 22.6365C132.002 22.6365 133.295 23.4428 133.934 25.0554C134.383 24.222 134.943 23.6105 135.616 23.2209C136.289 22.8313 137.091 22.6365 138.023 22.6365C138.852 22.6365 139.55 22.7815 140.12 23.0714C140.689 23.3613 141.151 23.7599 141.504 24.2672C141.858 24.7746 142.113 25.368 142.268 26.0475C142.423 26.727 142.5 27.4562 142.5 28.2354V34.8143C142.5 35.474 141.968 36.0086 141.312 36.0086H140.584C139.927 36.0086 139.395 35.474 139.395 34.8143V28.6159C139.395 28.2172 139.361 27.8322 139.291 27.4607C139.223 27.0892 139.101 26.7632 138.929 26.4823C138.757 26.2015 138.523 25.9796 138.231 25.8165C137.937 25.6534 137.558 25.5718 137.091 25.5718C136.608 25.5718 136.199 25.6669 135.862 25.8572C135.526 26.0475 135.25 26.3011 135.034 26.6182C134.818 26.9353 134.663 27.2977 134.568 27.7053C134.473 28.1131 134.426 28.5253 134.426 28.942V34.8143C134.426 35.474 133.894 36.0086 133.238 36.0086H132.508C131.852 36.0086 131.32 35.474 131.32 34.8143V28.2354C131.32 27.42 131.156 26.7722 130.828 26.2921C130.5 25.8119 129.957 25.5718 129.198 25.5718C128.68 25.5718 128.244 25.6625 127.89 25.8436C127.536 26.0248 127.244 26.2694 127.011 26.5774C126.777 26.8855 126.609 27.2388 126.506 27.6375C126.402 28.036 126.35 28.4527 126.35 28.8877V34.8143C126.35 35.474 125.818 36.0086 125.162 36.0086H124.433C123.777 36.0086 123.245 35.474 123.245 34.8143V24.1568C123.245 23.4973 123.777 22.9627 124.433 22.9627ZM147.52 22.9627H148.249C148.905 22.9627 149.437 23.4973 149.437 24.1568V34.8143C149.437 35.474 148.905 36.0086 148.249 36.0086H147.52C146.864 36.0086 146.332 35.474 146.332 34.8143V24.1568C146.332 23.4973 146.864 22.9627 147.52 22.9627ZM145.892 18.5325C145.892 18.0071 146.077 17.5496 146.448 17.16C146.818 16.7704 147.289 16.5757 147.859 16.5757C148.428 16.5757 148.907 16.7614 149.295 17.1328C149.683 17.5043 149.877 17.9708 149.877 18.5325C149.877 19.0942 149.683 19.5608 149.295 19.9322C148.907 20.3037 148.428 20.4894 147.859 20.4894C147.289 20.4894 146.818 20.2946 146.448 19.9051C146.077 19.5155 145.892 19.058 145.892 18.5325ZM161.085 26.1622C160.957 26.0617 160.845 25.9827 160.748 25.9251C160.351 25.6896 159.945 25.5718 159.531 25.5718C158.962 25.5718 158.453 25.6806 158.004 25.898C157.556 26.1154 157.171 26.4053 156.852 26.7677C156.533 27.1302 156.292 27.5468 156.127 28.0179C155.964 28.4891 155.881 28.9783 155.881 29.4856C155.881 29.9929 155.964 30.4822 156.127 30.9532C156.292 31.4243 156.533 31.841 156.852 32.2034C157.171 32.5658 157.556 32.8558 158.004 33.0732C158.453 33.2906 158.962 33.3994 159.531 33.3994C160.014 33.3994 160.463 33.2951 160.877 33.0867C160.961 33.0447 161.051 32.9874 161.15 32.9149C161.644 32.5499 162.334 32.6227 162.742 33.0831L163.213 33.6161C163.629 34.085 163.588 34.8037 163.12 35.2212C163.064 35.2724 163.001 35.3177 162.934 35.3563C162.529 35.5917 162.119 35.782 161.705 35.9269C161.291 36.0719 160.894 36.1761 160.515 36.2396C160.135 36.3029 159.808 36.3346 159.531 36.3346C158.6 36.3346 157.719 36.1716 156.891 35.8454C156.063 35.5193 155.347 35.0572 154.743 34.4592C154.139 33.8614 153.66 33.1411 153.306 32.2986C152.953 31.456 152.776 30.5184 152.776 29.4856C152.776 28.4527 152.953 27.5152 153.306 26.6726C153.66 25.83 154.139 25.1098 154.743 24.5119C155.347 23.9139 156.063 23.4519 156.891 23.1257C157.719 22.7996 158.6 22.6365 159.531 22.6365C160.325 22.6365 161.123 22.7951 161.925 23.1122C162.231 23.233 162.592 23.449 163.007 23.7603C163.534 24.1544 163.642 24.9026 163.25 25.4313C163.221 25.4706 163.19 25.508 163.156 25.5433L162.676 26.0473C162.253 26.4908 161.566 26.5404 161.085 26.1622Z" fill="black"/>
<path fill-rule="evenodd" clip-rule="evenodd" d="M68.7328 30.5773L66.3249 28.1527C66.1341 27.9605 66.0269 27.7 66.0269 27.4286V24.4609C66.0269 21.7191 65.7434 20.7247 65.2109 19.7223C64.6786 18.7199 63.8972 17.9332 62.9017 17.3971C61.9061 16.8611 60.9187 16.5755 58.1955 16.5755H54.3009C54.1881 16.5755 54.0967 16.4838 54.0967 16.3705C54.0967 16.3162 54.1182 16.2641 54.1564 16.2257L56.5643 13.8011C56.7558 13.6083 57.0157 13.5 57.2867 13.5H58.6395C62.2704 13.5 63.5871 13.8807 64.9145 14.5954C66.2419 15.3102 67.2836 16.3591 67.9934 17.6957C68.7034 19.0322 69.0815 20.358 69.0815 24.0139V30.4324C69.0815 30.5456 68.9901 30.6374 68.8773 30.6374C68.8232 30.6374 68.7711 30.6158 68.7328 30.5773Z" fill="#D56044"/>
<path fill-rule="evenodd" clip-rule="evenodd" d="M52.1201 45.9565L54.5281 43.5317C54.7195 43.339 54.9795 43.2307 55.2505 43.2307H58.1956C60.9187 43.2307 61.9063 42.9452 62.9017 42.4091C63.8973 41.873 64.6785 41.0864 65.2111 40.0839C65.7434 39.0815 66.027 38.0872 66.027 35.3453V31.4242C66.027 31.3109 66.1184 31.2192 66.231 31.2192C66.2853 31.2192 66.3373 31.2408 66.3755 31.2794L68.7834 33.7038C68.9743 33.8961 69.0815 34.1565 69.0815 34.428V35.7924C69.0815 39.4483 68.7034 40.774 67.9935 42.1106C67.2837 43.4471 66.2419 44.4961 64.9145 45.2109C63.5871 45.9256 62.2705 46.3063 58.6396 46.3063H52.2645C52.1517 46.3063 52.0605 46.2145 52.0605 46.1012C52.0605 46.0469 52.082 45.9949 52.1201 45.9565Z" fill="#EECA5E"/>
<path fill-rule="evenodd" clip-rule="evenodd" d="M36.8485 29.2289L39.2564 31.6534C39.4473 31.8456 39.5545 32.1061 39.5545 32.3776V35.3452C39.5545 38.0872 39.8381 39.0814 40.3705 40.0838C40.9029 41.0862 41.6842 41.8729 42.6797 42.4089C43.6753 42.9452 44.6628 43.2306 47.3859 43.2306H51.2806C51.3934 43.2306 51.4848 43.3223 51.4848 43.4356C51.4848 43.4899 51.4633 43.5421 51.4251 43.5804L49.017 46.0051C48.8256 46.1979 48.5657 46.3062 48.2948 46.3062H46.9419C43.311 46.3062 41.9944 45.9256 40.667 45.2107C39.3396 44.4959 38.2978 43.4471 37.5879 42.1105C36.878 40.774 36.5 39.4482 36.5 35.7924V29.3738C36.5 29.2606 36.5914 29.1688 36.7041 29.1688C36.7583 29.1688 36.8102 29.1904 36.8485 29.2289Z" fill="#7F8FE6"/>
<path fill-rule="evenodd" clip-rule="evenodd" d="M53.4615 13.8499L51.0533 16.2745C50.8619 16.4672 50.6022 16.5756 50.3312 16.5756H47.3859C44.6628 16.5756 43.6753 16.8611 42.6797 17.3971C41.6842 17.9332 40.9029 18.7199 40.3705 19.7223C39.8381 20.7247 39.5545 21.7191 39.5545 24.4609V28.382C39.5545 28.4953 39.4632 28.5871 39.3504 28.5871C39.2962 28.5871 39.2443 28.5654 39.206 28.527L36.7981 26.1024C36.6072 25.9102 36.5 25.6498 36.5 25.3782V24.0139C36.5 20.358 36.878 19.0322 37.5879 17.6957C38.2978 16.3592 39.3396 15.3102 40.667 14.5954C41.9944 13.8807 43.311 13.5 46.9419 13.5H53.317C53.4297 13.5 53.5211 13.5918 53.5211 13.705C53.5211 13.7593 53.4996 13.8114 53.4615 13.8499Z" fill="#CB82E2"/>
<path fill-rule="evenodd" clip-rule="evenodd" d="M63.6453 25.4695L60.3618 22.3098C60.1446 22.0911 59.8906 21.9322 59.6198 21.8329C59.3959 21.7477 59.1532 21.701 58.8997 21.701H49.2077C49.0949 21.701 49.0036 21.6092 49.0036 21.496C49.0036 21.4416 49.025 21.3895 49.0632 21.3511L51.4735 18.9262C51.6649 18.7336 51.9247 18.6255 52.1956 18.6255H59.9178C62.1671 18.6255 63.9905 20.4614 63.9905 22.7262V25.3215C63.9905 25.4347 63.8992 25.5265 63.7865 25.5265C63.7339 25.5265 63.6833 25.5061 63.6453 25.4695Z" fill="#D56044"/>
<path fill-rule="evenodd" clip-rule="evenodd" d="M57.1926 40.8357L60.3317 37.5285C60.5489 37.3099 60.7069 37.0541 60.8054 36.7813C60.89 36.5559 60.9363 36.3116 60.9363 36.0563V26.2979C60.9363 26.1847 61.0276 26.0929 61.1404 26.0929C61.1946 26.0929 61.2466 26.1146 61.2849 26.1531L63.693 28.58C63.8838 28.7721 63.9908 29.0324 63.9908 29.3038V37.0814C63.9908 39.3463 62.1675 41.1823 59.9181 41.1823H57.3403C57.2276 41.1823 57.1362 41.0905 57.1362 40.9772C57.1362 40.9245 57.1563 40.8738 57.1926 40.8357Z" fill="#EECA5E"/>
<path fill-rule="evenodd" clip-rule="evenodd" d="M41.9361 34.3363L45.2196 37.4961C45.4368 37.7147 45.6909 37.8737 45.9616 37.973C46.1855 38.0581 46.4282 38.1048 46.6817 38.1048H56.3737C56.4865 38.1048 56.5779 38.1966 56.5779 38.3099C56.5779 38.3642 56.5564 38.4162 56.5181 38.4547L54.1079 40.8796C53.9164 41.0722 53.6567 41.1803 53.3858 41.1803H45.6636C43.4142 41.1803 41.5908 39.3444 41.5908 37.0796V34.4843C41.5908 34.3712 41.6822 34.2793 41.7949 34.2793C41.8475 34.2793 41.8981 34.2997 41.9361 34.3363Z" fill="#7F8FE6"/>
<path fill-rule="evenodd" clip-rule="evenodd" d="M48.3891 18.972L45.2499 22.2792C45.0328 22.4979 44.8749 22.7537 44.7764 23.0263C44.6917 23.2517 44.6454 23.4961 44.6454 23.7514V33.5098C44.6454 33.6231 44.554 33.7148 44.4413 33.7148C44.3871 33.7148 44.335 33.6931 44.2968 33.6545L41.8886 31.2277C41.6979 31.0356 41.5908 30.7753 41.5908 30.5039V22.7262C41.5908 20.4614 43.4142 18.6255 45.6636 18.6255H48.2414C48.3541 18.6255 48.4455 18.7172 48.4455 18.8305C48.4455 18.8832 48.4253 18.9339 48.3891 18.972Z" fill="#CB82E2"/>
</g>
<defs>
<clipPath id="clip0_3_184">
<rect width="127" height="33" fill="white" transform="translate(36.5 13.5)"/>
</clipPath>
</defs>
</svg>
