<svg width="200" height="60" viewBox="0 0 200 60" fill="none" xmlns="http://www.w3.org/2000/svg">
<g clip-path="url(#clip0_46_126)">
<path d="M65.4129 26.6461C64.4036 22.6854 70.9433 18.0896 75.6176 17.3886C79.9747 16.7351 81.0158 18.9645 79.3696 21.3282C77.7235 23.6921 75.0917 24.6776 73.1813 25.3338C73.3795 22.1821 73.5988 20.6511 70.8984 21.1754C67.9839 21.742 67.2705 22.5536 67.2705 22.5536C68.988 26.3405 67.4977 32.8416 67.6351 37.4585C67.7144 38.589 67.7144 40.4336 69.2733 40.4336C71.0516 40.4336 75.2872 39.1213 75.2872 39.1213C72.6529 36.6705 72.7929 33.8166 73.0043 27.2602C74.8487 29.1654 79.3458 26.9967 80.4767 26.1771C81.5627 28.4645 81.2695 33.1947 81.0131 35.9485C80.7832 38.444 81.2774 40.8948 86.7416 39.5825C85.5896 38.531 85.4919 34.8548 85.9516 31.5055C86.4114 28.1561 87.8277 23.5287 92.0738 23.1017C92.7344 23.0359 93.292 23.0438 93.7464 22.8698C94.51 22.5774 94.9856 21.9819 95.2023 20.954C95.5115 19.481 94.5285 17.6574 92.6102 17.6574C89.9679 17.6574 87.2516 19.4942 85.6742 28.0929C85.7428 27.2575 85.6213 26.3563 85.6425 25.8451C85.6847 24.6961 84.9026 24.2375 83.9646 24.3351C82.9103 24.4458 82.4003 24.6144 82.4003 24.6144C83.8325 23.4971 85.838 20.9831 86.2555 17.1198C86.7284 12.748 84.7547 8.92166 79.0948 9.57256C73.406 10.2261 68.589 13.6756 65.6613 16.4399C61.4627 20.3981 60.2367 26.4511 65.4129 26.6461Z" fill="#4B32B0"/>
<path d="M89.439 25.6343C90.8685 30.3249 89.2197 34.6388 89.5738 38.0725C89.7931 40.1965 90.8262 39.954 92.3165 39.904C93.3893 39.8671 94.655 39.572 95.8915 39.1871C93.0167 35.2027 94.0128 32.3699 94.7289 28.6384C95.0143 27.1495 95.408 24.6539 93.4791 24.6539C91.4392 24.6566 89.439 25.6343 89.439 25.6343Z" fill="#4B32B0"/>
<path d="M102.027 23.7974C101.052 23.1018 98.1112 24.0873 97.0147 25.9926C96.4888 27.0203 96.1665 30.006 96.2272 32.997C96.2959 36.2252 97.3449 39.8907 99.5592 40.3493C101.25 40.6997 104.035 39.2767 105.962 33.2157C107.1 29.6318 107.497 24.0899 107.415 23.5655C109.629 23.5814 111.444 23.1465 112.573 22.406C113.593 21.7341 114.351 21.0489 114.351 19.7365C114.351 18.6087 113.41 17.5625 112.026 17.5256C110.181 18.8168 108.865 19.4309 107.219 19.8236C106.627 15.6862 105.134 15.3146 103.686 16.2343C102.238 17.154 101.995 21.1807 104.783 22.9753C105.333 28.359 103.512 34.4464 101.929 34.7046C100.458 34.9418 100.13 28.1982 102.027 23.7974Z" fill="#4B32B0"/>
<path d="M112.99 32.665C113.154 33.5478 113.646 34.32 114.198 34.3305C115.057 34.3516 115.672 33.1736 116 32.4858C116 31.5003 116.024 27.3998 115.366 25.4313C116.156 25.1678 118.063 24.7251 118.79 24.7251C119.712 24.7251 121.144 24.6935 121.007 26.2377C120.801 28.5936 120.32 35.6771 119.858 40.6814C124.73 42.1387 128.992 45.4405 137.617 42.5023C138.753 45.5723 137.321 48.8558 133.896 49.1167C129.597 49.4461 125.108 45.9334 119.149 43.7013C117.538 47.4117 114.375 49.3986 111.611 49.6332C108.369 49.9072 106.147 47.9546 106.147 45.4748C106.147 40.568 110.887 39.369 115.973 39.7801C115.973 39.7801 116.024 37.3505 115.973 35.577C115.051 37.8748 113.831 39.4402 110.993 38.618C107.965 37.7431 107.108 32.6202 108.403 25.6843C108.58 25.094 109.719 24.1954 113.582 24.8094C113.458 25.3813 112.441 29.711 112.99 32.665ZM115.577 42.6683C112.879 42.2414 110.573 42.7342 110.573 44.9978C110.573 46.8188 112.425 48.2155 113.897 46.442C115.374 44.6684 115.572 42.7974 115.577 42.6683Z" fill="#4B32B0"/>
</g>
<defs>
<clipPath id="clip0_46_126">
<rect width="76" height="41" fill="white" transform="translate(62 9.5)"/>
</clipPath>
</defs>
</svg>
