<svg width="200" height="66" viewBox="0 0 200 66" fill="none" xmlns="http://www.w3.org/2000/svg">
<path d="M68.9245 36.9617C70.4622 36.9617 71.7088 35.7151 71.7088 34.1774C71.7088 32.6397 70.4622 31.3931 68.9245 31.3931C67.3868 31.3931 66.1402 32.6397 66.1402 34.1774C66.1402 35.7151 67.3868 36.9617 68.9245 36.9617Z" fill="#00D8FF"/>
<path fill-rule="evenodd" clip-rule="evenodd" d="M68.9246 28.5164C72.6628 28.5164 76.1356 29.0528 78.754 29.9542C81.9089 31.0404 83.8486 32.6867 83.8486 34.1774C83.8486 35.7309 81.7929 37.4798 78.405 38.6023C75.8436 39.4509 72.4731 39.8939 68.9246 39.8939C65.2863 39.8939 61.8411 39.4781 59.2509 38.593C55.9738 37.4729 54 35.7013 54 34.1774C54 32.6988 55.852 31.0652 58.9625 29.9807C61.5908 29.0644 65.1493 28.5164 68.9241 28.5164H68.9246Z" stroke="#00D8FF" stroke-width="1.66272"/>
<path fill-rule="evenodd" clip-rule="evenodd" d="M63.9965 31.3632C65.864 28.1249 68.0635 25.3845 70.1525 23.5665C72.6695 21.3762 75.0647 20.5184 76.356 21.263C77.7018 22.0391 78.1899 24.6937 77.4697 28.1892C76.9258 30.832 75.6253 33.973 73.8525 37.047C72.0348 40.1988 69.9536 42.9756 67.893 44.7767C65.2856 47.0559 62.7648 47.8808 61.4447 47.1195C60.1638 46.3813 59.6739 43.9604 60.2884 40.724C60.8076 37.9895 62.1106 34.6332 63.9959 31.3632L63.9965 31.3632Z" stroke="#00D8FF" stroke-width="1.66272"/>
<path fill-rule="evenodd" clip-rule="evenodd" d="M64.0011 37.0553C62.1283 33.8206 60.8532 30.5459 60.3209 27.8281C59.6802 24.5536 60.1332 22.05 61.4234 21.3032C62.7678 20.5249 65.3114 21.4277 67.9802 23.7974C69.9979 25.5889 72.0699 28.2838 73.8478 31.355C75.6707 34.5037 77.0368 37.6937 77.5683 40.3783C78.2408 43.7757 77.6965 46.3715 76.3777 47.1349C75.098 47.8757 72.7563 47.0914 70.2593 44.9427C68.1496 43.1272 65.8925 40.3221 64.0011 37.0552V37.0553Z" stroke="#00D8FF" stroke-width="1.66272"/>
<path fill-rule="evenodd" clip-rule="evenodd" d="M105.082 42.7328L100.396 35.6532C102.764 35.4442 104.898 33.7282 104.898 30.5932C104.898 27.4032 102.635 25.3616 99.4588 25.3616H92.4848V42.7196H94.6452V35.8226H98.1069L102.531 42.7196L105.082 42.7328ZM99.2003 33.9361H94.6463V27.2998H99.2003C101.257 27.2998 102.662 28.6528 102.662 30.6053C102.662 32.5578 101.256 33.9383 99.2003 33.9383V33.9361ZM113.124 43.0441C115.181 43.0441 116.872 42.3676 118.121 41.1191L117.184 39.8431C116.194 40.8584 114.738 41.4304 113.307 41.4304C110.601 41.4304 108.934 39.4526 108.778 37.0854H118.953V36.5904C118.953 32.8174 116.715 29.8496 112.914 29.8496C109.323 29.8496 106.721 32.791 106.721 36.4342C106.721 40.3645 109.402 43.0342 113.123 43.0342L113.124 43.0441ZM117.029 35.6521H108.779C108.884 33.7271 110.209 31.4611 112.891 31.4611C115.754 31.4611 117.003 33.7777 117.029 35.6521ZM131.917 42.7317V34.0912C131.917 31.0464 129.706 29.8485 127.05 29.8485C124.993 29.8485 123.381 30.525 122.028 31.9308L122.938 33.2838C124.057 32.087 125.281 31.5403 126.791 31.5403C128.612 31.5403 129.966 32.5028 129.966 34.1946V36.4584C128.951 35.2869 127.52 34.7402 125.802 34.7402C123.668 34.7402 121.402 36.0679 121.402 38.8784C121.402 41.6108 123.665 43.043 125.802 43.043C127.493 43.043 128.926 42.4446 129.966 41.2995V42.7295L131.917 42.7317ZM126.505 41.6383C124.683 41.6383 123.407 40.4943 123.407 38.9059C123.407 37.2922 124.683 36.1471 126.505 36.1471C127.884 36.1471 129.211 36.6674 129.966 37.7091V40.0774C129.212 41.118 127.884 41.6394 126.505 41.6394V41.6383ZM141.355 43.0441C143.645 43.0441 144.998 42.1069 145.961 40.8584L144.66 39.6616C143.827 40.7803 142.76 41.3006 141.47 41.3006C138.789 41.3006 137.125 39.2183 137.125 36.4342C137.125 33.6501 138.79 31.5942 141.47 31.5942C142.771 31.5942 143.838 32.0892 144.66 33.2332L145.961 32.0364C144.999 30.7868 143.645 29.8507 141.355 29.8507C137.607 29.8507 135.082 32.714 135.082 36.4353C135.082 40.183 137.607 43.0353 141.355 43.0353V43.0441ZM151.871 43.0441C153.015 43.0441 153.719 42.7053 154.214 42.2378L153.642 40.7803C153.381 41.0663 152.872 41.3006 152.314 41.3006C151.456 41.3006 151.038 40.6241 151.038 39.6869V31.8791H153.59V30.162H151.038V26.7267H149.085V30.162H147.003V31.8802H149.085V40.1049C149.085 41.9793 150.023 43.0463 151.871 43.0463V43.0441Z" fill="#00D8FF"/>
</svg>
