<svg width="200" height="104" viewBox="0 0 200 104" fill="none" xmlns="http://www.w3.org/2000/svg">
<g clip-path="url(#clip0_1_37)">
<path fill-rule="evenodd" clip-rule="evenodd" d="M40.8994 43.3957C41.8995 42.3404 43.2915 41.6868 44.8294 41.6868C46.8798 41.6868 48.6568 42.8415 49.6137 44.562C50.463 44.1771 51.383 43.9784 52.3134 43.9789C56.0041 43.9789 59 47.0388 59 50.8146C59 54.5904 56.0041 57.6503 52.3134 57.6503C51.8623 57.6503 51.4226 57.6044 50.992 57.5176C50.1547 59.0302 48.5543 60.0579 46.7317 60.0579C45.9896 60.0593 45.2571 59.8887 44.5901 59.559C43.7415 61.5797 41.7651 63 39.4641 63C37.0606 63 35.0215 61.4643 34.2355 59.305C33.8857 59.3798 33.5291 59.4175 33.1716 59.4172C30.3124 59.4172 28 57.0386 28 54.1172C28 52.1543 29.0412 50.4453 30.5858 49.5216C30.2581 48.7564 30.0894 47.9309 30.0903 47.0967C30.0903 43.7251 32.79 41 36.1162 41C38.0641 41 39.807 41.9411 40.9005 43.4017" fill="#00A1E0"/>
<path fill-rule="evenodd" clip-rule="evenodd" d="M64.0326 56.4122C63.9424 56.6528 64.0648 56.7029 64.0938 56.7455C64.3633 56.945 64.6371 57.0896 64.9114 57.2519C66.3778 58.0446 67.7597 58.2765 69.205 58.2765C72.1483 58.2765 73.9786 56.6749 73.9786 54.0972V54.0465C73.9786 51.6629 71.9109 50.7947 69.9804 50.1745L69.7277 50.091C68.2666 49.6067 67.006 49.185 67.006 48.2035V48.1534C67.006 47.3121 67.7444 46.692 68.8838 46.692C70.1497 46.692 71.6583 47.1228 72.6236 47.668C72.6236 47.668 72.9095 47.8568 73.0134 47.5747C73.0698 47.4221 73.5619 46.0756 73.6147 45.9246C73.6706 45.7666 73.5725 45.6474 73.4717 45.5859C72.364 44.8957 70.8344 44.4265 69.252 44.4265L68.9582 44.4276C66.2628 44.4276 64.3797 46.0939 64.3797 48.4775V48.5287C64.3797 51.0417 66.4579 51.8614 68.399 52.4276L68.7113 52.5268C70.1249 52.9712 71.3487 53.3573 71.3487 54.3711V54.4218C71.3487 55.3547 70.5522 56.0504 69.2757 56.0504C68.7793 56.0504 67.1975 56.0418 65.4832 54.9341C65.2759 54.8106 65.1577 54.7216 64.9979 54.6219C64.9135 54.5696 64.7025 54.4752 64.6107 54.7578L64.0305 56.4079M107.125 56.4079C107.035 56.6484 107.157 56.6986 107.187 56.7412C107.456 56.9407 107.731 57.0852 108.005 57.2476C109.471 58.0403 110.853 58.2722 112.298 58.2722C115.242 58.2722 117.072 56.6705 117.072 54.0929V54.0422C117.072 51.6586 115.01 50.7904 113.074 50.1702L112.821 50.0866C111.36 49.6024 110.099 49.1807 110.099 48.1992V48.1491C110.099 47.3078 110.838 46.6876 111.977 46.6876C113.243 46.6876 114.746 47.1185 115.717 47.6637C115.717 47.6637 116.003 47.8525 116.107 47.5704C116.163 47.4178 116.656 46.0713 116.703 45.9203C116.76 45.7623 116.661 45.6431 116.561 45.5816C115.453 44.8913 113.924 44.4222 112.341 44.4222L112.047 44.4233C109.351 44.4233 107.468 46.0896 107.468 48.4732V48.5244C107.468 51.0374 109.547 51.8571 111.488 52.4233L111.799 52.5225C113.218 52.9669 114.437 53.353 114.437 54.3668V54.4175C114.437 55.3504 113.64 56.0461 112.364 56.0461C111.866 56.0461 110.28 56.0375 108.571 54.9298C108.364 54.8063 108.243 54.7211 108.086 54.6176C108.032 54.583 107.784 54.4838 107.699 54.7535L107.119 56.4036M136.552 51.3561C136.552 52.8121 136.286 53.9607 135.766 54.775C135.247 55.5785 134.463 55.9722 133.371 55.9722C132.279 55.9722 131.498 55.5818 130.987 54.7804C130.471 53.9715 130.211 52.8175 130.211 51.3615C130.211 49.9054 130.473 48.7622 130.987 47.9587C131.497 47.1606 132.274 46.7777 133.371 46.7777C134.468 46.7777 135.249 47.1644 135.766 47.9587C136.289 48.7622 136.552 49.9054 136.552 51.3615M139.01 48.6597C138.768 47.8239 138.393 47.0905 137.891 46.4757C137.39 45.8609 136.757 45.3648 136.003 45.0089C135.254 44.6503 134.368 44.4696 133.366 44.4696C132.364 44.4696 131.483 44.6514 130.728 45.0089C129.979 45.367 129.341 45.8609 128.84 46.4757C128.34 47.0905 127.964 47.8239 127.722 48.6597C127.482 49.4902 127.36 50.3962 127.36 51.3615C127.36 52.3268 127.482 53.2327 127.722 54.0632C127.963 54.8991 128.339 55.6325 128.84 56.2472C129.342 56.862 129.979 57.3527 130.728 57.7032C131.483 58.0527 132.369 58.2306 133.366 58.2306C134.363 58.2306 135.249 58.0527 135.998 57.7032C136.747 57.3538 137.385 56.862 137.886 56.2472C138.387 55.6325 138.762 54.8991 139.004 54.0632C139.244 53.2327 139.366 52.3268 139.366 51.3615C139.366 50.4016 139.244 49.4902 139.004 48.6597M159.207 55.5624C159.126 55.3181 158.893 55.4103 158.893 55.4103C158.536 55.55 158.154 55.6794 157.748 55.7441C157.339 55.8099 156.883 55.8428 156.403 55.8428C155.216 55.8428 154.267 55.4809 153.592 54.7642C152.911 54.047 152.531 52.893 152.537 51.3291C152.54 49.9054 152.877 48.8377 153.481 48.018C154.077 47.2091 154.995 46.7885 156.208 46.7885C157.221 46.7885 157.996 46.9087 158.808 47.1687C158.808 47.1687 159.001 47.2544 159.093 46.995C159.309 46.3856 159.468 45.9488 159.7 45.2802C159.765 45.0887 159.605 45.0078 159.546 44.9846C159.228 44.8574 158.476 44.6487 157.906 44.5608C157.373 44.4777 156.756 44.4346 156.06 44.4346C155.026 44.4346 154.108 44.6152 153.322 44.9733C152.536 45.3308 151.872 45.8254 151.344 46.4401C150.817 47.0549 150.416 47.7883 150.147 48.6241C149.88 49.4546 149.746 50.366 149.746 51.3313C149.746 53.4128 150.294 55.1007 151.381 56.3357C152.468 57.576 154.103 58.2015 156.234 58.2015C157.494 58.2015 158.787 57.9411 159.715 57.5652C159.715 57.5652 159.892 57.4778 159.815 57.2664L159.209 55.5624M163.508 49.954C163.625 49.1451 163.842 48.471 164.183 47.9479C164.693 47.1498 165.47 46.713 166.562 46.713C167.654 46.713 168.376 47.1519 168.893 47.9479C169.236 48.4737 169.386 49.172 169.442 49.954L163.481 49.9529L163.508 49.954ZM171.789 48.1744C171.58 47.3709 171.061 46.5566 170.723 46.1845C170.185 45.5967 169.663 45.1815 169.141 44.955C168.387 44.6272 167.576 44.459 166.757 44.4605C165.718 44.4605 164.774 44.64 164.009 45.0051C163.244 45.3729 162.6 45.8733 162.094 46.4989C161.588 47.1244 161.208 47.8632 160.965 48.7099C160.723 49.5458 160.6 50.4625 160.6 51.4224C160.6 52.4039 160.727 53.3152 160.977 54.1403C161.23 54.9708 161.637 55.6988 162.185 56.3028C162.734 56.9121 163.435 57.3867 164.279 57.721C165.118 58.0527 166.136 58.2247 167.302 58.2209C169.707 58.2129 170.973 57.6655 171.49 57.3689C171.582 57.3161 171.669 57.2249 171.561 56.9623L171.017 55.4038C170.934 55.1714 170.704 55.2555 170.704 55.2555C170.108 55.4831 169.264 55.8918 167.286 55.8865C165.994 55.8843 165.039 55.4944 164.438 54.8834C163.826 54.2579 163.52 53.3465 163.472 52.0523L171.806 52.0587C171.806 52.0587 172.026 52.0566 172.048 51.8376C172.057 51.747 172.334 50.0904 171.8 48.176L171.789 48.1744ZM96.8878 49.954C97.0055 49.1451 97.2228 48.471 97.563 47.9479C98.0736 47.1498 98.85 46.713 99.9419 46.713C101.034 46.713 101.756 47.1519 102.273 47.9479C102.616 48.4737 102.765 49.172 102.822 49.954L96.8615 49.9529L96.8878 49.954ZM105.169 48.1744C104.96 47.3709 104.441 46.5566 104.104 46.1845C103.566 45.5967 103.043 45.1815 102.521 44.955C101.767 44.6272 100.956 44.459 100.137 44.4605C99.0979 44.4605 98.1538 44.64 97.3889 45.0051C96.6241 45.3729 95.9806 45.8733 95.4742 46.4989C94.9694 47.1244 94.588 47.8632 94.3454 48.7099C94.1033 49.5458 93.9815 50.4625 93.9815 51.4224C93.9815 52.4039 94.1075 53.3152 94.3591 54.1403C94.6113 54.9708 95.0185 55.6988 95.5618 56.3028C96.1103 56.9121 96.8119 57.3867 97.6558 57.721C98.4945 58.0527 99.5073 58.2247 100.678 58.2209C103.084 58.2129 104.349 57.6655 104.866 57.3689C104.958 57.3161 105.046 57.2249 104.937 56.9623L104.393 55.4038C104.309 55.1714 104.079 55.2555 104.079 55.2555C103.483 55.4831 102.639 55.8918 100.661 55.8865C99.3743 55.8843 98.4143 55.4944 97.813 54.8834C97.2011 54.2579 96.8952 53.3465 96.8477 52.0523L105.182 52.0587C105.182 52.0587 105.401 52.0566 105.424 51.8376C105.433 51.747 105.709 50.0904 105.175 48.176L105.169 48.1744ZM78.901 55.5084C78.5745 55.242 78.5291 55.1768 78.421 55.0037C78.2559 54.7432 78.1715 54.3727 78.1715 53.8982C78.1715 53.154 78.4142 52.6147 78.9153 52.2534C78.91 52.2545 79.6326 51.6171 81.3311 51.6386C82.0871 51.6525 82.8413 51.7183 83.5887 51.8355V55.702H83.5897C83.5897 55.702 82.5348 55.9345 81.3427 56.0078C79.6495 56.1119 78.9005 55.5095 78.9058 55.5111L78.901 55.5084ZM82.2135 49.5226C81.876 49.4972 81.4382 49.4848 80.916 49.4848C80.2039 49.4848 79.5129 49.5754 78.8694 49.7534C78.2206 49.9324 77.6351 50.2096 77.134 50.5785C76.6315 50.9449 76.2182 51.4247 75.9261 51.9805C75.6312 52.5414 75.4809 53.1993 75.4809 53.9435C75.4809 54.6985 75.6091 55.351 75.8622 55.8848C76.1103 56.4144 76.4838 56.8722 76.9488 57.2168C77.4114 57.5609 77.9827 57.8154 78.642 57.9664C79.2961 58.119 80.0346 58.1961 80.8469 58.1961C81.7014 58.1961 82.5506 58.1228 83.3735 57.981C84.0743 57.8574 84.7725 57.7186 85.4675 57.5647C85.745 57.4994 86.053 57.4137 86.053 57.4137C86.2587 57.3603 86.2429 57.1354 86.2429 57.1354L86.2382 49.37C86.2382 47.6659 85.793 46.3986 84.9142 45.6167C84.0386 44.8347 82.7568 44.4411 81.0953 44.4411C80.4729 44.4411 79.4654 44.5273 78.8641 44.6508C78.8641 44.6508 77.0496 45.0111 76.3006 45.6107C76.3006 45.6107 76.136 45.7143 76.2257 45.9488L76.8164 47.5666C76.8898 47.7764 77.0897 47.7047 77.0897 47.7047C77.0897 47.7047 77.1524 47.6794 77.2263 47.6346C78.8245 46.7448 80.85 46.7718 80.85 46.7718C81.7467 46.7718 82.443 46.9578 82.9072 47.3218C83.3613 47.6783 83.5929 48.217 83.5929 49.3495V49.7092C82.8808 49.6035 82.2215 49.5425 82.2215 49.5425L82.2135 49.5226ZM149.203 45.1383C149.215 45.1099 149.221 45.0793 149.221 45.0483C149.221 45.0173 149.215 44.9866 149.204 44.9581C149.192 44.9295 149.175 44.9036 149.153 44.8819C149.131 44.8603 149.106 44.8433 149.078 44.832C148.936 44.777 148.228 44.6244 147.685 44.5899C146.641 44.523 146.06 44.7031 145.538 44.9426C145.022 45.1804 144.452 45.5627 144.135 46.0049L144.134 44.9695C144.134 44.8272 144.035 44.7123 143.895 44.7123H141.764C141.626 44.7123 141.526 44.8272 141.526 44.9695V57.6423C141.526 57.7108 141.553 57.7764 141.6 57.8248C141.647 57.8732 141.711 57.9005 141.778 57.9006H143.962C144.029 57.9005 144.093 57.8732 144.14 57.8248C144.188 57.7763 144.214 57.7107 144.214 57.6423V51.279C144.214 50.4269 144.306 49.5803 144.489 49.0464C144.669 48.5185 144.915 48.0973 145.217 47.7953C145.505 47.5036 145.858 47.2872 146.246 47.1644C146.609 47.0577 146.986 47.0036 147.364 47.0036C147.799 47.0036 148.276 47.118 148.276 47.118C148.437 47.1363 148.526 47.036 148.58 46.8882C148.723 46.4994 149.129 45.3352 149.208 45.1033" fill="#00A1E0"/>
<path fill-rule="evenodd" clip-rule="evenodd" d="M128.807 39.2894C128.537 39.206 128.262 39.1394 127.984 39.0899C127.611 39.0261 127.232 38.9962 126.854 39.0004C125.349 39.0004 124.162 39.435 123.33 40.2936C122.502 41.1456 121.94 42.4436 121.657 44.1515L121.556 44.7279H119.667C119.667 44.7279 119.436 44.7182 119.388 44.9755L119.078 46.7443C119.056 46.9136 119.127 47.0193 119.349 47.0182H121.187L119.322 57.665C119.176 58.5224 119.008 59.2278 118.823 59.7622C118.641 60.2896 118.463 60.6849 118.243 60.9717C118.031 61.2495 117.829 61.4538 117.481 61.573C117.194 61.6717 116.864 61.717 116.502 61.717C116.301 61.717 116.033 61.6825 115.835 61.6421C115.637 61.6021 115.535 61.5568 115.386 61.4932C115.386 61.4932 115.171 61.4091 115.086 61.6302C115.017 61.8108 114.527 63.1887 114.469 63.3591C114.409 63.5273 114.492 63.66 114.597 63.6983C114.841 63.7878 115.023 63.845 115.357 63.9253C115.82 64.0369 116.21 64.0439 116.576 64.0439C117.342 64.0439 118.039 63.9339 118.618 63.7204C119.2 63.5052 119.707 63.1304 120.156 62.623C120.64 62.0756 120.945 61.5024 121.237 60.7204C121.526 59.9455 121.771 58.9835 121.968 57.8623L123.843 47.0182H126.583C126.583 47.0182 126.815 47.0268 126.863 46.7707L127.173 45.0019C127.194 44.8326 127.124 44.7269 126.901 44.7279H124.241C124.254 44.6665 124.375 43.7098 124.68 42.8092C124.811 42.4247 125.056 42.1147 125.264 41.9016C125.458 41.6988 125.697 41.5467 125.961 41.4584C126.25 41.367 126.551 41.3226 126.854 41.3268C127.104 41.3268 127.35 41.3575 127.537 41.3974C127.795 41.4535 127.895 41.4832 127.963 41.5037C128.234 41.5883 128.27 41.5064 128.324 41.3721L128.96 39.586C129.025 39.3941 128.866 39.3132 128.807 39.2894M91.6337 57.6876C91.6337 57.83 91.5345 57.9459 91.3953 57.9459H89.1889C89.0491 57.9459 88.9499 57.83 88.9499 57.6876V39.5316C88.9499 39.3897 89.0491 39.2749 89.1889 39.2749H91.3953C91.5345 39.2749 91.6337 39.3897 91.6337 39.5316V57.6876" fill="#00A1E0"/>
</g>
<defs>
<clipPath id="clip0_1_37">
<rect width="144" height="103" fill="white" transform="translate(28 0.5)"/>
</clipPath>
</defs>
</svg>
