<svg width="200" height="60" viewBox="0 0 200 60" fill="none" xmlns="http://www.w3.org/2000/svg">
<g clip-path="url(#clip0_1_53)">
<path d="M65.7961 19.4398C65.7763 19.2637 65.6184 19.1854 65.5 19.1658C65.3816 19.1462 63.0132 19.1267 63.0132 19.1267C63.0132 19.1267 61.0197 17.2084 60.8224 17.0127C60.625 16.8169 60.25 16.8756 60.0921 16.9148C60.0921 16.9148 59.7171 17.0322 59.0855 17.228C58.9868 16.8952 58.8289 16.4842 58.6118 16.0731C57.9013 14.7225 56.875 14.0178 55.6118 14.0178C55.5329 14.0178 55.4342 14.0178 55.3553 14.0374C55.3158 13.9983 55.2763 13.9591 55.2368 13.9004C54.6842 13.3132 53.9934 13.0391 53.1645 13.0587C51.5461 13.0979 49.9474 14.2527 48.625 16.3276C47.6974 17.7761 47.0066 19.5964 46.8092 21.0058C44.9539 21.5734 43.6513 21.9649 43.6316 21.9845C42.7039 22.2781 42.6645 22.2976 42.5461 23.1785C42.4474 23.8244 40 42.635 40 42.635L60.5461 46.1583L69.4474 43.966C69.4474 43.966 65.8158 19.5964 65.7961 19.4398ZM58.0592 17.5412C57.5855 17.6782 57.0526 17.8543 56.4605 18.0305C56.4408 17.228 56.3421 16.0927 55.9671 15.114C57.2105 15.3489 57.8026 16.7191 58.0592 17.5412ZM55.3947 18.3633C54.3092 18.696 53.1447 19.0484 51.9605 19.4203C52.2961 18.1675 52.9276 16.9148 53.6974 16.0927C53.9934 15.7795 54.3882 15.4467 54.8618 15.251C55.3158 16.171 55.3947 17.4824 55.3947 18.3633V18.3633ZM53.1842 14.1353C53.5592 14.1353 53.875 14.2136 54.1513 14.3898C53.7171 14.6051 53.2829 14.9378 52.8882 15.3685C51.8618 16.4646 51.0724 18.148 50.7566 19.7922C49.7697 20.0858 48.8224 20.3794 47.9342 20.6534C48.5263 18.0697 50.6974 14.2136 53.1842 14.1353V14.1353Z" fill="#95BF47"/>
<path d="M65.5 19.1658C65.3816 19.1462 63.0132 19.1267 63.0132 19.1267C63.0132 19.1267 61.0197 17.2084 60.8224 17.0127C60.7434 16.9344 60.6447 16.8952 60.5461 16.8952V46.1583L69.4474 43.966C69.4474 43.966 65.8158 19.616 65.7961 19.4398C65.7566 19.2637 65.6184 19.1854 65.5 19.1658Z" fill="#5E8E3E"/>
<path d="M81.5066 31.8889C80.4803 31.3408 79.9474 30.871 79.9474 30.2251C79.9474 29.403 80.6776 28.8745 81.8421 28.8745C83.1842 28.8745 84.3684 29.4226 84.3684 29.4226L85.3158 26.5648C85.3158 26.5648 84.4474 25.8993 81.9013 25.8993C78.3487 25.8993 75.8816 27.9154 75.8816 30.7536C75.8816 32.3587 77.0263 33.5918 78.5658 34.4727C79.8092 35.1773 80.2434 35.6667 80.2434 36.4105C80.2434 37.1739 79.6316 37.7807 78.4671 37.7807C76.75 37.7807 75.1316 36.8998 75.1316 36.8998L74.125 39.7576C74.125 39.7576 75.625 40.7559 78.1316 40.7559C81.7829 40.7559 84.4079 38.9747 84.4079 35.7645C84.4276 34.0225 83.1053 32.7893 81.5066 31.8889ZM96.0724 25.8601C94.2763 25.8601 92.8553 26.7018 91.7697 27.9937L91.7105 27.9741L93.2697 19.8705H89.204L85.2566 40.4819H89.3224L90.6842 33.4352C91.2171 30.7732 92.5987 29.129 93.9013 29.129C94.8092 29.129 95.1645 29.7358 95.1645 30.6166C95.1645 31.1647 95.1053 31.8497 94.9868 32.3978L93.4474 40.4623H97.5132L99.1118 32.1238C99.2895 31.2429 99.4079 30.186 99.4079 29.5009C99.4079 27.2499 98.1842 25.8601 96.0724 25.8601ZM108.605 25.8601C103.711 25.8601 100.474 30.2447 100.474 35.1382C100.474 38.27 102.428 40.7755 106.079 40.7755C110.875 40.7755 114.132 36.5083 114.132 31.4974C114.112 28.62 112.395 25.8601 108.605 25.8601ZM106.592 37.6828C105.211 37.6828 104.618 36.5083 104.618 35.0599C104.618 32.7501 105.822 28.9724 108.033 28.9724C109.474 28.9724 109.947 30.2055 109.947 31.3995C109.947 33.8854 108.743 37.6828 106.592 37.6828ZM124.513 25.8601C121.77 25.8601 120.211 28.2481 120.211 28.2481H120.151L120.388 26.0754H116.796C116.618 27.5435 116.303 29.7553 115.967 31.4191L113.145 46.1779H117.211L118.336 40.2078H118.414C118.414 40.2078 119.243 40.7363 120.803 40.7363C125.579 40.7363 128.697 35.882 128.697 30.9689C128.717 28.2873 127.493 25.8601 124.513 25.8601ZM120.625 37.7415C119.559 37.7415 118.947 37.1543 118.947 37.1543L119.618 33.3765C120.092 30.871 121.414 29.1877 122.836 29.1877C124.079 29.1877 124.454 30.323 124.454 31.4191C124.454 34.0225 122.895 37.7415 120.625 37.7415ZM134.52 20.0858C133.217 20.0858 132.191 21.1036 132.191 22.4347C132.191 23.6287 132.961 24.4508 134.105 24.4508H134.164C135.428 24.4508 136.533 23.6091 136.553 22.1019C136.553 20.9275 135.763 20.0858 134.52 20.0858ZM128.836 40.4819H132.901L135.664 26.1929H131.559L128.836 40.4819ZM146.007 26.1537H143.184L143.322 25.4882C143.559 24.118 144.388 22.8849 145.73 22.8849C146.461 22.8849 147.033 23.0806 147.033 23.0806L147.822 19.9292C147.822 19.9292 147.112 19.5769 145.612 19.5769C144.171 19.5769 142.73 19.9879 141.625 20.9275C140.243 22.1019 139.592 23.7853 139.257 25.4882L139.138 26.1537H137.243L136.651 29.1877H138.546L136.395 40.4819H140.461L142.612 29.1877H145.414L146.007 26.1537ZM155.796 26.1929C155.796 26.1929 153.25 32.5544 152.105 36.019H152.046C151.967 34.9033 151.039 26.1929 151.039 26.1929H146.776L149.224 39.327C149.283 39.6206 149.243 39.7968 149.145 39.9925C148.671 40.8929 147.882 41.7738 146.934 42.4197C146.164 42.9678 145.316 43.3201 144.625 43.555L145.75 46.9804C146.579 46.8043 148.276 46.1387 149.737 44.7881C151.592 43.0656 153.309 40.4036 155.066 36.7824L160.039 26.1929H155.796Z" fill="black"/>
<path fill-rule="evenodd" clip-rule="evenodd" d="M54.5855 27.5435L55.6118 23.707C55.6118 23.707 54.7237 23.2568 52.9474 23.4134C48.4276 23.707 46.375 26.8388 46.5724 29.9315C46.7053 31.986 47.9326 32.8504 49.0084 33.6079C49.8491 34.2 50.5973 34.7269 50.6579 35.7058C50.6974 36.2539 50.3618 37.0173 49.4145 37.076C47.9737 37.1543 46.1579 35.8037 46.1579 35.8037L45.4671 38.7202C45.4671 38.7202 47.2632 40.6189 50.5395 40.4231C53.2632 40.247 55.1579 38.0938 54.9605 34.9229C54.8054 32.497 53.085 31.4018 51.7224 30.5343C50.8311 29.9669 50.0929 29.497 50.046 28.8158C50.0263 28.483 50.046 27.2303 52.0592 27.1128C53.4408 27.015 54.5855 27.5435 54.5855 27.5435Z" fill="white"/>
</g>
<defs>
<clipPath id="clip0_1_53">
<rect width="120" height="34" fill="white" transform="translate(40 13)"/>
</clipPath>
</defs>
</svg>
