<svg width="200" height="60" viewBox="0 0 200 60" fill="none" xmlns="http://www.w3.org/2000/svg">
<g clip-path="url(#clip0_3_192)">
<path fill-rule="evenodd" clip-rule="evenodd" d="M65.6608 38.4557C64.4064 38.4557 63.199 38.2894 62.0387 37.9569C60.8784 37.6243 59.9141 37.1642 59.1458 36.5765L60.3218 34.0013C61.9211 35.0994 63.7165 35.6485 65.7078 35.6485C66.7427 35.6485 67.5385 35.4822 68.0951 35.1497C68.6518 34.8171 68.9301 34.357 68.9301 33.7693C68.9301 33.2434 68.6753 32.8335 68.1657 32.5397C67.6561 32.2458 66.7506 31.9597 65.4491 31.6813C63.9909 31.3874 62.8266 31.0317 61.9564 30.6141C61.0862 30.1965 60.4511 29.6822 60.0513 29.0713C59.6514 28.4603 59.4515 27.7063 59.4515 26.8093C59.4515 25.8194 59.7298 24.9378 60.2865 24.1645C60.8431 23.3911 61.6232 22.7841 62.6267 22.3433C63.6302 21.9025 64.7906 21.6821 66.1077 21.6821C67.2837 21.6821 68.4166 21.8522 69.5063 22.1925C70.5961 22.5327 71.4624 22.989 72.1053 23.5613L70.9293 26.1365C69.4083 25.0383 67.809 24.4893 66.1312 24.4893C65.1747 24.4893 64.4221 24.671 63.8733 25.0345C63.3245 25.3979 63.0501 25.8967 63.0501 26.5309C63.0501 26.9021 63.1559 27.2075 63.3676 27.4473C63.5793 27.687 63.9321 27.8997 64.426 28.0853C64.9199 28.2709 65.6216 28.4642 66.531 28.6653C68.6635 29.1293 70.1962 29.7247 71.1292 30.4517C72.0622 31.1786 72.5286 32.1839 72.5286 33.4677C72.5286 35.0143 71.925 36.2323 70.7176 37.1217C69.5102 38.011 67.8246 38.4557 65.6608 38.4557ZM81.0429 35.8573C81.4035 35.8573 81.7798 35.8341 82.1718 35.7877L81.9837 38.3397C81.529 38.4015 81.0742 38.4325 80.6195 38.4325C78.8634 38.4325 77.5815 38.0535 76.774 37.2957C75.9665 36.5378 75.5627 35.3855 75.5627 33.8389V29.4773H73.3754V26.8557H75.5627V23.5149H79.1142V26.8557H82.0072V29.4773H79.1142V33.8157C79.1142 35.1767 79.7571 35.8573 81.0429 35.8573ZM89.2984 38.4325C88.0754 38.4325 87.0013 38.1889 86.0762 37.7017C85.151 37.2145 84.4376 36.5262 83.9358 35.6369C83.4341 34.7475 83.1832 33.6997 83.1832 32.4933C83.1832 31.2869 83.4341 30.239 83.9358 29.3497C84.4376 28.4603 85.151 27.7759 86.0762 27.2965C87.0013 26.817 88.0754 26.5773 89.2984 26.5773C90.5214 26.5773 91.5955 26.817 92.5206 27.2965C93.4458 27.7759 94.1592 28.4603 94.661 29.3497C95.1627 30.239 95.4136 31.2869 95.4136 32.4933C95.4136 33.6997 95.1627 34.7475 94.661 35.6369C94.1592 36.5262 93.4458 37.2145 92.5206 37.7017C91.5955 38.1889 90.5214 38.4325 89.2984 38.4325ZM89.2984 35.7645C91.0232 35.7645 91.8856 34.6741 91.8856 32.4933C91.8856 31.3951 91.6622 30.5754 91.2153 30.0341C90.7684 29.4927 90.1294 29.2221 89.2984 29.2221C87.5736 29.2221 86.7112 30.3125 86.7112 32.4933C86.7112 34.6741 87.5736 35.7645 89.2984 35.7645ZM105.245 29.4541L103.246 29.6629C102.258 29.7557 101.56 30.0302 101.152 30.4865C100.745 30.9427 100.541 31.5498 100.541 32.3077V38.2469H96.9894V26.8557H100.4V28.7813C100.98 27.4666 102.18 26.7474 103.998 26.6237L105.033 26.5541L105.245 29.4541ZM115.564 26.8789H119.045L112.083 42.4229H108.485L110.696 37.6205L105.945 26.8789H109.637L112.554 34.1173L115.564 26.8789ZM127.277 26.5773C128.281 26.5773 129.167 26.817 129.935 27.2965C130.703 27.7759 131.303 28.4603 131.734 29.3497C132.166 30.239 132.381 31.2714 132.381 32.4469C132.381 33.6223 132.166 34.6625 131.734 35.5673C131.303 36.4721 130.699 37.1758 129.923 37.6785C129.147 38.1811 128.265 38.4325 127.277 38.4325C126.478 38.4325 125.756 38.2662 125.113 37.9337C124.471 37.6011 123.977 37.141 123.632 36.5533V38.2469H120.127V21.8909H123.679V28.3869C124.024 27.8146 124.514 27.3699 125.149 27.0529C125.784 26.7358 126.493 26.5773 127.277 26.5773ZM126.242 35.7645C127.073 35.7645 127.716 35.4745 128.171 34.8945C128.626 34.3145 128.853 33.4986 128.853 32.4469C128.853 31.4106 128.626 30.6179 128.171 30.0689C127.716 29.5198 127.073 29.2453 126.242 29.2453C125.411 29.2453 124.769 29.5275 124.314 30.0921C123.859 30.6566 123.632 31.457 123.632 32.4933C123.632 33.545 123.859 34.3531 124.314 34.9177C124.769 35.4822 125.411 35.7645 126.242 35.7645ZM140.096 38.4325C138.873 38.4325 137.799 38.1889 136.873 37.7017C135.948 37.2145 135.235 36.5262 134.733 35.6369C134.231 34.7475 133.981 33.6997 133.981 32.4933C133.981 31.2869 134.231 30.239 134.733 29.3497C135.235 28.4603 135.948 27.7759 136.873 27.2965C137.799 26.817 138.873 26.5773 140.096 26.5773C141.319 26.5773 142.393 26.817 143.318 27.2965C144.243 27.7759 144.957 28.4603 145.458 29.3497C145.96 30.239 146.211 31.2869 146.211 32.4933C146.211 33.6997 145.96 34.7475 145.458 35.6369C144.957 36.5262 144.243 37.2145 143.318 37.7017C142.393 38.1889 141.319 38.4325 140.096 38.4325ZM140.096 35.7645C141.821 35.7645 142.683 34.6741 142.683 32.4933C142.683 31.3951 142.459 30.5754 142.013 30.0341C141.566 29.4927 140.927 29.2221 140.096 29.2221C138.371 29.2221 137.509 30.3125 137.509 32.4933C137.509 34.6741 138.371 35.7645 140.096 35.7645ZM153.337 38.4325C152.114 38.4325 151.04 38.1889 150.115 37.7017C149.19 37.2145 148.477 36.5262 147.975 35.6369C147.473 34.7475 147.222 33.6997 147.222 32.4933C147.222 31.2869 147.473 30.239 147.975 29.3497C148.477 28.4603 149.19 27.7759 150.115 27.2965C151.04 26.817 152.114 26.5773 153.337 26.5773C154.561 26.5773 155.635 26.817 156.56 27.2965C157.485 27.7759 158.198 28.4603 158.7 29.3497C159.202 30.239 159.453 31.2869 159.453 32.4933C159.453 33.6997 159.202 34.7475 158.7 35.6369C158.198 36.5262 157.485 37.2145 156.56 37.7017C155.635 38.1889 154.561 38.4325 153.337 38.4325ZM153.337 35.7645C155.062 35.7645 155.925 34.6741 155.925 32.4933C155.925 31.3951 155.701 30.5754 155.254 30.0341C154.807 29.4927 154.169 29.2221 153.337 29.2221C151.613 29.2221 150.75 30.3125 150.75 32.4933C150.75 34.6741 151.613 35.7645 153.337 35.7645ZM173.5 38.2469H169.149L164.727 33.1661V38.2469H161.176V21.8909H164.727V31.7277L168.984 26.8789H173.218L168.373 32.3077L173.5 38.2469Z" fill="#333333"/>
<mask id="mask0_3_192" style="mask-type:alpha" maskUnits="userSpaceOnUse" x="26" y="15" width="25" height="30">
<path d="M27.4118 42.2225L26.5011 18.2853C26.471 17.4947 27.0855 16.8248 27.886 16.7754L48.5271 15.5029C49.3419 15.4527 50.0437 16.0635 50.0946 16.8671C50.0965 16.8974 50.0975 16.9278 50.0975 16.9581V43.042C50.0975 43.8472 49.4357 44.5 48.6193 44.5C48.5972 44.5 48.5751 44.4995 48.553 44.4985L28.8226 43.6244C28.0542 43.5904 27.4407 42.9807 27.4118 42.2225Z" fill="white"/>
</mask>
<g mask="url(#mask0_3_192)">
<path d="M27.4118 42.2225L26.5011 18.2853C26.471 17.4947 27.0855 16.8248 27.886 16.7754L48.5271 15.5029C49.3419 15.4527 50.0437 16.0635 50.0946 16.8671C50.0965 16.8974 50.0975 16.9278 50.0975 16.9581V43.042C50.0975 43.8472 49.4357 44.5 48.6193 44.5C48.5972 44.5 48.5751 44.4995 48.553 44.4985L28.8226 43.6244C28.0542 43.5904 27.4407 42.9807 27.4118 42.2225Z" fill="#FF4785"/>
<path d="M43.9249 19.0646L44.0659 15.7197L46.9006 15.5L47.0227 18.9494C47.027 19.0695 46.9317 19.1702 46.81 19.1744C46.7579 19.1762 46.7069 19.1597 46.6659 19.1279L45.5728 18.2785L44.2785 19.2469C44.1815 19.3195 44.0432 19.3007 43.9696 19.205C43.9386 19.1648 43.9228 19.1151 43.9249 19.0646Z" fill="white"/>
<path d="M40.2997 26.4305C40.2997 26.9978 44.1734 26.7259 44.6934 26.3274C44.6934 22.4645 42.5921 20.4346 38.7442 20.4346C34.8962 20.4346 32.7403 22.4961 32.7403 25.5883C32.7403 30.974 40.1087 31.077 40.1087 34.0147C40.1087 34.8393 39.6993 35.3289 38.7987 35.3289C37.6253 35.3289 37.1613 34.7377 37.2159 32.7278C37.2159 32.2917 32.7403 32.1558 32.6038 32.7278C32.2564 37.5986 35.3329 39.0035 38.8533 39.0035C42.2646 39.0035 44.939 37.21 44.939 33.9631C44.939 28.1909 37.4615 28.3456 37.4615 25.4852C37.4615 24.3256 38.3348 24.171 38.8533 24.171C39.3991 24.171 40.3816 24.2659 40.2997 26.4305Z" fill="white"/>
</g>
</g>
<defs>
<clipPath id="clip0_3_192">
<rect width="147" height="29" fill="white" transform="translate(26.5 15.5)"/>
</clipPath>
</defs>
</svg>
