<svg width="200" height="60" viewBox="0 0 200 60" fill="none" xmlns="http://www.w3.org/2000/svg">
<g clip-path="url(#clip0_3_239)">
<path fill-rule="evenodd" clip-rule="evenodd" d="M132.5 30.467C132.5 30.9159 132.464 31.8877 132.464 32.1307H123.635C123.834 34.3364 125.387 34.9723 127.138 34.9723C128.925 34.9723 130.334 34.5794 131.562 33.9435V37.6828C130.333 38.3928 128.709 38.8977 126.56 38.8977C122.154 38.8977 119.085 36.0561 119.085 30.4299C119.085 25.6826 121.685 21.9062 125.982 21.9062C130.261 21.9062 132.5 25.6817 132.5 30.467ZM123.581 28.6912H128.238C128.238 26.5795 127.065 25.7015 125.963 25.7015C124.826 25.7015 123.581 26.5795 123.581 28.6912V28.6912ZM112.115 21.9071C115.275 21.9071 118.254 24.8606 118.272 30.2809C118.272 36.2061 115.329 38.8977 112.097 38.8977C110.509 38.8977 109.551 38.2067 108.901 37.7208L108.883 43.0101L104.37 44V22.2052H108.342L108.577 23.3649C109.21 22.7661 110.347 21.9062 112.116 21.9062L112.115 21.9071ZM111.032 34.7853C112.693 34.7853 113.813 32.9156 113.813 30.411C113.813 27.9632 112.675 26.0556 111.032 26.0556C110.003 26.0556 109.353 26.4295 108.884 26.9724L108.901 33.9065C109.335 34.3924 109.966 34.7853 111.032 34.7853V34.7853ZM98.1586 20.8034V16.9908L102.691 16V19.7935L98.1586 20.8034V20.8034ZM98.1586 22.2241H102.691V38.5806H98.1586V22.2232V22.2241ZM93.3014 23.6079C94.3664 21.5892 96.4793 22.0001 97.0572 22.2241V26.5235C96.4971 26.3175 94.6914 26.0556 93.6264 27.4954V38.5797H89.1121V22.2232H93.0121L93.3014 23.607V23.6079ZM84.2736 18.1677L84.2558 22.2232H87.6865V26.2065H84.2558V32.8415C84.2558 35.6081 87.1086 34.7483 87.6865 34.5053V38.2997C87.0899 38.6366 86.0072 38.9166 84.5255 38.9166C81.8543 38.9166 79.85 36.8799 79.85 34.1133L79.8678 19.1414L84.2736 18.1677ZM72.0678 26.9724C72.0678 29.0652 78.9471 28.0743 78.9649 33.6445C78.9649 36.991 76.3827 38.9157 72.6279 38.9157C71.075 38.9157 69.3779 38.5978 67.6986 37.8499V33.4015C69.2149 34.2614 71.1293 34.8973 72.6279 34.8973C73.6385 34.8973 74.3615 34.6173 74.3615 33.7574C74.3615 31.5328 67.5 32.3556 67.5 27.1964C67.5 23.8879 69.9371 21.9062 73.6029 21.9062C75.1014 21.9062 76.5822 22.1501 78.0808 22.7661V27.1594C76.7086 26.3925 74.975 25.9626 73.602 25.9626C72.6457 25.9626 72.0678 26.2426 72.0678 26.9724V26.9724Z" fill="#635BFF"/>
</g>
<defs>
<clipPath id="clip0_3_239">
<rect width="65" height="28" fill="white" transform="translate(67.5 16)"/>
</clipPath>
</defs>
</svg>
