<svg width="200" height="60" viewBox="0 0 200 60" fill="none" xmlns="http://www.w3.org/2000/svg">
<path d="M124.569 19.0161H118.21C118.066 19.0161 117.921 19.1606 117.921 19.3051V22.9905C117.921 23.135 118.066 23.2796 118.21 23.2796H124.569C124.714 23.2796 124.858 23.135 124.858 22.9905V19.3051C124.931 19.1606 124.786 19.0161 124.569 19.0161ZM124.497 24.508H112.212C112.068 24.508 111.851 24.6526 111.779 24.7971L110.189 30.7949L110.117 31.0839L108.238 24.6526C108.166 24.508 108.021 24.3635 107.804 24.3635H103.035C102.89 24.3635 102.674 24.508 102.601 24.6526L100.795 30.6503L100.723 30.9394L100.65 30.7949L99.9277 27.8321L99.1329 24.8693C99.0606 24.7248 98.9161 24.5803 98.6993 24.5803H89.0884V19.3774C89.0884 19.2329 88.8716 19.0161 88.6548 19.0884L82.5848 20.9672C82.368 21.0394 82.2957 21.1117 82.2957 21.2562V24.508H80.706C80.5614 24.508 80.4169 24.6526 80.4169 24.7971V29.4219C80.4169 29.5664 80.5614 29.7109 80.706 29.7109H82.2957V35.3474C82.2957 39.3218 84.4636 41.2006 88.438 41.2006C90.1001 41.2006 91.6898 40.8393 92.7738 40.2612V35.4919C92.7738 35.2751 92.557 35.2029 92.4125 35.2029C91.7621 35.4919 91.2563 35.5642 90.6782 35.5642C89.5942 35.5642 89.0161 35.1306 89.0161 33.9021V29.7832H92.4847C92.6292 29.7832 92.7738 29.6387 92.7738 29.4941V25.592L97.3263 40.6948C97.3986 40.8393 97.5431 40.9838 97.7599 40.9838H102.818C102.963 40.9838 103.18 40.8393 103.252 40.6948L105.42 33.9744L106.504 37.443L107.515 40.6225C107.588 40.7671 107.732 40.9116 107.949 40.9116H113.007C113.152 40.9116 113.369 40.7671 113.441 40.6225L118.066 25.4474V40.6225C118.066 40.7671 118.21 40.9116 118.355 40.9116H124.497C124.641 40.9116 124.786 40.7671 124.786 40.6225V24.8693C124.786 24.6526 124.641 24.508 124.497 24.508ZM132.59 19.0161H126.448C126.303 19.0161 126.159 19.1606 126.159 19.3051V40.6225C126.159 40.7671 126.303 40.9116 126.448 40.9116H132.59C132.735 40.9116 132.879 40.7671 132.879 40.6225V19.3051C132.879 19.1606 132.735 19.0161 132.59 19.0161ZM140.756 19.0161H134.397C134.252 19.0161 134.108 19.1606 134.108 19.3051V22.9905C134.108 23.135 134.252 23.2796 134.397 23.2796H140.756C140.9 23.2796 141.045 23.135 141.045 22.9905V19.3051C141.117 19.1606 140.973 19.0161 140.756 19.0161ZM140.684 24.508H134.541C134.397 24.508 134.252 24.6526 134.252 24.7971V40.6225C134.252 40.7671 134.397 40.9116 134.541 40.9116H140.684C140.828 40.9116 140.973 40.7671 140.973 40.6225V24.8693C140.973 24.6526 140.828 24.508 140.684 24.508ZM150.873 24.1467C145.453 24.1467 141.623 28.1211 141.623 32.7459V32.8182C141.623 37.443 145.453 41.3452 150.8 41.3452C156.22 41.3452 160.05 37.3707 160.05 32.7459V32.6737C160.05 28.0489 156.22 24.1467 150.873 24.1467ZM153.474 32.7459C153.474 34.3357 152.39 35.5642 150.873 35.5642C149.355 35.5642 148.199 34.2634 148.199 32.6737V32.6014C148.199 31.0116 149.283 29.7832 150.8 29.7832C152.318 29.7832 153.474 31.0839 153.474 32.7459ZM58.0156 11.9344C48.0434 11.9344 39.95 20.0278 39.95 30C39.95 39.9722 48.0434 48.0656 58.0156 48.0656C67.9878 48.0656 76.0812 39.9722 76.0812 30C76.0812 20.0278 67.9878 11.9344 58.0156 11.9344ZM58.0156 43.2962C50.6448 43.2962 44.7193 37.3707 44.7193 30C44.7193 22.6292 50.6448 16.7037 58.0156 16.7037C65.3863 16.7037 71.3119 22.6292 71.3119 30C71.3119 37.3707 65.3863 43.2962 58.0156 43.2962Z" fill="#F12E45"/>
<path d="M62.4958 29.2773C64.5711 29.2773 66.2535 27.595 66.2535 25.5197C66.2535 23.4444 64.5711 21.762 62.4958 21.762C60.4206 21.762 58.7382 23.4444 58.7382 25.5197C58.7382 27.595 60.4206 29.2773 62.4958 29.2773Z" fill="#F12E45"/>
<path d="M62.4958 38.2379C64.5711 38.2379 66.2535 36.5555 66.2535 34.4802C66.2535 32.4049 64.5711 30.7226 62.4958 30.7226C60.4206 30.7226 58.7382 32.4049 58.7382 34.4802C58.7382 36.5555 60.4206 38.2379 62.4958 38.2379Z" fill="#F12E45"/>
<path d="M53.5353 38.2379C55.6106 38.2379 57.293 36.5555 57.293 34.4802C57.293 32.4049 55.6106 30.7226 53.5353 30.7226C51.46 30.7226 49.7777 32.4049 49.7777 34.4802C49.7777 36.5555 51.46 38.2379 53.5353 38.2379Z" fill="#F12E45"/>
<path d="M53.5353 29.2773C55.6106 29.2773 57.293 27.595 57.293 25.5197C57.293 23.4444 55.6106 21.762 53.5353 21.762C51.46 21.762 49.7777 23.4444 49.7777 25.5197C49.7777 27.595 51.46 29.2773 53.5353 29.2773Z" fill="#F12E45"/>
</svg>
