<svg width="200" height="60" viewBox="0 0 200 60" fill="none" xmlns="http://www.w3.org/2000/svg">
<g clip-path="url(#clip0_46_123)">
<path fill-rule="evenodd" clip-rule="evenodd" d="M50.18 18.88L54.302 30.245L58.621 18.88H64.752L54.268 45.198H48.204L51.305 37.043L43.852 18.88H50.18ZM114.937 18.477C120.473 18.477 124.51 22.773 124.51 28.653C124.51 34.533 120.473 38.83 114.937 38.83C112.894 38.83 111.174 38.289 109.861 37.246L109.776 37.177L109.703 37.1171V45.192H103.795V18.88H109.019V20.847L109.049 20.813C110.336 19.345 112.283 18.533 114.689 18.48L114.816 18.478H114.937V18.477ZM75.513 18.477C81.609 18.477 85.93 22.689 85.93 28.653C85.93 34.592 81.595 38.83 75.513 38.83C69.397 38.83 65.055 34.598 65.055 28.653C65.055 22.683 69.382 18.477 75.513 18.477V18.477ZM95.773 14.55V18.88H100.633V23.983H95.773V31.0271C95.773 32.603 96.538 33.4701 97.932 33.5231L98 33.524L98.069 33.525C99.014 33.525 99.73 33.277 100.371 32.661L100.431 32.602L100.59 32.439H100.634V38.0681L100.453 38.1551C99.48 38.6201 98.881 38.83 97.223 38.83C92.539 38.83 89.967 36.28 89.867 31.518L89.865 31.373V31.2281L89.864 23.983H87.726V18.88H90.025V14.55H95.772H95.773ZM137.42 18.477C143.516 18.477 147.837 22.689 147.837 28.653C147.837 34.592 143.502 38.83 137.42 38.83C131.304 38.83 126.962 34.598 126.962 28.653C126.962 22.683 131.29 18.477 137.42 18.477V18.477ZM152.653 32.355C154.441 32.355 155.89 33.805 155.89 35.592C155.89 37.38 154.44 38.83 152.653 38.83C150.865 38.83 149.416 37.38 149.416 35.592C149.416 33.804 150.866 32.355 152.653 32.355V32.355ZM114.052 23.782C111.39 23.782 109.582 25.752 109.582 28.653C109.582 31.555 111.39 33.525 114.052 33.525C116.748 33.525 118.562 31.561 118.562 28.653C118.562 25.746 116.748 23.782 114.052 23.782V23.782ZM75.512 23.782C72.842 23.782 71.003 25.762 71.003 28.653C71.003 31.545 72.842 33.525 75.513 33.525C78.149 33.525 79.983 31.539 79.983 28.653C79.983 25.768 78.149 23.782 75.513 23.782H75.512ZM137.42 23.782C134.75 23.782 132.91 25.762 132.91 28.653C132.91 31.545 134.75 33.525 137.42 33.525C140.056 33.525 141.89 31.539 141.89 28.653C141.89 25.768 140.056 23.782 137.42 23.782V23.782Z" fill="#0042E4"/>
</g>
<defs>
<clipPath id="clip0_46_123">
<rect width="113" height="32" fill="white" transform="translate(43.5 14)"/>
</clipPath>
</defs>
</svg>
