<svg width="200" height="60" viewBox="0 0 200 60" fill="none" xmlns="http://www.w3.org/2000/svg">
<path fill-rule="evenodd" clip-rule="evenodd" d="M122.602 31.2503C122.292 29.2743 121.081 27.8172 118.659 27.8172C116.41 27.8172 114.855 29.0652 114.439 31.2503H122.601H122.602ZM119.039 37.1452C120.941 37.1452 122.325 36.3817 123.154 35.5852L125.196 37.7337C123.846 39.0869 121.98 40.0937 119.075 40.0937C114.094 40.0937 110.877 36.8674 110.877 32.4983C110.877 28.1634 114.267 24.904 118.624 24.904C123.57 24.904 126.369 28.5794 126.128 33.6777H114.44C114.855 35.7932 116.376 37.1452 119.041 37.1452H119.039ZM42.2897 36.9874L51.287 28.0617H42.5003V25.2594H55.4546V28.1177L46.4573 37.0446H55.5751V39.8446H42.2897V36.9863V36.9874ZM69.2384 31.2503C68.9283 29.2743 67.7174 27.8172 65.2955 27.8172C63.0467 27.8172 61.4918 29.0652 61.0753 31.2503H69.2372H69.2384ZM65.6757 37.1452C67.577 37.1452 68.9611 36.3817 69.7906 35.5852L71.8322 37.7337C70.4821 39.0869 68.6171 40.0937 65.7108 40.0937C60.7301 40.0937 57.515 36.8674 57.515 32.4983C57.515 28.1634 60.9044 24.904 65.2615 24.904C70.2071 24.904 73.0081 28.5794 72.7659 33.6777H61.0776C61.493 35.7932 63.014 37.1452 65.6781 37.1452H65.6769H65.6757ZM104.846 32.4777C104.846 29.8823 102.837 27.752 100.108 27.752C97.4377 27.752 95.368 29.824 95.368 32.4777C95.368 35.1314 97.4377 37.2332 100.108 37.2332C102.837 37.2332 104.846 35.1029 104.846 32.4777V32.4777ZM92.1902 32.5074C92.1902 27.8389 95.7576 24.9223 99.6864 24.9223C101.667 24.9223 103.556 25.768 104.665 27.1109V18.5029H107.844V39.8023H104.665V37.7886C103.526 39.2194 101.637 40.0926 99.656 40.0926C95.8488 40.0926 92.1891 37.1474 92.1891 32.5074V32.5063L92.1902 32.5074ZM128.198 36.7086L131.076 35.2503C131.457 35.9133 132.016 36.462 132.693 36.8373C133.37 37.2125 134.138 37.4 134.916 37.3794C136.716 37.3794 137.646 36.4766 137.646 35.4549C137.646 34.288 135.907 34.0252 134.017 33.6457C131.466 33.12 128.829 32.3029 128.829 29.3006C128.829 26.9943 131.076 24.864 134.617 24.8937C137.405 24.8937 139.476 25.9737 140.645 27.7246L137.975 29.1532C137.284 28.1314 136.116 27.4892 134.616 27.4892C132.906 27.4892 132.037 28.3074 132.037 29.24C132.037 30.2903 133.416 30.5817 135.576 31.048C138.034 31.5749 140.824 32.3612 140.824 35.3966C140.824 37.4092 139.025 40.1223 134.765 40.0926C131.647 40.0926 129.457 38.8686 128.198 36.7086V36.7074V36.7086ZM149.456 33.3257L146.938 36.0092V39.8012H143.759V18.5029H146.938V32.4492L153.684 25.2137H157.553L151.705 31.4572L157.704 39.8012H154.105L149.456 33.3257V33.3257ZM82.5846 24.9189C78.8055 24.9189 75.6418 27.3109 75.6418 31.2789V39.8012H78.8803V31.6732C78.8803 29.2812 80.2902 27.8492 82.6875 27.8492C85.0848 27.8492 86.2888 29.2823 86.2888 31.6732V39.8012H89.5273V31.2789C89.5273 27.3109 86.3637 24.9189 82.5846 24.9189V24.9189Z" fill="#03363D"/>
</svg>
