<svg width="170" height="174" viewBox="0 0 170 174" fill="none" xmlns="http://www.w3.org/2000/svg">
<path d="M120.134 83.4004L126.41 106.562L144.326 89.3812L137.257 112.345L162.028 105.8L143.503 122.389L168.518 128.2L143.503 133.984L162.028 150.6L137.257 144.027L144.326 166.991L126.41 149.839L120.134 173L113.888 149.839L95.942 166.991L103.041 144.027L78.2398 150.6L96.7646 133.984L71.75 128.2L96.7646 122.389L78.2398 105.8L103.041 112.345L95.942 89.3812L113.888 106.562L120.134 83.4004Z" stroke="#312E2E" stroke-miterlimit="10" stroke-linejoin="round"/>
<path d="M62.7548 27.4081L17.4531 1L0.999002 29.2262L46.3007 55.6343L62.7548 27.4081Z" fill="#312E2E" stroke="#110C11" stroke-miterlimit="10"/>
<path d="M17.4531 1.00781L29.1276 33.0258L62.7638 27.4198" stroke="#110C11" stroke-miterlimit="10"/>
<path d="M36.3711 31.8125L46.3117 55.643" stroke="#110C11" stroke-miterlimit="10"/>
<path d="M1 29.2308L26.6221 26.1484" stroke="#110C11" stroke-miterlimit="10"/>
</svg>
