<svg width="24" height="24" viewBox="0 0 24 24" fill="none" xmlns="http://www.w3.org/2000/svg">
<g clip-path="url(#clip0_1247_9450)">
<path d="M3.58 21.196H17.839L17.158 18.991L18.787 20.389L20.28 21.727L23 24V2.475C22.932 1.137 21.78 0 20.352 0L3.585 0.003C2.158 0.003 1 1.142 1 2.48V18.72C1 20.131 2.156 21.196 3.58 21.196ZM14.128 5.683L14.095 5.695L14.107 5.683H14.128ZM6.497 6.952C8.33 5.618 10.029 5.682 10.029 5.682L10.166 5.817C7.923 6.352 6.906 7.354 6.906 7.354C6.906 7.354 7.178 7.221 7.653 7.018C10.674 5.83 13.973 5.916 17.027 7.42C17.027 7.42 16.008 6.483 13.903 5.883L14.089 5.7C14.38 5.701 15.92 5.755 17.568 6.96C17.568 6.96 19.412 10.11 19.412 13.98C19.351 13.906 18.268 15.646 15.481 15.706C15.481 15.706 15.009 15.172 14.673 14.706C16.303 14.238 16.913 13.302 16.913 13.302C16.378 13.639 15.89 13.839 15.494 14.039C14.885 14.307 14.275 14.439 13.666 14.574C10.782 15.042 9.163 14.259 7.633 13.638L7.11 13.372C7.11 13.372 7.719 14.308 9.284 14.776C8.873 15.245 8.466 15.778 8.466 15.778C5.68 15.712 4.664 13.972 4.664 13.972C4.664 10.096 6.497 6.952 6.497 6.952Z" fill="#898989"/>
<path d="M14.3056 12.7707C15.0166 12.7707 15.5956 12.1707 15.5956 11.4307C15.5956 10.6957 15.0196 10.0957 14.3056 10.0957V10.0987C13.5976 10.0987 13.0176 10.6967 13.0156 11.4367C13.0156 12.1707 13.5946 12.7707 14.3056 12.7707Z" fill="#898989"/>
<path d="M9.68062 12.7707C10.3916 12.7707 10.9706 12.1707 10.9706 11.4307C10.9706 10.6957 10.3956 10.0957 9.68463 10.0957L9.68062 10.0987C8.96962 10.0987 8.39062 10.6967 8.39062 11.4367C8.39062 12.1707 8.96962 12.7707 9.68062 12.7707Z" fill="#898989"/>
</g>
<defs>
<clipPath id="clip0_1247_9450">
<rect width="24" height="24" fill="white"/>
</clipPath>
</defs>
</svg>
