<svg width="24" height="24" viewBox="0 0 24 24" fill="none" xmlns="http://www.w3.org/2000/svg">
<g clip-path="url(#clip0_1247_9442)">
<path d="M12.0017 5.83789C8.59875 5.83789 5.84375 8.59589 5.84375 11.9959C5.84375 15.3989 8.60175 18.1539 12.0017 18.1539C15.4047 18.1539 18.1597 15.3959 18.1597 11.9959C18.1597 8.59289 15.4017 5.83789 12.0017 5.83789ZM12.0017 15.9929C9.79275 15.9929 8.00475 14.2039 8.00475 11.9959C8.00475 9.78789 9.79375 7.99889 12.0017 7.99889C14.2097 7.99889 15.9987 9.78789 15.9987 11.9959C15.9997 14.2039 14.2107 15.9929 12.0017 15.9929Z" fill="#898989"/>
<path d="M16.9482 0.0753867C14.7402 -0.0276133 9.27123 -0.0226133 7.06123 0.0753867C5.11923 0.166387 3.40623 0.635386 2.02523 2.01639C-0.282773 4.32439 0.0122273 7.43439 0.0122273 11.9954C0.0122273 16.6634 -0.247773 19.7014 2.02523 21.9744C4.34223 24.2904 7.49723 23.9874 12.0042 23.9874C16.6282 23.9874 18.2242 23.9904 19.8592 23.3574C22.0822 22.4944 23.7602 20.5074 23.9242 16.9384C24.0282 14.7294 24.0222 9.26139 23.9242 7.05139C23.7262 2.83839 21.4652 0.283387 16.9482 0.0753867ZM20.4432 20.4474C18.9302 21.9604 16.8312 21.8254 11.9752 21.8254C6.97523 21.8254 4.97023 21.8994 3.50723 20.4324C1.82223 18.7554 2.12723 16.0624 2.12723 11.9794C2.12723 6.45439 1.56023 2.47539 7.10523 2.19139C8.37923 2.14639 8.75423 2.13139 11.9612 2.13139L12.0062 2.16139C17.3352 2.16139 21.5162 1.60339 21.7672 7.14739C21.8242 8.41239 21.8372 8.79239 21.8372 11.9944C21.8362 16.9364 21.9302 18.9534 20.4432 20.4474Z" fill="#898989"/>
<path d="M18.4078 7.03327C19.2025 7.03327 19.8468 6.38901 19.8468 5.59427C19.8468 4.79954 19.2025 4.15527 18.4078 4.15527C17.613 4.15527 16.9688 4.79954 16.9688 5.59427C16.9688 6.38901 17.613 7.03327 18.4078 7.03327Z" fill="#898989"/>
</g>
<defs>
<clipPath id="clip0_1247_9442">
<rect width="24" height="24" fill="white"/>
</clipPath>
</defs>
</svg>
