<svg width="78" height="53" viewBox="0 0 78 53" fill="none" xmlns="http://www.w3.org/2000/svg">
  <g clip-path="url(#clip0_825_14506)">
    <path
      d="M27.0831 21.3384H77.3828V52.6701H27.0831V21.3384Z"
      fill="#110C11"
      stroke="#F9FAFA"
      stroke-width="1.5"
      stroke-miterlimit="10"
    />
    <path
      d="M77.3828 21.3384L52.2265 42.2305L27.0831 21.3384"
      stroke="#F9FAFA"
      stroke-width="1.5"
      stroke-miterlimit="10"
    />
    <g clip-path="rect(#clip1_825_14506)" filter="url(#filter0_b_825_14506)">
      <path
        d="M1.0025 2.92285H52.5312V35.0251H1.0025V2.92285Z"
        fill="url(#paint0_linear_825_14506)"
        fill-opacity="0.8"
      />
      <path
        d="M52.5391 2.66992L26.7703 24.0773L1.00142 2.66992"
        fill="url(#paint1_linear_825_14506)"
        fill-opacity="0.8"
      />
      <path
        d="M52.5391 2.66992L26.7703 24.0773L1.00142 2.66992"
        stroke="#F9FAFA"
        stroke-width="1.5"
        stroke-miterlimit="10"
      />
      <path d="M21.2344 19.4766L0.5 35.1699" stroke="#F9FAFA" stroke-width="1.5" stroke-miterlimit="10" />
      <path d="M53 35.1699L32.3131 19.4766" stroke="#F9FAFA" stroke-width="1.5" stroke-miterlimit="10" />
    </g>
  </g>
  <defs>
    <filter
      id="filter0_b_825_14506"
      x="-2.99805"
      y="-1.33008"
      width="59.5371"
      height="40.355"
      filterUnits="userSpaceOnUse"
      color-interpolation-filters="sRGB"
    >
      <feFlood flood-opacity="0" result="BackgroundImageFix" />
      <feComposite in2="SourceAlpha" operator="in" result="effect1_backgroundBlur_825_14506" />
      <feBlend mode="normal" in="SourceGraphic" in2="effect1_backgroundBlur_825_14506" result="shape" />
    </filter>
    <linearGradient
      id="paint0_linear_825_14506"
      x1="52.5312"
      y1="2.92285"
      x2="7.85193"
      y2="55.7409"
      gradientUnits="userSpaceOnUse"
    >
      <stop stop-color="#4744FD" />
      <stop offset="1" stop-color="#CA6394" />
    </linearGradient>
    <linearGradient
      id="paint1_linear_825_14506"
      x1="52.5391"
      y1="2.66992"
      x2="26.6838"
      y2="48.5127"
      gradientUnits="userSpaceOnUse"
    >
      <stop stop-color="#4744FD" />
      <stop offset="1" stop-color="#CA6394" />
    </linearGradient>
    <clipPath id="clip0_825_14506">
      <rect width="78" height="52" fill="white" transform="matrix(-1 0 0 1 78 0.669922)" />
    </clipPath>
    <clipPath id="clip1_825_14506">
      <rect width="51.5376" height="32.3551" fill="white" transform="matrix(-1 0 0 1 52.5391 2.66992)" />
    </clipPath>
  </defs>
</svg>
