<svg width="24" height="24" viewBox="0 0 24 24" fill="none" xmlns="http://www.w3.org/2000/svg">
<path d="M23.9894 23.9992V23.9982H23.9954V15.1962C23.9954 10.8902 23.0684 7.57324 18.0344 7.57324C15.6144 7.57324 13.9904 8.90124 13.3274 10.1602H13.2574V7.97524H8.48438V23.9982H13.4544V16.0642C13.4544 13.9752 13.8504 11.9552 16.4374 11.9552C18.9864 11.9552 19.0244 14.3392 19.0244 16.1982V23.9992H23.9894Z" fill="#898989"/>
<path d="M0.390625 7.97656H5.36663V23.9996H0.390625V7.97656Z" fill="#898989"/>
<path d="M2.882 0C1.291 0 0 1.291 0 2.882C0 4.473 1.291 5.791 2.882 5.791C4.473 5.791 5.764 4.473 5.764 2.882C5.763 1.291 4.472 0 2.882 0V0Z" fill="#898989"/>
</svg>
