<svg width="420" height="456" viewBox="0 0 420 456" fill="none" xmlns="http://www.w3.org/2000/svg">
<path d="M196.421 136.094H75.3399C75.3399 136.094 75.3398 138.66 75.3398 141.803V257.175C75.3398 257.175 77.9057 257.175 81.0495 257.175H190.711C193.878 257.175 196.421 257.175 196.421 257.175V141.803C196.421 138.66 196.421 136.094 196.421 136.094Z" fill="white" stroke="#110C11" stroke-miterlimit="10" stroke-linecap="round" stroke-linejoin="round"/>
<path d="M184.996 195.711V147.537L86.7768 147.537L86.7768 195.711L184.996 195.711Z" fill="url(#paint0_linear_652_11087)" fill-opacity="0.8"/>
<path d="M285.16 62V0L135.16 0V62L285.16 62Z" fill="#110C11"/>
<g clip-path="url(#clip0_652_11087)">
<path d="M246.746 19.0469V27.121L260.595 32.7295L246.746 38.2916V46.3574L270.156 36.3471V29.0631L246.746 19.0469Z" fill="white"/>
<path d="M151.16 29.0631V36.3471L174.57 46.3621V38.2916L160.721 32.7295L174.57 27.121V19.0469L151.16 29.0631Z" fill="white"/>
<path d="M209.377 50.0165L206.176 41.6865H189.836L186.58 50.0165H178.473L194.477 11H201.485L217.489 50.0165H209.377ZM198.009 20.6081L192.6 34.5311H203.362L198.009 20.6081Z" fill="white"/>
<path d="M237.665 11.0039L221.387 50.0169H229.643L244.796 11.0039H237.665Z" fill="white"/>
</g>
<path d="M164.612 216.076H86.7578V221.508H164.612V216.076Z" fill="#110C11" stroke="#110C11" stroke-miterlimit="10" stroke-linecap="round" stroke-linejoin="round"/>
<path d="M151.528 206.113H86.7578V211.546H151.528V206.113Z" fill="#110C11" stroke="#110C11" stroke-miterlimit="10" stroke-linecap="round" stroke-linejoin="round"/>
<path d="M86.7578 229.598H184.977" stroke="#110C11" stroke-miterlimit="10" stroke-linecap="round" stroke-linejoin="round"/>
<path d="M86.7578 234.982H184.977" stroke="#110C11" stroke-miterlimit="10" stroke-linecap="round" stroke-linejoin="round"/>
<path d="M86.7578 240.371H184.977" stroke="#110C11" stroke-miterlimit="10" stroke-linecap="round" stroke-linejoin="round"/>
<path d="M86.7578 245.756H184.977" stroke="#110C11" stroke-miterlimit="10" stroke-linecap="round" stroke-linejoin="round"/>
<path d="M345.102 136.094H224.022C224.022 136.094 224.021 138.66 224.021 141.803V257.175C224.021 257.175 226.587 257.175 229.731 257.175H339.393C342.56 257.175 345.102 257.175 345.102 257.175V141.803C345.102 138.66 345.102 136.094 345.102 136.094Z" fill="white" stroke="#110C11" stroke-miterlimit="10" stroke-linecap="round" stroke-linejoin="round"/>
<path d="M333.678 195.709V147.535L235.458 147.535V195.709L333.678 195.709Z" fill="#110C11" stroke="#110C11" stroke-miterlimit="10" stroke-linecap="round" stroke-linejoin="round"/>
<path d="M313.296 216.076H235.441V221.508H313.296V216.076Z" fill="#110C11" stroke="#110C11" stroke-miterlimit="10" stroke-linecap="round" stroke-linejoin="round"/>
<path d="M300.212 206.113H235.441V211.546H300.212V206.113Z" fill="#110C11" stroke="#110C11" stroke-miterlimit="10" stroke-linecap="round" stroke-linejoin="round"/>
<path d="M235.441 229.598H333.661" stroke="#110C11" stroke-miterlimit="10" stroke-linecap="round" stroke-linejoin="round"/>
<path d="M235.441 234.982H333.661" stroke="#110C11" stroke-miterlimit="10" stroke-linecap="round" stroke-linejoin="round"/>
<path d="M235.441 240.371H333.661" stroke="#110C11" stroke-miterlimit="10" stroke-linecap="round" stroke-linejoin="round"/>
<path d="M235.441 245.756H333.661" stroke="#110C11" stroke-miterlimit="10" stroke-linecap="round" stroke-linejoin="round"/>
<path d="M122.082 333.918H1C1 333.918 1.00161 336.484 1.00161 339.628V454.999C1.00161 454.999 3.56747 454.999 6.71123 454.999H116.373C119.54 454.999 122.082 454.999 122.082 454.999V339.651C122.082 336.484 122.082 333.918 122.082 333.918Z" fill="white" stroke="#110C11" stroke-miterlimit="10" stroke-linecap="round" stroke-linejoin="round"/>
<path d="M110.641 393.543L110.641 345.369H12.4214L12.4214 393.543H110.641Z" fill="#110C11" stroke="#110C11" stroke-miterlimit="10" stroke-linecap="round" stroke-linejoin="round"/>
<path d="M90.2761 413.922H12.4219V419.354H90.2761V413.922Z" fill="#110C11" stroke="#110C11" stroke-miterlimit="10" stroke-linecap="round" stroke-linejoin="round"/>
<path d="M77.1925 403.936H12.4219V409.368H77.1925V403.936Z" fill="#110C11" stroke="#110C11" stroke-miterlimit="10" stroke-linecap="round" stroke-linejoin="round"/>
<path d="M12.4219 427.422H110.641" stroke="#110C11" stroke-miterlimit="10" stroke-linecap="round" stroke-linejoin="round"/>
<path d="M12.4219 432.807H110.641" stroke="#110C11" stroke-miterlimit="10" stroke-linecap="round" stroke-linejoin="round"/>
<path d="M12.4219 438.195H110.641" stroke="#110C11" stroke-miterlimit="10" stroke-linecap="round" stroke-linejoin="round"/>
<path d="M12.4219 443.58H110.641" stroke="#110C11" stroke-miterlimit="10" stroke-linecap="round" stroke-linejoin="round"/>
<path d="M270.763 333.918H149.682C149.682 333.918 149.682 336.484 149.682 339.628V454.999C149.682 454.999 152.248 454.999 155.391 454.999H265.053C268.22 454.999 270.763 454.999 270.763 454.999V339.651C270.763 336.484 270.763 333.918 270.763 333.918Z" fill="white" stroke="#110C11" stroke-miterlimit="10" stroke-linecap="round" stroke-linejoin="round"/>
<path d="M259.32 393.541V345.367H161.101V393.541H259.32Z" fill="#110C11" stroke="#110C11" stroke-miterlimit="10" stroke-linecap="round" stroke-linejoin="round"/>
<path d="M238.956 413.922H161.102V419.354H238.956V413.922Z" fill="#110C11" stroke="#110C11" stroke-miterlimit="10" stroke-linecap="round" stroke-linejoin="round"/>
<path d="M225.872 403.936H161.102V409.368H225.872V403.936Z" fill="#110C11" stroke="#110C11" stroke-miterlimit="10" stroke-linecap="round" stroke-linejoin="round"/>
<path d="M161.102 427.422H259.321" stroke="#110C11" stroke-miterlimit="10" stroke-linecap="round" stroke-linejoin="round"/>
<path d="M161.102 432.807H259.321" stroke="#110C11" stroke-miterlimit="10" stroke-linecap="round" stroke-linejoin="round"/>
<path d="M161.102 438.195H259.321" stroke="#110C11" stroke-miterlimit="10" stroke-linecap="round" stroke-linejoin="round"/>
<path d="M161.102 443.58H259.321" stroke="#110C11" stroke-miterlimit="10" stroke-linecap="round" stroke-linejoin="round"/>
<path d="M419.444 333.918H298.361C298.361 333.918 298.363 336.484 298.363 339.628V449.289C298.363 452.456 298.363 454.999 298.363 454.999H413.734C416.901 454.999 419.444 454.999 419.444 454.999V339.651C419.444 336.484 419.444 333.918 419.444 333.918Z" fill="white" stroke="#110C11" stroke-miterlimit="10" stroke-linecap="round" stroke-linejoin="round"/>
<path d="M408.004 393.541V345.367H309.785V393.541H408.004Z" fill="#110C11" stroke="#110C11" stroke-miterlimit="10" stroke-linecap="round" stroke-linejoin="round"/>
<path d="M387.635 413.922H309.781V419.354H387.635V413.922Z" fill="#110C11" stroke="#110C11" stroke-miterlimit="10" stroke-linecap="round" stroke-linejoin="round"/>
<path d="M374.552 403.936H309.781V409.368H374.552V403.936Z" fill="#110C11" stroke="#110C11" stroke-miterlimit="10" stroke-linecap="round" stroke-linejoin="round"/>
<path d="M309.781 427.422H408.001" stroke="#110C11" stroke-miterlimit="10" stroke-linecap="round" stroke-linejoin="round"/>
<path d="M309.781 432.807H408.001" stroke="#110C11" stroke-miterlimit="10" stroke-linecap="round" stroke-linejoin="round"/>
<path d="M309.781 438.195H408.001" stroke="#110C11" stroke-miterlimit="10" stroke-linecap="round" stroke-linejoin="round"/>
<path d="M309.781 443.58H408.001" stroke="#110C11" stroke-miterlimit="10" stroke-linecap="round" stroke-linejoin="round"/>
<path d="M210.22 101.419C212.263 101.419 213.919 99.7627 213.919 97.72C213.919 95.6774 212.263 94.0215 210.22 94.0215C208.177 94.0215 206.521 95.6774 206.521 97.72C206.521 99.7627 208.177 101.419 210.22 101.419Z" fill="white" stroke="#110C11" stroke-miterlimit="10" stroke-linecap="round" stroke-linejoin="round"/>
<path d="M284.562 299.245C286.604 299.245 288.26 297.589 288.26 295.546C288.26 293.504 286.604 291.848 284.562 291.848C282.519 291.848 280.863 293.504 280.863 295.546C280.863 297.589 282.519 299.245 284.562 299.245Z" fill="white" stroke="#110C11" stroke-miterlimit="10" stroke-linecap="round" stroke-linejoin="round"/>
<path d="M210.22 299.245C212.263 299.245 213.919 297.589 213.919 295.546C213.919 293.504 212.263 291.848 210.22 291.848C208.177 291.848 206.521 293.504 206.521 295.546C206.521 297.589 208.177 299.245 210.22 299.245Z" fill="white" stroke="#110C11" stroke-miterlimit="10" stroke-linecap="round" stroke-linejoin="round"/>
<path d="M135.88 299.245C137.923 299.245 139.579 297.589 139.579 295.546C139.579 293.504 137.923 291.848 135.88 291.848C133.838 291.848 132.182 293.504 132.182 295.546C132.182 297.589 133.838 299.245 135.88 299.245Z" fill="white" stroke="#110C11" stroke-miterlimit="10" stroke-linecap="round" stroke-linejoin="round"/>
<path d="M210.221 62.2363V92.4256" stroke="#110C11" stroke-miterlimit="10" stroke-linecap="round" stroke-linejoin="round"/>
<path d="M284.562 260.225V290.414" stroke="#110C11" stroke-miterlimit="10" stroke-linecap="round" stroke-linejoin="round"/>
<path d="M135.881 260.225V290.414" stroke="#110C11" stroke-miterlimit="10" stroke-linecap="round" stroke-linejoin="round"/>
<path d="M210.221 302.133V332.322" stroke="#110C11" stroke-miterlimit="10" stroke-linecap="round" stroke-linejoin="round"/>
<path d="M216.947 97.7207H278.852C282.018 97.7207 284.561 100.287 284.561 103.43V134.475" stroke="#110C11" stroke-miterlimit="10" stroke-linecap="round" stroke-linejoin="round"/>
<path d="M203.495 97.7207H141.59C138.424 97.7207 135.881 100.287 135.881 103.43V134.475" stroke="#110C11" stroke-miterlimit="10" stroke-linecap="round" stroke-linejoin="round"/>
<path d="M291.287 295.547H353.191C356.358 295.547 358.901 298.113 358.901 301.257V332.301" stroke="#110C11" stroke-miterlimit="10" stroke-linecap="round" stroke-linejoin="round"/>
<path d="M129.153 295.547H67.2487C64.0818 295.547 61.5391 298.113 61.5391 301.257V332.301" stroke="#110C11" stroke-miterlimit="10" stroke-linecap="round" stroke-linejoin="round"/>
<path d="M215.838 295.547H278.921" stroke="#110C11" stroke-miterlimit="10" stroke-linecap="round" stroke-linejoin="round"/>
<path d="M141.799 295.547H204.882" stroke="#110C11" stroke-miterlimit="10" stroke-linecap="round" stroke-linejoin="round"/>
<defs>
<linearGradient id="paint0_linear_652_11087" x1="184.996" y1="147.537" x2="152.997" y2="236.122" gradientUnits="userSpaceOnUse">
<stop stop-color="#4744FD"/>
<stop offset="1" stop-color="#CA6394"/>
</linearGradient>
<clipPath id="clip0_652_11087">
<rect width="119" height="39.0165" fill="white" transform="translate(151.16 11)"/>
</clipPath>
</defs>
</svg>
