<svg width="24" height="24" viewBox="0 0 24 24" fill="none" xmlns="http://www.w3.org/2000/svg">
<g clip-path="url(#clip0_1247_9427)">
<path d="M8.84913 12.6504C7.45713 12.6504 6.32812 13.7794 6.32812 15.1714V21.4774C6.32812 22.8694 7.45713 23.9984 8.84913 23.9984C10.2411 23.9984 11.3701 22.8694 11.3701 21.4774V15.1714C11.3691 13.7794 10.2401 12.6504 8.84913 12.6504Z" fill="#898989"/>
<path d="M0.015625 15.1714C0.015625 16.5644 1.14562 17.6944 2.53862 17.6944C3.93162 17.6944 5.06162 16.5644 5.06162 15.1714V12.6484H2.54062C2.53962 12.6484 2.53962 12.6484 2.53862 12.6484C1.14562 12.6484 0.015625 13.7784 0.015625 15.1714Z" fill="#898989"/>
<path d="M8.84631 -0.000976562C8.84531 -0.000976562 8.84431 -0.000976562 8.84331 -0.000976562C7.45031 -0.000976562 6.32031 1.12902 6.32031 2.52202C6.32031 3.91502 7.45031 5.04502 8.84331 5.04502H11.3643C11.3643 3.61402 11.3643 3.96202 11.3643 2.51702C11.3633 1.12602 10.2363 -0.000976562 8.84631 -0.000976562Z" fill="#898989"/>
<path d="M2.523 11.3702H8.841C10.234 11.3702 11.364 10.2402 11.364 8.84722C11.364 7.45422 10.234 6.32422 8.841 6.32422H2.523C1.13 6.32422 0 7.45422 0 8.84722C0 10.2402 1.13 11.3702 2.523 11.3702Z" fill="#898989"/>
<path d="M21.4555 6.32227C20.0645 6.32227 18.9375 7.44927 18.9375 8.84027V8.84527V11.3683H21.4585C22.8515 11.3683 23.9815 10.2383 23.9815 8.84527C23.9815 7.45227 22.8515 6.32227 21.4585 6.32227C21.4575 6.32227 21.4565 6.32227 21.4555 6.32227Z" fill="#898989"/>
<path d="M12.6406 2.52198V8.84698C12.6406 10.239 13.7696 11.368 15.1616 11.368C16.5536 11.368 17.6826 10.239 17.6826 8.84698V2.52198C17.6826 1.12998 16.5536 0.000976562 15.1616 0.000976562C13.7696 0.000976562 12.6406 1.12998 12.6406 2.52198Z" fill="#898989"/>
<path d="M17.6826 21.4761C17.6826 20.0841 16.5536 18.9551 15.1616 18.9551H12.6406V21.4781C12.6416 22.8691 13.7696 23.9971 15.1616 23.9971C16.5536 23.9971 17.6826 22.8681 17.6826 21.4761Z" fill="#898989"/>
<path d="M21.4816 12.6484H15.1636C13.7706 12.6484 12.6406 13.7784 12.6406 15.1714C12.6406 16.5644 13.7706 17.6944 15.1636 17.6944H21.4816C22.8746 17.6944 24.0046 16.5644 24.0046 15.1714C24.0046 13.7784 22.8746 12.6484 21.4816 12.6484Z" fill="#898989"/>
</g>
<defs>
<clipPath id="clip0_1247_9427">
<rect width="24" height="24" fill="white"/>
</clipPath>
</defs>
</svg>
