<svg width="24" height="24" viewBox="0 0 24 24" fill="none" xmlns="http://www.w3.org/2000/svg">
<path d="M20.7783 19.6845C21.6903 19.5415 23.5773 19.2115 23.9383 18.3805C24.1203 17.9525 23.8603 17.6045 23.5283 17.5515V17.5505C20.3203 17.0225 18.8743 13.7365 18.8153 13.5965C17.9263 12.0025 20.3393 12.2705 21.2883 11.2985C22.2143 10.3455 20.7293 9.31353 19.8003 9.75153C19.4193 9.93053 18.8483 10.1385 18.4683 9.96453C18.5583 8.45553 18.8073 5.95353 18.1963 4.58753C16.1413 -0.0154682 10.0813 -0.181468 7.26535 2.49053C5.04635 4.59453 5.31835 6.75753 5.52635 9.96453C4.83635 10.2655 4.15435 9.66753 3.65735 9.66753C3.13535 9.66753 2.52835 10.0065 2.43035 10.5175C2.30635 11.1885 3.03535 11.6205 3.66635 11.8695C4.74135 12.2915 5.76335 12.4165 5.19635 13.5685C5.19135 13.5775 5.18735 13.5865 5.18435 13.5955C4.38135 15.4295 2.62835 17.1925 0.47035 17.5485C0.12235 17.6055 -0.115649 17.9725 0.0583505 18.3775V18.3795C0.41535 19.2115 2.32035 19.5445 3.21935 19.6845C3.49735 20.2045 3.28435 21.2315 4.14535 21.2315C4.48035 21.2315 5.12835 21.0125 5.95535 21.0125C7.16035 21.0125 7.57135 21.2755 8.53735 21.9575C9.52935 22.6585 10.6193 23.3435 11.9743 23.2445C13.3853 23.3325 14.4333 22.6835 15.4613 21.9595L15.4623 21.9575C16.4643 21.2525 17.1803 20.7315 19.3023 21.1485C20.8723 21.4525 20.4143 20.3895 20.7783 19.6845Z" fill="#898989"/>
</svg>
