<svg width="24" height="24" viewBox="0 0 24 24" fill="none" xmlns="http://www.w3.org/2000/svg">
<g clip-path="url(#clip0_1247_9421)">
<path d="M23.4693 5.92901L23.4993 6.12501C23.2093 5.09601 22.4263 4.30201 21.4313 4.01301L21.4103 4.00801C19.5393 3.50001 12.0103 3.50001 12.0103 3.50001C12.0103 3.50001 4.50029 3.49001 2.61029 4.00801C1.59629 4.30201 0.812294 5.09601 0.527294 6.10401L0.522294 6.12501C-0.176706 9.77601 -0.181706 14.163 0.553294 18.072L0.522294 17.874C0.812294 18.903 1.59529 19.697 2.59029 19.986L2.61129 19.991C4.48029 20.5 12.0113 20.5 12.0113 20.5C12.0113 20.5 19.5203 20.5 21.4113 19.991C22.4263 19.697 23.2103 18.903 23.4953 17.895L23.5003 17.874C23.8183 16.176 24.0003 14.222 24.0003 12.226C24.0003 12.153 24.0003 12.079 23.9993 12.005C24.0003 11.937 24.0003 11.856 24.0003 11.775C24.0003 9.77801 23.8183 7.82401 23.4693 5.92901ZM9.60829 15.651V8.35801L15.8743 12.01L9.60829 15.651Z" fill="#898989"/>
</g>
<defs>
<clipPath id="clip0_1247_9421">
<rect width="24" height="24" fill="white"/>
</clipPath>
</defs>
</svg>
